<svg xmlns="http://www.w3.org/2000/svg" width="210.833" height="315" viewBox="0 0 210.833 315"><g><path fill="#C9CACA" stroke="#fff" stroke-width=".3" stroke-miterlimit="10" d="M156.886 272.337c-3.832-9.48-51.237-39.895-57.614-37.947l-8.869 2.708s-10.573-12.744-20.754-12.876l-1.252-.018c-3.477 2.031-25.814 15.269-28.703 21.79 0 0-4.502 10.01-6.265 11.381 0 0-.587 12.334 1.958 13.705 0 0 6.853 1.371 7.245 8.419 0 0 18.599 27.801 22.515 28.781.573.143.99.258 1.308.355.324-.836 1.328-2.424 3.89-.031.154.143.314.301.48.475 3.719 3.899 2.544-9.022 8.614-5.107 0 0 3.916 1.958 1.958-3.719l-6.853-17.425s7.636 3.916 11.16 4.503l3.525.587s-3.134 9.985.783 15.663c3.915 5.679 1.27-6.558 2.692-5.187 1.422 1.37 2.203 8.907 3.182 5.97.979-2.936 3.981-3.915 4.438-1.566.457 2.349 5.782 3.133 5.371-1.958-.411-5.09 0-.979 0-.979l.022-10.964 2.831.587s2.229 15.662 7.119 18.208l1.224.637.027-.006-.082-.042s2.546-5.483 3.72-2.35c1.175 3.133 2.644 3.916 2.986 1.567.343-2.351 4.254-4.7 3.67-2.742-.586 1.958 2.855 4.504 3.19 1.567.335-2.938 3.204-14.88 3.204-14.88l7.369.587-1.823 14.292s1.57-2.154 2.745-1.371l1.174.784c.588-1.371 3.022-3.133 3.077-2.154.027.458.028 1.68.022 2.579.459-3.302 14.483-24.498 10.716-33.823z"/><linearGradient id="a" gradientUnits="userSpaceOnUse" x1="87.518" y1="296.848" x2="105.817" y2="296.848"><stop offset="0" stop-color="#9FA0A0"/><stop offset=".995" stop-color="#B5B5B6"/></linearGradient><path fill="url(#a)" stroke="#fff" stroke-width=".3" stroke-miterlimit="10" d="M89.229 287.917l16.487.979s.518 14.18-.786 14.921c-1.305.743-4.183 1.96-5.079-1.978 0 0-2.464.77-2.725 2.757-.255 1.939-3.369 1.653-3.608-2.06l-.012-.272c-.1-3.971-1.127-.64-1.119.402.009 1.043.823 6.004-3.157.13-.001.001-3.853-7.178-.001-14.879z"/><path fill="#9FA0A0" d="M90.619 237.098l.027 11.416 5.495-2.52 4.138-12.162v.504z"/><linearGradient id="b" gradientUnits="userSpaceOnUse" x1="40.503" y1="241.921" x2="58.368" y2="241.921"><stop offset="0" stop-color="#9FA0A0"/><stop offset=".995" stop-color="#B5B5B6"/></linearGradient><path fill="url(#b)" d="M40.503 249.915l2.781-11.366 10.034-4.622 5.05 8.533-7.653 7.455-5.994-3.185 2.48-5.462 3.514-.763 1.576 2.594-2.856 3.373-1.713-2.495 2.22-1.517"/><linearGradient id="c" gradientUnits="userSpaceOnUse" x1="34.821" y1="259.182" x2="66.592" y2="259.182"><stop offset="0" stop-color="#9FA0A0"/><stop offset=".995" stop-color="#B5B5B6"/></linearGradient><path fill="url(#c)" d="M47.327 262.357l7.201 2.861-1.401-10.233-10.245 2.821-.848 11.336 5.046 1.688 16.767 5.611s4.023-27.53 2.33-33.121c-1.695-5.591-26.516 7.373-26.516 7.373s-4.191 8.279-4.827 8.172c0 0-.273 13 1.769 14.547 2.042 1.547.348.277.348.277s3.9 1.407 5.044 2.752"/><path fill="#898989" stroke="#EFEFEF" stroke-width=".4" stroke-miterlimit="10" d="M40.05 273.625c-1.058-1.243-4.663-2.545-4.663-2.545s1.566 1.175-.322-.255c-1.889-1.431-1.637-13.45-1.637-13.45.587.098 4.463-7.555 4.463-7.555s22.948-11.986 24.514-6.816c1.566 5.169-2.153 30.621-2.153 30.621l-15.501-5.188-4.666-1.561.784-10.481 9.471-2.607 1.297 9.46-6.657-2.645 1.763-2.937 1.36 1.515"/><path fill="#fff" stroke="#727171" stroke-width=".5" stroke-miterlimit="10" d="M37.892 250.998l2.782-11.367 10.032-4.622 5.05 8.534-7.653 7.455-5.993-3.185 2.48-5.463 3.513-.763 1.577 2.595-2.856 3.373-1.713-2.495 2.22-1.517"/><path fill="#B5B5B6" d="M100.062 234.336s-7.467 12.466-8.884 12.501c-1.418.035.026 6.208 2.338 7.695 2.311 1.487 6.745 9.01 8.607 10.838 1.861 1.831 11.127 2.451 12.875 2.75 1.749.299-.239 5.44 6.194 5.817 6.432.377 9.047-1.596 14.747 0 5.701 1.597 18 4.887 20.88 1.19 2.881-3.696-1.253-5.895-1.253-5.895l-55.504-34.896z"/><path fill="#C9CACA" stroke="#fff" stroke-width=".3" stroke-miterlimit="10" d="M118.335 203.272s-2.087-14.88-16.967-6.265c0 0-4.961 6.005-3.394 13.835 0 0-1.305 5.222 5.743 5.483l1.827 2.61s-9.137 9.399-5.482 15.402c0 0 1.476 10.703-2.394 11.748 0 0-.477 5.221 2.394 6.527 0 0 6.266 11.747 16.186 10.702 0 0 4.96.783 5.482 2.872 0 0 1.566 6.266 12.791 2.872 0 0 26.105 6.976 25.061 1.008 0 0 1.306-5.707 2.872-4.141 1.567 1.567 4.178-13.313 3.133-15.402-1.045-2.088.24-1.827.24-1.827s.241-4.438 0-7.57c0 0 1.066-8.615 2.893-9.137 1.827-.522 0-2.611 0-2.611s5.742-8.353 6.004-13.834c.261-5.482 1.045 0 1.045 0s1.305-6.266-8.354-3.394c0 0-23.25-15.141-30.681-14.881-.002-.002-3.78-1.567-18.399 6.003z"/><path fill="#9FA0A0" d="M152.936 227.803s6.182 2.776 8.089 5.628c0 0 2.85 2.554 4.256 2.359 0 0 4.056 1.682-4.004 1.231 0 0-4.807-.526-5.678-2.611 0 0-.733-1.507-1.359-.625 0 0 .494 2.345-3.078-.667 0 0-1.364.381-1.826-1.477-.462-1.859-.941-2.409-1.756-2.784-.816-.374 3.098-2.499 5.356-1.054zM138.147 223.381s-9.979-.091-14.287 2.553c0 0-5.384 1.665-7.146.539 0 0-6.46-.245 4.601 4.111 0 0 6.755 2.251 9.203 0 0 0 1.909-1.567 2.202 0 0 0-2.103 2.833 4.529 1.001 0 0 1.589 1.348 3.352-.854 1.762-2.203 2.741-2.643 4.063-2.643s-2.607-5.252-6.517-4.707z"/><linearGradient id="d" gradientUnits="userSpaceOnUse" x1="129.365" y1="231.044" x2="129.365" y2="222.184"><stop offset="0" stop-color="#E6E6E6"/><stop offset=".995" stop-color="#DCDDDD"/></linearGradient><path fill="url(#d)" stroke="#fff" stroke-width=".3" stroke-miterlimit="10" d="M137.63 222.224s-9.979-.091-14.286 2.552c0 0-5.385 1.664-7.146.539 0 0-6.46-.244 4.601 4.111 0 0 6.755 2.252 9.203 0 0 0 1.908-1.566 2.202 0 0 0-2.103 2.833 4.529 1.001 0 0 1.59 1.348 3.352-.854 1.762-2.202 2.742-2.643 4.063-2.643 1.32 0-2.607-5.252-6.518-4.706z"/><linearGradient id="e" gradientUnits="userSpaceOnUse" x1="157.534" y1="236.345" x2="157.534" y2="226.552"><stop offset="0" stop-color="#E6E6E6"/><stop offset=".995" stop-color="#DCDDDD"/></linearGradient><path fill="url(#e)" stroke="#fff" stroke-width=".3" stroke-miterlimit="10" d="M153.583 227.05s6.182 2.776 8.09 5.627c0 0 2.85 2.554 4.256 2.36 0 0 4.055 1.682-4.006 1.231 0 0-4.806-.526-5.677-2.611 0 0-.733-1.507-1.36-.625 0 0 .495 2.345-3.078-.668 0 0-1.363.382-1.825-1.477-.463-1.859-.941-2.408-1.756-2.783-.814-.375 3.099-2.5 5.356-1.054z"/><ellipse fill="#595757" cx="124.072" cy="216.107" rx="6.328" ry="6.438"/><ellipse fill="#595757" cx="161.204" cy="220.125" rx="3.67" ry="4.097"/><path fill="#727171" d="M154.099 216.586s-5.091-7.309-16.837-.522c0 0-4.177 5.612 7.44 12.27 0 0 12.921 6.003 12.79-3.394 0-.001-.893-4.815-3.393-8.354z"/><path fill="#484649" d="M153.849 216.325s-4.556-6.54-15.065-.467c0 0-3.736 5.021 6.656 10.977 0 0 11.561 5.372 11.445-3.036.001 0-.8-4.307-3.036-7.474z"/><linearGradient id="f" gradientUnits="userSpaceOnUse" x1="120.902" y1="233.823" x2="166.312" y2="273.057"><stop offset="0" stop-color="#9FA0A0"/><stop offset=".995" stop-color="#B5B5B6"/></linearGradient><path fill="url(#f)" d="M108.546 242.817s16.577 12.012 21.928 15.014c5.352 3.001 30.859.486 33.104-2.566 2.245-3.052.931-3.438.931-3.438s-15.025 5.687-26.376 4.698c0 0-29.065-12.405-29.587-13.708z"/><ellipse fill="#727171" stroke="#fff" stroke-width=".3" stroke-miterlimit="10" cx="125.319" cy="215.843" rx="6.07" ry="6.174"/><ellipse transform="matrix(-.992 .13 -.13 -.992 348.305 416.392)" fill="#727171" stroke="#fff" stroke-width=".3" stroke-miterlimit="10" cx="160.529" cy="219.592" rx="3.035" ry="3.76"/><ellipse transform="matrix(-.991 .131 -.131 -.991 348.072 417.432)" fill="#9FA0A0" cx="160.353" cy="220.125" rx="2.051" ry="2.542"/><path fill="#9FA0A0" d="M125.319 212.678s-7.246 2.946-2.546 6.27c4.699 3.324 6.786-2.926 6.265-3.75 0 0-.652-2.977-3.719-2.52z"/><ellipse fill="#DCDDDD" cx="124.666" cy="216.398" rx="1.958" ry="1.566"/><ellipse fill="#DCDDDD" cx="160.234" cy="220.569" rx="1.37" ry=".976"/><path fill="#595757" d="M138.145 218.543s-.918 8.443 13.808 10.776c0 0 4.25.017 4.616-3.072-.001 0-6.037 3.71-18.424-7.704z"/><path fill="#C9CACA" d="M152.173 216.917s-1.414-2.713-5.162-1.929c0 0 2.42 3.348 4.085 2.604 1.666-.745 1.077-.675 1.077-.675zM152.274 217.369s-1.276 1.109-1.014 1.305c.261.196 1.828.597 1.99.918.164.322.066-1.505-.847-2.223"/><path fill="#727171" d="M162.415 243.767s-3.458-1.468-12.771.685c0 0-22.236.587-27.914-8.713 0 0-6.271-8.845-13.835-3.295 0 0-.522 1.567.326 2.088 0 0 1.827 3.395 1.631 4.7 0 0-.653-.065 5.612 3.132 6.266 3.197 10.572 7.276 15.467 8.647 0 0 30.336 8.908 36.019-5.189 0 0 .125-2.544-4.535-2.055z"/><path fill="#595757" d="M160.389 244.183s-3.14-1.28-11.603.598c0 0-20.199.512-25.357-7.598 0 0-5.697-7.712-12.568-2.873 0 0-.474 1.366.297 1.821 0 0 1.66 2.959 1.482 4.097 0 0-.593-.057 5.097 2.732 5.692 2.787 9.604 6.343 14.051 7.539 0 0 27.557 7.767 32.72-4.523.001 0 .115-2.22-4.119-1.793z"/><linearGradient id="g" gradientUnits="userSpaceOnUse" x1="157.131" y1="253.84" x2="164.161" y2="241.664"><stop offset="0" stop-color="#9FA0A0"/><stop offset=".995" stop-color="#F7F8F8"/></linearGradient><path fill="url(#g)" d="M164.062 242.849s-.375-3.673-3.408-.811c0 0-2.506 10.643-1.052 13.227 0 0 4.237-8.063 4.46-12.416z"/><linearGradient id="h" gradientUnits="userSpaceOnUse" x1="110.425" y1="245.038" x2="118.565" y2="230.939"><stop offset="0" stop-color="#9FA0A0"/><stop offset=".995" stop-color="#F7F8F8"/></linearGradient><path fill="url(#h)" d="M118.665 232.39s-.424-4.202-4.104-.903c0 0-3.103 12.202-1.368 15.148-.001 0 5.172-9.261 5.472-14.245z"/><path fill="#F7F8F8" d="M120.729 234.39l-1.479 3.861 4.291-1.436c-.001 0-.38-1.659-2.812-2.425zM124.316 238.454l-1.344 3.911 4.238-1.585c0-.001-.439-1.648-2.894-2.326zM128.425 240.947l-.428 4.112 3.771-2.499c0 .001-.797-1.504-3.343-1.613zM133.604 242.957l.644 4.085 3.002-3.385c-.001 0-1.158-1.25-3.646-.7zM139.15 244.021l.645 4.085 3.001-3.385s-1.158-1.249-3.646-.7zM144.301 244.496l.981 4.018 2.709-3.623c.001 0-1.255-1.149-3.69-.395zM148.958 244.403l1.676 3.781 2.027-4.044c.001-.001-1.439-.91-3.703.263zM153.891 243.901l2.126 3.547 1.517-4.262s-1.541-.725-3.643.715z"/><linearGradient id="i" gradientUnits="userSpaceOnUse" x1="101.551" y1="200.784" x2="114.467" y2="211.943"><stop offset="0" stop-color="#9FA0A0"/><stop offset=".995" stop-color="#B5B5B6"/></linearGradient><path fill="url(#i)" d="M101.171 199.715s-4.699 11.356.685 14.586c5.384 3.23 7.717-4.895 10.809-6.853 3.092-1.958 4.669-5.482 3-6.852 0 .001-4.802-10.082-14.494-.881z"/><linearGradient id="j" gradientUnits="userSpaceOnUse" x1="167.83" y1="214.065" x2="175.86" y2="221.004"><stop offset="0" stop-color="#9FA0A0"/><stop offset=".995" stop-color="#B5B5B6"/></linearGradient><path fill="url(#j)" d="M167.788 213.176s3.133 5.904 2.594 7.725c-.539 1.82 1.126 2.559 2.203-.332 1.077-2.89 2.056-5.974 1.566-6.806 0 0-.538-2.055-6.363-.587z"/><linearGradient id="k" gradientUnits="userSpaceOnUse" x1="131.103" y1="198.643" x2="162.91" y2="226.124"><stop offset="0" stop-color="#9FA0A0"/><stop offset=".995" stop-color="#B5B5B6"/></linearGradient><path opacity=".5" fill="url(#k)" d="M122.972 204.338s3.84 1.567 5.216 3.134c1.375 1.565 15.733 2.979 15.733 2.979s6.122-1.883 9.005 2.198c0 0 7.604-1.898 8.958-.013 0 0-8.322-8.688-22.606-13.386.001-.001-9.975-.133-16.306 5.088z"/><path fill="#727171" d="M108.546 244.239s16.577 12.012 21.928 15.015c5.352 3.001 30.859.486 33.104-2.567 2.245-3.051.931-3.437.931-3.437s-15.025 5.686-26.376 4.699c0-.001-29.065-12.408-29.587-13.71z"/><linearGradient id="l" gradientUnits="userSpaceOnUse" x1="100.323" y1="236.011" x2="105.693" y2="236.011"><stop offset="0" stop-color="#9FA0A0"/><stop offset=".995" stop-color="#B5B5B6"/></linearGradient><path opacity=".5" fill="url(#l)" d="M100.323 232.202s2.874 2.536 4.402 3.256c.286.134.523.205.688.185 1.045-.131-1.174 4.177-1.174 4.177l-2.871-1.568c0-.001-.915-5.184-1.045-6.05z"/><path opacity=".6" fill="#B5B5B6" d="M144.301 230.223s-2.211 4.612-3.907 4.167c-1.696-.444-.262 5.696 0 6.02.261.324.579 2.594.579 2.594h3.953l3.192-8.614s-1.175-.739-1.106-2.941c.07-2.203-2.711-1.226-2.711-1.226z"/><linearGradient id="m" gradientUnits="userSpaceOnUse" x1="141.387" y1="204.749" x2="161.885" y2="204.749"><stop offset="0" stop-color="#9FA0A0"/><stop offset=".995" stop-color="#B5B5B6"/></linearGradient><path fill="url(#m)" d="M151.388 207.434l-.586-3.075 3.979.859 1.891 4.976-9.98-2.885 1.081-6.244 13.016 2.39 1.096 7.845-16.524-.414-3.974-12.689 3.275 1.315"/><path fill="#fff" stroke="#727171" stroke-width=".5" stroke-miterlimit="10" d="M152.749 204.669l-.132-2.6 3.729.185 1.126 4.075-9.254-1.103 1.559-4.518.374-1.083 12.264.239-1.283 9.058-14.71-.386-2.05-10.508 5.271 2.305"/><linearGradient id="n" gradientUnits="userSpaceOnUse" x1="70.237" y1="239.33" x2="77.874" y2="239.33"><stop offset="0" stop-color="#9FA0A0"/><stop offset=".995" stop-color="#B5B5B6"/></linearGradient><ellipse fill="url(#n)" cx="74.055" cy="239.33" rx="3.818" ry="1.079"/><linearGradient id="o" gradientUnits="userSpaceOnUse" x1="61.329" y1="236.32" x2="68.965" y2="236.32"><stop offset="0" stop-color="#9FA0A0"/><stop offset=".995" stop-color="#B5B5B6"/></linearGradient><ellipse fill="url(#o)" cx="65.147" cy="236.32" rx="3.818" ry="1.08"/><linearGradient id="p" gradientUnits="userSpaceOnUse" x1="72.488" y1="233.401" x2="80.124" y2="233.401"><stop offset="0" stop-color="#9FA0A0"/><stop offset=".995" stop-color="#B5B5B6"/></linearGradient><ellipse fill="url(#p)" cx="76.306" cy="233.401" rx="3.818" ry="1.08"/><linearGradient id="q" gradientUnits="userSpaceOnUse" x1="80.124" y1="239.33" x2="87.76" y2="239.33"><stop offset="0" stop-color="#9FA0A0"/><stop offset=".995" stop-color="#B5B5B6"/></linearGradient><ellipse fill="url(#q)" cx="83.942" cy="239.33" rx="3.818" ry="1.079"/><linearGradient id="r" gradientUnits="userSpaceOnUse" x1="78.166" y1="248.514" x2="85.802" y2="248.514"><stop offset="0" stop-color="#9FA0A0"/><stop offset=".995" stop-color="#B5B5B6"/></linearGradient><ellipse fill="url(#r)" cx="81.984" cy="248.514" rx="3.818" ry="1.079"/><linearGradient id="s" gradientUnits="userSpaceOnUse" x1="68.67" y1="255.266" x2="76.307" y2="255.266"><stop offset="0" stop-color="#9FA0A0"/><stop offset=".995" stop-color="#B5B5B6"/></linearGradient><ellipse fill="url(#s)" cx="72.489" cy="255.265" rx="3.818" ry="1.08"/><linearGradient id="t" gradientUnits="userSpaceOnUse" x1="78.166" y1="257.667" x2="85.802" y2="257.667"><stop offset="0" stop-color="#9FA0A0"/><stop offset=".995" stop-color="#B5B5B6"/></linearGradient><ellipse fill="url(#t)" cx="81.984" cy="257.667" rx="3.818" ry="1.08"/><linearGradient id="u" gradientUnits="userSpaceOnUse" x1="81.984" y1="252.92" x2="89.62" y2="252.92"><stop offset="0" stop-color="#9FA0A0"/><stop offset=".995" stop-color="#B5B5B6"/></linearGradient><ellipse fill="url(#u)" cx="85.802" cy="252.92" rx="3.818" ry="1.079"/><linearGradient id="v" gradientUnits="userSpaceOnUse" x1="74.055" y1="244.114" x2="81.984" y2="244.114"><stop offset="0" stop-color="#9FA0A0"/><stop offset=".995" stop-color="#B5B5B6"/></linearGradient><ellipse fill="url(#v)" cx="78.02" cy="244.114" rx="3.965" ry="1.111"/><linearGradient id="w" gradientUnits="userSpaceOnUse" x1="68.279" y1="249.214" x2="74.055" y2="249.214"><stop offset="0" stop-color="#9FA0A0"/><stop offset=".995" stop-color="#B5B5B6"/></linearGradient><ellipse fill="url(#w)" cx="71.167" cy="249.215" rx="2.888" ry=".7"/></g></svg>