<svg xmlns="http://www.w3.org/2000/svg" width="210.833" height="315" viewBox="0 0 210.833 315"><g><path fill="#3A210C" d="M72.412 95.89s-33.568-9.458-26.894-25.216c0 0 13.65-16.74 65.591 13.115 0 0-15.346-5.71-28.206 2.148 0 0-3.467 8.377-3.67 14.061-.203 5.683-6.821-4.108-6.821-4.108z"/><path fill="#54381A" d="M76.241 66.931s-2.791-26.543 6.672-26.688c0 0 7.8-4.199 23.209-1.304 0 0 13.533-10.112 24.445-6.129 0 0 5.292 3.268 6.599 7.689 1.306 4.422.389 1.083.389 1.083s5.991 19.849 8.071 20.588c2.079.739-1.395 6.837-1.395 6.837l-50.836 8.793-17.154-10.869z"/><path opacity=".3" fill="#040000" d="M75.986 68.859s.354-22.362 9.036-22.657c0 0 7.228-3.802 21.308-1.549 0 0 12.591-9.065 22.528-5.782 0 0 4.796 2.759 5.916 6.596 1.12 3.836 4.398 1.242 4.398 1.242s4.56 14.851 6.455 15.459c1.894.609-4.877 8.058-4.877 8.058l-46.778 8.574-17.986-9.941z"/><path fill="#54381A" d="M142.647 56.783l7.855 18.261s-4.879 4.909-31.221 5.392c0 0-5.497-.106-6.713-.331-1.217-.225.936 2.734.936 2.734s31.88 15.203 57.505-4.027c0 0 21.121-14.921-5.336-23.114.001 0-14.239-2.157-23.026 1.085z"/><path fill="#1D1006" d="M55.739 66.319s18.989-3.496 38.351 5.804c0 0 37.085 23.89 65.488 13.047 0 0-34.281 9.427-66.182-7.371 0 0-33.79-12.886-37.657-11.48z"/><path fill="#0E0E0D" d="M145.846 62.649c-3.879 7.518-51.756 9.474-51.756 9.474 5.406 4.606 12.89 7.741 16.833 9.19 1.199.179 2.549.384 4.092.619 25.693 3.924 36.871-6.175 36.871-6.175 1.661-4.079-6.04-13.108-6.04-13.108z"/><path opacity=".4" fill="#040000" d="M94.221 82.063s-35.831-13.8-39.347-7.699c0 0-5.808 11.213 24.624 22.577 0 0 .199-12.092 14.723-14.878z"/><path opacity=".2" fill="#040000" d="M101.36 81.456s13.807 8.988 27.25 12.865c11.008 3.175 22.224 1.349 21.636 1.578-.146.057-1.357-5.775-1.393-5.991-.036-.216.253-1.99.253-1.99l-2.758-.583-33.664-10.931-11.324 5.052z"/></g></svg>