<svg xmlns="http://www.w3.org/2000/svg" width="210.833" height="315" viewBox="0 0 210.833 315"><g><linearGradient id="a" gradientUnits="userSpaceOnUse" x1="69.366" y1="85.1" x2="164.484" y2="85.1"><stop offset="0" stop-color="#A40B5D"/><stop offset=".087" stop-color="#A41963"/><stop offset=".217" stop-color="#A43372"/><stop offset=".374" stop-color="#A3508E"/><stop offset=".486" stop-color="#A165A7"/><stop offset="1" stop-color="#A165A7"/><stop offset="1" stop-color="#B66495"/><stop offset="1" stop-color="#C76082"/><stop offset="1" stop-color="#D55C71"/><stop offset="1" stop-color="#DE5964"/><stop offset="1" stop-color="#E5575A"/><stop offset="1" stop-color="#E95555"/><stop offset="1" stop-color="#EA5453"/></linearGradient><path opacity=".2" fill="url(#a)" stroke="#fff" stroke-width=".3" stroke-miterlimit="10" d="M120.739 50.44s26.333 5.298 27.575 8.917 9.001 14.917 15.741 16.967c3.621 1.101-16.24 20.18-38.219 32.305-18.939 10.448-49.828 12.847-53.211 10.051-7.311-6.041-.037-35.246-.037-35.246l48.151-32.994z"/><linearGradient id="b" gradientUnits="userSpaceOnUse" x1="72.38" y1="66.938" x2="120.948" y2="66.938"><stop offset=".005" stop-color="#350011"/><stop offset=".119" stop-color="#370013"/><stop offset=".189" stop-color="#3E001A"/><stop offset=".246" stop-color="#470024"/><stop offset=".296" stop-color="#540032"/><stop offset=".343" stop-color="#631044"/><stop offset=".386" stop-color="#75275A"/><stop offset=".427" stop-color="#873E74"/><stop offset=".464" stop-color="#985693"/><stop offset=".486" stop-color="#A165A7"/><stop offset=".502" stop-color="#9F5E96"/><stop offset=".536" stop-color="#954D75"/><stop offset=".572" stop-color="#843B57"/><stop offset=".611" stop-color="#70293C"/><stop offset=".652" stop-color="#5D1724"/><stop offset=".697" stop-color="#4B020F"/><stop offset=".746" stop-color="#3A0000"/><stop offset=".803" stop-color="#1E0000"/><stop offset=".873" stop-color="#070000"/><stop offset="1"/><stop offset="1" stop-color="#A165A7"/></linearGradient><path fill="url(#b)" d="M72.588 83.435c1.741 2.542 13.932-2.785 27.229-11.896 13.296-9.111 22.664-18.557 20.923-21.098s-13.932 2.785-27.228 11.896c-13.298 9.111-22.665 18.557-20.924 21.098z"/><path opacity=".5" fill="#040000" d="M80.409 78.159c1.851 2.701 10.83-2.49 18.736-7.908 7.908-5.418 15.916-11.55 14.065-14.251-1.851-2.702-12.86-.948-20.768 4.47-7.907 5.418-13.883 14.988-12.033 17.689z"/><linearGradient id="c" gradientUnits="userSpaceOnUse" x1="105.606" y1="57.372" x2="84.795" y2="72.024"><stop offset=".005" stop-color="#350011"/><stop offset=".119" stop-color="#370013"/><stop offset=".189" stop-color="#3E001A"/><stop offset=".246" stop-color="#470024"/><stop offset=".296" stop-color="#540032"/><stop offset=".343" stop-color="#631044"/><stop offset=".386" stop-color="#75275A"/><stop offset=".427" stop-color="#873E74"/><stop offset=".464" stop-color="#985693"/><stop offset=".486" stop-color="#A165A7"/><stop offset=".502" stop-color="#9F5E96"/><stop offset=".536" stop-color="#954D75"/><stop offset=".572" stop-color="#843B57"/><stop offset=".611" stop-color="#70293C"/><stop offset=".652" stop-color="#5D1724"/><stop offset=".697" stop-color="#4B020F"/><stop offset=".746" stop-color="#3A0000"/><stop offset=".803" stop-color="#1E0000"/><stop offset=".873" stop-color="#070000"/><stop offset="1"/><stop offset="1" stop-color="#A165A7"/></linearGradient><path fill="url(#c)" d="M82.706 73.261c1.457 2.126 8.211.031 15.085-4.679 6.874-4.71 11.266-10.252 9.809-12.379-1.457-2.126-8.21-.031-15.084 4.68-6.875 4.71-11.266 10.252-9.81 12.378z"/><linearGradient id="d" gradientUnits="userSpaceOnUse" x1="103.73" y1="42.674" x2="72.254" y2="64.975"><stop offset=".005" stop-color="#350011"/><stop offset=".119" stop-color="#370013"/><stop offset=".189" stop-color="#3E001A"/><stop offset=".246" stop-color="#470024"/><stop offset=".296" stop-color="#540032"/><stop offset=".343" stop-color="#631044"/><stop offset=".386" stop-color="#75275A"/><stop offset=".427" stop-color="#873E74"/><stop offset=".464" stop-color="#985693"/><stop offset=".486" stop-color="#A165A7"/><stop offset=".502" stop-color="#9F5E96"/><stop offset=".536" stop-color="#954D75"/><stop offset=".572" stop-color="#843B57"/><stop offset=".611" stop-color="#70293C"/><stop offset=".652" stop-color="#5D1724"/><stop offset=".697" stop-color="#4B020F"/><stop offset=".746" stop-color="#3A0000"/><stop offset=".803" stop-color="#1E0000"/><stop offset=".873" stop-color="#070000"/><stop offset="1"/><stop offset="1" stop-color="#A165A7"/></linearGradient><path fill="url(#d)" d="M107.6 56.204l-24.893 17.058-14.745-21.517 24.894-17.057z"/><linearGradient id="e" gradientUnits="userSpaceOnUse" x1="75.618" y1="39.445" x2="95.62" y2="55.184"><stop offset=".005" stop-color="#350011"/><stop offset=".119" stop-color="#370013"/><stop offset=".189" stop-color="#3E001A"/><stop offset=".246" stop-color="#470024"/><stop offset=".296" stop-color="#540032"/><stop offset=".343" stop-color="#631044"/><stop offset=".386" stop-color="#75275A"/><stop offset=".427" stop-color="#873E74"/><stop offset=".464" stop-color="#985693"/><stop offset=".486" stop-color="#A165A7"/><stop offset=".502" stop-color="#9F5E96"/><stop offset=".536" stop-color="#954D75"/><stop offset=".572" stop-color="#843B57"/><stop offset=".611" stop-color="#70293C"/><stop offset=".652" stop-color="#5D1724"/><stop offset=".697" stop-color="#4B020F"/><stop offset=".746" stop-color="#3A0000"/><stop offset=".803" stop-color="#1E0000"/><stop offset=".873" stop-color="#070000"/><stop offset="1"/><stop offset="1" stop-color="#A165A7"/></linearGradient><path fill="url(#e)" d="M67.962 51.745c1.457 2.126 8.211.031 15.085-4.679 6.874-4.71 11.266-10.252 9.809-12.378-1.457-2.126-8.21-.031-15.084 4.679s-11.266 10.252-9.81 12.378z"/><linearGradient id="f" gradientUnits="userSpaceOnUse" x1="63.589" y1="71.451" x2="94.611" y2="71.451" gradientTransform="matrix(.825 -.565 .565 .825 -13.528 46.104)"><stop offset="0" stop-color="#A40B5D"/><stop offset=".087" stop-color="#A41963"/><stop offset=".217" stop-color="#A43372"/><stop offset=".374" stop-color="#A3508E"/><stop offset=".486" stop-color="#A165A7"/><stop offset="1" stop-color="#A165A7"/><stop offset="1" stop-color="#B66495"/><stop offset="1" stop-color="#C76082"/><stop offset="1" stop-color="#D55C71"/><stop offset="1" stop-color="#DE5964"/><stop offset="1" stop-color="#E5575A"/><stop offset="1" stop-color="#E95555"/><stop offset="1" stop-color="#EA5453"/></linearGradient><path fill="url(#f)" stroke="#fff" stroke-width=".3" stroke-miterlimit="10" d="M77.007 64.944l.202 1.073 3.297 4.813s17.775-5 25.591-17.536l-3.627-5.293-.57-.115s-8.474 10.656-24.893 17.058z"/><linearGradient id="g" gradientUnits="userSpaceOnUse" x1="61.39" y1="87.657" x2="82.053" y2="87.657"><stop offset="0" stop-color="#A40B5D"/><stop offset=".087" stop-color="#A41963"/><stop offset=".217" stop-color="#A43372"/><stop offset=".374" stop-color="#A3508E"/><stop offset=".486" stop-color="#A165A7"/><stop offset="1" stop-color="#A165A7"/><stop offset="1" stop-color="#B66495"/><stop offset="1" stop-color="#C76082"/><stop offset="1" stop-color="#D55C71"/><stop offset="1" stop-color="#DE5964"/><stop offset="1" stop-color="#E5575A"/><stop offset="1" stop-color="#E95555"/><stop offset="1" stop-color="#EA5453"/></linearGradient><path fill="url(#g)" d="M75.298 62.266l-.156.275-13.238 4.037 3.802 7.651s12.47-7.033 12.584-8.015c0 0-17.928 26.917-12.584 33.368 5.343 6.451 4.624 12.241 2.031 13.089-2.593.849 9.202 0 9.202 0s-20.58-12.466-14.387-22.145l19.5-19.724-3.063-4.226"/><linearGradient id="h" gradientUnits="userSpaceOnUse" x1="45.27" y1="90.392" x2="82.053" y2="90.392"><stop offset="0" stop-color="#A40B5D"/><stop offset=".087" stop-color="#A41963"/><stop offset=".217" stop-color="#A43372"/><stop offset=".374" stop-color="#A3508E"/><stop offset=".486" stop-color="#A165A7"/><stop offset="1" stop-color="#A165A7"/><stop offset="1" stop-color="#B66495"/><stop offset="1" stop-color="#C76082"/><stop offset="1" stop-color="#D55C71"/><stop offset="1" stop-color="#DE5964"/><stop offset="1" stop-color="#E5575A"/><stop offset="1" stop-color="#E95555"/><stop offset="1" stop-color="#EA5453"/></linearGradient><path fill="url(#h)" d="M82.053 70.803s-21.229 39.179-36.783 30.466l2.017 8.712s8.32-13.886 10.785-14.703 14.531 4.356 18.868-3.267c4.335-7.623 5.113-21.208 5.113-21.208z"/></g></svg>