<svg xmlns="http://www.w3.org/2000/svg" width="210.833" height="315" viewBox="0 0 210.833 315"><g><path fill="#C6171E" d="M70.739 93.137s-13.449 14.812-14.209 15.609c0 0-4.832 10.315 5.615 9.13 0 0 25.018-19.239 33.79-32.222 8.77-12.983-25.196 7.483-25.196 7.483z"/><path opacity=".5" stroke="#000" stroke-width=".1" stroke-miterlimit="10" d="M56.529 108.747s-1.537 9.094 5.827 6.926c0 0 19.598-13.8 28.563-26.711M58.265 106.977s-2.427 8.035 4.477 5.321c0 0 19.291-14.165 28.869-26.347" fill="none"/><path fill="#fff" d="M134.167 57.558l-.647.529s-7.305-13.217-7.037-15.544c.269-2.327-4.524-6.701-7.178-7.021-.859-.104-1.188-.104-1.281-.062-3.4-1.534-18.153-6.743-37.675 7.666 0 0-18.924 11.516-19.928 23.17 0 0-1.33 4.733 3.327 13.48 1.442 2.71 3.46 5.807 6.27 9.266 0 0 2.312 4.01 1.102 5.027 0 0 1.883 13.576 61.934-35.59l1.114-.913-.001-.008z"/><g fill="#AF403F"><path d="M79.227 43.747l.364.389.455-.413.464-.393-.328-.42s-.253.202-.487.412l-.468.425zM77.913 45.085l.395.358.419-.45.431-.439-.375-.379-.441.449-.429.461zM76.714 46.528l.424.322s.182-.248.38-.482l.39-.475-.404-.347-.4.487c-.204.24-.39.495-.39.495zM75.647 48.076l.455.278.335-.513c.163-.26.345-.507.345-.507l-.435-.309s-.187.254-.354.522l-.346.529zM74.767 49.744l.485.221.261-.553c.135-.274.293-.537.293-.536l-.465-.261s-.164.271-.304.556l-.27.573zM74.11 51.518l.513.146c-.033-.01.392-1.151.392-1.151l-.495-.198c.001-.001-.443 1.191-.41 1.203zM73.744 53.381l.53.052.088-.599.061-.412.048-.184-.52-.117-.05.193-.064.435-.093.632z"/></g><g fill="#AF403F"><path d="M73.64 55.234l.531.042c-.009-.191.036-.344.054-.514l.009-.08.015-.659-.533-.017-.015.699.009-.084c-.029.207-.08.425-.07.613zM73.714 57.128l.531-.048-.072-.609c-.027-.153-.012-.303-.013-.416l.003-.188-.533-.004s-.023.325.011.639l.073.626zM73.973 58.987l.524-.097c-.04.005-.181-1.214-.182-1.214l-.529.065c.001.001.148 1.256.187 1.246zM74.396 60.808l.518-.126-.28-1.203-.522.107zM74.869 62.611l.512-.15-.19-.589-.14-.602-.516.134.143.611.191.596zM75.458 64.378l.506-.166-.392-1.175-.509.155zM76.046 66.145l.501-.183-.392-1.175-.504.171z"/></g><g fill="#AF403F"><path d="M76.72 67.877l.496-.194-.478-1.145-.499.188zM77.441 69.591l.493-.205-.482-1.143-.495.197zM78.163 71.304l.488-.215-.482-1.143-.491.207zM78.893 73.013l.484-.223s-.132-.281-.249-.568l-.241-.572-.487.217.242.575.251.571zM79.722 74.674l.482-.229-.556-1.112-.482.226zM80.552 76.336l.478-.236-.555-1.111-.48.231zM81.859 77.758l-.475.242-.564-1.106.475-.242z"/></g><g fill="#AF403F"><path d="M82.211 79.659l.472-.248-.555-1.112-.474.244zM83.082 81.297l.469-.253-.308-.54c-.16-.267-.289-.55-.289-.55l-.471.25s.129.284.29.551l.309.542zM83.999 82.911l.467-.258-.614-1.08-.469.254zM84.917 84.523l.464-.26-.614-1.081-.466.259zM86.301 85.87l-.462.265-.618-1.078.462-.265zM86.752 87.75l.46-.269-.614-1.081-.462.267zM87.669 89.363l.458-.274-.614-1.08-.459.271z"/></g><g fill="#AF403F"><path d="M85.51 40.312l-.164-.507-.596.2-.596.218.198.495.573-.209.585-.197zM87.275 39.799l-.133-.516-1.209.34.154.51zM89.069 39.395l-.104-.523-.616.124-.611.144.125.519.601-.142.605-.122zM90.88 39.087l-.071-.528-1.242.192.094.525zM92.706 38.906l-.034-.532s-.315.011-.627.049l-.625.065.06.529.613-.063c.305-.038.613-.048.613-.048zM94.537 38.867l.01-.533-.63-.014-.629.027.021.533.615-.027.613.014zM96.359 38.987l.062-.529s-1.256-.137-1.257-.107l-.025.532c.001-.029 1.22.105 1.22.104z"/></g><g fill="#AF403F"><path d="M98.154 39.295l.123-.519-.62-.129-.621-.122-.08.527.6.119.598.124zM99.891 39.82l.193-.497-1.207-.396-.144.512zM101.52 40.605l.271-.459c.005-.011-.273-.165-.564-.294l-.574-.275-.218.486.548.262c.278.124.543.27.537.28zM102.985 41.652l.35-.402c-.009.01-.212-.234-.492-.398l-.532-.357-.301.44.502.335c.262.15.466.394.473.382zM104.702 42.523l-.364.389-.911-.853.364-.389zM105.676 44.185l.37-.384-.897-.867-.366.387zM107.369 45.096l-.375.378-.886-.879.375-.378z"/></g><g fill="#AF403F"><path d="M108.3 46.795l.38-.373-.868-.896-.377.377zM109.969 47.763l-.385.369-.863-.902.385-.369zM110.862 49.467l.39-.363-.421-.46-.434-.448-.387.367.432.447.42.457zM112.102 50.841l.396-.358-.837-.926-.391.361zM113.343 52.214l.4-.352-.836-.926-.397.356zM114.549 53.617l.406-.346-.397-.481c-.195-.244-.405-.475-.405-.475l-.402.35s.208.23.403.473l.395.479zM116.138 54.701l-.412.338-.792-.964.412-.338z"/></g><g fill="#AF403F"><path d="M116.905 56.469l.418-.331-.796-.962-.413.336zM118.03 57.936l.424-.323-.743-1.004-.419.329zM119.123 59.427l.431-.314-.739-1.007-.426.32zM120.216 60.917l.438-.303-.738-1.007-.434.31zM121.233 62.458l.447-.291-.329-.532-.335-.528-.44.3.332.523.325.528zM122.205 64.028l.455-.278-.658-1.063-.45.287zM123.176 65.597l.464-.263-.658-1.063-.459.272z"/></g><ellipse transform="matrix(.849 -.528 .528 .849 -9.369 50.1)" fill="#202020" cx="83.046" cy="41.455" rx="3.967" ry="1.226"/><ellipse transform="matrix(.849 -.528 .528 .849 -9.261 49.981)" fill="#AF403F" cx="82.861" cy="41.202" rx="3.162" ry=".973"/><path opacity=".3" fill="#B1A7A7" d="M61.11 68.159s38.686-13.718 55.914-30.308c0 0-.313 18.436-16.16 27.269-8.455 4.714-26.74.534-39.754 3.039z"/><path fill="#C6171E" d="M64.205 80.61s2.992.435 7.224-2.874l4.16 6.602s-4.184 3.788-6.91 3.006c.001.001-4.286-5.76-4.474-6.734"/><path fill="#C6171E" d="M63.452 59.114s1.264 1.411 4.315-3.709c0 0-.216 2.814 2.8 2.635 0 0-2.638 1.692-2.599 5.52 0 0-.811-3.761-4.516-4.446zM85.824 44.094s.176 2.614-1.593 4.226c0 0 3.474-1.516 7.78 1.47 0 0-2.142-5.31-.221-6.314.001-.001-2.946 2.05-5.966.618zM101.017 35.47s5.407 1.106 5.042 2.749c0 0 1.512-2.426 4.205-1.598 2.692.827-2.566-1.46-2.758-2.398-.002-.001-.898 1.572-6.489 1.247z"/></g></svg>