<svg xmlns="http://www.w3.org/2000/svg" width="210.833" height="315" viewBox="0 0 210.833 315"><g><path opacity=".8" fill="#A0A0A0" d="M130.902 96.437s15.394-.805 11.695 6.745c0 0-.117 9.298-17.243 4.943 0 0-1.93-.963-3.376 1.115 0 0-9.007-2.346-3.379-8.008 0 0-.906-.193 2.849-2.082 2.496-1.254 5.699-2.394 9.454-2.713z"/><path opacity=".8" fill="#878787" d="M129.952 96.55s4.428 1.774 1.533 2.646c0 0-3.592 1.209-4.396 2.42l-.482.726s7.129-4.21 10.882 2.082c0 0 1.769 3.968 5.198 0 0 0 3.765-6.336-5.102-7.871 0-.001-3.215-.616-7.633-.003z"/><path opacity=".5" fill="#C9CACA" stroke="#727171" stroke-miterlimit="10" d="M138.81 102.72s-1.505-3.987-6.177-3.684c0 0-3.2-.519-9.125 5.45 0 0 .778.605 2.898-1.471 0 0 6.123-5.06 12.403.433v-.728z"/><path fill="#595757" stroke="#3E3A39" stroke-width=".3" stroke-miterlimit="10" d="M139.106 108.739l-2.054-.348s.428-3.469-3.659-4.418c-4.088-.948-6.461 1.935-7.85 2.786l-2.078-.355s4.664-4.929 10.777-3.427c0 0 4.563 1.639 5.027 4.731.001 0 .044 1.065-.163 1.031"/><path fill="#B5B5B6" d="M140.461 108.637l-1.945-.346-14.575-1.456s-1.388 1.858-1.298 2.091c.091.233 1.082-.705 1.946 0 .865.705 7.238 6.54 12.997 1.31 0 .001 2.444-1.047 2.875-1.599z"/><path fill="#EFEFEF" stroke="#9FA0A0" stroke-width=".4" stroke-miterlimit="10" d="M138.369 108.575s-9.496.151-13.273-1.409c-.001 0 4.457 3.472 13.273 1.409z"/><path fill="#C9CACA" d="M137.016 108.288s.274-3.724-4.445-4.238c0 0-3.732-.728-6.53 2.498l-.125.349c0-.001 4.301 1.694 11.1 1.391z"/><path opacity=".6" fill="#878787" d="M126.875 100.506s-6.601 5.565-5.35 7.281c1.251 1.715.375 1.439.375 1.439s-2.873-2.081-4.072-3.667c.001 0 1.02-3.183 9.047-5.053z"/><path fill="#727171" d="M137.168 108.073"/><path fill="#727171" d="M134.538 109.605s.478 2.241-1.598 2.444c-2.076.204-5.768-1.831-6.065-2.417-.298-.588 7.238 1.045 7.663-.027z"/><ellipse transform="matrix(.999 .041 -.041 .999 4.508 -5.418)" fill="#727171" cx="133.208" cy="106.248" rx="2.049" ry="2.098"/><circle fill="#fff" stroke="#000" stroke-miterlimit="10" cx="133.208" cy="106.249" r=".826"/><path stroke="#1B1A1A" stroke-miterlimit="10" d="M137.196 108.313s.42-2.994-4.146-4.027c0 0-4.797-.87-7.279 2.409" fill="none"/><path fill="#595757" d="M125.095 97.638s8.998-2.409 16.201.754c0 0 2.185 2.114 1.874 3.841-.078.435.09.693.105.823l-.105-.753s.607-1.151.003-2.427l-.054-.107c-.692-1.317-2.15-2.671-6.346-3.356.001-.001-5.657-.556-11.678 1.225z"/></g></svg>