<svg xmlns="http://www.w3.org/2000/svg" width="210.833" height="315" viewBox="0 0 210.833 315"><g><path fill="#999899" d="M117.769 100.558l14.002-3.411 7.69 3.721 1.327 5.098v3.434l-15.252-6.342-3.775 1.909"/><path opacity=".3" fill="#707070" d="M131.45 97.147l2.331 5.278 5.87 3.675.927 2.691.21.609v-3.434l-1.327-5.098-8.011-3.721"/><path fill="#666" d="M138.385 104.309s-5.384-2.592-6.935-2.296l-.386 1.879 7.321 3.616v-3.199z"/><path fill="#5A5B5B" d="M121.595 104.748s-.305.593.901 1.903c1.206 1.309 7.441 4.065 7.441 4.065l.62-1.513-5.684-4.723-3.206.173"/><path fill="#aaa" d="M130.556 101.979l.894.033-.386 2.124-.663-.189z"/><path fill="#666" d="M138.385 104.309l1.266 1.791-1.516 1.524z"/><path fill="#aaa" d="M139.651 106.1l-1.516 1.408 1.826 2.488.827-.596-1.137-3.3zM130.556 101.979s-9.892 1.854-8.89 2.674l.131.076c1.783.775 2.739.801 2.739.801l6.02-1.702v-1.849z"/><path fill="#EAEAEA" d="M125.854 106.503s3.591 2.8 4.96 2.697l7.544-.207.646-.646-.672-.994-6.33-3.295s-1.809-.388-2.3-.207c-.491.181-5.167 1.679-5.167 1.679l1.319.973z"/><path fill="#393A3A" d="M129.937 110.716l10.127-.72-1.059-1.302-8.449.509z"/></g></svg>