<svg xmlns="http://www.w3.org/2000/svg" width="210.833" height="315" viewBox="0 0 210.833 315"><g><path fill="#A0A0A0" d="M139.45 102.215s2.55-3.426 4.58-3.505c.736-.029-5.023-7.643-21.83 1.246 0 0-2.318 1.049-1.1 4.201.447 1.152 4 3.742 6.201 5.102 1.411.872 1.326 1.504 3.744 2.422 1.834.696 4.699 2.057 5.744.998.001.001-1.04-4.561 2.661-10.464z"/><linearGradient id="a" gradientUnits="userSpaceOnUse" x1="130.047" y1="105.245" x2="137.115" y2="93.004"><stop offset="0" stop-color="#B5B5B6"/><stop offset=".321" stop-color="#B3B3B4"/><stop offset=".511" stop-color="#ACACAD"/><stop offset=".667" stop-color="#A0A0A1"/><stop offset=".805" stop-color="#8E8E8E"/><stop offset=".93" stop-color="#777676"/><stop offset="1" stop-color="#666464"/></linearGradient><path fill="url(#a)" d="M121.614 100.376s18.783-4.446 16.977.185c-.419 1.074 1.004 1.948 2.236 1.157 1.234-.791 4.535-3.526 4.535-3.526s-5.888-7.92-23.748 2.184z"/><path fill="#393A3A" d="M126.729 106.348s-.419.144-.15.515c.138.19 2.293 1.688 4.661 2.941 2.105 1.114 4.388 2.005 5.446 2.019l.226-.016.169-.389-10.352-5.07z"/><path fill="#F7F8F8" d="M137.777 108.799l-10.995-2.84.029.772s4.934 3.915 10.241 4.777l1.163-2.637-.438-.072z"/><path fill="#262727" d="M138.302 108.018s3.221.426 4.244.059c1.023-.367-1.859.886-1.859.886l-3.086-.397.701-.548z"/><path fill="#393A3A" d="M123.894 103.851s-.392.177-.277.562c.039.128.133.279.318.454.737.7 8.604 4.793 13.633 4.318 0 0 4.611.255 5.629.453 1.018.198-5.064-1.309-5.103-1.347l-9.046-4.642"/><path fill="#767777" d="M140.291 101.383s-3.758 2.885-1.798 7.091c0 0-6.205.542-14.985-4.468l-2.458-1.153s10.314-4.511 19.241-1.47z"/><path fill="#272423" d="M137.567 109.184s-.736.887-.486 2.26c0 0 .635-1.789 1.149-2.222"/><path fill="#393A3A" d="M141.035 101.274s.272.019-.208.444c-1.4 1.246-2.42-2.469-19.608 1.213l-.169-.079c0 .001 10.516-5.053 19.985-1.578zM138.001 109.253s-.291 1.374-.879 1.699c0 0-.33-1.02.879-1.699z"/><path fill="#545454" d="M139.701 101.936s-4.918 1.801-4.888 6.272l2.787.356.701-.547c.001.001-1.652-2.533 1.4-6.081z"/></g></svg>