<svg xmlns="http://www.w3.org/2000/svg" xmlns:xlink="http://www.w3.org/1999/xlink" width="210.833" height="315" viewBox="0 0 210.833 315"><g><path fill="#99B6CC" d="M171.196 221.186s1.374 1.773-.084 3.228c0 0 .8.465 1.791.148 0 0 .671-1.81.175-2.798 0 0-.748-.487-1.882-.707"/><path fill="#5D7081" d="M173.078 221.764l-1.441 2.909s.834.154 1.266-.111c.247-.152.669-2.537.175-2.798z"/><path fill="#D2ECF5" d="M172.645 221.764l.172 1.094s.109.73 0 .902.734-1.227-.172-1.996z"/><path fill="#5D7081" d="M172.167 224.742c-.767-.063-1.457.718-1.542 1.744-.085 1.027.469 1.911 1.235 1.974.767.063 1.457-.718 1.542-1.745.084-1.026-.469-1.91-1.235-1.973zm-.243 2.963c-.304-.026-.511-.542-.46-1.154.049-.612.337-1.088.643-1.063.304.025.51.542.46 1.153s-.338 1.089-.643 1.064z"/><path fill="#748A98" d="M172.62 224.546c-.052.608-.339 1.079-.642 1.054-.303-.024-.509-.537-.461-1.145l-.835-.069c-.078 1.021.473 1.897 1.237 1.96.763.062 1.451-.712 1.54-1.732l-.839-.068zM171.387 228.532c.052-.608.339-1.08.642-1.055.303.025.509.537.461 1.145l.835.069c.079-1.021-.473-1.897-1.236-1.96-.764-.063-1.451.711-1.54 1.731l.838.07z"/><path fill="#5D7081" d="M171.603 225.211s.042 1.003 1.396.609c0 0 .306-.378.379-.758 0 0 .063-.252.081-.447l-.838-.069s-.057.884-.459 1.01c-.001 0-.333.229-.559-.345z"/><defs><path id="a" d="M172.167 224.742c-.767-.063-1.457.718-1.542 1.744-.085 1.027.469 1.911 1.235 1.974.767.063 1.457-.718 1.542-1.745.084-1.026-.469-1.91-1.235-1.973zm-.243 2.963c-.304-.026-.511-.542-.46-1.154.049-.612.337-1.088.643-1.063.304.025.51.542.46 1.153s-.338 1.089-.643 1.064z"/></defs><clipPath id="b"><use xlink:href="#a" overflow="visible"/></clipPath><path clip-path="url(#b)" fill="#99B6CC" d="M172.716 224.897c-.352-.072-.679.199-.885.662.497.217.472.979.018 1.208.17.298.094.732-.196.927.101.328.331.538.817.535.548-.003 1.054-.69 1.132-1.643.079-.952-.28-1.565-.886-1.689z"/><path fill="#3D4A50" d="M171.743 224.793l.015.455s.504-.172.709.593c0 0-.1-.272-.303-.343 0 0-.152-.05-.301.074 0 0-.288-.173-.333-.687l.213-.092zM170.764 225.848l.253.29s-.095.749-.02.848l-.303.308.092.278c.02.043.154-.464.681-.704l-.01-.119-.213.087s-.063-.562.015-.592l.227.133.028-.147c.017.007-.384-.17-.621-.668l-.129.286z"/><path fill="#C7E3F0" d="M171.116 224.423s.281.829.612 1.024c0 0-.267-.341-.211-.992l-.401-.032z"/><path fill="#5D7081" d="M170.718 225.036s.587 1.123 1.663 1.246c0 0-.64.294-1.239-.347 0 0-.316-.335-.424-.899z"/><path fill="#3D4A50" d="M172.815 224.563l-.019.231-.205-.036-.026.104c-.015-.011.246.097.467.412 0 0 .163.217.159.255-.003.038.09-.165.108-.233l-.35-.429.081-.286-.215-.018z"/><path fill="#5D7081" d="M171.594 227.8s.205-.983 1.476-.372c0 0 .239.422.25.809 0 0 .02.259.006.454l-.838-.069s.088-.882-.288-1.071c0 0-.289-.28-.606.249z"/><path fill="#748A98" d="M172.467 225.842c.214.599-.015 1.336-.015 1.336-.276.578-.561.515-.561.515l-.16-.08-.091.104c.182.896.885.581.885.581.284-.129.545-.549.545-.549.085-.125.208-.439.208-.439-.15-.989-.811-1.468-.811-1.468z"/><path fill="#3D4A50" d="M171.584 228.4l.21-.548s.76-.08.711-.899c0 0-.174.766-.615.74l-.16-.08s-.205.135-.353.686l.207.101z"/><path fill="#C7E3F0" d="M170.984 228.499s.414-.772.771-.911c0 0-.318.293-.37.943l-.401-.032z"/><path fill="#5D7081" d="M170.681 227.824s.762-1.01 1.843-.957c0 0-.583-.395-1.279.139.001.001-.366.281-.564.818z"/><path fill="#3D4A50" d="M172.698 228.649l.02-.231-.208.003-.009-.107c-.016.01.259-.055.528-.33 0 0 .197-.188.2-.226.002-.038.061.176.067.248l-.415.365.033.296-.216-.018zM172.26 225.901s.086.393.059.401l.229-.096-.057-.296-.231-.009zM172.092 226.731s.205.332.169.5l.145.012s.109-.291.118-.375c0 0-.268-.138-.441-.137"/><path fill="#fff" d="M172.996 225.609s.026 1.564-.091 1.75c-.13.208.018.236.121.219-.001 0 .426-.946-.03-1.969z"/><path fill="#5D7081" d="M172.043 228.764c-.767-.063-1.457.718-1.542 1.744-.085 1.027.469 1.911 1.235 1.974.767.063 1.457-.718 1.542-1.745.085-1.026-.468-1.91-1.235-1.973zm-.242 2.964c-.304-.026-.511-.542-.46-1.154.049-.612.337-1.088.643-1.063.304.025.51.542.46 1.153s-.338 1.088-.643 1.064z"/><path fill="#748A98" d="M172.497 228.569c-.052.608-.339 1.079-.642 1.054-.303-.024-.509-.537-.461-1.145l-.835-.069c-.078 1.021.473 1.897 1.237 1.96.763.062 1.451-.712 1.54-1.732l-.839-.068zM171.264 232.555c.052-.608.339-1.08.642-1.055.303.025.509.537.461 1.145l.835.069c.079-1.021-.473-1.897-1.236-1.96-.764-.063-1.451.711-1.54 1.731l.838.07z"/><path fill="#5D7081" d="M171.479 229.233s.042 1.003 1.396.609c0 0 .306-.378.379-.758 0 0 .063-.252.081-.447l-.838-.069s-.057.884-.459 1.01c0 .001-.332.23-.559-.345z"/><defs><path id="c" d="M172.043 228.764c-.767-.063-1.457.718-1.542 1.744-.085 1.027.469 1.911 1.235 1.974.767.063 1.457-.718 1.542-1.745.085-1.026-.468-1.91-1.235-1.973zm-.242 2.964c-.304-.026-.511-.542-.46-1.154.049-.612.337-1.088.643-1.063.304.025.51.542.46 1.153s-.338 1.088-.643 1.064z"/></defs><clipPath id="d"><use xlink:href="#c" overflow="visible"/></clipPath><path clip-path="url(#d)" fill="#99B6CC" d="M172.593 228.919c-.352-.072-.679.199-.885.662.497.217.472.979.018 1.208.17.298.094.732-.196.927.101.328.331.538.817.535.548-.003 1.054-.69 1.132-1.643.079-.951-.28-1.565-.886-1.689z"/><path fill="#3D4A50" d="M171.62 228.816l.015.455s.504-.172.709.593c0 0-.1-.272-.303-.343 0 0-.152-.05-.301.074 0 0-.288-.173-.333-.687l.213-.092zM170.641 229.871l.253.29s-.095.749-.02.848l-.303.308.092.278c.02.043.154-.464.681-.704l-.01-.119-.213.087s-.063-.562.015-.592l.227.133.028-.147c.017.007-.384-.17-.621-.668l-.129.286z"/><path fill="#C7E3F0" d="M170.993 228.445s.281.829.612 1.024c0 0-.267-.341-.211-.992l-.401-.032z"/><path fill="#5D7081" d="M170.595 229.059s.587 1.123 1.663 1.246c0 0-.64.294-1.239-.347 0 0-.316-.336-.424-.899z"/><path fill="#3D4A50" d="M172.692 228.585l-.019.231-.205-.036-.026.104c-.015-.011.246.097.467.412 0 0 .163.217.159.255-.003.038.09-.165.108-.233l-.35-.429.081-.286-.215-.018z"/><path fill="#5D7081" d="M171.471 231.823s.205-.983 1.476-.372c0 0 .239.422.25.809 0 0 .02.259.006.454l-.838-.069s.088-.882-.288-1.071c0 0-.289-.281-.606.249z"/><path fill="#748A98" d="M172.344 229.864c.214.599-.015 1.336-.015 1.336-.276.578-.561.515-.561.515l-.16-.08-.091.104c.182.896.885.581.885.581.284-.129.545-.549.545-.549.085-.125.208-.439.208-.439-.15-.989-.811-1.468-.811-1.468z"/><path fill="#3D4A50" d="M171.461 232.422l.21-.548s.76-.08.711-.899c0 0-.174.766-.615.74l-.16-.08s-.205.135-.353.686l.207.101z"/><path fill="#C7E3F0" d="M170.861 232.521s.414-.772.771-.911c0 0-.318.293-.37.943l-.401-.032z"/><path fill="#5D7081" d="M170.558 231.847s.762-1.01 1.843-.957c0 0-.583-.395-1.279.139.001 0-.366.28-.564.818z"/><path fill="#3D4A50" d="M172.575 232.672l.02-.231-.208.003-.009-.107c-.016.01.259-.055.528-.33 0 0 .197-.188.2-.226.002-.038.061.176.067.248l-.415.365.033.296-.216-.018zM172.137 229.923s.086.393.059.401l.229-.096-.057-.296-.231-.009zM171.969 230.754s.205.332.169.5l.145.012s.109-.291.118-.375c0 0-.268-.138-.441-.137"/><path fill="#fff" d="M172.873 229.631s.026 1.564-.091 1.75c-.13.208.018.236.121.219-.001.001.426-.945-.03-1.969z"/><path fill="#5D7081" d="M171.91 232.777c-.767-.063-1.457.718-1.542 1.744-.085 1.027.469 1.911 1.235 1.974.767.063 1.457-.718 1.542-1.745.085-1.025-.469-1.91-1.235-1.973zm-.242 2.964c-.304-.026-.511-.542-.46-1.154.049-.612.337-1.088.643-1.063.304.025.51.542.46 1.153s-.338 1.089-.643 1.064z"/><path fill="#748A98" d="M172.364 232.582c-.052.608-.339 1.079-.642 1.054-.303-.024-.509-.537-.461-1.145l-.835-.069c-.078 1.021.473 1.897 1.237 1.96.763.062 1.451-.712 1.54-1.732l-.839-.068zM171.131 236.568c.052-.608.339-1.08.642-1.055.303.025.509.537.461 1.145l.835.069c.079-1.021-.473-1.897-1.236-1.96-.764-.063-1.451.711-1.54 1.731l.838.07z"/><path fill="#5D7081" d="M171.346 233.247s.042 1.003 1.396.609c0 0 .306-.378.379-.758 0 0 .063-.252.081-.447l-.838-.069s-.057.884-.459 1.01c-.001 0-.333.229-.559-.345z"/><defs><path id="e" d="M171.91 232.777c-.767-.063-1.457.718-1.542 1.744-.085 1.027.469 1.911 1.235 1.974.767.063 1.457-.718 1.542-1.745.085-1.025-.469-1.91-1.235-1.973zm-.242 2.964c-.304-.026-.511-.542-.46-1.154.049-.612.337-1.088.643-1.063.304.025.51.542.46 1.153s-.338 1.089-.643 1.064z"/></defs><clipPath id="f"><use xlink:href="#e" overflow="visible"/></clipPath><path clip-path="url(#f)" fill="#99B6CC" d="M172.46 232.933c-.352-.072-.679.199-.885.662.497.217.472.979.018 1.208.17.298.094.732-.196.927.101.328.331.538.817.535.548-.003 1.054-.69 1.132-1.643.078-.952-.281-1.565-.886-1.689z"/><path fill="#3D4A50" d="M171.486 232.829l.015.455s.504-.172.709.593c0 0-.1-.272-.303-.343 0 0-.152-.05-.301.074 0 0-.288-.173-.333-.687l.213-.092zM170.507 233.884l.253.29s-.095.749-.02.848l-.303.308.092.278c.02.043.154-.464.681-.704l-.01-.119-.213.087s-.063-.562.015-.592l.227.133.028-.147c.017.007-.384-.17-.621-.668l-.129.286z"/><path fill="#C7E3F0" d="M170.859 232.458s.281.829.612 1.024c0 0-.267-.341-.211-.992l-.401-.032z"/><path fill="#5D7081" d="M170.461 233.072s.587 1.123 1.663 1.246c0 0-.64.294-1.239-.347 0 0-.315-.336-.424-.899z"/><path fill="#3D4A50" d="M172.559 232.598l-.019.231-.205-.036-.026.104c-.015-.011.246.097.467.412 0 0 .163.217.159.255-.003.038.09-.165.108-.233l-.35-.429.081-.286-.215-.018z"/><path fill="#5D7081" d="M171.337 235.836s.205-.983 1.476-.372c0 0 .239.422.25.809 0 0 .02.259.006.454l-.838-.069s.088-.882-.288-1.071c.001 0-.289-.28-.606.249z"/><path fill="#748A98" d="M172.211 233.877c.214.599-.015 1.336-.015 1.336-.276.578-.561.515-.561.515l-.16-.08-.091.104c.182.896.885.581.885.581.284-.129.545-.549.545-.549.085-.125.208-.439.208-.439-.15-.989-.811-1.468-.811-1.468z"/><path fill="#3D4A50" d="M171.328 236.436l.21-.548s.76-.08.711-.899c0 0-.174.766-.615.74l-.16-.08s-.205.135-.353.686l.207.101z"/><path fill="#C7E3F0" d="M170.728 236.535s.414-.772.771-.911c0 0-.318.293-.37.943l-.401-.032z"/><path fill="#5D7081" d="M170.425 235.86s.762-1.01 1.843-.957c0 0-.583-.395-1.279.139 0 0-.366.28-.564.818z"/><path fill="#3D4A50" d="M172.441 236.685l.02-.231-.208.003-.009-.107c-.016.01.259-.055.528-.33 0 0 .197-.188.2-.226.002-.038.061.176.067.248l-.415.365.033.296-.216-.018zM172.004 233.937s.086.393.059.401l.229-.096-.057-.296-.231-.009zM171.836 234.767s.205.332.169.5l.145.012s.109-.291.118-.375c0 0-.268-.138-.441-.137"/><path fill="#fff" d="M172.739 233.645s.026 1.564-.091 1.75c-.13.208.018.236.121.219 0 0 .427-.946-.03-1.969z"/></g></svg>