<svg xmlns="http://www.w3.org/2000/svg" xmlns:xlink="http://www.w3.org/1999/xlink" width="210.833" height="315" viewBox="0 0 210.833 315"><g><path fill="#99B6CC" d="M93.573 118.722s1.374 1.773-.084 3.228c0 0 .8.465 1.791.148 0 0 .671-1.81.175-2.798 0 0-.748-.487-1.882-.707"/><path fill="#5D7081" d="M95.455 119.3l-1.441 2.909s.834.154 1.266-.111c.247-.152.668-2.537.175-2.798z"/><path fill="#D2ECF5" d="M95.021 119.3l.172 1.094s.109.73 0 .902.734-1.227-.172-1.996z"/><path fill="#5D7081" d="M94.543 122.278c-.767-.063-1.457.718-1.542 1.744-.085 1.027.469 1.911 1.235 1.974.767.063 1.457-.718 1.542-1.745.085-1.026-.469-1.91-1.235-1.973zm-.242 2.963c-.304-.026-.511-.542-.46-1.154.049-.612.337-1.088.643-1.063.304.025.51.542.46 1.153s-.339 1.089-.643 1.064z"/><path fill="#748A98" d="M94.997 122.083c-.052.608-.339 1.079-.642 1.054-.303-.024-.509-.537-.461-1.145l-.835-.069c-.078 1.021.473 1.897 1.237 1.96.763.062 1.451-.712 1.54-1.732l-.839-.068zM93.764 126.068c.052-.608.339-1.08.642-1.055.303.025.509.537.461 1.145l.835.069c.079-1.021-.473-1.897-1.236-1.96-.764-.063-1.451.711-1.54 1.731l.838.07z"/><path fill="#5D7081" d="M93.979 122.747s.042 1.003 1.396.609c0 0 .306-.378.379-.758 0 0 .063-.252.081-.447l-.838-.069s-.057.884-.459 1.01c-.001 0-.333.229-.559-.345z"/><defs><path id="a" d="M94.543 122.278c-.767-.063-1.457.718-1.542 1.744-.085 1.027.469 1.911 1.235 1.974.767.063 1.457-.718 1.542-1.745.085-1.026-.469-1.91-1.235-1.973zm-.242 2.963c-.304-.026-.511-.542-.46-1.154.049-.612.337-1.088.643-1.063.304.025.51.542.46 1.153s-.339 1.089-.643 1.064z"/></defs><clipPath id="b"><use xlink:href="#a" overflow="visible"/></clipPath><path clip-path="url(#b)" fill="#99B6CC" d="M95.093 122.433c-.352-.072-.679.199-.885.662.497.217.472.979.018 1.208.17.298.094.732-.196.927.101.328.331.538.817.535.548-.003 1.054-.69 1.132-1.643.078-.952-.281-1.565-.886-1.689z"/><path fill="#3D4A50" d="M94.119 122.33l.015.455s.504-.172.709.593c0 0-.1-.272-.303-.343 0 0-.152-.05-.301.074 0 0-.288-.173-.333-.687l.213-.092zM93.14 123.384l.253.29s-.095.749-.02.848l-.303.308.092.278c.02.043.154-.464.681-.704l-.01-.119-.213.087s-.063-.562.015-.592l.227.133.028-.147c.017.007-.384-.17-.621-.668l-.129.286z"/><path fill="#C7E3F0" d="M93.492 121.959s.281.829.612 1.024c0 0-.267-.341-.211-.992l-.401-.032z"/><path fill="#5D7081" d="M93.094 122.572s.587 1.123 1.663 1.246c0 0-.64.294-1.239-.347 0 0-.315-.335-.424-.899z"/><path fill="#3D4A50" d="M95.192 122.099l-.019.231-.205-.036-.026.104c-.015-.011.246.097.467.412 0 0 .163.217.159.255-.003.038.09-.165.108-.233l-.35-.429.081-.286-.215-.018z"/><path fill="#5D7081" d="M93.97 125.336s.205-.983 1.476-.372c0 0 .239.422.25.809 0 0 .02.259.006.454l-.838-.069s.088-.882-.288-1.071c.001 0-.289-.28-.606.249z"/><path fill="#748A98" d="M94.844 123.378c.214.599-.015 1.336-.015 1.336-.276.578-.561.515-.561.515l-.16-.08-.091.104c.182.896.885.581.885.581.284-.129.545-.549.545-.549.085-.125.208-.439.208-.439-.151-.989-.811-1.468-.811-1.468z"/><path fill="#3D4A50" d="M93.961 125.936l.21-.548s.76-.08.711-.899c0 0-.174.766-.615.74l-.16-.08s-.205.135-.353.686l.207.101z"/><path fill="#C7E3F0" d="M93.36 126.035s.414-.772.771-.911c0 0-.318.293-.37.943l-.401-.032z"/><path fill="#5D7081" d="M93.058 125.36s.762-1.01 1.843-.957c0 0-.583-.395-1.279.139 0 .001-.366.281-.564.818z"/><path fill="#3D4A50" d="M95.074 126.186l.02-.231-.208.003-.009-.107c-.016.01.259-.055.528-.33 0 0 .197-.188.2-.226.002-.038.061.176.067.248l-.415.365.033.296-.216-.018zM94.637 123.437s.086.393.059.401l.229-.096-.057-.296-.231-.009zM94.469 124.268s.205.332.169.5l.145.012s.109-.291.118-.375c0 0-.268-.138-.441-.137"/><path fill="#fff" d="M95.372 123.145s.026 1.564-.091 1.75c-.13.208.018.236.121.219 0 0 .427-.946-.03-1.969z"/><path fill="#5D7081" d="M94.42 126.3c-.767-.063-1.457.718-1.542 1.744-.085 1.027.469 1.911 1.235 1.974.767.063 1.457-.718 1.542-1.745.085-1.025-.469-1.91-1.235-1.973zm-.242 2.964c-.304-.026-.511-.542-.46-1.154.049-.612.337-1.088.643-1.063.304.025.51.542.46 1.153s-.339 1.089-.643 1.064z"/><path fill="#748A98" d="M94.874 126.105c-.052.608-.339 1.079-.642 1.054-.303-.024-.509-.537-.461-1.145l-.835-.069c-.078 1.021.473 1.897 1.237 1.96.763.062 1.451-.712 1.54-1.732l-.839-.068zM93.641 130.091c.052-.608.339-1.08.642-1.055.303.025.509.537.461 1.145l.835.069c.079-1.021-.473-1.897-1.236-1.96-.764-.063-1.451.711-1.54 1.731l.838.07z"/><path fill="#5D7081" d="M93.856 126.77s.042 1.003 1.396.609c0 0 .306-.378.379-.758 0 0 .063-.252.081-.447l-.838-.069s-.057.884-.459 1.01c-.001 0-.333.229-.559-.345z"/><defs><path id="c" d="M94.42 126.3c-.767-.063-1.457.718-1.542 1.744-.085 1.027.469 1.911 1.235 1.974.767.063 1.457-.718 1.542-1.745.085-1.025-.469-1.91-1.235-1.973zm-.242 2.964c-.304-.026-.511-.542-.46-1.154.049-.612.337-1.088.643-1.063.304.025.51.542.46 1.153s-.339 1.089-.643 1.064z"/></defs><clipPath id="d"><use xlink:href="#c" overflow="visible"/></clipPath><path clip-path="url(#d)" fill="#99B6CC" d="M94.97 126.456c-.352-.072-.679.199-.885.662.497.217.472.979.018 1.208.17.298.094.732-.196.927.101.328.331.538.817.535.548-.003 1.054-.69 1.132-1.643.078-.952-.281-1.565-.886-1.689z"/><path fill="#3D4A50" d="M93.996 126.352l.015.455s.504-.172.709.593c0 0-.1-.272-.303-.343 0 0-.152-.05-.301.074 0 0-.288-.173-.333-.687l.213-.092zM93.017 127.407l.253.29s-.095.749-.02.848l-.303.308.092.278c.02.043.154-.464.681-.704l-.01-.119-.213.087s-.063-.562.015-.592l.227.133.028-.147c.017.007-.384-.17-.621-.668l-.129.286z"/><path fill="#C7E3F0" d="M93.369 125.981s.281.829.612 1.024c0 0-.267-.341-.211-.992l-.401-.032z"/><path fill="#5D7081" d="M92.971 126.595s.587 1.123 1.663 1.246c0 0-.64.294-1.239-.347 0 0-.315-.336-.424-.899z"/><path fill="#3D4A50" d="M95.069 126.121l-.019.231-.205-.036-.026.104c-.015-.011.246.097.467.412 0 0 .163.217.159.255-.003.038.09-.165.108-.233l-.35-.429.081-.286-.215-.018z"/><path fill="#5D7081" d="M93.847 129.359s.205-.983 1.476-.372c0 0 .239.422.25.809 0 0 .02.259.006.454l-.838-.069s.088-.882-.288-1.071c.001 0-.289-.28-.606.249z"/><path fill="#748A98" d="M94.721 127.4c.214.599-.015 1.336-.015 1.336-.276.578-.561.515-.561.515l-.16-.08-.091.104c.182.896.885.581.885.581.284-.129.545-.549.545-.549.085-.125.208-.439.208-.439-.151-.989-.811-1.468-.811-1.468z"/><path fill="#3D4A50" d="M93.838 129.958l.21-.548s.76-.08.711-.899c0 0-.174.766-.615.74l-.16-.08s-.205.135-.353.686l.207.101z"/><path fill="#C7E3F0" d="M93.237 130.058s.414-.772.771-.911c0 0-.318.293-.37.943l-.401-.032z"/><path fill="#5D7081" d="M92.935 129.383s.762-1.01 1.843-.957c0 0-.583-.395-1.279.139 0 0-.366.28-.564.818z"/><path fill="#3D4A50" d="M94.951 130.208l.02-.231-.208.003-.009-.107c-.016.01.259-.055.528-.33 0 0 .197-.188.2-.226.002-.038.061.176.067.248l-.415.365.033.296-.216-.018zM94.514 127.459s.086.393.059.401l.229-.096-.057-.296-.231-.009zM94.346 128.29s.205.332.169.5l.145.012s.109-.291.118-.375c0 0-.268-.138-.441-.137"/><path fill="#fff" d="M95.249 127.167s.026 1.564-.091 1.75c-.13.208.018.236.121.219 0 .001.427-.945-.03-1.969z"/><path fill="#5D7081" d="M94.287 130.313c-.767-.063-1.457.718-1.542 1.744-.085 1.027.469 1.911 1.235 1.974.767.063 1.457-.718 1.542-1.745.084-1.025-.469-1.91-1.235-1.973zm-.243 2.964c-.304-.026-.511-.542-.46-1.154.049-.612.337-1.088.643-1.063.304.025.51.542.46 1.153s-.338 1.089-.643 1.064z"/><path fill="#748A98" d="M94.74 130.118c-.052.608-.339 1.079-.642 1.054-.303-.024-.509-.537-.461-1.145l-.835-.069c-.078 1.021.473 1.897 1.237 1.96.763.062 1.451-.712 1.54-1.732l-.839-.068zM93.507 134.104c.052-.608.339-1.08.642-1.055.303.025.509.537.461 1.145l.835.069c.079-1.021-.473-1.897-1.236-1.96-.764-.063-1.451.711-1.54 1.731l.838.07z"/><path fill="#5D7081" d="M93.723 130.783s.042 1.003 1.396.609c0 0 .306-.378.379-.758 0 0 .063-.252.081-.447l-.838-.069s-.057.884-.459 1.01c-.001 0-.333.229-.559-.345z"/><defs><path id="e" d="M94.287 130.313c-.767-.063-1.457.718-1.542 1.744-.085 1.027.469 1.911 1.235 1.974.767.063 1.457-.718 1.542-1.745.084-1.025-.469-1.91-1.235-1.973zm-.243 2.964c-.304-.026-.511-.542-.46-1.154.049-.612.337-1.088.643-1.063.304.025.51.542.46 1.153s-.338 1.089-.643 1.064z"/></defs><clipPath id="f"><use xlink:href="#e" overflow="visible"/></clipPath><path clip-path="url(#f)" fill="#99B6CC" d="M94.836 130.469c-.352-.072-.679.199-.885.662.497.217.472.979.018 1.208.17.298.094.732-.196.927.101.328.331.538.817.535.548-.003 1.054-.69 1.132-1.643.079-.952-.28-1.565-.886-1.689z"/><path fill="#3D4A50" d="M93.863 130.365l.015.455s.504-.172.709.593c0 0-.1-.272-.303-.343 0 0-.152-.05-.301.074 0 0-.288-.173-.333-.687l.213-.092zM92.884 131.42l.253.29s-.095.749-.02.848l-.303.308.092.278c.02.043.154-.464.681-.704l-.01-.119-.213.087s-.063-.562.015-.592l.227.133.028-.147c.017.007-.384-.17-.621-.668l-.129.286z"/><path fill="#C7E3F0" d="M93.236 129.995s.281.829.612 1.024c0 0-.267-.341-.211-.992l-.401-.032z"/><path fill="#5D7081" d="M92.838 130.608s.587 1.123 1.663 1.246c0 0-.64.294-1.239-.347 0 0-.316-.336-.424-.899z"/><path fill="#3D4A50" d="M94.936 130.134l-.019.231-.205-.036-.026.104c-.015-.011.246.097.467.412 0 0 .163.217.159.255-.003.038.09-.165.108-.233l-.35-.429.081-.286-.215-.018z"/><path fill="#5D7081" d="M93.714 133.372s.205-.983 1.476-.372c0 0 .239.422.25.809 0 0 .02.259.006.454l-.838-.069s.088-.882-.288-1.071c0 0-.289-.28-.606.249z"/><path fill="#748A98" d="M94.587 131.414c.214.599-.015 1.336-.015 1.336-.276.578-.561.515-.561.515l-.16-.08-.091.104c.182.896.885.581.885.581.284-.129.545-.549.545-.549.085-.125.208-.439.208-.439-.15-.989-.811-1.468-.811-1.468z"/><path fill="#3D4A50" d="M93.705 133.972l.21-.548s.76-.08.711-.899c0 0-.174.766-.615.74l-.16-.08s-.205.135-.353.686l.207.101z"/><path fill="#C7E3F0" d="M93.104 134.071s.414-.772.771-.911c0 0-.318.293-.37.943l-.401-.032z"/><path fill="#5D7081" d="M92.801 133.396s.762-1.01 1.843-.957c0 0-.583-.395-1.279.139.001.001-.365.28-.564.818z"/><path fill="#3D4A50" d="M94.818 134.221l.02-.231-.208.003-.009-.107c-.016.01.259-.055.528-.33 0 0 .197-.188.2-.226.002-.038.061.176.067.248l-.415.365.033.296-.216-.018zM94.38 131.473s.086.393.059.401l.229-.096-.057-.296-.231-.009zM94.212 132.303s.205.332.169.5l.145.012s.109-.291.118-.375c0 0-.268-.138-.441-.137"/><path fill="#fff" d="M95.116 131.181s.026 1.564-.091 1.75c-.13.208.018.236.121.219 0 0 .426-.946-.03-1.969z"/></g></svg>