<svg xmlns="http://www.w3.org/2000/svg" width="210.833" height="315" viewBox="0 0 210.833 315"><g><linearGradient id="a" gradientUnits="userSpaceOnUse" x1="197.694" y1="245.669" x2="205.996" y2="245.669" gradientTransform="matrix(1 .018 -.018 1 -22.481 -21.876)"><stop offset="0" stop-color="#E8DD66"/><stop offset=".995" stop-color="#B99615"/></linearGradient><path fill="url(#a)" d="M175.468 229.782c-1.765-.351-2.911-2.066-2.561-3.831.321-1.612 1.782-2.693 3.377-2.603-.145-.046-.284-.104-.437-.134-2.255-.449-4.449 1.017-4.898 3.273-.449 2.256 1.017 4.449 3.273 4.898 2.256.448 4.45-1.017 4.898-3.273.03-.152.031-.302.043-.454-.525 1.508-2.083 2.444-3.695 2.124z"/><linearGradient id="b" gradientUnits="userSpaceOnUse" x1="197.637" y1="240.067" x2="200.236" y2="240.067" gradientTransform="matrix(-.643 .766 .766 .643 116.145 -85.056)"><stop offset="0" stop-color="#E8DD66"/><stop offset=".995" stop-color="#B99615"/></linearGradient><path fill="url(#b)" d="M171.732 220.417s1.733-.052 1.973 1.009c0 0 .013 1.397-1.818 1.602 0 0 1.017-1.048.188-1.005 0 0-.83.279-.886-.598.001-.001-.057-.827.543-1.008z"/><path fill="#676036" d="M172.217 222.08s1.193.224.69.654c0 0-.481.325-1.059.338.001 0 .622-.55.369-.992z"/><linearGradient id="c" gradientUnits="userSpaceOnUse" x1="199.938" y1="247.889" x2="205.998" y2="247.889" gradientTransform="matrix(1 .018 -.018 1 -22.481 -21.876)"><stop offset="0" stop-color="#FFF21F"/><stop offset=".059" stop-color="#FFE400"/><stop offset=".13" stop-color="#FED700"/><stop offset=".203" stop-color="#FDCF00"/><stop offset=".281" stop-color="#FCCD00"/><stop offset=".668" stop-color="#F1942E"/><stop offset=".888" stop-color="#EA652D"/><stop offset="1" stop-color="#E5352B"/></linearGradient><path opacity=".6" fill="url(#c)" d="M173.101 227.903l1.846 3.563s2.986.137 4.026-2.763c0 0 .209-.733.193-1.057 0 0-.742 1.934-2.631 2.162-.001 0-2.263.391-3.434-1.905z"/><linearGradient id="d" gradientUnits="userSpaceOnUse" x1="162.403" y1="266.403" x2="161.866" y2="266.941" gradientTransform="matrix(.954 -.299 .299 .954 -62.121 16.898)"><stop offset="0" stop-color="#E4A67C"/><stop offset=".995" stop-color="#EF90B9"/></linearGradient><path fill="url(#d)" d="M172.508 222.864l-.091-.284-.459.615.249.072z"/><linearGradient id="e" gradientUnits="userSpaceOnUse" x1="161.748" y1="266.822" x2="161.748" y2="266.822" gradientTransform="matrix(.954 -.299 .299 .954 -62.121 16.898)"><stop offset="0" stop-color="#E4A67C"/><stop offset=".995" stop-color="#EF90B9"/></linearGradient><path fill="url(#e)" d="M171.957 223.197z"/><linearGradient id="f" gradientUnits="userSpaceOnUse" x1="162.371" y1="266.664" x2="163.001" y2="266.664" gradientTransform="matrix(.954 -.299 .299 .954 -62.121 16.898)"><stop offset="0" stop-color="#E7273E"/><stop offset=".096" stop-color="#E83542"/><stop offset=".331" stop-color="#E9484C"/><stop offset=".603" stop-color="#EA5251"/><stop offset=".995" stop-color="#EA5453"/><stop offset="1" stop-color="#E7334D"/></linearGradient><path fill="url(#f)" d="M173.149 222.812l-.733-.234.092.286.479.152z"/><linearGradient id="g" gradientUnits="userSpaceOnUse" x1="162.792" y1="267.265" x2="163.014" y2="267.259" gradientTransform="matrix(.954 -.299 .299 .954 -62.121 16.898)"><stop offset=".005" stop-color="#B33244"/><stop offset=".028" stop-color="#B63446"/><stop offset=".175" stop-color="#CA3D4B"/><stop offset=".332" stop-color="#D9444E"/><stop offset=".503" stop-color="#E24950"/><stop offset=".698" stop-color="#E84C51"/><stop offset=".966" stop-color="#E94C51"/><stop offset=".975" stop-color="#EA5252"/><stop offset=".995" stop-color="#EA5453"/><stop offset="1" stop-color="#EA5755"/></linearGradient><path fill="url(#g)" d="M173.16 223.555l.006.018.257.091-.274-.852-.162.204z"/><linearGradient id="h" gradientUnits="userSpaceOnUse" x1="162.067" y1="266.817" x2="161.367" y2="266.828" gradientTransform="matrix(.954 -.299 .299 .954 -62.121 16.898)"><stop offset="0" stop-color="#DE7469"/><stop offset=".109" stop-color="#E58770"/><stop offset=".253" stop-color="#ED9976"/><stop offset=".416" stop-color="#F2A67A"/><stop offset=".614" stop-color="#F5AD7C"/><stop offset=".946" stop-color="#F5AF7D"/></linearGradient><path fill="url(#h)" d="M171.956 223.195l.001.002.001-.002z"/><linearGradient id="i" gradientUnits="userSpaceOnUse" x1="162.163" y1="267.263" x2="161.267" y2="267.277" gradientTransform="matrix(.954 -.299 .299 .954 -62.121 16.898)"><stop offset="0" stop-color="#DE7469"/><stop offset=".109" stop-color="#E58770"/><stop offset=".253" stop-color="#ED9976"/><stop offset=".416" stop-color="#F2A67A"/><stop offset=".614" stop-color="#F5AD7C"/><stop offset=".946" stop-color="#F5AF7D"/></linearGradient><path fill="url(#i)" d="M172.208 223.269l-.251-.072.272.849.156-.223z"/><linearGradient id="j" gradientUnits="userSpaceOnUse" x1="162.372" y1="266.38" x2="161.838" y2="266.913" gradientTransform="matrix(.954 -.299 .299 .954 -62.121 16.898)"><stop offset="0" stop-color="#E4A67C"/><stop offset=".995" stop-color="#EF90B9"/></linearGradient><path fill="url(#j)" d="M172.208 223.269l-.001-.002-.249-.072-.001.002.251.072z"/><linearGradient id="k" gradientUnits="userSpaceOnUse" x1="162.157" y1="266.889" x2="161.262" y2="266.904" gradientTransform="matrix(.954 -.299 .299 .954 -62.121 16.898)"><stop offset="0" stop-color="#DE7469"/><stop offset=".109" stop-color="#E58770"/><stop offset=".253" stop-color="#ED9976"/><stop offset=".416" stop-color="#F2A67A"/><stop offset=".614" stop-color="#F5AD7C"/><stop offset=".946" stop-color="#F5AF7D"/></linearGradient><path fill="url(#k)" d="M172.208 223.269l-.001-.002-.249-.072-.001.002.251.072z"/><linearGradient id="l" gradientUnits="userSpaceOnUse" x1="161.945" y1="268.055" x2="162.402" y2="267.621" gradientTransform="matrix(.954 -.299 .299 .954 -62.121 16.898)"><stop offset="0" stop-color="#DE7469"/><stop offset=".002" stop-color="#DE7469"/><stop offset=".179" stop-color="#C76D53"/><stop offset=".355" stop-color="#AF643F"/><stop offset=".527" stop-color="#9A5A2E"/><stop offset=".694" stop-color="#8A5021"/><stop offset=".853" stop-color="#804A18"/><stop offset=".995" stop-color="#7C4814"/></linearGradient><path fill="url(#l)" d="M172.385 223.823l-.156.223.733.235-.097-.305z"/><linearGradient id="m" gradientUnits="userSpaceOnUse" x1="162.382" y1="267.85" x2="163.007" y2="267.85" gradientTransform="matrix(.954 -.299 .299 .954 -62.121 16.898)"><stop offset=".005" stop-color="#EAD18D"/><stop offset=".007" stop-color="#EAD18D"/><stop offset=".32" stop-color="#F2D9B8"/><stop offset=".593" stop-color="#F7E0D4"/><stop offset=".812" stop-color="#FBE4E5"/><stop offset=".951" stop-color="#FBE5EB"/></linearGradient><path fill="url(#m)" d="M173.166 223.573l-.301.403.097.305.461-.617z"/><linearGradient id="n" gradientUnits="userSpaceOnUse" x1="162.112" y1="266.922" x2="162.627" y2="267.565" gradientTransform="matrix(.954 -.299 .299 .954 -62.121 16.898)"><stop offset=".297" stop-color="#DE7469"/><stop offset=".995" stop-color="#EF90B9"/></linearGradient><path fill="url(#n)" d="M172.208 223.269l.177.554.48.153.301-.403-.006-.018.001.003-.001-.003-.173-.539-.479-.152v.002z"/><linearGradient id="o" gradientUnits="userSpaceOnUse" x1="162.493" y1="266.493" x2="161.956" y2="267.03" gradientTransform="matrix(.954 -.299 .299 .954 -62.121 16.898)"><stop offset="0" stop-color="#E4A67C"/><stop offset=".995" stop-color="#EF90B9"/></linearGradient><path fill="url(#o)" d="M172.208 223.269l.3-.403v-.002l-.301.403z"/><linearGradient id="p" gradientUnits="userSpaceOnUse" x1="162.197" y1="266.853" x2="162.696" y2="267.477" gradientTransform="matrix(.954 -.299 .299 .954 -62.121 16.898)"><stop offset=".297" stop-color="#DE7469"/><stop offset=".995" stop-color="#EF90B9"/></linearGradient><path fill="url(#p)" d="M172.208 223.269l.3-.403v-.002l-.301.403z"/><circle opacity=".5" fill="#fff" cx="173.013" cy="223.604" r=".322"/><circle opacity=".5" fill="#fff" cx="172.962" cy="223.232" r=".167"/><circle opacity=".5" fill="#fff" cx="172.812" cy="223.323" r=".141"/><linearGradient id="q" gradientUnits="userSpaceOnUse" x1="199.752" y1="242.832" x2="203.041" y2="242.832" gradientTransform="matrix(1 .018 -.018 1 -22.481 -21.876)"><stop offset="0" stop-color="#FFF21F"/><stop offset=".059" stop-color="#FFE400"/><stop offset=".13" stop-color="#FED700"/><stop offset=".203" stop-color="#FDCF00"/><stop offset=".281" stop-color="#FCCD00"/><stop offset=".668" stop-color="#F1942E"/><stop offset=".888" stop-color="#EA652D"/><stop offset="1" stop-color="#E5352B"/></linearGradient><path opacity=".6" fill="url(#q)" d="M173.105 225.312l-.11.297.431-2.152s.728-.325 1.617-.324c0 0 .687-.008 1.242.214 0 0-1.484-.146-2.56 1.018 0 0-.547.538-.771 1.391"/><linearGradient id="r" gradientUnits="userSpaceOnUse" x1="197.71" y1="247.855" x2="200.75" y2="247.855" gradientTransform="matrix(1 .018 -.018 1 -22.481 -21.876)"><stop offset="0" stop-color="#FFF21F"/><stop offset=".059" stop-color="#FFE400"/><stop offset=".13" stop-color="#FED700"/><stop offset=".203" stop-color="#FDCF00"/><stop offset=".281" stop-color="#FCCD00"/><stop offset=".668" stop-color="#F1942E"/><stop offset=".888" stop-color="#EA652D"/><stop offset="1" stop-color="#E5352B"/></linearGradient><path opacity=".6" fill="url(#r)" d="M170.879 227.583l1.331.423 1.643 3.288s-1.348-.202-2.402-1.872c.001 0-.503-.731-.572-1.839z"/><circle fill="#fff" cx="172.385" cy="229.91" r=".202"/><circle fill="#fff" cx="173.005" cy="230.342" r=".301"/><circle fill="#fff" cx="173.781" cy="230.658" r=".372"/><circle fill="#fff" cx="174.784" cy="230.781" r=".478"/><ellipse fill="#fff" cx="172.274" cy="224.709" rx=".219" ry=".211"/><ellipse fill="#fff" cx="171.921" cy="225.183" rx=".28" ry=".27"/><ellipse transform="matrix(-1 -.018 .018 -1 339.354 454.695)" fill="#fff" cx="171.675" cy="225.856" rx=".361" ry=".348"/><linearGradient id="s" gradientUnits="userSpaceOnUse" x1="203.041" y1="241.695" x2="203.041" y2="241.695" gradientTransform="matrix(1 .018 -.018 1 -22.481 -21.876)"><stop offset="0" stop-color="#FFF21F"/><stop offset=".059" stop-color="#FFE400"/><stop offset=".13" stop-color="#FED700"/><stop offset=".203" stop-color="#FDCF00"/><stop offset=".281" stop-color="#FCCD00"/><stop offset=".668" stop-color="#F1942E"/><stop offset=".888" stop-color="#EA652D"/><stop offset="1" stop-color="#E5352B"/></linearGradient><path fill="url(#s)" d="M176.285 223.348"/><path fill="#50443A" d="M172.961 226.551c.023-1.305.716-2.341 1.79-2.917-1.295.486-2.175 1.646-2.201 3.112-.034 1.917 1.494 3.5 3.412 3.534.614.011 2.942-.45 3.203-2.622-.616 1.671-2.396 2.179-2.847 2.171-1.918-.033-3.391-1.361-3.357-3.278z"/></g></svg>