<svg xmlns="http://www.w3.org/2000/svg" width="210.833" height="315" viewBox="0 0 210.833 315"><g><path fill="#A4A4A5" d="M128.939 300.363l-19.372 11.357-21.544-11.107.534-59 50.249-5.001z"/><path fill="#727171" d="M108.582 285.113l.985 26.607-25.253-11.482-7.557-29.958z"/><path fill="#C9CACA" stroke="#F7F8F8" stroke-width=".6" stroke-miterlimit="10" d="M83.556 115.697l5.196 26.544-8.729 19.706s-25.058 6.569-26.694 12.354c-1.636 5.785-9.044 19.492-9.044 19.492l12.905 38.82 20 38.5 32.377 14 25.542-10.449 10.699-28.945 4.239-64.815-21.606-14.766 2.176-15.193 7.426-6.226"/><linearGradient id="a" gradientUnits="userSpaceOnUse" x1="111.434" y1="186.197" x2="111.434" y2="120.53"><stop offset="0" stop-color="#C9CACA"/><stop offset="1" stop-color="#636262"/></linearGradient><path fill="url(#a)" d="M86.449 121.912l10.547 31.202 25.36 31 2.427 2.083 1.629-1.046s6.925-12.579 7.027-13.412c.217-1.777-5.337-5.424-5.337-5.424l.67-4.868 1.583-10.646 6.063-4.813-33.979-25.458-15.99 1.382z"/><path fill="#C9CACA" stroke="#F7F8F8" stroke-width=".6" stroke-miterlimit="10" d="M137.439 65.363s19 6 18.5 36.75l-2.75 5v1.5l-.667 3.833s1.083 3.75 2.833 6.083l-4.583 4s-1.917 2.333-1 4.917l-1.75 3.833.75 7.333-1 1.833s-.917 4-.667 4.583-3.907 4.3-6.823 3.134c0 0-26.218-7.551-27.593-10.426l-10.875-13.75-1.25-1.875s-10.625 3.75-16.625-4.5l-8.5-16.12 1-13.13s10.75-24.25 22.5-27.75c0 .002 24.25-6.248 38.5 4.752z"/><linearGradient id="b" gradientUnits="userSpaceOnUse" x1="102.166" y1="284.436" x2="102.166" y2="220.662"><stop offset="0" stop-color="#898989"/><stop offset=".042" stop-color="#939394"/><stop offset=".15" stop-color="#A8A8A9"/><stop offset=".273" stop-color="#B7B8B8"/><stop offset=".419" stop-color="#C1C2C3"/><stop offset=".608" stop-color="#C7C8C9"/><stop offset="1" stop-color="#C9CACA"/></linearGradient><path fill="url(#b)" d="M145.808 220.662l-87.285 12.789 18.75 37.204 32.294 13.781 25.542-9.771 7.521-24.199"/><path fill="#727171" d="M154.845 90.798l-5.301 14.377s.793 3.773 2.727 7.012l.592-3.402c.097-.56-.084-1.229.092-1.609.521-1.123 2.688-5.063 2.688-5.063s0-8.875-.798-11.315z"/><path fill="#898989" d="M154.731 118.374s-10.357 1.922-9.292 4.083l3.757 1.699 5.535-5.782zM149.265 127.447l-7.083 1.479-3.375 1.875 8.708.479s1.968-1.881 1.75-3.833z"/><linearGradient id="c" gradientUnits="userSpaceOnUse" x1="143.535" y1="144.035" x2="143.535" y2="133.926"><stop offset="0" stop-color="#E6E6E6"/><stop offset="1" stop-color="#A4A4A5"/></linearGradient><path fill="url(#c)" d="M138.806 133.926l9.067.862.391 3.826s-1.92 6.255-1.652 5.328c.553-1.918-2.377-1.463-3.985-3.265-1.22-1.365-3.008-3.688-3.008-3.688l-.813-3.063z"/><path fill="#515151" d="M149.544 105.176l6.099-3.063-2.75 4.906-.078 1.146-.656 4.047c-.001.001-2.354-3.411-2.615-7.036z"/><path fill="#898989" d="M132.46 174.447l16.691 7.458-20.691-15.208z"/><path fill="#9FA0A0" stroke="#fff" stroke-miterlimit="10" d="M69.189 181.251l-15.937-5.513-7.813 18.331 12.512 39.466 6.756 12.185 8.732-27.109z"/><path fill="#727171" stroke="#F7F8F8" stroke-width=".6" stroke-miterlimit="10" d="M94.689 270.28"/><path fill="#C9CACA" stroke="#F7F8F8" stroke-width=".6" stroke-miterlimit="10" d="M87.033 245.72M109.567 285.113"/></g></svg>