<svg xmlns="http://www.w3.org/2000/svg" width="210.833" height="315" viewBox="0 0 210.833 315"><g><linearGradient id="a" gradientUnits="userSpaceOnUse" x1="173.859" y1="223.766" x2="171.796" y2="221.702"><stop offset="0" stop-color="#EF8051"/><stop offset=".99" stop-color="#E599AF"/></linearGradient><path fill="url(#a)" d="M172.804 222.178l-.631-.362-.854.362.152.83 1.333 1.812 1.403-1.648.187-.982-.831-.374z"/><path fill="#AD3377" d="M172.173 221.816l.683-.193-.052.555z"/><path fill="#BD7BA9" d="M172.856 221.623l.707.193-.759.362z"/><path fill="#CA4B8C" d="M173.563 221.816l.831-.193v.567z"/><path fill="#8F2258" d="M175.054 221.688l.551.128-.788.836-.423-.462z"/><path fill="#57112E" d="M174.394 222.19l-.187.982.61-.52z"/><path fill="#AD3377" d="M173.563 221.816l-.707-.193.778-.917.727.917.033.567.66-.502-.66-.065"/><path fill="#A4202B" d="M175.605 221.816s.079 1.187-.21 1.677l-.578-.841.788-.836z"/><path fill="#6B1735" d="M174.361 221.623l.535-.859s.444.28.709 1.052l-.575-.128-.669-.065z"/><path fill="#6D2B4B" d="M173.634 220.706s.657-.383 1.262.059l-.535.859-.727-.918z"/><path fill="#D35E50" d="M174.207 223.172l.006-.038.604-.482.579.841-.884.351-.305-.672"/><path fill="#AD3052" d="M174.207 223.172l.305.672-.905.032z"/><path fill="#B61F6F" d="M174.512 223.844l.519.403s.31-.491.365-.754l-.884.351z"/><path fill="#A4202B" d="M174.512 223.844l-.083 1.139s.363-.409.602-.736l-.519-.403z"/><path fill="#AF3462" d="M174.512 223.844h-.878l-.193.227v.988l.987-.076z"/><path fill="#A4202B" d="M173.441 224.071l-.637.749.47.435.167-.196z"/><path fill="#8D1878" d="M173.346 225.17l.428.479s.486-.471.654-.667l-.987.076-.095.112z"/><path fill="#CD2A1D" d="M173.274 225.255l-.417.982s.754-.427.917-.587l-.428-.479-.072.084z"/><path fill="#8D1878" d="M172.371 225.17l.903.085-.47-.435z"/><path fill="#AF3462" d="M172.371 225.17v.085l.485.982.418-.982zM172.371 225.17l-.03.042-.32.438s.518.431.802.519"/><path fill="#F1D7E2" d="M171.319 221.547v.631l.854-.362z"/><path fill="#8F1F52" d="M173.634 220.706l-.807.585.029.332z"/><path fill="#62101B" d="M172.827 221.291l-.683-.555.712.887z"/><path fill="#DA755A" d="M172.144 220.736l-.825.811.854.269.683-.193z"/><path fill="#D02A7C" d="M172.144 220.736s-.836-.323-1.355.075l-.082.105.613.631.824-.811z"/><path fill="#D63634" d="M170.706 220.916s-.432.38-.59.947l1.204-.315-.614-.632z"/><path fill="#DAB4CA" d="M170.116 221.863l.774.789.429-.474v-.631z"/><path fill="#F1D7E2" d="M171.319 222.178l-.429.474.581.356zM171.471 223.008l-.152.862.908.166z"/><path fill="#8C235B" d="M170.116 221.863s.029 1.166.187 1.63l.587-.841-.774-.789z"/><path fill="#C26A8F" d="M170.89 222.652l.581.356-.152.836-1.016-.351z"/><path fill="#AF8EBA" d="M172.227 224.036l.005.039.139 1.066.433-.321z"/><path fill="#B21A79" d="M171.319 223.844v1.194l1.052.132-.144-1.134z"/><path fill="#A63074" d="M170.303 223.493s.316.661.403.707l.613-.356-1.016-.351z"/><path fill="#C074A4" d="M170.706 224.2l.613.838v-1.194z"/><path fill="#3C081C" d="M171.319 225.038l.702.611.35-.479z"/><g><radialGradient id="b" cx="172.845" cy="226.833" r=".596" gradientUnits="userSpaceOnUse"><stop offset=".173" stop-color="#fff"/><stop offset=".19" stop-color="#FDF2EA"/><stop offset=".229" stop-color="#F6D4BE"/><stop offset=".27" stop-color="#F0B998"/><stop offset=".312" stop-color="#EBA27B"/><stop offset=".358" stop-color="#E89165"/><stop offset=".408" stop-color="#E58557"/><stop offset=".464" stop-color="#E47D4E"/><stop offset=".543" stop-color="#E37B4C"/><stop offset=".725" stop-color="#E2796E"/><stop offset=".99" stop-color="#E1759B"/></radialGradient><circle fill="url(#b)" cx="172.845" cy="226.833" r=".596"/><radialGradient id="c" cx="172.856" cy="228.025" r=".596" gradientUnits="userSpaceOnUse"><stop offset=".173" stop-color="#fff"/><stop offset=".19" stop-color="#FDF2EA"/><stop offset=".229" stop-color="#F6D4BE"/><stop offset=".27" stop-color="#F0B998"/><stop offset=".312" stop-color="#EBA27B"/><stop offset=".358" stop-color="#E89165"/><stop offset=".408" stop-color="#E58557"/><stop offset=".464" stop-color="#E47D4E"/><stop offset=".543" stop-color="#E37B4C"/><stop offset=".691" stop-color="#C96C6C"/><stop offset=".99" stop-color="#8A4A99"/></radialGradient><circle fill="url(#c)" cx="172.856" cy="228.025" r=".596"/><radialGradient id="d" cx="172.856" cy="229.218" r=".596" gradientUnits="userSpaceOnUse"><stop offset=".173" stop-color="#fff"/><stop offset=".19" stop-color="#FDF2EA"/><stop offset=".229" stop-color="#F6D4BE"/><stop offset=".27" stop-color="#F0B998"/><stop offset=".312" stop-color="#EBA27B"/><stop offset=".358" stop-color="#E89165"/><stop offset=".408" stop-color="#E58557"/><stop offset=".464" stop-color="#E47D4E"/><stop offset=".543" stop-color="#E37B4C"/><stop offset=".725" stop-color="#E2796E"/><stop offset=".99" stop-color="#E1759B"/></radialGradient><circle fill="url(#d)" cx="172.856" cy="229.218" r=".596"/></g></g></svg>