<svg xmlns="http://www.w3.org/2000/svg" xmlns:xlink="http://www.w3.org/1999/xlink" width="210.833" height="315" viewBox="0 0 210.833 315"><g><path opacity=".5" fill="#474747" d="M127.547 273.987l.59-4.062s-5.843-.553-6.48-3.958c0 0-1.61-2.441-5.41-2.654 0 0-10.108.613-16.094-10.538 0 0-2.96-.859-2.515-6.359 0 0 3.652-.931 2.424-12.08l-9.443 2.762s-4.216 29.161 36.928 39.344v-2.455z"/><path opacity=".3" fill="#040000" d="M134.147 278.587l22.738 1.913s4.133-4.746 1.407-8.006c0 0-1.993 2.096-21.289-2.199l-3.356 5.139.5 3.153"/><defs><path id="a" d="M96.184 234.767l13.133 42.051 18.68-3.583-23.711-39.59z"/></defs><clipPath id="b"><use xlink:href="#a" overflow="visible"/></clipPath><path opacity=".3" clip-path="url(#b)" fill="#040000" d="M127.547 273.799l.59-4.062s-5.843-.553-6.48-3.958c0 0-1.61-2.441-5.41-2.654 0 0-10.108.613-16.094-10.538 0 0-2.96-.859-2.515-6.359 0 0 3.652-.931 2.424-12.08l-9.443 2.762s-4.216 29.161 36.928 39.344v-2.455z"/><path fill="#fff" d="M94.52 244.309c.042.458-.296.863-.754.905-.458.041-.864-.297-.905-.755l-.38-4.212c-.042-.458.296-.863.755-.905.458-.041.863.297.905.755l.379 4.212zM97.777 254.042c.18.423-.018.913-.441 1.092-.424.18-.913-.018-1.093-.441l-1.653-3.893c-.18-.423.018-.913.441-1.093.423-.18.913.018 1.093.441l1.653 3.894zM104.035 261.483c.329.321.336.849.015 1.178-.322.33-.849.336-1.179.016l-3.028-2.953c-.329-.321-.336-.849-.015-1.178.321-.329.849-.336 1.178-.015l3.029 2.952zM111.544 266.992c.386.25.496.767.246 1.152-.251.386-.767.496-1.153.246l-3.547-2.303c-.386-.25-.496-.767-.246-1.152.251-.386.767-.496 1.153-.246l3.547 2.303zM120.93 271.64c.413.203.583.703.379 1.116-.204.413-.703.582-1.116.379l-3.792-1.872c-.413-.203-.583-.703-.379-1.116.204-.413.703-.582 1.116-.379l3.792 1.872zM144.713 276.258c.457.058.78.476.721.932-.059.457-.476.779-.932.722l-4.195-.537c-.457-.058-.78-.475-.722-.932.059-.457.476-.779.933-.722l4.195.537zM154.786 276.818c.46.004.83.382.824.842-.005.46-.382.829-.843.825l-4.228-.048c-.461-.004-.831-.382-.825-.842.006-.46.382-.829.843-.824l4.229.047z"/></g><g><path fill="#748A98" d="M126.189 268.848l.609 7.684 5.715 3.429 5.103-4.288-.019-.246.002.036-.002-.036-.593-7.47-5.715-3.429.002.033z"/><path fill="#424D53" d="M127.721 269.761l.446 5.618 4.178 2.508 3.732-3.136-.014-.179.001.026-.001-.026-.433-5.463-4.18-2.507.002.024z"/><path opacity=".5" fill="#5D7081" d="M128.947 274.727l-2.149 1.805 5.715 3.429-.258-4.603zM131.291 264.561l.229 2.854 3.599 2.119 1.885-1.577z"/><path opacity=".5" fill="#3C4750" d="M126.189 268.848l2.717 1.567-.132 4.445-1.976 1.672zM134.147 273.529l3.469 2.144-.612-7.716-2.634 2.016.138 3.699"/><path opacity=".5" fill="#474747" d="M134.641 266.539l2.651 5.043-.288-3.625-2.363-1.418"/><path opacity=".5" fill="#474747" d="M126.493 272.69l3.162 5.556-2.857-1.714z"/></g><g><linearGradient id="c" gradientUnits="userSpaceOnUse" x1="126.766" y1="267.878" x2="123.676" y2="270.968" gradientTransform="matrix(.997 -.072 .072 .997 -13.981 9.192)"><stop offset="0" stop-color="#5A817E"/><stop offset=".995" stop-color="#0061B0"/></linearGradient><path fill="url(#c)" d="M131.637 268.796l-.146-1.695-3.378 2.838 1.322.739z"/><linearGradient id="d" gradientUnits="userSpaceOnUse" x1="123.02" y1="270.277" x2="123.02" y2="270.277" gradientTransform="matrix(.997 -.072 .072 .997 -13.981 9.192)"><stop offset="0" stop-color="#E4A67C"/><stop offset=".995" stop-color="#EF90B9"/></linearGradient><path fill="url(#d)" d="M128.125 269.934z"/><linearGradient id="e" gradientUnits="userSpaceOnUse" x1="126.592" y1="269.363" x2="130.203" y2="269.363" gradientTransform="matrix(.997 -.072 .072 .997 -13.981 9.192)"><stop offset="0" stop-color="#18364E"/><stop offset=".003" stop-color="#17364F"/><stop offset=".086" stop-color="#153755"/><stop offset=".181" stop-color="#133859"/><stop offset=".319" stop-color="#12385A"/><stop offset=".995" stop-color="#1E465E"/></linearGradient><path fill="url(#e)" d="M135.284 269.352l-3.784-2.27.137 1.714 2.472 1.483z"/><linearGradient id="f" gradientUnits="userSpaceOnUse" x1="129.002" y1="272.803" x2="130.278" y2="272.771" gradientTransform="matrix(.997 -.072 .072 .997 -13.981 9.192)"><stop offset=".005" stop-color="#2D2D4D"/><stop offset=".02" stop-color="#2C2F4E"/><stop offset=".118" stop-color="#253754"/><stop offset=".224" stop-color="#1B3C59"/><stop offset=".338" stop-color="#10405C"/><stop offset=".468" stop-color="#06425D"/><stop offset=".647" stop-color="#03425D"/><stop offset=".716" stop-color="#00465F"/><stop offset=".831" stop-color="#004760"/><stop offset=".995" stop-color="#00465F"/></linearGradient><path fill="url(#f)" d="M134.365 273.51v-.002.002l.009.106 1.314.843-.404-5.107-1.175.927z"/><linearGradient id="g" gradientUnits="userSpaceOnUse" x1="125.364" y1="270.232" x2="120.228" y2="270.314" gradientTransform="matrix(.997 -.072 .072 .997 -13.981 9.192)"><stop offset="0" stop-color="#DE7469"/><stop offset=".109" stop-color="#E58770"/><stop offset=".253" stop-color="#ED9976"/><stop offset=".416" stop-color="#F2A67A"/><stop offset=".614" stop-color="#F5AD7C"/><stop offset=".946" stop-color="#F5AF7D"/></linearGradient><path fill="url(#g)" d="M128.124 269.919l.001.015.009-.009z"/><linearGradient id="h" gradientUnits="userSpaceOnUse" x1="125.401" y1="272.808" x2="120.281" y2="272.89" gradientTransform="matrix(.997 -.072 .072 .997 -13.981 9.192)"><stop offset="0" stop-color="#575D6E"/><stop offset=".109" stop-color="#3C6674"/><stop offset=".253" stop-color="#036E79"/><stop offset=".416" stop-color="#00737D"/><stop offset=".614" stop-color="#00767F"/><stop offset=".946" stop-color="#00777F"/></linearGradient><path fill="url(#h)" d="M129.435 270.678l-1.307-.73.405 5.093 1.165-1.04z"/><linearGradient id="i" gradientUnits="userSpaceOnUse" x1="124.152" y1="277.329" x2="126.769" y2="274.84" gradientTransform="matrix(.997 -.072 .072 .997 -13.981 9.192)"><stop offset="0" stop-color="#2D596E"/><stop offset=".002" stop-color="#2D596E"/><stop offset=".18" stop-color="#07515A"/><stop offset=".357" stop-color="#004849"/><stop offset=".53" stop-color="#00403B"/><stop offset=".697" stop-color="#003931"/><stop offset=".857" stop-color="#00342A"/><stop offset="1" stop-color="#003228"/></linearGradient><path fill="url(#i)" d="M129.694 273.987l-1.165 1.04 3.782 2.27-.144-1.826z"/><linearGradient id="j" gradientUnits="userSpaceOnUse" x1="126.654" y1="276.161" x2="130.24" y2="276.161" gradientTransform="matrix(.997 -.072 .072 .997 -13.981 9.192)"><stop offset=".005" stop-color="#00958C"/><stop offset=".098" stop-color="#36A199"/><stop offset=".327" stop-color="#91C1B9"/><stop offset=".535" stop-color="#C5DCD5"/><stop offset=".715" stop-color="#E6F0EA"/><stop offset=".86" stop-color="#F9FBF6"/><stop offset=".951" stop-color="#FFFFFB"/></linearGradient><path fill="url(#j)" d="M134.374 273.616l-2.207 1.855.144 1.826 3.377-2.838z"/><linearGradient id="k" gradientUnits="userSpaceOnUse" x1="125.111" y1="270.847" x2="128.059" y2="274.529" gradientTransform="matrix(.997 -.072 .072 .997 -13.981 9.192)"><stop offset=".297" stop-color="#625E6E"/><stop offset=".99" stop-color="#0065B1"/></linearGradient><path fill="url(#k)" d="M129.432 270.665l.262 3.322 2.473 1.484 2.207-1.855-.009-.106.002.015-.002-.015-.256-3.231-2.472-1.483.001.014z"/><circle opacity=".5" fill="#fff" cx="133.648" cy="273.589" r="1.845"/><circle opacity=".5" fill="#fff" cx="133.689" cy="271.452" r=".957"/><circle opacity=".5" fill="#fff" cx="132.731" cy="271.76" r=".804"/></g></svg>