<svg xmlns="http://www.w3.org/2000/svg" width="210.833" height="315" viewBox="0 0 210.833 315"><g><path fill="#EFEFEF" stroke="#fff" stroke-width=".3" stroke-miterlimit="10" d="M149.328 180.37c-4.365-4.566-20.046-10.935-20.393-14.122-.693-6.374 2.699-13.339 2.699-13.339 2.652-6.864 9.256-9.514 9.256-9.514l-27.344-24.034s-23.153-6.905-18.812 0c4.342 6.906-3.376 24.034-3.376 24.034-3.468 6.397-5.417 10.225-10.25 14.106-9.28 7.454-21.492 11.807-21.492 11.807-14 11.362-15.283 24.484-12.563 36.346 0 0 5.176 52.127 30.589 65.011 19.157 9.713 43.538 2.365 55.179-5.752 3.801-2.651 6.802-7.161 6.802-7.161 4.223-15.796 9.622-24.3 10.855-35.242.024-.33-3.028-25.983-2.979-26.341.98-7.131 6.193-11.233 1.829-15.799z"/><path fill="#A4A4A5" d="M129.414 299.914l-19.373 11.357-21.544-11.107.534-59 50.249-5.001z"/><path fill="#727171" d="M109.056 284.664l.985 26.607-25.252-11.482-7.558-29.958z"/><linearGradient gradientUnits="userSpaceOnUse" x1="102.64" y1="283.987" x2="102.64" y2="220.212"><stop offset="0" stop-color="#898989"/><stop offset=".076" stop-color="#A6A6A7"/><stop offset=".161" stop-color="#BEBFBF"/><stop offset=".256" stop-color="#D1D1D2"/><stop offset=".363" stop-color="#DEDFDF"/><stop offset=".489" stop-color="#E8E8E9"/><stop offset=".654" stop-color="#EDEEEE"/><stop offset=".995" stop-color="#EFEFEF"/></linearGradient><linearGradient id="a" gradientUnits="userSpaceOnUse" x1="105.8" y1="297.542" x2="98.116" y2="207.323"><stop offset="0" stop-color="#898989"/><stop offset=".076" stop-color="#A6A6A7"/><stop offset=".161" stop-color="#BEBFBF"/><stop offset=".256" stop-color="#D1D1D2"/><stop offset=".363" stop-color="#DEDFDF"/><stop offset=".489" stop-color="#E8E8E9"/><stop offset=".654" stop-color="#EDEEEE"/><stop offset=".995" stop-color="#EFEFEF"/></linearGradient><path fill="url(#a)" stroke="#fff" stroke-width=".3" stroke-miterlimit="10" d="M60.642 252.468s6.985 12.681 16.587 17.981l31.823 14.214 23.775-10.414s11.215-25.917 13.106-34.998c0 0 9.12-16.623-90.319 2.229 0 .001 3.267 8.118 5.028 10.988z"/><path fill="#EFEFEF" d="M54.5 238.451l.771 1.653.854 2.271 89.521-2.5.781-2.312.069-2.125-7.216-9.24-84.78 12.253"/><linearGradient id="b" gradientUnits="userSpaceOnUse" x1="-161.97" y1="250" x2="-161.97" y2="179.763" gradientTransform="matrix(-1 0 0 1 -100.776 0)"><stop offset="0" stop-color="#EFEFEF"/><stop offset="1" stop-color="#3E3A39"/></linearGradient><path opacity=".7" fill="url(#b)" stroke="#fff" stroke-width=".3" stroke-miterlimit="10" d="M57.941 179.98s13.631 7.395 13.916 25.375c.284 17.979-4.531 44.645-4.531 44.645s-9.669-23.636-13.36-32.944c-3.692-9.308-6.816-40.166 3.975-37.076z"/><path fill="#C9CACA" stroke="#fff" stroke-width=".3" stroke-miterlimit="10" d="M144.523 235.099s-12.459 1.237-22.363-2.577-24.313 13.984-37.13 13.348c-12.818-.636 23.749 21.681 59.493-10.771z"/></g><g><path fill="#E8E8E8" stroke="#C9CACA" stroke-width="3" stroke-miterlimit="10" d="M82.172 168.305"/><path fill="#C9CACA" d="M136.392 184.369l-13.085-31.539.224-6.261-21.749-24.353-7.77 2.649-11.84 41.183 41.967 26.799z"/><path fill="#727171" d="M147.861 183.535l-11.469.834-6.765-13.325z"/><path fill="#9FA0A0" d="M-21.857 229.221"/><path fill="#848484" stroke="#fff" stroke-width=".3" stroke-miterlimit="10" d="M155.754 102.612s2.682 15.629 0 17.479c-2.683 1.85-3.792 2.999-3.144 3.996 0 0 5.087 6.188 3.144 9.235-1.942 3.046-6.011 4.998-6.011 4.998s-1.387 1.656 0 3.32c0 0 2.709 1.263 2.239 10.923l-.019.36s.615 1.295 1.787 2.312c0 0 7.276 4.439 7.092 9.988 0 0 2.127 4.81 8.046 7.399l-15.167 2.775s-2.478-5.005-2.762-7.53c-.034-.306-.036-.574.003-.794.353-2.035-.724 7.399 0 8.324l-7.723 2.035s-1.273-6.844-1.223-9.804l-.002 6.66-10.477.554-8.23-22.012.832-23.306 20.427-33.48 11.188 6.568z"/><path fill="#EFEFEF" stroke="#fff" stroke-width=".3" stroke-miterlimit="10" d="M144.101 70.333s10.656 16.695 11.606 29.2c.021.257.036.512.046.766 0 0-10.172 6.843-7.398 18.867l.74 5.549-4.069 4.81.74 4.255-1.665 2.589v2.774s-2.405 6.104-3.515 9.25l-1.942 2.682s-3.329 1.85-7.028 0l-7.337-4.103s-11.789-5.519-12.852-5.888c0 0-6.167-2.356-7.185-6.055-1.017-3.7-2.191-12.717-3.486-14.135l-5.509.295-4.601-1.405s-2.714 2.589-7.77-13.194c0 0-.494-5.919 4.933-5.426l7.4 3.33c-.001-.002 15.412-45.629 48.892-34.161z"/><path fill="#B5B5B6" d="M147.43 103.534c.091-.199 1.153-2.719 3.042-2.515 1.086.118 2.818.167 2.788 1.024-.023.688-.514.46-.898 1.491-.487 1.31-.864 2.379-.864 2.379s-.558 1.078-1.258 2.775c-.316.766-1.864 1.274-2.127 2.29-.437 1.69-.714 3.684-.551 5.843.026.328.122.665.17 1l.105.505c.141.824.229 1.631.343 2.488 0 0-2.488-4.431-2.903-10.702v-2.044c0-.001-.452 1.139 2.153-4.534z"/><path fill="#555656" d="M142.526 85.803s-4.638-7.282-17.824 0c-13.187 7.282-28.725 32.5-14.667 38.203 0 0-6.905 2.25-8.016-16.986-1.11-19.238 0-.493 0-.493l24.003-28.116 6.333-2.959 10.975 2.836-.804 7.515z"/><path fill="#9FA0A0" stroke="#fff" stroke-width=".3" stroke-miterlimit="10" d="M124.309 83.898s11.222-11.961 17.018-1.356c0 0 4.564 14.764 7.769 17.88 0 0-3.083-9.002-3.33-15.908 0 0 7.317 10.633 7.399 14.306 0 0 .616 9.618 13.071 2.219 12.455-7.399 3.33-3.33 3.33-3.33s-10.976 5.919-10.729 1.111l2.959-2.836s0 .863-1.109-2.097c0 0-11.232-23.45-16.642-24.733-.129-.03-.254-.046-.377-.052-5.245-.209-17.695-11.068-28.331-11.161 0 0-22.104 1.757-37.365 20.439 0 0-15.198 34.867-10.758 37.827 0 0 7.346 18.874 5.867 21.587l1.902 4.309s-.986 3.329.862 4.562l5.55 2.59s1.868 2.976.777 8.278c0 0-3.342 4.373-4.359 4.373 0 0-3.784 7.985-.454 13.627 3.33 5.642 10.511 3.01 11.898 3.656 1.389.647-7.368 10.696 1.696 9.492 9.064-1.202 10.42-2.186 10.42-2.186-6.976-28.366 5.672 0 5.672 0l8.012-4.781-9-12.729 7.398 7.029 6.66 6.112 5.692-2.288s-6.41-7.154-6.5-7.277c-2.522-3.452-16.333-12.208-15.224-30.705 0 0 1.445-15.755-4.748-18.713l-4.091-1.955-.337-.103-4.142-1.673s-2.096-.37-2.466-.739l-.37-.37-4.316-11.099s-1.38-1.479-.751-3.082c0 0 1.073-4.208 4.944-2.712l7.09 2.403 3.515 5.55s-6.597 10.296 3.33 14.428c0 0-2.59-6.967-1.048-9.68 1.541-2.714-1.418.37 14.983-17.881l8.633-12.332z"/><path opacity=".5" fill="#B5B5B6" d="M120.94 108.302s6.112 8.592 16.195 1.165c0 0-2.371-6.957-16.195-1.165z"/><path fill="#fff" stroke="#9FA0A0" stroke-miterlimit="10" d="M121.673 108.184s3.123 4.596 9.207 3.625c0 0 1.493-.36 2.941-1.142.909-.49 1.706-1.23 2.399-1.889 1.799-1.709-6.392-3.783-6.84-3.082 0 0-3.507.38-7.707 2.488z"/><linearGradient id="c" gradientUnits="userSpaceOnUse" x1="126.288" y1="111.019" x2="126.288" y2="105.228"><stop offset="0" stop-color="#DCDDDD"/><stop offset=".058" stop-color="#D6D7D7"/><stop offset=".299" stop-color="#BFC0C0"/><stop offset=".538" stop-color="#AEAFAF"/><stop offset=".769" stop-color="#A3A4A4"/><stop offset=".985" stop-color="#9FA0A0"/></linearGradient><path fill="url(#c)" d="M123.102 107.715s.785 2.646 2.856 3.226c0 0 2.849.731 3.512-2.305 0 0 .02-.325-.033-.742-.106-.866-.293-2.24-.434-2.506-.206-.393-5.877-.215-5.901 2.327z"/><ellipse fill="#595757" cx="126.926" cy="108.447" rx="1.516" ry="1.5"/><ellipse fill="#fff" cx="126.926" cy="108.446" rx="1.01" ry=".983"/><path fill="#DCDDDD" d="M122.09 111.582"/><path fill="#5A5B5B" d="M15.322 111.151"/><path fill="#B5B5B6" d="M147.861 123.605s-7.645 1.542-7.645 2.959c0 0 4.44 4.686 5.92.678l1.725-3.637z"/><path fill="#C9CACA" d="M135.13 134.055s-1.017.37 0 .833 3.699-.369 5.456-.416c0 0 3.515 1.342 3.978-1.803 0 0 .181-1.851-2.684-.648l-6.75 2.034z"/><path fill="#9FA0A0" d="M143.238 138.896s-.498 4.007-1.359 4.438c-.861.432-2.834 1.172-5.424-.739l-2.158-2.158c.001.001 3.761-3.452 8.941-1.541z"/><path fill="#9FA0A0" stroke="#727171" stroke-width="2" stroke-miterlimit="10" d="M109.82 187.964"/><path fill="#B5B5B6" d="M136.426 107.914s1.918 1.171 3.004 1.193c1.087.024 2.22 1.47 2.22 2.164 0 .693 1.343-2.575.51-5.063 0 0-5.298.438-5.734 1.706zM109.576 106.471s4.872 4.316 6.784 4.439c0 0 10.728-6.042 18.25-3.021 0 0 4.995.493 7.337-1.418 0 0 .432-.677-.862-1.294 0 0-6.536-7.09-8.818-6.659-2.281.432-.246-.02-.246-.02l-10.729 2.301-11.715 5.487"/><path fill="#9FA0A0" d="M121.645 101.014l-.323 3.376s-4.949 3.006-4.162 3.561c0 0 1.249 1.248 3.098 0 0 0 5.457-5.179 10.96-4.578 0 0 .923 1.294.462 1.665-.462.37-.186.323-.186.323s-9.644 1.097-11.942 4.04c0 0 7.948-3.006 12.257-2.23 0 0 4.408 1.876 6.761-.144 0 0 1.844-.646 2.841-.185.999.461 1.318-1.301-.899-2.269 0 0-6.32-6.663-7.676-6.288 0 .001-10.775 1.943-11.191 2.729z"/><path fill="#595757" d="M115.079 110.482l1.281.428s12.083-6.205 18.761-3.104c0 0-.314-3.137-.823-3.102-12.625.852-12.307 2.495-19.219 5.778z"/><path fill="#B5B5B6" d="M86.946 108.584s1.703 13.297 7.065 5.015c.001 0-5.62-1.074-7.065-5.015z"/><path fill="#5D5E5E" d="M129.473 99.044l2.771.725s6.861 4.751 7.972 6.682c1.113 1.931 2.478 3.908 2.21 1.833-.158-1.231.206-1.821-.982-3.15-.812-.911-2.256-1.891-5.478-4.771 0 0-2.313-2.289-3.131-2.077-.815.212-3.362.758-3.362.758z"/></g></svg>