<svg xmlns="http://www.w3.org/2000/svg" width="210.833" height="315" viewBox="0 0 210.833 315"><g><path fill="#A4A4A5" d="M129.116 300.278l-19.373 11.356-21.544-11.106.534-59 50.249-5.001z"/><path fill="#727171" d="M108.758 285.028l.985 26.606-25.252-11.481-7.558-29.958z"/><path fill="#E8E8E8" stroke="#fff" stroke-width=".3" stroke-miterlimit="10" d="M83.711 115.611l5.196 26.544-8.729 19.706s-25.058 6.569-26.694 12.354c-1.636 5.785-9.044 19.492-9.044 19.492l12.905 38.82 20 38.5 32.377 14 25.542-10.449 10.699-28.945 4.239-64.815-21.606-14.766 2.176-15.193 7.426-6.226"/><linearGradient id="a" gradientUnits="userSpaceOnUse" x1="111.528" y1="187.066" x2="111.528" y2="119.994"><stop offset="0" stop-color="#C9CACA"/><stop offset="1" stop-color="#636262"/></linearGradient><path fill="url(#a)" d="M86.599 122.781l10.547 31.202 25.36 31 2.427 2.083 1.629-1.046s6.925-12.579 7.027-13.412c.217-1.777-5.337-5.424-5.337-5.424l.67-4.868 1.62-11.441 5.917-5.125-25.103-25.756-24.757 2.787z"/><linearGradient id="b" gradientUnits="userSpaceOnUse" x1="102.342" y1="284.351" x2="102.342" y2="220.576"><stop offset="0" stop-color="#898989"/><stop offset=".076" stop-color="#A6A6A7"/><stop offset=".161" stop-color="#BEBFBF"/><stop offset=".256" stop-color="#D1D1D2"/><stop offset=".363" stop-color="#DEDFDF"/><stop offset=".489" stop-color="#E8E8E9"/><stop offset=".654" stop-color="#EDEEEE"/><stop offset=".995" stop-color="#EFEFEF"/></linearGradient><path fill="url(#b)" d="M145.984 220.576l-87.284 12.789 18.749 37.204 32.294 13.782 25.542-9.772 7.522-24.199"/><path fill="#898989" d="M132.637 174.361l16.691 7.458-20.691-15.208z"/><path fill="#9FA0A0" stroke="#fff" stroke-miterlimit="10" d="M69.366 181.166l-15.938-5.513-7.812 18.331 12.511 39.465 6.756 12.185 8.733-27.108z"/><path fill="#727171" stroke="#F7F8F8" stroke-width=".6" stroke-miterlimit="10" d="M94.866 270.195"/><path fill="#C9CACA" stroke="#F7F8F8" stroke-width=".6" stroke-miterlimit="10" d="M87.209 245.634M109.743 285.028"/></g><g><path fill="#D8D8D8" d="M154.118 93.001"/><path fill="#aaa" stroke="#fff" stroke-width=".3" stroke-miterlimit="10" d="M116.722 61.712s8.128-7.019 12.528 3.136c0 0 5.984-2.163 9.111 0 3.128 2.162 3.965 3.384 9.782 1.862 5.816-1.524 6.832 5.838 7.34 7.784 0 0 6.854 7.616 0 12.608 0 0-3.423 3.302-2.601 5.502.822 2.2-1.382 4.061-1.382 4.061l-41.375 20.079-5.332 3.215s-11.17-4.742-21.325 12.935c0 0 .254 3.562-4.315 2.749-4.57-.812 2.666-1.151 2.031-5.868 0 0-.127-4.464-1.777-4.845s-4.062-4.188-4.316-8.186c0 0-2.285-6.919-5.331-6.664-3.047.252 0-.382 0-.382s4.95-3.173 4.189-10.281c-.762-7.109.634-10.028 4.357-11.297 0 0 1.27.846 1.016-3.554-.253-4.401 3.385-13.074 8.97-11.551 0 0 .381-11.424 9.393-10.789 9.012.634 6.346-7.542 12.608-.513.001-.001 3.874 1.575 6.429-.001z"/><linearGradient id="c" gradientUnits="userSpaceOnUse" x1="115.232" y1="123.276" x2="115.232" y2="78.034"><stop offset="0" stop-color="#595757"/><stop offset="1" stop-color="#898989"/></linearGradient><path fill="url(#c)" d="M107.136 119.869l-2.833.742s-7.909-.479-11.23 2.167c-3.323 2.644-5.287-5.915-5.119-9.47 0 0 .17-5.669-6.854-3.469-7.024 2.2 0-.507 0-.507s-9.293-4.839 1.608-7.857l6.007 3.358 2.37-4.641s-4.908-5.004-6.938-5.083c-2.031-.079 2.031-9.134 2.031-9.134l7.785 1.438 1.862-7.954 5.162 6.939 10.662-3.554s-1.522 6.262 0 7.023c1.524.762 2.54-7.532 3.555-10.408 1.016-2.877 9.074-.508 9.074-.508s-2.305 4.457-1.035 4.64c1.269.184 6.684-5.557 6.684-5.557s5.078 6.164 9.816 3.879c4.739-2.285 2.466 6.777 10.621 3.851l1.904 5.585.72 3.76s.361.203-.563 1.29c-.923 1.084-45.651 23.565-45.651 23.565"/><path fill="#84A09F" stroke="#6B8080" stroke-miterlimit="10" d="M107.376 120.244"/><path fill="#E8E8E8" stroke="#fff" stroke-width=".3" stroke-miterlimit="10" d="M150.588 95.179l2.398 7.406-2.408 6.295 4.253 9.849 1.571 3.743-5.636 1.823.186 3.32-1.533 4.055.029 2.837-2.656 3.885-.276 6.59-1.517 2.707-8.441.703-11.282-5.54-3.656-2.552-10.61-7.406-4.819-9.618-2.565-1.804-5.379 1.051-8.23-5.695-1.116-11.619 7.998-3.371 4.814 3.883 2.164 1.776 1.24 3.83 3.128 3.077 5.033.15 7.634-3.895.131-2.889-5.239-6.842 1.524-2.985 3.693-.128 4.83-7.612-.565-2.842 4.756-3.444 4.834 2.295 4.58-3.439 6.622 7.817 3.103.242 1.148 3.542z"/><path fill="#9FA0A0" d="M91.979 106.951l2.354 7.173 5.954 3.049.841-3.049-5.273-3.791z"/><path fill="#727171" d="M95.855 110.333h4.015l1.258 3.791z"/><path fill="#B6B6B7" d="M121.843 101.453c-.225.206 4.728 4.162 4.728 4.162l5.555 3.017 4.541-.95.712.637s8.218-2.728 8.027-7.024c0-.001-9.646-12.621-23.563.158z"/><path fill="#EFEFEF" d="M124.277 100.217"/><path fill="#B5B5B6" d="M145.189 122.029s3.361 1.826 4.549 1.952c1.529.161 6.193-1.792 6.193-1.792s-1.613-4.267-10.742-.16"/><path fill="#969695" d="M124.377 103.825s8.932-5.485 10.573-4.95c1.641.537 1.102-3.012 1.102-3.012s6.915 2.018 8.896 5.045c1.982 3.029-12.663 14.766-20.571 2.917z"/><path fill="#818282" d="M137.658 96.402l1.386 6.417-.595 5.094s6.86-3.214 6.958-6.619c-.001 0-2.182-3.318-7.749-4.892z"/><path fill="#727171" d="M125.476 104.303s2.575 3.67 6.348 4.22c0 0 5.653 1.425 9.501-3.081l-15.849-1.139z"/><path fill="#E8E8E8" d="M126.568 104.054s6.144 7.162 13.595.827c.001 0-5.456-3.789-13.595-.827z"/><ellipse fill="#494949" stroke="#000" stroke-width=".5" stroke-miterlimit="10" cx="135.232" cy="105.173" rx="1.865" ry="1.709"/><ellipse fill="#fff" stroke="#898989" stroke-miterlimit="10" cx="135.01" cy="105.173" rx=".983" ry="1.023"/><path fill="#4C4C4C" d="M127.111 102.932l-1.951 1.6s8.121-2.319 15.696 1.189c0 0 .829-.013.702-.718 0 0-5.126-5.423-14.447-2.071z"/><path fill="#C6C6C6" d="M151.051 127.615s-3.821-3.556-12.424 2.367l-.045 1.657s6.326-3.044 10.938.031c-.001 0 2.093-1.875 1.531-4.055z"/><path fill="#A0A0A0" d="M140.589 133.646s5.477-2.168 8.958.861l-2.654 3.885s-3.173-1.362-6.304-4.746z"/></g></svg>