<svg xmlns="http://www.w3.org/2000/svg" width="210.833" height="315" viewBox="0 0 210.833 315"><g><linearGradient id="a" gradientUnits="userSpaceOnUse" x1="101.745" y1="115.022" x2="114.595" y2="115.022" gradientTransform="matrix(.965 .263 -.263 .965 27.58 -25.061)"><stop offset="0" stop-color="#E8DD66"/><stop offset=".995" stop-color="#B99615"/></linearGradient><path fill="url(#a)" d="M101.463 118.23c-2.514-1.197-3.581-4.207-2.384-6.721 1.094-2.296 3.698-3.363 6.057-2.622-.2-.125-.387-.263-.605-.367-3.213-1.532-7.063-.167-8.594 3.048-1.531 3.215-.166 7.063 3.049 8.595 3.214 1.531 7.063.167 8.594-3.049.103-.217.161-.441.238-.665-1.364 2.063-4.058 2.875-6.355 1.781z"/><linearGradient id="b" gradientUnits="userSpaceOnUse" x1="101.746" y1="106.351" x2="105.769" y2="106.351" gradientTransform="matrix(.965 .263 -.263 .965 27.58 -25.061)"><stop offset="0" stop-color="#E8DD66"/><stop offset=".995" stop-color="#B99615"/></linearGradient><path fill="url(#b)" d="M99.339 102.799s-2.25 1.465-1.617 3.025c0 0 1.218 1.789 3.725.432 0 0-2.218-.434-1.126-1.113 0 0 1.302-.378.598-1.541-.001 0-.656-1.102-1.58-.803z"/><path fill="#676036" d="M100.102 105.32s-1.32 1.338-.299 1.441c0 0 .898-.012 1.644-.505-.001 0-1.276-.15-1.345-.936z"/><linearGradient id="c" gradientUnits="userSpaceOnUse" x1="105.216" y1="118.458" x2="114.598" y2="118.458" gradientTransform="matrix(.965 .263 -.263 .965 27.58 -25.061)"><stop offset="0" stop-color="#FFF21F"/><stop offset=".059" stop-color="#FFE400"/><stop offset=".13" stop-color="#FED700"/><stop offset=".203" stop-color="#FDCF00"/><stop offset=".281" stop-color="#FCCD00"/><stop offset=".668" stop-color="#F1942E"/><stop offset=".888" stop-color="#EA652D"/><stop offset="1" stop-color="#E5352B"/></linearGradient><path opacity=".6" fill="url(#c)" d="M98.626 114.511l1.416 6.047s4.427 1.341 7.091-2.613c0 0 .593-1.021.691-1.513 0 0-1.849 2.619-4.77 2.242-.001 0-3.544-.273-4.428-4.163z"/><linearGradient id="d" gradientUnits="userSpaceOnUse" x1="114.16" y1="109.993" x2="113.328" y2="110.824" gradientTransform="matrix(.999 -.055 .055 .999 -20.374 2.783)"><stop offset="0" stop-color="#E4A67C"/><stop offset=".995" stop-color="#EF90B9"/></linearGradient><path fill="url(#d)" d="M99.653 106.725l-.029-.46-.923.748.347.202z"/><linearGradient id="e" gradientUnits="userSpaceOnUse" x1="113.144" y1="110.642" x2="113.144" y2="110.642" gradientTransform="matrix(.999 -.055 .055 .999 -20.374 2.783)"><stop offset="0" stop-color="#E4A67C"/><stop offset=".995" stop-color="#EF90B9"/></linearGradient><path fill="url(#e)" d="M98.699 107.016z"/><linearGradient id="f" gradientUnits="userSpaceOnUse" x1="114.111" y1="110.395" x2="115.086" y2="110.395" gradientTransform="matrix(.999 -.055 .055 .999 -20.374 2.783)"><stop offset="0" stop-color="#E7273E"/><stop offset=".096" stop-color="#E83542"/><stop offset=".331" stop-color="#E9484C"/><stop offset=".603" stop-color="#EA5251"/><stop offset=".995" stop-color="#EA5453"/><stop offset="1" stop-color="#E7334D"/></linearGradient><path fill="url(#f)" d="M100.636 106.89l-1.012-.63.029.465.661.41z"/><linearGradient id="g" gradientUnits="userSpaceOnUse" x1="114.762" y1="111.326" x2="115.107" y2="111.317" gradientTransform="matrix(.999 -.055 .055 .999 -20.374 2.783)"><stop offset=".005" stop-color="#B33244"/><stop offset=".028" stop-color="#B63446"/><stop offset=".175" stop-color="#CA3D4B"/><stop offset=".332" stop-color="#D9444E"/><stop offset=".503" stop-color="#E24950"/><stop offset=".698" stop-color="#E84C51"/><stop offset=".966" stop-color="#E94C51"/><stop offset=".975" stop-color="#EA5252"/><stop offset=".995" stop-color="#EA5453"/><stop offset="1" stop-color="#EA5755"/></linearGradient><path fill="url(#g)" d="M100.369 108.01v-.001.001l.001.029.351.234-.085-1.383-.322.245z"/><linearGradient id="h" gradientUnits="userSpaceOnUse" x1="113.679" y1="110.633" x2="112.511" y2="110.652" gradientTransform="matrix(.999 -.055 .055 .999 -20.374 2.783)"><stop offset="0" stop-color="#DE7469"/><stop offset=".109" stop-color="#E58770"/><stop offset=".253" stop-color="#ED9976"/><stop offset=".416" stop-color="#F2A67A"/><stop offset=".614" stop-color="#F5AD7C"/><stop offset=".946" stop-color="#F5AF7D"/></linearGradient><path fill="url(#h)" d="M98.699 107.011v.005l.002-.003z"/><linearGradient id="i" gradientUnits="userSpaceOnUse" x1="113.79" y1="111.324" x2="112.403" y2="111.346" gradientTransform="matrix(.999 -.055 .055 .999 -20.374 2.783)"><stop offset="0" stop-color="#DE7469"/><stop offset=".109" stop-color="#E58770"/><stop offset=".253" stop-color="#ED9976"/><stop offset=".416" stop-color="#F2A67A"/><stop offset=".614" stop-color="#F5AD7C"/><stop offset=".946" stop-color="#F5AF7D"/></linearGradient><path fill="url(#i)" d="M99.049 107.219l-.35-.203.086 1.378.32-.277z"/><linearGradient id="j" gradientUnits="userSpaceOnUse" x1="114.126" y1="109.942" x2="113.286" y2="110.783" gradientTransform="matrix(.999 -.055 .055 .999 -20.374 2.783)"><stop offset="0" stop-color="#E4A67C"/><stop offset=".995" stop-color="#EF90B9"/></linearGradient><path fill="url(#j)" d="M99.049 107.219l-.001-.004-.347-.202-.002.003.35.203z"/><linearGradient id="k" gradientUnits="userSpaceOnUse" x1="113.781" y1="110.746" x2="112.395" y2="110.768" gradientTransform="matrix(.999 -.055 .055 .999 -20.374 2.783)"><stop offset="0" stop-color="#DE7469"/><stop offset=".109" stop-color="#E58770"/><stop offset=".253" stop-color="#ED9976"/><stop offset=".416" stop-color="#F2A67A"/><stop offset=".614" stop-color="#F5AD7C"/><stop offset=".946" stop-color="#F5AF7D"/></linearGradient><path fill="url(#k)" d="M99.049 107.219l-.001-.004-.347-.202-.002.003.35.203z"/><linearGradient id="l" gradientUnits="userSpaceOnUse" x1="113.452" y1="112.549" x2="114.159" y2="111.877" gradientTransform="matrix(.999 -.055 .055 .999 -20.374 2.783)"><stop offset="0" stop-color="#DE7469"/><stop offset=".002" stop-color="#DE7469"/><stop offset=".179" stop-color="#C76D53"/><stop offset=".355" stop-color="#AF643F"/><stop offset=".527" stop-color="#9A5A2E"/><stop offset=".694" stop-color="#8A5021"/><stop offset=".853" stop-color="#804A18"/><stop offset=".995" stop-color="#7C4814"/></linearGradient><path fill="url(#l)" d="M99.105 108.117l-.32.277 1.012.629-.031-.493z"/><linearGradient id="m" gradientUnits="userSpaceOnUse" x1="114.128" y1="112.233" x2="115.096" y2="112.233" gradientTransform="matrix(.999 -.055 .055 .999 -20.374 2.783)"><stop offset=".005" stop-color="#EAD18D"/><stop offset=".007" stop-color="#EAD18D"/><stop offset=".32" stop-color="#F2D9B8"/><stop offset=".593" stop-color="#F7E0D4"/><stop offset=".812" stop-color="#FBE4E5"/><stop offset=".951" stop-color="#FBE5EB"/></linearGradient><path fill="url(#m)" d="M100.37 108.039l-.604.491.031.493.924-.75z"/><linearGradient id="n" gradientUnits="userSpaceOnUse" x1="113.711" y1="110.797" x2="114.508" y2="111.792" gradientTransform="matrix(.999 -.055 .055 .999 -20.374 2.783)"><stop offset=".297" stop-color="#DE7469"/><stop offset=".995" stop-color="#EF90B9"/></linearGradient><path fill="url(#n)" d="M99.049 107.219l.056.898.661.413.604-.491-.001-.029v.004-.004l-.055-.875-.661-.41-.001.003z"/><linearGradient id="o" gradientUnits="userSpaceOnUse" x1="114.3" y1="110.133" x2="113.468" y2="110.965" gradientTransform="matrix(.999 -.055 .055 .999 -20.374 2.783)"><stop offset="0" stop-color="#E4A67C"/><stop offset=".995" stop-color="#EF90B9"/></linearGradient><path fill="url(#o)" d="M99.049 107.219l.603-.491.001-.003-.605.49z"/><linearGradient id="p" gradientUnits="userSpaceOnUse" x1="113.842" y1="110.689" x2="114.61" y2="111.648" gradientTransform="matrix(.999 -.055 .055 .999 -20.374 2.783)"><stop offset=".297" stop-color="#DE7469"/><stop offset=".995" stop-color="#EF90B9"/></linearGradient><path fill="url(#p)" d="M99.049 107.219l.603-.491.001-.003-.605.49z"/><circle opacity=".5" fill="#fff" cx="100.13" cy="108.027" r=".499"/><circle opacity=".5" fill="#fff" cx="100.195" cy="107.451" r=".259"/><circle opacity=".5" fill="#fff" cx="99.935" cy="107.53" r=".217"/><linearGradient id="q" gradientUnits="userSpaceOnUse" x1="104.929" y1="110.632" x2="110.019" y2="110.632" gradientTransform="matrix(.965 .263 -.263 .965 27.58 -25.061)"><stop offset="0" stop-color="#FFF21F"/><stop offset=".059" stop-color="#FFE400"/><stop offset=".13" stop-color="#FED700"/><stop offset=".203" stop-color="#FDCF00"/><stop offset=".281" stop-color="#FCCD00"/><stop offset=".668" stop-color="#F1942E"/><stop offset=".888" stop-color="#EA652D"/><stop offset="1" stop-color="#E5352B"/></linearGradient><path opacity=".6" fill="url(#q)" d="M99.619 110.625l-.278.404 1.464-3.064s1.216-.211 2.549.129c0 0 1.034.25 1.782.794 0 0-2.172-.784-4.229.554 0 0-1.026.598-1.687 1.793"/><linearGradient id="r" gradientUnits="userSpaceOnUse" x1="101.769" y1="118.404" x2="106.473" y2="118.404" gradientTransform="matrix(.965 .263 -.263 .965 27.58 -25.061)"><stop offset="0" stop-color="#FFF21F"/><stop offset=".059" stop-color="#FFE400"/><stop offset=".13" stop-color="#FED700"/><stop offset=".203" stop-color="#FDCF00"/><stop offset=".281" stop-color="#FCCD00"/><stop offset=".668" stop-color="#F1942E"/><stop offset=".888" stop-color="#EA652D"/><stop offset="1" stop-color="#E5352B"/></linearGradient><path opacity=".6" fill="url(#r)" d="M95.415 113.187l1.837 1.141 1.214 5.558s-1.946-.816-2.892-3.722c0 0-.478-1.289-.159-2.977z"/><circle fill="#fff" cx="96.788" cy="117.25" r=".313"/><circle fill="#fff" cx="97.555" cy="118.135" r=".467"/><circle fill="#fff" cx="98.6" cy="118.903" r=".576"/><circle fill="#fff" cx="100.057" cy="119.47" r=".74"/><ellipse transform="matrix(-.965 -.263 .263 -.965 164.941 240.897)" fill="#fff" cx="98.601" cy="109.404" rx=".34" ry=".327"/><ellipse transform="matrix(-.965 -.262 .262 -.965 163.491 241.796)" fill="#fff" cx="97.89" cy="109.982" rx=".433" ry=".416"/><ellipse transform="matrix(-.965 -.263 .263 -.965 161.934 243.476)" fill="#fff" cx="97.265" cy="110.898" rx=".559" ry=".539"/><linearGradient id="s" gradientUnits="userSpaceOnUse" x1="110.019" y1="108.872" x2="110.019" y2="108.872" gradientTransform="matrix(.965 .263 -.263 .965 27.58 -25.061)"><stop offset="0" stop-color="#FFF21F"/><stop offset=".059" stop-color="#FFE400"/><stop offset=".13" stop-color="#FED700"/><stop offset=".203" stop-color="#FDCF00"/><stop offset=".281" stop-color="#FCCD00"/><stop offset=".668" stop-color="#F1942E"/><stop offset=".888" stop-color="#EA652D"/><stop offset="1" stop-color="#E5352B"/></linearGradient><path fill="url(#s)" d="M105.136 108.887"/><path fill="#50443A" d="M98.931 112.429c.53-1.948 1.965-3.24 3.794-3.695-2.127.237-3.888 1.642-4.485 3.833-.779 2.864.911 5.819 3.775 6.599.917.25 4.584.444 5.803-2.716-1.56 2.273-4.423 2.358-5.097 2.175-2.865-.78-4.57-3.332-3.79-6.196z"/></g></svg>