<svg xmlns="http://www.w3.org/2000/svg" width="210.833" height="315" viewBox="0 0 210.833 315"><g><linearGradient id="a" gradientUnits="userSpaceOnUse" x1="96.05" y1="126.569" x2="91.409" y2="121.928"><stop offset="0" stop-color="#EF8051"/><stop offset=".99" stop-color="#E599AF"/></linearGradient><path fill="url(#a)" d="M93.676 122.999l-1.42-.815-1.92.815.342 1.866 2.998 4.076 3.156-3.707.42-2.209-1.867-.841z"/><path fill="#AD3377" d="M92.256 122.184l1.538-.434-.118 1.249z"/><path fill="#BD7BA9" d="M93.794 121.75l1.591.434-1.709.815z"/><path fill="#CA4B8C" d="M95.385 122.184l1.867-.434v1.275z"/><path fill="#8F2258" d="M98.738 121.895l1.241.289-1.774 1.879-.953-1.038z"/><path fill="#57112E" d="M97.252 123.025l-.42 2.209 1.373-1.171z"/><path fill="#AD3377" d="M95.385 122.184l-1.591-.434 1.748-2.064 1.637 2.064.073 1.275 1.486-1.13-1.486-.145"/><path fill="#A4202B" d="M99.979 122.184s.178 2.669-.473 3.773l-1.301-1.894 1.774-1.879z"/><path fill="#6B1735" d="M97.179 121.75l1.203-1.933s.999.631 1.597 2.366l-1.294-.289-1.506-.144z"/><path fill="#6D2B4B" d="M95.542 119.686s1.479-.861 2.84.132l-1.203 1.933-1.637-2.065z"/><path fill="#D35E50" d="M96.832 125.234l.015-.085 1.358-1.086 1.301 1.894-1.988.789-.686-1.512"/><path fill="#AD3052" d="M96.832 125.234l.686 1.512-2.035.072z"/><path fill="#B61F6F" d="M97.518 126.746l1.167.907s.697-1.104.822-1.696l-1.989.789z"/><path fill="#A4202B" d="M97.518 126.746l-.188 2.563s.815-.92 1.354-1.656l-1.166-.907z"/><path fill="#AF3462" d="M97.518 126.746h-1.974l-.435.511v2.223l2.222-.171z"/><path fill="#A4202B" d="M95.109 127.257l-1.433 1.684 1.057.979.376-.44z"/><path fill="#8D1878" d="M94.896 129.73l.962 1.078s1.093-1.06 1.473-1.499l-2.221.171-.214.25z"/><path fill="#CD2A1D" d="M94.733 129.92l-.939 2.209s1.696-.96 2.064-1.321l-.962-1.078-.163.19z"/><path fill="#8D1878" d="M92.702 129.73l2.031.19-1.057-.979z"/><path fill="#AF3462" d="M92.702 129.73v.19l1.092 2.209.939-2.209zM92.702 129.73l-.068.094-.72.984s1.164.969 1.804 1.168"/><path fill="#F1D7E2" d="M90.336 121.579v1.42l1.92-.815z"/><path fill="#8F1F52" d="M95.542 119.686l-1.814 1.314.066.75z"/><path fill="#62101B" d="M93.728 121l-1.538-1.246 1.604 1.996z"/><path fill="#DA755A" d="M92.19 119.754l-1.854 1.825 1.92.605 1.538-.434z"/><path fill="#D02A7C" d="M92.19 119.754s-1.88-.726-3.05.168l-.184.236 1.38 1.42 1.854-1.824z"/><path fill="#D63634" d="M88.956 120.159s-.973.855-1.328 2.13l2.708-.71-1.38-1.42z"/><path fill="#DAB4CA" d="M87.628 122.289l1.742 1.774.966-1.064v-1.42z"/><path fill="#F1D7E2" d="M90.336 122.999l-.966 1.064 1.308.802zM90.678 124.865l-.342 1.94 2.042.372z"/><path fill="#8C235B" d="M87.628 122.289s.066 2.623.42 3.668l1.321-1.894-1.741-1.774z"/><path fill="#C26A8F" d="M89.37 124.063l1.308.802-.342 1.881-2.288-.789z"/><path fill="#AF8EBA" d="M92.378 127.177l.012.089.312 2.398.974-.723z"/><path fill="#B21A79" d="M90.336 126.746v2.685l2.366.299-.324-2.553z"/><path fill="#A63074" d="M88.048 125.957s.711 1.485.908 1.591l1.38-.802-2.288-.789z"/><path fill="#C074A4" d="M88.956 127.548l1.38 1.883v-2.685z"/><path fill="#3C081C" d="M90.336 129.431l1.578 1.377.788-1.078z"/><g><radialGradient id="b" cx="93.768" cy="133.471" r="1.342" gradientUnits="userSpaceOnUse"><stop offset=".173" stop-color="#fff"/><stop offset=".19" stop-color="#FDF2EA"/><stop offset=".229" stop-color="#F6D4BE"/><stop offset=".27" stop-color="#F0B998"/><stop offset=".312" stop-color="#EBA27B"/><stop offset=".358" stop-color="#E89165"/><stop offset=".408" stop-color="#E58557"/><stop offset=".464" stop-color="#E47D4E"/><stop offset=".543" stop-color="#E37B4C"/><stop offset=".725" stop-color="#E2796E"/><stop offset=".99" stop-color="#E1759B"/></radialGradient><circle fill="url(#b)" cx="93.768" cy="133.471" r="1.342"/><radialGradient id="c" cx="93.794" cy="136.154" r="1.341" gradientUnits="userSpaceOnUse"><stop offset=".173" stop-color="#fff"/><stop offset=".19" stop-color="#FDF2EA"/><stop offset=".229" stop-color="#F6D4BE"/><stop offset=".27" stop-color="#F0B998"/><stop offset=".312" stop-color="#EBA27B"/><stop offset=".358" stop-color="#E89165"/><stop offset=".408" stop-color="#E58557"/><stop offset=".464" stop-color="#E47D4E"/><stop offset=".543" stop-color="#E37B4C"/><stop offset=".691" stop-color="#C96C6C"/><stop offset=".99" stop-color="#8A4A99"/></radialGradient><circle fill="url(#c)" cx="93.794" cy="136.154" r="1.342"/><radialGradient id="d" cx="93.794" cy="138.837" r="1.342" gradientUnits="userSpaceOnUse"><stop offset=".173" stop-color="#fff"/><stop offset=".19" stop-color="#FDF2EA"/><stop offset=".229" stop-color="#F6D4BE"/><stop offset=".27" stop-color="#F0B998"/><stop offset=".312" stop-color="#EBA27B"/><stop offset=".358" stop-color="#E89165"/><stop offset=".408" stop-color="#E58557"/><stop offset=".464" stop-color="#E47D4E"/><stop offset=".543" stop-color="#E37B4C"/><stop offset=".725" stop-color="#E2796E"/><stop offset=".99" stop-color="#E1759B"/></radialGradient><circle fill="url(#d)" cx="93.794" cy="138.837" r="1.342"/></g></g></svg>