<svg xmlns="http://www.w3.org/2000/svg" xmlns:xlink="http://www.w3.org/1999/xlink" width="210.833" height="315" viewBox="0 0 210.833 315"><g><path opacity=".5" fill="#474747" d="M127.547 273.987l.59-4.062s-5.843-.553-6.48-3.958c0 0-1.61-2.441-5.41-2.654 0 0-10.108.613-16.094-10.538 0 0-2.96-.859-2.515-6.359 0 0 3.652-.931 2.424-12.08l-9.443 2.762s-4.216 29.161 36.928 39.344v-2.455z"/><path opacity=".3" fill="#040000" d="M134.147 278.587l22.738 1.913s4.133-4.746 1.407-8.006c0 0-1.993 2.096-21.289-2.199l-3.356 5.139.5 3.153"/><defs><path id="a" d="M96.184 234.767l13.133 42.051 18.68-3.583-23.711-39.59z"/></defs><clipPath id="b"><use xlink:href="#a" overflow="visible"/></clipPath><path opacity=".3" clip-path="url(#b)" fill="#040000" d="M127.547 273.799l.59-4.062s-5.843-.553-6.48-3.958c0 0-1.61-2.441-5.41-2.654 0 0-10.108.613-16.094-10.538 0 0-2.96-.859-2.515-6.359 0 0 3.652-.931 2.424-12.08l-9.443 2.762s-4.216 29.161 36.928 39.344v-2.455z"/><path fill="#fff" d="M94.52 244.309c.042.458-.296.863-.754.905-.458.041-.864-.297-.905-.755l-.38-4.212c-.042-.458.296-.863.755-.905.458-.041.863.297.905.755l.379 4.212zM97.777 254.042c.18.423-.018.913-.441 1.092-.424.18-.913-.018-1.093-.441l-1.653-3.893c-.18-.423.018-.913.441-1.093.423-.18.913.018 1.093.441l1.653 3.894zM104.035 261.483c.329.321.336.849.015 1.178-.322.33-.849.336-1.179.016l-3.028-2.953c-.329-.321-.336-.849-.015-1.178.321-.329.849-.336 1.178-.015l3.029 2.952zM111.544 266.992c.386.25.496.767.246 1.152-.251.386-.767.496-1.153.246l-3.547-2.303c-.386-.25-.496-.767-.246-1.152.251-.386.767-.496 1.153-.246l3.547 2.303zM120.93 271.64c.413.203.583.703.379 1.116-.204.413-.703.582-1.116.379l-3.792-1.872c-.413-.203-.583-.703-.379-1.116.204-.413.703-.582 1.116-.379l3.792 1.872zM144.713 276.258c.457.058.78.476.721.932-.059.457-.476.779-.932.722l-4.195-.537c-.457-.058-.78-.475-.722-.932.059-.457.476-.779.933-.722l4.195.537zM154.786 276.818c.46.004.83.382.824.842-.005.46-.382.829-.843.825l-4.228-.048c-.461-.004-.831-.382-.825-.842.006-.46.382-.829.843-.824l4.229.047z"/></g><g><path fill="#748A98" d="M126.189 268.848l.609 7.684 5.715 3.429 5.103-4.288-.019-.246.002.036-.002-.036-.593-7.47-5.715-3.429.002.033z"/><path fill="#424D53" d="M127.721 269.761l.446 5.618 4.178 2.508 3.732-3.136-.014-.179.001.026-.001-.026-.433-5.463-4.18-2.507.002.024z"/><path opacity=".5" fill="#5D7081" d="M128.947 274.727l-2.149 1.805 5.715 3.429-.258-4.603zM131.291 264.561l.229 2.854 3.599 2.119 1.885-1.577z"/><path opacity=".5" fill="#3C4750" d="M126.189 268.848l2.717 1.567-.132 4.445-1.976 1.672zM134.147 273.529l3.469 2.144-.612-7.716-2.634 2.016.138 3.699"/><path opacity=".5" fill="#474747" d="M134.641 266.539l2.651 5.043-.288-3.625-2.363-1.418"/><path opacity=".5" fill="#474747" d="M126.493 272.69l3.162 5.556-2.857-1.714z"/></g><g><path fill="#748A98" d="M128.598 280.663l-2.898-2.503-.09-10.931 2.693-2.598h6.466l2.749 2.547.274 11.054-2.396 2.431z"/><path fill="#424D53" d="M129.247 279.574l-2.348-2.175-.074-9.5 2.183-2.256h5.24l2.228 2.212.222 9.606-1.942 2.113z"/><path opacity=".5" fill="#5D7081" d="M134.769 264.631l-.852 1.711 2.04 1.908 1.564-1.005z"/><path opacity=".5" fill="#3C4750" d="M137.521 267.245l-3.911 2.769.259 5.539 3.923 2.679-.271-10.987"/><path opacity=".5" fill="#474747" d="M125.7 278.16l2.898 2.503 1.628-3.32-2.201-.782z"/><path opacity=".5" fill="#3C4750" d="M125.61 267.229l2.198 1.292.155 8.082-2.263 1.557z"/><path opacity=".5" fill="#474747" d="M129.883 264.585l-.665 2.87-3.625 1.706.017-1.932 2.693-2.598zM132.834 280.663h2.562l2.396-2.431-.047-2.66-3.753 1.104z"/></g><g><linearGradient id="c" gradientUnits="userSpaceOnUse" x1="128.69" y1="277.875" x2="134.895" y2="267.126"><stop offset="0" stop-color="#28827D"/><stop offset=".323" stop-color="#27817C"/><stop offset=".472" stop-color="#277F7A"/><stop offset=".587" stop-color="#257B76"/><stop offset=".683" stop-color="#227470"/><stop offset=".768" stop-color="#1E6B67"/><stop offset=".845" stop-color="#16605C"/><stop offset=".915" stop-color="#09514E"/><stop offset=".98" stop-color="#003D3B"/><stop offset=".995" stop-color="#003735"/></linearGradient><path fill="url(#c)" d="M129.667 278.439l-1.961-1.86-.061-8.128 1.823-1.932h4.376l1.861 1.894.186 8.219-1.622 1.807z"/><path fill="#9ACAAC" d="M130.352 276.477l-1.321-1.322-.042-5.771 1.229-1.371h2.949l1.253 1.344.126 5.837-1.093 1.283z"/><linearGradient id="d" gradientUnits="userSpaceOnUse" x1="133.775" y1="270.115" x2="129.651" y2="274.239"><stop offset="0" stop-color="#6EC08F"/><stop offset=".995" stop-color="#86CEDD"/></linearGradient><path fill="url(#d)" d="M130.693 275.28l-.933-.977-.029-4.269.868-1.014h2.082l.885.994.088 4.317-.772.949z"/><path fill="#F7F8F8" d="M130.218 268.013l.455 1.007-.867 1.014-.817-.65z"/><linearGradient id="e" gradientUnits="userSpaceOnUse" x1="132.579" y1="267.425" x2="130.829" y2="269.175"><stop offset="0" stop-color="#50AA3F"/><stop offset=".323" stop-color="#50A93F"/><stop offset=".472" stop-color="#4DA542"/><stop offset=".587" stop-color="#479D45"/><stop offset=".683" stop-color="#409148"/><stop offset=".768" stop-color="#358249"/><stop offset=".845" stop-color="#286F49"/><stop offset=".915" stop-color="#155944"/><stop offset=".98" stop-color="#003F39"/><stop offset=".995" stop-color="#003735"/></linearGradient><path fill="url(#e)" d="M130.218 268.013l.455 1.007h2.083l.411-1.007h-2.949"/><path fill="#F7F8F8" d="M132.756 269.02l.885.994.779-.657-1.253-1.344-.411 1.007"/><linearGradient id="f" gradientUnits="userSpaceOnUse" x1="132.834" y1="275.156" x2="130.933" y2="277.057"><stop offset="0" stop-color="#50AA3F"/><stop offset=".323" stop-color="#50A93F"/><stop offset=".472" stop-color="#4DA542"/><stop offset=".587" stop-color="#479D45"/><stop offset=".683" stop-color="#409148"/><stop offset=".768" stop-color="#358249"/><stop offset=".845" stop-color="#286F49"/><stop offset=".915" stop-color="#155944"/><stop offset=".98" stop-color="#003F39"/><stop offset=".995" stop-color="#003735"/></linearGradient><path fill="url(#f)" d="M130.768 275.28l-.416 1.197h3.101l-.495-1.197z"/><path fill="#F7F8F8" d="M129.835 274.303l-.804.852 1.321 1.322.416-1.197zM132.958 275.28l.771-.949.817.863-1.093 1.283z"/><path fill="#1F7942" d="M130.352 276.477l-.685 1.962h4.602l-.816-1.962z"/><linearGradient id="g" gradientUnits="userSpaceOnUse" x1="133.453" y1="276.816" x2="135.891" y2="276.816"><stop offset="0" stop-color="#5EB6A3"/><stop offset=".34" stop-color="#5AB5A4"/><stop offset=".544" stop-color="#4CB1A9"/><stop offset=".713" stop-color="#2BAAB1"/><stop offset=".755" stop-color="#19A8B4"/><stop offset=".995" stop-color="#0C85A0"/></linearGradient><path fill="url(#g)" d="M133.453 276.477l1.093-1.283 1.345 1.438-1.622 1.807z"/><linearGradient id="h" gradientUnits="userSpaceOnUse" x1="129.029" y1="278.44" x2="129.029" y2="275.155"><stop offset="0" stop-color="#50AA3F"/><stop offset=".111" stop-color="#4CA542"/><stop offset=".301" stop-color="#419347"/><stop offset=".547" stop-color="#2E7749"/><stop offset=".836" stop-color="#0C5041"/><stop offset=".995" stop-color="#003735"/></linearGradient><path fill="url(#h)" d="M129.031 275.155l-1.325 1.424 1.961 1.86.685-1.962z"/><path fill="#2A7842" d="M127.645 268.451l1.344.933.042 5.771-1.325 1.424z"/><linearGradient id="i" gradientUnits="userSpaceOnUse" x1="127.644" y1="267.952" x2="130.218" y2="267.952"><stop offset="0" stop-color="#5EB6A3"/><stop offset=".34" stop-color="#5AB5A4"/><stop offset=".544" stop-color="#4CB1A9"/><stop offset=".713" stop-color="#2BAAB1"/><stop offset=".755" stop-color="#19A8B4"/><stop offset=".995" stop-color="#0C85A0"/></linearGradient><path fill="url(#i)" d="M129.468 266.519l.75 1.427-1.229 1.438-1.344-.933z"/><path fill="#2AA7A5" d="M133.844 266.519l-.677 1.494 1.253 1.344 1.285-.944z"/><circle opacity=".5" fill="#fff" cx="133.473" cy="275.727" r="1.901"/><circle opacity=".5" fill="#fff" cx="133.646" cy="273.566" r="1.467"/><circle opacity=".5" fill="#fff" cx="132.179" cy="274.213" r="1.313"/></g></svg>