<svg xmlns="http://www.w3.org/2000/svg" width="210.833" height="315" viewBox="0 0 210.833 315"><g><path fill="#3A210C" d="M99.662 221.256s-24.396-6.66-19.65-18.125c0 0 9.799-12.22 47.638 9.121 0 0-11.161-4.05-20.44 1.726 0 0-2.463 6.094-2.578 10.216-.113 4.123-4.97-2.938-4.97-2.938z"/><path fill="#54381A" d="M102.267 200.235s-2.181-19.23 4.68-19.392c0 0 5.632-3.09 16.822-1.083 0 0 9.754-7.413 17.689-4.59 0 0 3.857 2.339 4.831 5.538.973 3.198.289.783.289.783s4.461 14.356 5.975 14.881c1.511.523-.971 4.965-.971 4.965l-36.81 6.676-12.505-7.778z"/><path opacity=".3" fill="#040000" d="M102.094 201.634s.125-16.217 6.419-16.481c0 0 5.218-2.8 15.44-1.249 0 0 9.077-6.647 16.301-4.327 0 0 3.494 1.974 4.33 4.749.834 2.775 3.195.875 3.195.875s3.395 10.741 4.773 11.172c1.376.429-3.489 5.871-3.489 5.871l-33.869 6.494-13.1-7.104z"/><path fill="#54381A" d="M150.359 192.484l5.804 13.194s-3.51 3.588-22.607 4.094c0 0-3.985-.044-4.87-.201-.883-.156.695 1.979.695 1.979s23.208 10.834 41.674-3.261c0 0 15.227-10.945-4.006-16.729.001 0-10.338-1.478-16.69.924z"/><path fill="#1D1006" d="M87.397 199.912s13.747-2.646 27.843 3.982c0 0 27.033 17.103 47.562 9.072 0 0-24.8 7.04-48.031-4.953 0 .001-24.577-9.144-27.374-8.101z"/><path fill="#0E0E0D" d="M152.713 196.718c-2.77 5.475-37.473 7.177-37.473 7.177 3.947 3.306 9.393 5.537 12.259 6.563l2.972.426c18.652 2.693 26.698-4.695 26.698-4.695 1.181-2.969-4.456-9.471-4.456-9.471z"/><path opacity=".4" fill="#040000" d="M115.394 211.1s-26.063-9.794-28.575-5.349c0 0-4.144 8.165 17.988 16.226 0 0 .072-8.77 10.587-10.877z"/><path opacity=".2" fill="#040000" d="M120.568 210.618s10.063 6.436 19.835 9.167c8.001 2.236 16.122.846 15.697 1.015-.105.043-1.017-4.179-1.045-4.334-.028-.157.173-1.444.173-1.444l-2.004-.406-24.474-7.729-8.182 3.731z"/></g></svg>