<svg xmlns="http://www.w3.org/2000/svg" width="210.833" height="315" viewBox="0 0 210.833 315"><g><path fill="#C6171E" d="M94.42 222.583s-10.904 11.064-11.519 11.66c0 0-4.076 7.85 4.067 7.262 0 0 20.02-14.132 27.237-23.926 7.217-9.796-19.785 5.004-19.785 5.004z"/><path opacity=".5" stroke="#000" stroke-width=".1" stroke-miterlimit="10" d="M82.901 234.243s-1.48 7.006 4.301 5.558c0 0 15.642-10.083 23.007-19.817M84.304 232.924s-2.137 6.157 3.304 4.27c0 0 15.416-10.377 23.234-19.524" fill="none"/><path fill="#fff" d="M144.76 196.994l-.519.39s-5.247-10.486-4.966-12.283c.282-1.797-3.298-5.343-5.346-5.675-.663-.107-.918-.119-.991-.089-2.589-1.298-13.87-5.808-29.472 4.751 0 0-15.047 8.334-16.197 17.343 0 0-1.182 3.63 2.154 10.564 1.033 2.148 2.5 4.615 4.57 7.387 0 0 1.667 3.184.696 3.936 0 0 1.03 10.592 49.18-25.646l.893-.672-.002-.006z"/><g fill="#AF403F"><path d="M102.29 184.704l.355.397.479-.416.493-.387-.311-.433s-.269.201-.521.41l-.495.429zM100.913 186.082l.397.355s.208-.239.432-.464c.217-.232.449-.449.449-.449l-.369-.384s-.239.224-.463.462c-.232.232-.446.48-.446.48zM99.702 187.614l.439.302.367-.515.396-.494-.411-.34-.41.512-.381.535zM98.718 189.311l.483.226.289-.558c.136-.284.316-.544.316-.544l-.454-.28s-.188.271-.331.569l-.303.587zM98.077 191.178l.52.117c-.031-.006.34-1.202.368-1.192l-.497-.194c-.028-.012-.424 1.26-.391 1.269zM97.827 193.096l.527.081.045-.237.01-.053.002-.026c.026-.322.031-.646.072-.967l-.528-.074c-.045.344-.051.694-.077 1.042l.013-.083-.064.317zM97.836 195.071l.532-.039-.048-.63c-.043-.318-.001-.624-.001-.624l-.532-.025s-.043.339 0 .663l.049.655z"/></g><g fill="#AF403F"><path d="M98.104 196.997l.525-.091s-.259-1.252-.214-1.255l-.529.062c-.044.009.218 1.284.218 1.284zM98.491 198.894l.518-.127c-.035.007-.263-1.249-.263-1.249l-.523.104s.234 1.282.268 1.272zM99.026 200.749l.512-.149-.355-1.231-.516.134zM99.582 202.597l.505-.169c-.028.008-.375-1.225-.375-1.225l-.51.156s.352 1.247.38 1.238zM100.256 204.401l.501-.183-.45-1.202-.504.173zM100.931 206.205l.495-.196-.449-1.202-.499.187zM101.659 207.985l.492-.207-.264-.586c-.14-.29-.241-.595-.241-.595l-.494.2s.101.308.242.599l.265.589z"/></g><g fill="#AF403F"><path d="M102.447 209.741l.488-.216-.527-1.172-.49.21zM103.235 211.495l.484-.224-.526-1.172-.487.218zM104.025 213.249l.48-.232-.528-1.172-.482.227zM104.907 214.957l.477-.237-.59-1.143-.479.234zM105.788 216.666l.475-.244-.591-1.143-.476.24zM107.153 218.113l-.472.248-.599-1.138.472-.248zM107.55 220.082l.47-.254-.59-1.143-.471.25z"/></g><g fill="#AF403F"><path d="M107.882 182.045l-.136-.516-.628.174c-.313.088-.628.196-.628.196l.178.503.602-.188.612-.169zM109.735 181.632l-.096-.524-.639.126-.635.142.123.519.622-.139.625-.124zM111.614 181.367l-.054-.53-.647.073c-.324.036-.645.094-.645.094l.083.527s.314-.058.63-.092l.633-.072zM113.504 181.267l-.003-.533s-.327-.007-.653.009l-.651.04.038.532.635-.039c.317-.016.634-.009.634-.009zM115.389 181.353l.059-.53-1.307-.091-.016.533zM117.233 181.703l.137-.515-.639-.16c-.321-.071-.647-.109-.647-.109l-.083.527s.314.037.622.104l.61.153zM118.987 182.336l.229-.481c.02-.047-1.226-.491-1.227-.491l-.165.507c.001-.001 1.185.42 1.163.465z"/></g><g fill="#AF403F"><path d="M120.561 183.313l.333-.417-.538-.394c-.133-.101-.268-.197-.382-.248l-.183-.098-.263.464.173.091c.108.048.235.139.359.233l.501.369zM121.929 184.61l.38-.375-.915-.919-.369.386zM123.256 185.989l.387-.366-.89-.937-.382.371zM124.954 187.029l-.393.36-.872-.953.393-.36zM126.225 188.468l-.399.353-.856-.968.399-.353zM127.095 190.264l.406-.346-.414-.497-.428-.484-.401.351.426.482.411.494zM128.722 191.397l-.412.338-.819-1 .412-.338z"/></g><g fill="#AF403F"><path d="M129.521 193.226l.419-.329-.391-.515-.414-.497-.414.335.411.494.389.512zM130.679 194.75l.426-.32-.782-1.03-.422.327zM131.824 196.282l.434-.31s-.178-.271-.379-.524l-.391-.515-.429.317.389.512c.199.252.376.52.376.52zM132.89 197.869l.443-.296-.722-1.074-.437.305zM133.957 199.456l.451-.283-.721-1.074-.446.292zM134.909 201.11l.463-.264-.637-1.13-.455.278zM135.846 202.773l.473-.245-.636-1.13-.466.259z"/></g><ellipse transform="matrix(.87 -.493 .493 .87 -76.417 75.808)" fill="#202020" cx="105.61" cy="182.878" rx="3.08" ry=".952"/><ellipse transform="matrix(.87 -.493 .493 .87 -76.358 75.755)" fill="#AF403F" cx="105.475" cy="182.676" rx="2.455" ry=".755"/><path opacity=".3" fill="#B1A7A7" d="M87.744 202.898s30.449-9.414 44.342-21.737c0 0-.828 14.293-13.403 20.643-6.71 3.387-20.763-.435-30.939 1.094z"/><path fill="#C6171E" d="M89.75 212.657s2.307.432 5.696-2l3.018 5.253s-3.366 2.807-5.456 2.113c0 0-3.144-4.605-3.258-5.366"/><path fill="#C6171E" d="M89.848 195.956s.936 1.135 3.466-2.741c0 0-.258 2.177 2.089 2.133 0 0-2.101 1.229-2.192 4.2 0 0-.51-2.944-3.363-3.592zM107.682 185.013s.053 2.034-1.37 3.228c0 0 2.744-1.066 5.989 1.387 0 0-1.493-4.188.029-4.906 0 .001-2.351 1.498-4.648.291zM119.742 178.805s4.16 1.029 3.824 2.292c0 0 1.25-1.833 3.313-1.106 2.063.727-1.944-1.214-2.063-1.948-.001-.001-.746 1.192-5.074.762z"/></g></svg>