<svg xmlns="http://www.w3.org/2000/svg" width="210.833" height="315" viewBox="0 0 210.833 315"><g><path fill="#898989" d="M82.856 107.514l1.75 6.35 7.667 7.986 6.208.514 1.542-.25s-2.199-14.703-15.564-17.958c-.227-.056-1.371 3.408-1.603 3.358z"/><path fill="#DCDDDD" stroke="#F7F8F8" stroke-width=".6" stroke-miterlimit="10" d="M96.761 105.266s-7.125-4.5-10.375-1.5l-2.25 2.5s1.625 5.25 2 6.375l7.25 8.125 7.5.875"/><path fill="#9FA0A0" d="M93.354 114.113l4.168 1.417 1.667 4.917-6.751-2.073-2.166-3.011c-6.771-8.375-1.833-10.333-1.833-10.333 2.998-2.031 7.5 4 7.5 4M94.689 111.197"/><path fill="#727171" d="M94.908 110.941l-1.578 3.204 4.25 1.552z"/></g></svg>