<svg xmlns="http://www.w3.org/2000/svg" xmlns:xlink="http://www.w3.org/1999/xlink" width="210.833" height="315" viewBox="0 0 210.833 315"><g><path fill="#99B6CC" d="M103.086 105.822s1.374 1.773-.084 3.228c0 0 .8.465 1.791.148 0 0 .671-1.81.175-2.798 0 0-.748-.487-1.882-.707"/><path fill="#5D7081" d="M104.968 106.4l-1.441 2.909s.834.154 1.266-.111c.248-.152.669-2.537.175-2.798z"/><path fill="#D2ECF5" d="M104.535 106.4l.172 1.094s.109.73 0 .902.734-1.227-.172-1.996z"/><path fill="#5D7081" d="M104.057 109.377c-.767-.063-1.457.718-1.542 1.744-.085 1.027.469 1.911 1.235 1.974.767.063 1.457-.718 1.542-1.745.084-1.025-.469-1.91-1.235-1.973zm-.243 2.964c-.304-.026-.511-.542-.46-1.154.049-.612.337-1.088.643-1.063.304.025.51.542.46 1.153s-.338 1.089-.643 1.064z"/><path fill="#748A98" d="M104.51 109.182c-.052.608-.339 1.079-.642 1.054-.303-.024-.509-.537-.461-1.145l-.835-.069c-.078 1.021.473 1.897 1.237 1.96.763.062 1.451-.712 1.54-1.732l-.839-.068zM103.277 113.168c.052-.608.339-1.08.642-1.055.303.025.509.537.461 1.145l.835.069c.079-1.021-.473-1.897-1.236-1.96-.764-.063-1.451.711-1.54 1.731l.838.07z"/><path fill="#5D7081" d="M103.493 109.847s.042 1.003 1.396.609c0 0 .306-.378.379-.758 0 0 .063-.252.081-.447l-.838-.069s-.057.884-.459 1.01c-.001 0-.333.229-.559-.345z"/><defs><path id="a" d="M104.057 109.377c-.767-.063-1.457.718-1.542 1.744-.085 1.027.469 1.911 1.235 1.974.767.063 1.457-.718 1.542-1.745.084-1.025-.469-1.91-1.235-1.973zm-.243 2.964c-.304-.026-.511-.542-.46-1.154.049-.612.337-1.088.643-1.063.304.025.51.542.46 1.153s-.338 1.089-.643 1.064z"/></defs><clipPath id="b"><use xlink:href="#a" overflow="visible"/></clipPath><path clip-path="url(#b)" fill="#99B6CC" d="M104.606 109.533c-.352-.072-.679.199-.885.662.497.217.472.979.018 1.208.17.298.094.732-.196.927.101.328.331.538.817.535.548-.003 1.054-.69 1.132-1.643.079-.952-.28-1.565-.886-1.689z"/><path fill="#3D4A50" d="M103.633 109.429l.015.455s.504-.172.709.593c0 0-.1-.272-.303-.343 0 0-.152-.05-.301.074 0 0-.288-.173-.333-.687l.213-.092zM102.654 110.484l.253.29s-.095.749-.02.848l-.303.308.092.278c.02.043.154-.464.681-.704l-.01-.119-.213.087s-.063-.562.015-.592l.227.133.028-.147c.017.007-.384-.17-.621-.668l-.129.286z"/><path fill="#C7E3F0" d="M103.006 109.059s.281.829.612 1.024c0 0-.267-.341-.211-.992l-.401-.032z"/><path fill="#5D7081" d="M102.608 109.672s.587 1.123 1.663 1.246c0 0-.64.294-1.239-.347 0 0-.316-.336-.424-.899z"/><path fill="#3D4A50" d="M104.706 109.198l-.019.231-.205-.036-.026.104c-.015-.011.246.097.467.412 0 0 .163.217.159.255-.003.038.09-.165.108-.233l-.35-.429.081-.286-.215-.018z"/><path fill="#5D7081" d="M103.484 112.436s.205-.983 1.476-.372c0 0 .239.422.25.809 0 0 .02.259.006.454l-.838-.069s.088-.882-.288-1.071c0 0-.289-.28-.606.249z"/><path fill="#748A98" d="M104.357 110.478c.214.599-.015 1.336-.015 1.336-.276.578-.561.515-.561.515l-.16-.08-.091.104c.182.896.885.581.885.581.284-.129.545-.549.545-.549.085-.125.208-.439.208-.439-.15-.989-.811-1.468-.811-1.468z"/><path fill="#3D4A50" d="M103.475 113.036l.21-.548s.76-.08.711-.899c0 0-.174.766-.615.74l-.16-.08s-.205.135-.353.686l.207.101z"/><path fill="#C7E3F0" d="M102.874 113.135s.414-.772.771-.911c0 0-.318.293-.37.943l-.401-.032z"/><path fill="#5D7081" d="M102.571 112.46s.762-1.01 1.843-.957c0 0-.583-.395-1.279.139.001.001-.365.28-.564.818z"/><path fill="#3D4A50" d="M104.588 113.285l.02-.231-.208.003-.009-.107c-.016.01.259-.055.528-.33 0 0 .197-.188.2-.226.002-.038.061.176.067.248l-.415.365.033.296-.216-.018zM104.15 110.537s.086.393.059.401l.229-.096-.057-.296-.231-.009zM103.982 111.367s.205.332.169.5l.145.012s.109-.291.118-.375c0 0-.268-.138-.441-.137"/><path fill="#fff" d="M104.886 110.245s.026 1.564-.091 1.75c-.13.208.018.236.121.219 0 0 .426-.946-.03-1.969z"/><path fill="#5D7081" d="M103.934 113.4c-.767-.063-1.457.718-1.542 1.744-.085 1.027.469 1.911 1.235 1.974.767.063 1.457-.718 1.542-1.745.084-1.026-.469-1.91-1.235-1.973zm-.243 2.963c-.304-.026-.511-.542-.46-1.154.049-.612.337-1.088.643-1.063.304.025.51.542.46 1.153s-.338 1.089-.643 1.064z"/><path fill="#748A98" d="M104.387 113.205c-.052.608-.339 1.079-.642 1.054-.303-.024-.509-.537-.461-1.145l-.835-.069c-.078 1.021.473 1.897 1.237 1.96.763.062 1.451-.712 1.54-1.732l-.839-.068zM103.154 117.19c.052-.608.339-1.08.642-1.055.303.025.509.537.461 1.145l.835.069c.079-1.021-.473-1.897-1.236-1.96-.764-.063-1.451.711-1.54 1.731l.838.07z"/><path fill="#5D7081" d="M103.37 113.869s.042 1.003 1.396.609c0 0 .306-.378.379-.758 0 0 .063-.252.081-.447l-.838-.069s-.057.884-.459 1.01c-.001 0-.333.229-.559-.345z"/><defs><path id="c" d="M103.934 113.4c-.767-.063-1.457.718-1.542 1.744-.085 1.027.469 1.911 1.235 1.974.767.063 1.457-.718 1.542-1.745.084-1.026-.469-1.91-1.235-1.973zm-.243 2.963c-.304-.026-.511-.542-.46-1.154.049-.612.337-1.088.643-1.063.304.025.51.542.46 1.153s-.338 1.089-.643 1.064z"/></defs><clipPath id="d"><use xlink:href="#c" overflow="visible"/></clipPath><path clip-path="url(#d)" fill="#99B6CC" d="M104.483 113.555c-.352-.072-.679.199-.885.662.497.217.472.979.018 1.208.17.298.094.732-.196.927.101.328.331.538.817.535.548-.003 1.054-.69 1.132-1.643.079-.952-.28-1.565-.886-1.689z"/><path fill="#3D4A50" d="M103.51 113.452l.015.455s.504-.172.709.593c0 0-.1-.272-.303-.343 0 0-.152-.05-.301.074 0 0-.288-.173-.333-.687l.213-.092zM102.531 114.506l.253.29s-.095.749-.02.848l-.303.308.092.278c.02.043.154-.464.681-.704l-.01-.119-.213.087s-.063-.562.015-.592l.227.133.028-.147c.017.007-.384-.17-.621-.668l-.129.286z"/><path fill="#C7E3F0" d="M102.883 113.081s.281.829.612 1.024c0 0-.267-.341-.211-.992l-.401-.032z"/><path fill="#5D7081" d="M102.485 113.694s.587 1.123 1.663 1.246c0 0-.64.294-1.239-.347 0 0-.316-.335-.424-.899z"/><path fill="#3D4A50" d="M104.583 113.221l-.019.231-.205-.036-.026.104c-.015-.011.246.097.467.412 0 0 .163.217.159.255-.003.038.09-.165.108-.233l-.35-.429.081-.286-.215-.018z"/><path fill="#5D7081" d="M103.361 116.458s.205-.983 1.476-.372c0 0 .239.422.25.809 0 0 .02.259.006.454l-.838-.069s.088-.882-.288-1.071c0 0-.289-.28-.606.249z"/><path fill="#748A98" d="M104.234 114.5c.214.599-.015 1.336-.015 1.336-.276.578-.561.515-.561.515l-.16-.08-.091.104c.182.896.885.581.885.581.284-.129.545-.549.545-.549.085-.125.208-.439.208-.439-.15-.989-.811-1.468-.811-1.468z"/><path fill="#3D4A50" d="M103.352 117.058l.21-.548s.76-.08.711-.899c0 0-.174.766-.615.74l-.16-.08s-.205.135-.353.686l.207.101z"/><path fill="#C7E3F0" d="M102.751 117.157s.414-.772.771-.911c0 0-.318.293-.37.943l-.401-.032z"/><path fill="#5D7081" d="M102.448 116.482s.762-1.01 1.843-.957c0 0-.583-.395-1.279.139.001.001-.366.281-.564.818z"/><path fill="#3D4A50" d="M104.465 117.308l.02-.231-.208.003-.009-.107c-.016.01.259-.055.528-.33 0 0 .197-.188.2-.226.002-.038.061.176.067.248l-.415.365.033.296-.216-.018zM104.027 114.559s.086.393.059.401l.229-.096-.057-.296-.231-.009zM103.859 115.39s.205.332.169.5l.145.012s.109-.291.118-.375c0 0-.268-.138-.441-.137"/><path fill="#fff" d="M104.763 114.267s.026 1.564-.091 1.75c-.13.208.018.236.121.219-.001 0 .426-.945-.03-1.969z"/><path fill="#5D7081" d="M103.8 117.413c-.767-.063-1.457.718-1.542 1.744-.085 1.027.469 1.911 1.235 1.974.767.063 1.457-.718 1.542-1.745.085-1.026-.469-1.91-1.235-1.973zm-.242 2.963c-.304-.026-.511-.542-.46-1.154.049-.612.337-1.088.643-1.063.304.025.51.542.46 1.153s-.338 1.089-.643 1.064z"/><path fill="#748A98" d="M104.254 117.218c-.052.608-.339 1.079-.642 1.054-.303-.024-.509-.537-.461-1.145l-.835-.069c-.078 1.021.473 1.897 1.237 1.96.763.062 1.451-.712 1.54-1.732l-.839-.068zM103.021 121.204c.052-.608.339-1.08.642-1.055.303.025.509.537.461 1.145l.835.069c.079-1.021-.473-1.897-1.236-1.96-.764-.063-1.451.711-1.54 1.731l.838.07z"/><path fill="#5D7081" d="M103.236 117.882s.042 1.003 1.396.609c0 0 .306-.378.379-.758 0 0 .063-.252.081-.447l-.838-.069s-.057.884-.459 1.01c-.001.001-.333.23-.559-.345z"/><defs><path id="e" d="M103.8 117.413c-.767-.063-1.457.718-1.542 1.744-.085 1.027.469 1.911 1.235 1.974.767.063 1.457-.718 1.542-1.745.085-1.026-.469-1.91-1.235-1.973zm-.242 2.963c-.304-.026-.511-.542-.46-1.154.049-.612.337-1.088.643-1.063.304.025.51.542.46 1.153s-.338 1.089-.643 1.064z"/></defs><clipPath id="f"><use xlink:href="#e" overflow="visible"/></clipPath><path clip-path="url(#f)" fill="#99B6CC" d="M104.35 117.568c-.352-.072-.679.199-.885.662.497.217.472.979.018 1.208.17.298.094.732-.196.927.101.328.331.538.817.535.548-.003 1.054-.69 1.132-1.643.078-.951-.28-1.565-.886-1.689z"/><path fill="#3D4A50" d="M103.376 117.465l.015.455s.504-.172.709.593c0 0-.1-.272-.303-.343 0 0-.152-.05-.301.074 0 0-.288-.173-.333-.687l.213-.092zM102.397 118.52l.253.29s-.095.749-.02.848l-.303.308.092.278c.02.043.154-.464.681-.704l-.01-.119-.213.087s-.063-.562.015-.592l.227.133.028-.147c.017.007-.384-.17-.621-.668l-.129.286z"/><path fill="#C7E3F0" d="M102.75 117.094s.281.829.612 1.024c0 0-.267-.341-.211-.992l-.401-.032z"/><path fill="#5D7081" d="M102.352 117.708s.587 1.123 1.663 1.246c0 0-.64.294-1.239-.347-.001-.001-.316-.336-.424-.899z"/><path fill="#3D4A50" d="M104.449 117.234l-.019.231-.205-.036-.026.104c-.015-.011.246.097.467.412 0 0 .163.217.159.255-.003.038.09-.165.108-.233l-.35-.429.081-.286-.215-.018z"/><path fill="#5D7081" d="M103.228 120.472s.205-.983 1.476-.372c0 0 .239.422.25.809 0 0 .02.259.006.454l-.838-.069s.088-.882-.288-1.071c0 0-.29-.281-.606.249z"/><path fill="#748A98" d="M104.101 118.513c.214.599-.015 1.336-.015 1.336-.276.578-.561.515-.561.515l-.16-.08-.091.104c.182.896.885.581.885.581.284-.129.545-.549.545-.549.085-.125.208-.439.208-.439-.15-.989-.811-1.468-.811-1.468z"/><path fill="#3D4A50" d="M103.218 121.071l.21-.548s.76-.08.711-.899c0 0-.174.766-.615.74l-.16-.08s-.205.135-.353.686l.207.101z"/><path fill="#C7E3F0" d="M102.618 121.17s.414-.772.771-.911c0 0-.318.293-.37.943l-.401-.032z"/><path fill="#5D7081" d="M102.315 120.496s.762-1.01 1.843-.957c0 0-.583-.395-1.279.139 0 0-.366.28-.564.818z"/><path fill="#3D4A50" d="M104.332 121.321l.02-.231-.208.003-.009-.107c-.016.01.259-.055.528-.33 0 0 .197-.188.2-.226.002-.038.061.176.067.248l-.415.365.033.296-.216-.018zM103.894 118.572s.086.393.059.401l.229-.096-.057-.296-.231-.009zM103.726 119.403s.205.332.169.5l.145.012s.109-.291.118-.375c0 0-.268-.138-.441-.137"/><path fill="#fff" d="M104.629 118.28s.026 1.564-.091 1.75c-.13.208.018.236.121.219 0 .001.427-.945-.03-1.969z"/></g></svg>