<svg xmlns="http://www.w3.org/2000/svg" width="210.833" height="315" viewBox="0 0 210.833 315"><g><linearGradient id="a" gradientUnits="userSpaceOnUse" x1="103.956" y1="111.127" x2="99.314" y2="106.486"><stop offset="0" stop-color="#EF8051"/><stop offset=".99" stop-color="#E599AF"/></linearGradient><path fill="url(#a)" d="M101.582 107.557l-1.419-.815-1.92.815.341 1.866 2.998 4.077 3.156-3.708.42-2.209-1.866-.841z"/><path fill="#AD3377" d="M100.163 106.742l1.537-.434-.118 1.249z"/><path fill="#BD7BA9" d="M101.7 106.308l1.592.434-1.71.815z"/><path fill="#CA4B8C" d="M103.292 106.742l1.866-.434v1.275z"/><path fill="#8F2258" d="M106.644 106.453l1.241.289-1.774 1.88-.953-1.039z"/><path fill="#57112E" d="M105.158 107.583l-.42 2.209 1.373-1.17z"/><path fill="#AD3377" d="M103.292 106.742l-1.592-.434 1.749-2.064 1.636 2.064.073 1.275 1.486-1.13-1.486-.145"/><path fill="#A4202B" d="M107.885 106.742s.178 2.669-.473 3.773l-1.301-1.894 1.774-1.879z"/><path fill="#6B1735" d="M105.085 106.308l1.203-1.933s.999.631 1.597 2.366l-1.294-.289-1.506-.144z"/><path fill="#6D2B4B" d="M103.449 104.244s1.479-.861 2.84.132l-1.203 1.933-1.637-2.065z"/><path fill="#D35E50" d="M104.738 109.792l.015-.085 1.358-1.085 1.302 1.893-1.989.789-.686-1.512"/><path fill="#AD3052" d="M104.738 109.792l.686 1.512-2.035.072z"/><path fill="#B61F6F" d="M105.424 111.304l1.167.907s.697-1.104.822-1.696l-1.989.789z"/><path fill="#A4202B" d="M105.424 111.304l-.188 2.563s.815-.92 1.354-1.656l-1.166-.907z"/><path fill="#AF3462" d="M105.424 111.304h-1.973l-.435.511v2.223l2.221-.171z"/><path fill="#A4202B" d="M103.016 111.815l-1.434 1.685 1.058.979.376-.441z"/><path fill="#8D1878" d="M102.802 114.288l.962 1.078s1.093-1.06 1.473-1.499l-2.221.171-.214.25z"/><path fill="#CD2A1D" d="M102.64 114.479l-.939 2.209s1.696-.96 2.064-1.321l-.962-1.078-.163.19z"/><path fill="#8D1878" d="M100.608 114.288l2.032.191-1.058-.979z"/><path fill="#AF3462" d="M100.608 114.288v.191l1.092 2.209.94-2.209zM100.608 114.288l-.068.094-.72.984s1.164.969 1.804 1.168"/><path fill="#F1D7E2" d="M98.243 106.137v1.42l1.92-.815z"/><path fill="#8F1F52" d="M103.449 104.244l-1.815 1.315.066.749z"/><path fill="#62101B" d="M101.634 105.559l-1.537-1.246 1.603 1.995z"/><path fill="#DA755A" d="M100.097 104.313l-1.854 1.824 1.92.605 1.537-.434z"/><path fill="#D02A7C" d="M100.097 104.313s-1.88-.726-3.05.168l-.184.236 1.38 1.42 1.854-1.824z"/><path fill="#D63634" d="M96.862 104.717s-.973.855-1.328 2.13l2.708-.71-1.38-1.42z"/><path fill="#DAB4CA" d="M95.534 106.847l1.742 1.775.967-1.065v-1.42z"/><path fill="#F1D7E2" d="M98.243 107.557l-.967 1.065 1.308.801zM98.584 109.423l-.341 1.94 2.041.372z"/><path fill="#8C235B" d="M95.534 106.847s.066 2.623.42 3.668l1.321-1.894-1.741-1.774z"/><path fill="#C26A8F" d="M97.276 108.622l1.308.801-.341 1.881-2.288-.789z"/><path fill="#AF8EBA" d="M100.284 111.735l.012.089.312 2.398.974-.722z"/><path fill="#B21A79" d="M98.243 111.304v2.685l2.365.299-.324-2.553z"/><path fill="#A63074" d="M95.955 110.515s.711 1.485.908 1.591l1.38-.802-2.288-.789z"/><path fill="#C074A4" d="M96.862 112.106l1.381 1.883v-2.685z"/><path fill="#3C081C" d="M98.243 113.989l1.577 1.377.788-1.078z"/><radialGradient id="b" cx="101.674" cy="118.029" r="1.341" gradientUnits="userSpaceOnUse"><stop offset=".173" stop-color="#fff"/><stop offset=".19" stop-color="#FDF2EA"/><stop offset=".229" stop-color="#F6D4BE"/><stop offset=".27" stop-color="#F0B998"/><stop offset=".312" stop-color="#EBA27B"/><stop offset=".358" stop-color="#E89165"/><stop offset=".408" stop-color="#E58557"/><stop offset=".464" stop-color="#E47D4E"/><stop offset=".543" stop-color="#E37B4C"/><stop offset=".725" stop-color="#E2796E"/><stop offset=".99" stop-color="#E1759B"/></radialGradient><circle fill="url(#b)" cx="101.674" cy="118.029" r="1.342"/><radialGradient id="c" cx="101.701" cy="120.712" r="1.342" gradientUnits="userSpaceOnUse"><stop offset=".173" stop-color="#fff"/><stop offset=".19" stop-color="#FDF2EA"/><stop offset=".229" stop-color="#F6D4BE"/><stop offset=".27" stop-color="#F0B998"/><stop offset=".312" stop-color="#EBA27B"/><stop offset=".358" stop-color="#E89165"/><stop offset=".408" stop-color="#E58557"/><stop offset=".464" stop-color="#E47D4E"/><stop offset=".543" stop-color="#E37B4C"/><stop offset=".691" stop-color="#C96C6C"/><stop offset=".99" stop-color="#8A4A99"/></radialGradient><circle fill="url(#c)" cx="101.7" cy="120.712" r="1.342"/><radialGradient id="d" cx="101.701" cy="123.395" r="1.341" gradientUnits="userSpaceOnUse"><stop offset=".173" stop-color="#fff"/><stop offset=".19" stop-color="#FDF2EA"/><stop offset=".229" stop-color="#F6D4BE"/><stop offset=".27" stop-color="#F0B998"/><stop offset=".312" stop-color="#EBA27B"/><stop offset=".358" stop-color="#E89165"/><stop offset=".408" stop-color="#E58557"/><stop offset=".464" stop-color="#E47D4E"/><stop offset=".543" stop-color="#E37B4C"/><stop offset=".725" stop-color="#E2796E"/><stop offset=".99" stop-color="#E1759B"/></radialGradient><circle fill="url(#d)" cx="101.7" cy="123.395" r="1.342"/></g></svg>