<svg xmlns="http://www.w3.org/2000/svg" width="210.833" height="315" viewBox="0 0 210.833 315"><g><linearGradient id="a" gradientUnits="userSpaceOnUse" x1="93.142" y1="130.86" x2="105.992" y2="130.86"><stop offset="0" stop-color="#E8DD66"/><stop offset=".995" stop-color="#B99615"/></linearGradient><path fill="url(#a)" d="M100.328 134.69c-2.74-.495-4.561-3.119-4.066-5.859.453-2.503 2.685-4.217 5.155-4.121-.226-.068-.442-.152-.68-.195-3.503-.633-6.858 1.695-7.492 5.199-.633 3.504 1.695 6.858 5.199 7.492 3.504.633 6.858-1.695 7.492-5.199.043-.236.04-.469.055-.704-.774 2.348-3.16 3.839-5.663 3.387z"/><linearGradient id="b" gradientUnits="userSpaceOnUse" x1="93.144" y1="122.19" x2="97.165" y2="122.19"><stop offset="0" stop-color="#E8DD66"/><stop offset=".995" stop-color="#B99615"/></linearGradient><path fill="url(#b)" d="M94.224 120.359s-1.786 2.004-.766 3.344c0 0 1.645 1.406 3.707-.563 0 0-2.254.164-1.379-.777 0 0 1.156-.707.172-1.645 0 .001-.921-.89-1.734-.359z"/><path fill="#676036" d="M95.623 122.591s-.922 1.638.09 1.469c0 0 .863-.247 1.453-.919 0 0-1.27.191-1.543-.55z"/><linearGradient id="c" gradientUnits="userSpaceOnUse" x1="96.613" y1="134.298" x2="105.995" y2="134.298"><stop offset="0" stop-color="#FFF21F"/><stop offset=".059" stop-color="#FFE400"/><stop offset=".13" stop-color="#FED700"/><stop offset=".203" stop-color="#FDCF00"/><stop offset=".281" stop-color="#FCCD00"/><stop offset=".668" stop-color="#F1942E"/><stop offset=".888" stop-color="#EA652D"/><stop offset="1" stop-color="#E5352B"/></linearGradient><path opacity=".6" fill="url(#c)" d="M96.613 131.847l2.954 5.463s4.625.131 6.156-4.385c0 0 .304-1.141.269-1.641 0 0-1.096 3.013-4.014 3.417 0 .001-3.49.667-5.365-2.854z"/><linearGradient id="d" gradientUnits="userSpaceOnUse" x1="101.145" y1="122.075" x2="100.313" y2="122.907" gradientTransform="matrix(.949 -.316 .316 .949 -39.019 39.73)"><stop offset="0" stop-color="#E4A67C"/><stop offset=".995" stop-color="#EF90B9"/></linearGradient><path fill="url(#d)" d="M95.559 124.064l-.149-.436-.694.965.388.103z"/><linearGradient id="e" gradientUnits="userSpaceOnUse" x1="100.131" y1="122.724" x2="100.131" y2="122.724" gradientTransform="matrix(.949 -.316 .316 .949 -39.019 39.73)"><stop offset="0" stop-color="#E4A67C"/><stop offset=".995" stop-color="#EF90B9"/></linearGradient><path fill="url(#e)" d="M94.714 124.596z"/><linearGradient id="f" gradientUnits="userSpaceOnUse" x1="101.097" y1="122.478" x2="102.072" y2="122.478" gradientTransform="matrix(.949 -.316 .316 .949 -39.019 39.73)"><stop offset="0" stop-color="#E7273E"/><stop offset=".096" stop-color="#E83542"/><stop offset=".331" stop-color="#E9484C"/><stop offset=".603" stop-color="#EA5251"/><stop offset=".995" stop-color="#EA5453"/><stop offset="1" stop-color="#E7334D"/></linearGradient><path fill="url(#f)" d="M96.55 123.966l-1.142-.342.151.44.745.223z"/><linearGradient id="g" gradientUnits="userSpaceOnUse" x1="101.746" y1="123.406" x2="102.091" y2="123.397" gradientTransform="matrix(.949 -.316 .316 .949 -39.019 39.73)"><stop offset=".005" stop-color="#B33244"/><stop offset=".028" stop-color="#B63446"/><stop offset=".175" stop-color="#CA3D4B"/><stop offset=".332" stop-color="#D9444E"/><stop offset=".503" stop-color="#E24950"/><stop offset=".698" stop-color="#E84C51"/><stop offset=".966" stop-color="#E94C51"/><stop offset=".975" stop-color="#EA5252"/><stop offset=".995" stop-color="#EA5453"/><stop offset="1" stop-color="#EA5755"/></linearGradient><path fill="url(#g)" d="M96.587 125.116l.009.028.4.133-.446-1.311-.246.321z"/><linearGradient id="h" gradientUnits="userSpaceOnUse" x1="100.664" y1="122.714" x2="99.497" y2="122.733" gradientTransform="matrix(.949 -.316 .316 .949 -39.019 39.73)"><stop offset="0" stop-color="#DE7469"/><stop offset=".109" stop-color="#E58770"/><stop offset=".253" stop-color="#ED9976"/><stop offset=".416" stop-color="#F2A67A"/><stop offset=".614" stop-color="#F5AD7C"/><stop offset=".946" stop-color="#F5AF7D"/></linearGradient><path fill="url(#h)" d="M94.713 124.592l.001.004.002-.003z"/><linearGradient id="i" gradientUnits="userSpaceOnUse" x1="100.775" y1="123.405" x2="99.388" y2="123.427" gradientTransform="matrix(.949 -.316 .316 .949 -39.019 39.73)"><stop offset="0" stop-color="#DE7469"/><stop offset=".109" stop-color="#E58770"/><stop offset=".253" stop-color="#ED9976"/><stop offset=".416" stop-color="#F2A67A"/><stop offset=".614" stop-color="#F5AD7C"/><stop offset=".946" stop-color="#F5AF7D"/></linearGradient><path fill="url(#i)" d="M95.105 124.7l-.391-.104.445 1.306.236-.35z"/><linearGradient id="j" gradientUnits="userSpaceOnUse" x1="101.105" y1="122.03" x2="100.271" y2="122.864" gradientTransform="matrix(.949 -.316 .316 .949 -39.019 39.73)"><stop offset="0" stop-color="#E4A67C"/><stop offset=".995" stop-color="#EF90B9"/></linearGradient><path fill="url(#j)" d="M95.105 124.7l-.001-.004-.388-.103-.002.003.391.104z"/><linearGradient id="k" gradientUnits="userSpaceOnUse" x1="100.765" y1="122.828" x2="99.381" y2="122.85" gradientTransform="matrix(.949 -.316 .316 .949 -39.019 39.73)"><stop offset="0" stop-color="#DE7469"/><stop offset=".109" stop-color="#E58770"/><stop offset=".253" stop-color="#ED9976"/><stop offset=".416" stop-color="#F2A67A"/><stop offset=".614" stop-color="#F5AD7C"/><stop offset=".946" stop-color="#F5AF7D"/></linearGradient><path fill="url(#k)" d="M95.105 124.7l-.001-.004-.388-.103-.002.003.391.104z"/><linearGradient id="l" gradientUnits="userSpaceOnUse" x1="100.436" y1="124.629" x2="101.143" y2="123.957" gradientTransform="matrix(.949 -.316 .316 .949 -39.019 39.73)"><stop offset="0" stop-color="#DE7469"/><stop offset=".002" stop-color="#DE7469"/><stop offset=".179" stop-color="#C76D53"/><stop offset=".355" stop-color="#AF643F"/><stop offset=".527" stop-color="#9A5A2E"/><stop offset=".694" stop-color="#8A5021"/><stop offset=".853" stop-color="#804A18"/><stop offset=".995" stop-color="#7C4814"/></linearGradient><path fill="url(#l)" d="M95.395 125.552l-.236.35 1.142.343-.159-.469z"/><linearGradient id="m" gradientUnits="userSpaceOnUse" x1="101.113" y1="124.314" x2="102.082" y2="124.314" gradientTransform="matrix(.949 -.316 .316 .949 -39.019 39.73)"><stop offset=".005" stop-color="#EAD18D"/><stop offset=".007" stop-color="#EAD18D"/><stop offset=".32" stop-color="#F2D9B8"/><stop offset=".593" stop-color="#F7E0D4"/><stop offset=".812" stop-color="#FBE4E5"/><stop offset=".951" stop-color="#FBE5EB"/></linearGradient><path fill="url(#m)" d="M96.596 125.144l-.454.632.159.469.695-.968z"/><linearGradient id="n" gradientUnits="userSpaceOnUse" x1="100.697" y1="122.879" x2="101.493" y2="123.874" gradientTransform="matrix(.949 -.316 .316 .949 -39.019 39.73)"><stop offset=".297" stop-color="#DE7469"/><stop offset=".995" stop-color="#EF90B9"/></linearGradient><path fill="url(#n)" d="M95.105 124.7l.29.852.747.224.454-.632-.009-.028.001.005-.001-.005-.283-.829-.745-.223v.003z"/><linearGradient id="o" gradientUnits="userSpaceOnUse" x1="101.285" y1="122.214" x2="100.453" y2="123.046" gradientTransform="matrix(.949 -.316 .316 .949 -39.019 39.73)"><stop offset="0" stop-color="#E4A67C"/><stop offset=".995" stop-color="#EF90B9"/></linearGradient><path fill="url(#o)" d="M95.105 124.7l.454-.633v-.003l-.455.632z"/><linearGradient id="p" gradientUnits="userSpaceOnUse" x1="100.829" y1="122.772" x2="101.616" y2="123.755" gradientTransform="matrix(.949 -.316 .316 .949 -39.019 39.73)"><stop offset=".297" stop-color="#DE7469"/><stop offset=".995" stop-color="#EF90B9"/></linearGradient><path fill="url(#p)" d="M95.105 124.7l.454-.633v-.003l-.455.632z"/><circle opacity=".5" fill="#fff" cx="96.361" cy="125.196" r=".499"/><circle opacity=".5" fill="#fff" cx="96.272" cy="124.623" r=".259"/><circle opacity=".5" fill="#fff" cx="96.042" cy="124.767" r=".217"/><linearGradient id="q" gradientUnits="userSpaceOnUse" x1="96.326" y1="126.471" x2="101.417" y2="126.471"><stop offset="0" stop-color="#FFF21F"/><stop offset=".059" stop-color="#FFE400"/><stop offset=".13" stop-color="#FED700"/><stop offset=".203" stop-color="#FDCF00"/><stop offset=".281" stop-color="#FCCD00"/><stop offset=".668" stop-color="#F1942E"/><stop offset=".888" stop-color="#EA652D"/><stop offset="1" stop-color="#E5352B"/></linearGradient><path opacity=".6" fill="url(#q)" d="M96.55 127.836l-.162.463.608-3.342s1.118-.523 2.493-.545c0 0 1.063-.031 1.928.298 0 0-2.301-.186-3.935 1.646 0 0-.833.847-1.156 2.173"/><linearGradient id="r" gradientUnits="userSpaceOnUse" x1="93.166" y1="134.243" x2="97.87" y2="134.243"><stop offset="0" stop-color="#FFF21F"/><stop offset=".059" stop-color="#FFE400"/><stop offset=".13" stop-color="#FED700"/><stop offset=".203" stop-color="#FDCF00"/><stop offset=".281" stop-color="#FCCD00"/><stop offset=".668" stop-color="#F1942E"/><stop offset=".888" stop-color="#EA652D"/><stop offset="1" stop-color="#E5352B"/></linearGradient><path opacity=".6" fill="url(#r)" d="M93.167 131.413l2.072.619 2.632 5.043s-2.092-.275-3.768-2.831c0-.001-.801-1.119-.936-2.831z"/><circle fill="#fff" cx="95.559" cy="134.973" r=".313"/><circle fill="#fff" cx="96.531" cy="135.625" r=".467"/><circle fill="#fff" cx="97.741" cy="136.092" r=".576"/><circle fill="#fff" cx="99.296" cy="136.256" r=".74"/><ellipse fill="#fff" cx="95.247" cy="126.926" rx=".34" ry=".327"/><ellipse fill="#fff" cx="94.713" cy="127.67" rx=".433" ry=".417"/><ellipse fill="#fff" cx="94.351" cy="128.719" rx=".559" ry=".539"/><linearGradient id="s" gradientUnits="userSpaceOnUse" x1="101.417" y1="124.71" x2="101.417" y2="124.71"><stop offset="0" stop-color="#FFF21F"/><stop offset=".059" stop-color="#FFE400"/><stop offset=".13" stop-color="#FED700"/><stop offset=".203" stop-color="#FDCF00"/><stop offset=".281" stop-color="#FCCD00"/><stop offset=".668" stop-color="#F1942E"/><stop offset=".888" stop-color="#EA652D"/><stop offset="1" stop-color="#E5352B"/></linearGradient><path fill="url(#s)" d="M101.417 124.71"/><path fill="#50443A" d="M96.36 129.758c0-2.019 1.044-3.643 2.69-4.562-1.99.788-3.32 2.606-3.32 4.876 0 2.969 2.407 5.376 5.376 5.376.95 0 4.54-.776 4.886-4.145-.908 2.603-3.648 3.438-4.347 3.438-2.969 0-5.285-2.014-5.285-4.983z"/></g></svg>