<svg xmlns="http://www.w3.org/2000/svg" xmlns:xlink="http://www.w3.org/1999/xlink" width="210.833" height="315" viewBox="0 0 210.833 315"><g opacity=".6"><path fill="#919191" d="M67.645 167.376c-1.522 1.145-1.514 3.724.019 5.761 1.534 2.038 4.009 2.76 5.532 1.617 1.521-1.145 1.513-3.725-.021-5.763-1.533-2.035-4.01-2.76-5.53-1.615zm4.425 5.876c-.605.454-1.837-.161-2.75-1.376-.915-1.214-1.165-2.567-.56-3.023.604-.454 1.835.162 2.749 1.376.915 1.215 1.165 2.569.561 3.023zM68.161 166.268c.904 1.21 1.149 2.553.547 3.006-.602.452-1.824-.156-2.736-1.359l-2.077.691c1.535 2.018 4.414 3.286 5.93 2.146 1.514-1.141 1.511-3.703-.001-5.736l-1.663 1.252zM72.438 175.666c-.904-1.21-1.149-2.554-.548-3.006.602-.453 1.824.156 2.736 1.359l1.658-1.247c-1.534-2.017-3.995-2.73-5.51-1.59-1.515 1.139-1.512 3.701.001 5.734l1.663-1.25zM67.374 169.17s1.727 1.785 3.581-1.17c0 0-.056-1.2-.544-2.024 0 0-.3-.569-.585-.959l-1.663 1.252s1.349 1.729.811 2.623c-.002-.001-.238.968-1.6.278z"/><defs><path id="a" d="M67.645 167.376c-1.522 1.145-1.514 3.724.019 5.761 1.534 2.038 4.009 2.76 5.532 1.617 1.521-1.145 1.513-3.725-.021-5.763-1.533-2.035-4.01-2.76-5.53-1.615zm4.425 5.876c-.605.454-1.837-.161-2.75-1.376-.915-1.214-1.165-2.567-.56-3.023.604-.454 1.835.162 2.749 1.376.915 1.215 1.165 2.569.561 3.023z"/></defs><use xlink:href="#a" overflow="visible" fill="#919191"/><clipPath id="b"><use xlink:href="#a" overflow="visible"/></clipPath><path clip-path="url(#b)" fill="#919191" d="M68.917 166.758c-.771.446-.929 1.485-.547 2.679 1.274-.416 2.483 1.035 2.019 2.206.805.27 1.379 1.197 1.162 2.035.726.441 1.498.45 2.392-.355 1.008-.909.813-3.01-.61-4.9-1.421-1.889-3.093-2.432-4.416-1.665z"/><path fill="#919191" d="M66.945 168.168l.777.815s.649-1.147 2.289-.07c0 0-.633-.338-1.125-.134 0 0-.363.158-.433.632 0 0-.818.153-1.747-.723-.001.001.117-.33.239-.52zM66.87 171.728l.943.122s1.056 1.54 1.359 1.601l-.055 1.067s.518.317.628.363c.109.047-.478-1.111.102-2.42l-.214-.202-.251.51s-1.039-.934-.946-1.12l.638-.126s-.231-.308-.188-.32c.042-.013-.991.318-2.248-.213 0-.002.153.543.232.738zM65.176 168.514s1.885 1.071 2.817.887c0 0-1.054-.193-2.021-1.487l-.796.6zM65.451 170.303s2.932 1.109 5.124-.432c0 0-.7 1.596-2.862 1.397-.001 0-1.136-.101-2.262-.965zM68.549 165.977l.345.459-.438.269s.167.233.121.235c-.045.002.614-.227 1.542-.007 0 0 .659.133.715.209.056.076-.105-.451-.185-.607l-1.352-.216s-.21-.515-.321-.663l-.427.321zM71.617 173.974s-1.238-2.154 2.116-3.116c0 0 1.138.387 1.794 1.083 0 0 .462.446.759.829l-1.663 1.252s-1.288-1.776-2.295-1.507c0 0-.997-.042-.711 1.459zM70.011 168.914c1.38.756 2.168 2.498 2.168 2.498.441 1.522-.189 1.875-.189 1.875-.082.061-.292.128-.427.116l.004.342c1.808 1.357 2.59-.381 2.59-.381.312-.708.104-1.912.104-1.912-.049-.369-.337-1.154-.337-1.154-1.905-1.584-3.913-1.384-3.913-1.384zM72.585 175.096l-.513-1.358s1.273-1.397-.163-2.832c0 0 .938 1.701.081 2.379 0 0-.129.088-.427.116 0 0-.156.587.474 1.849 0 0 .279-.049.548-.154zM71.637 176.267s-.506-2.108-.072-2.954c0 0-.106 1.066.868 2.354l-.796.6zM69.968 175.52s-.253-3.123 1.835-4.802c0 0-1.728.23-2.136 2.361.001 0-.216 1.119.301 2.441zM75.055 173.727l-.345-.46-.38.348s-.178-.227-.193-.183c-.014.044.387-.527.435-1.479 0 0 .055-.67-.002-.745-.057-.075.403.226.532.347l-.167 1.358s.437.345.548.492l-.428.322zM69.724 169.365s.805.583.771.645c-.035.06.252-.458.264-.554 0 0-.504-.4-.594-.454-.001.001-.408.35-.441.363zM70.78 171.176s.925.278 1.134.646c0 0 .102-.163.288-.216.186-.054-.277-.717-.399-.888 0 0-.724.186-1.042.473"/><path fill="#919191" d="M70.604 167.615s2.619 2.849 2.709 3.387c.1.598.422.407.584.206.001-.001-.766-2.451-3.293-3.593zM71.431 176.422c-.44-.654-.841-1.503-.993-2.543 0 0 .736 1.208 1.426 2.217l-.433.326zM65.415 168.333c.438.634.849 1.175 1.038 1.266.546.262.274.52.035.618 0 0-.793-.527-1.503-1.559l.43-.325zM74.151 175.126c-1.521 1.145-1.514 3.724.019 5.761 1.534 2.038 4.01 2.761 5.531 1.616 1.522-1.145 1.514-3.724-.019-5.762-1.534-2.036-4.009-2.76-5.531-1.615zm4.425 5.875c-.604.456-1.835-.161-2.749-1.375-.914-1.214-1.165-2.567-.56-3.023.604-.454 1.835.162 2.749 1.376.914 1.215 1.165 2.568.56 3.022zM74.668 174.017c.903 1.211 1.149 2.554.547 3.006-.602.452-1.823-.156-2.736-1.359l-1.658 1.247c1.535 2.017 3.995 2.73 5.51 1.59 1.515-1.14 1.513-3.702-.001-5.735l-1.662 1.251zM78.944 183.415c-.903-1.21-1.149-2.553-.547-3.006.601-.453 1.824.156 2.737 1.359l1.656-1.247c-1.533-2.017-3.995-2.729-5.51-1.59-1.515 1.14-1.512 3.702.001 5.735l1.663-1.251zM73.88 176.919s1.727 1.787 3.581-1.17c0 0-.056-1.201-.543-2.025 0 0-.3-.568-.586-.958l-1.663 1.251s1.349 1.729.812 2.624c-.002 0-.238.967-1.601.278z"/><defs><path id="c" d="M74.151 175.126c-1.521 1.145-1.514 3.724.019 5.761 1.534 2.038 4.01 2.761 5.531 1.616 1.522-1.145 1.514-3.724-.019-5.762-1.534-2.036-4.009-2.76-5.531-1.615zm4.425 5.875c-.604.456-1.835-.161-2.749-1.375-.914-1.214-1.165-2.567-.56-3.023.604-.454 1.835.162 2.749 1.376.914 1.215 1.165 2.568.56 3.022z"/></defs><use xlink:href="#c" overflow="visible" fill="#919191"/><clipPath id="d"><use xlink:href="#c" overflow="visible"/></clipPath><path clip-path="url(#d)" fill="#919191" d="M75.424 174.507c-.771.446-.929 1.485-.547 2.679 1.273-.416 2.482 1.035 2.019 2.207.805.27 1.378 1.197 1.162 2.035.726.441 1.499.451 2.391-.356 1.008-.91.813-3.01-.609-4.898-1.422-1.89-3.093-2.433-4.416-1.667z"/><path fill="#919191" d="M73.451 175.918l.778.815s.649-1.146 2.291-.07c0 0-.635-.337-1.127-.134 0 0-.363.159-.432.633 0 0-.818.153-1.748-.722-.001 0 .116-.331.238-.522zM73.378 179.478l.944.121s1.055 1.54 1.358 1.6l-.055 1.067s.518.316.628.363c.11.046-.479-1.111.102-2.421l-.213-.201-.253.51s-1.037-.934-.946-1.12l.639-.126s-.231-.308-.188-.32-.99.318-2.247-.214c-.002 0 .15.546.231.741zM71.682 176.264s1.884 1.07 2.818.887c0 0-1.053-.193-2.021-1.487l-.797.6zM71.957 178.052s2.932 1.11 5.123-.432c0 0-.7 1.597-2.861 1.398 0 0-1.136-.101-2.262-.966zM75.055 173.727l.346.458-.438.269s.167.233.12.235c-.046.002.615-.225 1.542-.006 0 0 .659.133.715.209.057.075-.105-.451-.186-.607l-1.352-.216s-.21-.515-.321-.664l-.426.322zM78.122 181.724s-1.237-2.154 2.117-3.115c0 0 1.139.385 1.794 1.083 0 0 .463.445.76.828l-1.663 1.252s-1.287-1.776-2.295-1.506c-.001-.001-.997-.043-.713 1.458zM76.519 176.663c1.378.757 2.167 2.498 2.167 2.498.442 1.522-.19 1.875-.19 1.875-.082.062-.292.129-.427.116l.005.341c1.807 1.357 2.59-.381 2.59-.381.312-.708.104-1.912.104-1.912-.049-.37-.338-1.153-.338-1.153-1.904-1.584-3.911-1.384-3.911-1.384zM79.092 182.846l-.513-1.358s1.273-1.396-.164-2.83c0 0 .938 1.7.081 2.378 0 0-.128.088-.427.116 0 0-.156.586.476 1.849 0-.001.278-.051.547-.155zM78.144 184.018s-.507-2.108-.072-2.954c0 0-.106 1.065.868 2.354l-.796.6zM76.475 183.27s-.253-3.124 1.836-4.802c0 0-1.727.23-2.136 2.361 0 0-.218 1.12.3 2.441zM81.563 181.476l-.345-.46-.38.348s-.178-.226-.191-.182c-.016.043.387-.526.434-1.479 0 0 .055-.67-.002-.746-.058-.075.403.226.532.347l-.168 1.358s.437.345.548.492l-.428.322zM76.231 177.116s.806.583.771.645c-.035.06.251-.458.263-.554 0 0-.503-.399-.594-.453l-.44.362zM77.287 178.926s.924.278 1.135.646c0 0 .102-.163.288-.217.186-.053-.278-.718-.399-.888 0 0-.724.186-1.042.472"/><path fill="#919191" d="M77.11 175.364s2.62 2.85 2.71 3.388c.1.597.423.407.585.206.001 0-.768-2.452-3.295-3.594zM77.938 184.172c-.44-.654-.842-1.503-.993-2.543 0 0 .735 1.209 1.426 2.217l-.433.326zM71.923 176.083c.436.634.847 1.176 1.036 1.265.545.263.273.52.035.619 0 0-.793-.527-1.505-1.559l.434-.325zM80.611 182.882c-1.522 1.145-1.514 3.724.019 5.76 1.532 2.039 4.009 2.762 5.53 1.617 1.522-1.146 1.514-3.725-.02-5.762-1.533-2.037-4.009-2.76-5.529-1.615zm4.426 5.875c-.605.455-1.837-.161-2.75-1.375-.914-1.215-1.164-2.569-.56-3.023.604-.455 1.834.16 2.749 1.376.913 1.214 1.164 2.568.561 3.022zM81.127 181.773c.905 1.209 1.148 2.553.548 3.005-.602.452-1.824-.156-2.736-1.359l-1.657 1.247c1.533 2.018 3.994 2.73 5.51 1.59 1.515-1.14 1.511-3.702-.001-5.735l-1.664 1.252zM85.404 191.17c-.904-1.21-1.149-2.554-.547-3.006.602-.453 1.824.156 2.736 1.358l1.658-1.246c-1.535-2.017-3.995-2.729-5.51-1.59s-1.513 3.702 0 5.734l1.663-1.25zM80.34 184.674s1.727 1.786 3.579-1.17c0 0-.054-1.201-.543-2.024 0 0-.3-.569-.586-.959l-1.663 1.252s1.35 1.729.812 2.623c-.001 0-.237.968-1.599.278z"/><defs><path id="e" d="M80.611 182.882c-1.522 1.145-1.514 3.724.019 5.76 1.532 2.039 4.009 2.762 5.53 1.617 1.522-1.146 1.514-3.725-.02-5.762-1.533-2.037-4.009-2.76-5.529-1.615zm4.426 5.875c-.605.455-1.837-.161-2.75-1.375-.914-1.215-1.164-2.569-.56-3.023.604-.455 1.834.16 2.749 1.376.913 1.214 1.164 2.568.561 3.022z"/></defs><use xlink:href="#e" overflow="visible" fill="#919191"/><clipPath id="f"><use xlink:href="#e" overflow="visible"/></clipPath><path clip-path="url(#f)" fill="#919191" d="M81.882 182.263c-.77.447-.928 1.484-.546 2.679 1.274-.415 2.483 1.037 2.02 2.207.804.27 1.378 1.197 1.163 2.035.724.442 1.498.451 2.39-.355 1.008-.91.813-3.01-.609-4.899-1.423-1.891-3.094-2.434-4.418-1.667z"/><path fill="#919191" d="M79.91 183.673l.778.815s.648-1.146 2.289-.071c0 0-.632-.338-1.125-.133 0 0-.363.159-.432.633 0 0-.818.152-1.748-.723-.001 0 .117-.33.238-.521zM79.837 187.233l.943.122s1.056 1.54 1.359 1.6l-.055 1.066s.517.317.627.365c.11.045-.476-1.112.102-2.422l-.213-.201-.253.51s-1.039-.934-.945-1.12l.638-.126s-.23-.308-.188-.32c.042-.013-.991.318-2.247-.213-.001-.002.151.545.232.739zM78.141 184.019s1.885 1.07 2.818.888c0 0-1.053-.194-2.021-1.487l-.797.599zM78.417 185.809s2.931 1.109 5.123-.433c0 0-.699 1.597-2.861 1.397-.001 0-1.136-.1-2.262-.964zM81.514 181.481l.347.458-.438.269s.167.233.121.235c-.046.001.613-.227 1.542-.007 0 0 .658.133.715.208.056.076-.104-.449-.187-.606l-1.351-.217s-.211-.515-.321-.662l-.428.322zM84.582 189.479s-1.237-2.155 2.116-3.117c0 0 1.139.387 1.794 1.084 0 0 .463.446.759.829l-1.663 1.25s-1.287-1.776-2.294-1.506c0 0-.996-.04-.712 1.46zM82.977 184.418c1.379.757 2.168 2.498 2.168 2.498.443 1.523-.188 1.875-.188 1.875-.083.062-.291.129-.428.115l.005.342c1.807 1.357 2.59-.38 2.59-.38.313-.709.104-1.913.104-1.913-.049-.37-.338-1.154-.338-1.154-1.904-1.582-3.913-1.383-3.913-1.383zM85.55 190.6l-.512-1.357s1.274-1.396-.164-2.83c0 0 .939 1.698.082 2.378 0 0-.13.087-.428.115 0 0-.156.587.474 1.849.001 0 .28-.05.548-.155zM84.604 191.772s-.507-2.107-.072-2.953c0 0-.107 1.065.869 2.354l-.797.599zM82.934 191.025s-.253-3.123 1.836-4.802c0 0-1.728.229-2.137 2.362 0 0-.216 1.118.301 2.44zM88.022 189.231l-.346-.46-.38.348s-.177-.226-.193-.184c-.015.045.388-.525.435-1.478 0 0 .056-.67-.002-.745-.058-.075.404.225.532.346l-.167 1.358s.436.344.547.493l-.426.322zM82.69 184.871s.805.583.77.645c-.034.06.252-.458.263-.554 0 0-.504-.4-.594-.454l-.439.363zM83.747 186.681s.924.278 1.135.647c0 0 .101-.163.287-.217.187-.053-.277-.718-.399-.888 0 0-.724.186-1.043.473"/><path fill="#919191" d="M83.57 183.12s2.62 2.848 2.709 3.387c.1.597.424.407.585.205 0-.001-.768-2.45-3.294-3.592zM84.396 191.927c-.439-.654-.841-1.502-.992-2.544 0 0 .735 1.21 1.426 2.217l-.434.327zM78.382 183.838c.436.633.848 1.175 1.037 1.265.547.263.274.52.036.619 0 0-.794-.527-1.504-1.559l.431-.325zM87.134 190.618c-1.521 1.144-1.512 3.725.021 5.761 1.533 2.037 4.009 2.76 5.53 1.617 1.521-1.145 1.512-3.725-.02-5.763s-4.009-2.76-5.531-1.615zm4.427 5.876c-.604.455-1.837-.162-2.75-1.375-.913-1.214-1.164-2.568-.56-3.022.604-.455 1.835.162 2.75 1.375.913 1.214 1.164 2.567.56 3.022zM87.651 189.509c.904 1.21 1.149 2.553.546 3.006-.6.453-1.822-.155-2.735-1.359l-1.657 1.247c1.534 2.017 3.996 2.73 5.511 1.59 1.515-1.139 1.512-3.701-.001-5.734l-1.664 1.25zM91.928 198.907c-.903-1.211-1.148-2.554-.547-3.007.601-.452 1.823.156 2.736 1.359l1.657-1.246c-1.534-2.017-3.994-2.73-5.51-1.591-1.515 1.141-1.511 3.703.001 5.736l1.663-1.251zM86.863 192.412s1.728 1.785 3.581-1.171c0 0-.055-1.2-.543-2.023 0 0-.3-.568-.585-.959l-1.664 1.251s1.35 1.729.812 2.623c-.001-.001-.237.968-1.601.279z"/><defs><path id="g" d="M87.134 190.618c-1.521 1.144-1.512 3.725.021 5.761 1.533 2.037 4.009 2.76 5.53 1.617 1.521-1.145 1.512-3.725-.02-5.763s-4.009-2.76-5.531-1.615zm4.427 5.876c-.604.455-1.837-.162-2.75-1.375-.913-1.214-1.164-2.568-.56-3.022.604-.455 1.835.162 2.75 1.375.913 1.214 1.164 2.567.56 3.022z"/></defs><use xlink:href="#g" overflow="visible" fill="#919191"/><clipPath id="h"><use xlink:href="#g" overflow="visible"/></clipPath><path clip-path="url(#h)" fill="#919191" d="M88.408 189.999c-.772.447-.929 1.484-.547 2.679 1.273-.416 2.482 1.035 2.019 2.206.804.271 1.379 1.197 1.162 2.036.725.441 1.498.45 2.391-.356 1.008-.909.813-3.01-.609-4.899-1.421-1.89-3.094-2.433-4.416-1.666z"/><path fill="#919191" d="M86.435 191.41l.778.815s.649-1.146 2.289-.07c0 0-.634-.337-1.127-.134 0 0-.363.159-.432.632 0 0-.818.154-1.747-.722 0 0 .117-.331.239-.521zM86.361 194.969l.943.122s1.056 1.54 1.359 1.599l-.055 1.067s.518.316.627.363c.111.046-.477-1.112.103-2.421l-.213-.201-.253.509s-1.038-.935-.946-1.12l.639-.126s-.231-.308-.189-.32c.043-.012-.99.319-2.248-.213 0 .001.154.547.233.741zM84.667 191.755s1.885 1.072 2.817.888c0 0-1.053-.193-2.021-1.487l-.796.599zM84.941 193.544s2.932 1.109 5.124-.432c0 0-.7 1.596-2.862 1.398 0 0-1.134-.101-2.262-.966zM88.039 189.217l.347.459-.44.27s.167.233.122.236c-.046.001.613-.227 1.542-.008 0 0 .66.133.715.209.057.075-.104-.451-.185-.608l-1.352-.216s-.211-.515-.322-.663l-.427.321zM91.107 197.215s-1.237-2.155 2.116-3.115c0 0 1.139.385 1.795 1.082 0 0 .463.447.76.829l-1.664 1.25s-1.288-1.775-2.294-1.505c-.001 0-.998-.042-.713 1.459zM89.502 192.155c1.38.757 2.168 2.498 2.168 2.498.44 1.522-.189 1.875-.189 1.875-.083.061-.292.129-.427.116l.005.341c1.808 1.358 2.589-.38 2.589-.38.312-.708.104-1.913.104-1.913-.048-.368-.336-1.153-.336-1.153-1.905-1.584-3.914-1.384-3.914-1.384zM92.076 198.337l-.513-1.357s1.273-1.397-.164-2.831c0 0 .938 1.699.082 2.378 0 0-.128.088-.427.116 0 0-.156.587.475 1.849 0 0 .278-.05.547-.155zM91.128 199.508s-.507-2.107-.072-2.954c0 0-.107 1.065.868 2.354l-.796.6zM89.458 198.761s-.252-3.124 1.837-4.802c0 0-1.728.23-2.137 2.361 0 .001-.217 1.119.3 2.441zM94.545 196.968l-.345-.46-.379.347s-.178-.226-.193-.182c-.014.043.387-.527.435-1.479 0 0 .054-.67-.003-.745-.056-.075.404.226.533.346l-.167 1.358s.437.345.547.494l-.428.321zM89.215 192.607s.804.583.771.645c-.035.061.25-.457.262-.554 0 0-.504-.4-.593-.454 0 0-.407.348-.44.363zM90.271 194.417s.924.279 1.134.646c0 0 .101-.162.288-.216.187-.054-.276-.718-.398-.888 0 0-.724.185-1.042.473"/><path fill="#919191" d="M90.094 190.856s2.621 2.849 2.711 3.388c.098.597.422.406.584.204 0 0-.768-2.45-3.295-3.592zM90.922 199.663c-.44-.654-.842-1.502-.993-2.542 0 0 .735 1.209 1.426 2.216l-.433.326zM84.906 191.575c.437.632.849 1.176 1.037 1.266.546.26.274.518.036.618 0 0-.794-.528-1.505-1.56l.432-.324zM93.595 198.373c-1.522 1.145-1.515 3.724.019 5.761 1.533 2.039 4.009 2.76 5.531 1.617 1.521-1.145 1.513-3.726-.021-5.764-1.532-2.036-4.008-2.758-5.529-1.614zm4.426 5.876c-.606.455-1.837-.161-2.75-1.375s-1.164-2.568-.559-3.022c.604-.455 1.835.16 2.75 1.375.912 1.214 1.162 2.566.559 3.022zM94.112 197.264c.903 1.21 1.148 2.554.546 3.006-.602.452-1.824-.156-2.736-1.359l-1.658 1.247c1.535 2.018 3.995 2.73 5.511 1.59 1.514-1.14 1.512-3.701-.002-5.734l-1.661 1.25zM98.387 206.662c-.903-1.211-1.149-2.554-.547-3.007.602-.452 1.824.157 2.736 1.359l1.658-1.247c-1.534-2.017-3.995-2.729-5.51-1.59-1.515 1.14-1.512 3.702.001 5.735l1.662-1.25zM93.323 200.166s1.726 1.786 3.581-1.169c0 0-.056-1.201-.545-2.025 0 0-.299-.568-.585-.958l-1.662 1.251s1.349 1.729.81 2.623c0-.001-.236.968-1.599.278z"/><defs><path id="i" d="M93.595 198.373c-1.522 1.145-1.515 3.724.019 5.761 1.533 2.039 4.009 2.76 5.531 1.617 1.521-1.145 1.513-3.726-.021-5.764-1.532-2.036-4.008-2.758-5.529-1.614zm4.426 5.876c-.606.455-1.837-.161-2.75-1.375s-1.164-2.568-.559-3.022c.604-.455 1.835.16 2.75 1.375.912 1.214 1.162 2.566.559 3.022z"/></defs><use xlink:href="#i" overflow="visible" fill="#919191"/><clipPath id="j"><use xlink:href="#i" overflow="visible"/></clipPath><path clip-path="url(#j)" fill="#919191" d="M94.867 197.754c-.771.446-.929 1.484-.547 2.679 1.274-.416 2.483 1.036 2.02 2.206.804.27 1.378 1.197 1.161 2.036.726.442 1.498.45 2.392-.356 1.008-.91.812-3.01-.609-4.899-1.423-1.89-3.094-2.433-4.417-1.666z"/><path fill="#919191" d="M92.895 199.165l.777.815s.649-1.146 2.29-.07c0 0-.633-.338-1.126-.134 0 0-.362.159-.433.632 0 0-.818.153-1.748-.723 0 .001.118-.329.24-.52zM92.821 202.725l.942.121s1.056 1.541 1.36 1.6l-.055 1.067s.517.316.627.363c.109.045-.478-1.112.102-2.421l-.213-.202-.252.51s-1.039-.935-.946-1.12l.638-.126s-.23-.309-.188-.32c.042-.012-.992.318-2.248-.213 0 0 .153.546.233.741zM91.125 199.51s1.883 1.071 2.817.887c0 0-1.053-.193-2.021-1.486l-.796.599zM91.401 201.299s2.931 1.111 5.123-.432c0 0-.7 1.597-2.861 1.398 0 0-1.137-.101-2.262-.966zM94.499 196.973l.346.458-.439.269s.167.233.122.235c-.046.001.613-.226 1.542-.008 0 0 .658.134.714.21.057.075-.105-.451-.185-.608l-1.352-.216s-.212-.515-.322-.663l-.426.323zM97.566 204.97s-1.238-2.155 2.117-3.116c0 0 1.138.386 1.794 1.083 0 0 .463.447.76.829l-1.664 1.25s-1.286-1.776-2.293-1.506c-.001.001-.999-.04-.714 1.46zM95.961 199.91c1.379.757 2.169 2.498 2.169 2.498.441 1.523-.19 1.875-.19 1.875-.082.062-.292.129-.427.116l.003.342c1.809 1.358 2.591-.38 2.591-.38.312-.708.104-1.913.104-1.913-.048-.369-.337-1.153-.337-1.153-1.905-1.585-3.913-1.385-3.913-1.385zM98.535 206.092l-.513-1.357s1.272-1.396-.162-2.831c0 0 .937 1.699.08 2.378 0 0-.129.089-.427.116 0 0-.157.588.474 1.849 0 0 .279-.05.548-.155zM97.587 207.264s-.507-2.108-.072-2.953c0 0-.107 1.064.869 2.354l-.797.599zM95.917 206.517s-.252-3.124 1.837-4.803c0 0-1.729.23-2.136 2.361 0 0-.217 1.119.299 2.442zM101.005 204.723l-.344-.46-.38.347s-.178-.225-.191-.182c-.015.043.386-.526.434-1.479 0 0 .055-.67-.002-.746-.057-.074.403.227.532.347l-.167 1.357s.437.346.548.494l-.43.322zM95.674 200.362s.805.584.771.644c-.035.062.251-.457.263-.553 0 0-.503-.401-.594-.454 0 0-.407.348-.44.363zM96.73 202.173s.924.277 1.134.647c0 0 .102-.164.289-.217.185-.055-.277-.718-.399-.888 0 0-.724.186-1.042.473"/><path fill="#919191" d="M96.554 198.611s2.62 2.849 2.71 3.387c.1.598.423.407.584.207 0-.001-.767-2.451-3.294-3.594zM97.381 207.419c-.439-.655-.842-1.503-.993-2.544 0 0 .735 1.209 1.426 2.218l-.433.326zM91.366 199.33c.436.634.848 1.176 1.037 1.267.546.26.274.519.035.618 0 0-.793-.528-1.504-1.56l.432-.325zM100.041 206.111c-1.522 1.145-1.514 3.725.019 5.76 1.532 2.039 4.009 2.762 5.53 1.617 1.522-1.146 1.514-3.725-.02-5.762-1.532-2.036-4.008-2.76-5.529-1.615zm4.426 5.876c-.605.455-1.837-.161-2.75-1.375-.914-1.215-1.164-2.569-.56-3.023.604-.454 1.834.16 2.749 1.376.913 1.214 1.164 2.568.561 3.022zM100.557 205.002c.905 1.209 1.148 2.554.548 3.005-.602.453-1.824-.155-2.736-1.359l-1.657 1.247c1.533 2.018 3.994 2.73 5.51 1.59 1.515-1.14 1.511-3.702-.001-5.735l-1.664 1.252zM104.834 214.399c-.904-1.21-1.149-2.553-.547-3.005.602-.453 1.824.155 2.736 1.358l1.658-1.246c-1.535-2.018-3.996-2.73-5.511-1.59-1.515 1.139-1.512 3.702.001 5.734l1.663-1.251zM99.77 207.904s1.727 1.786 3.58-1.17c0 0-.054-1.201-.543-2.024 0 0-.3-.569-.586-.959l-1.663 1.251s1.35 1.729.812 2.623c-.001 0-.238.969-1.6.279z"/><defs><path id="k" d="M100.041 206.111c-1.522 1.145-1.514 3.725.019 5.76 1.532 2.039 4.009 2.762 5.53 1.617 1.522-1.146 1.514-3.725-.02-5.762-1.532-2.036-4.008-2.76-5.529-1.615zm4.426 5.876c-.605.455-1.837-.161-2.75-1.375-.914-1.215-1.164-2.569-.56-3.023.604-.454 1.834.16 2.749 1.376.913 1.214 1.164 2.568.561 3.022z"/></defs><use xlink:href="#k" overflow="visible" fill="#919191"/><clipPath id="l"><use xlink:href="#k" overflow="visible"/></clipPath><path clip-path="url(#l)" fill="#919191" d="M101.312 205.493c-.77.447-.928 1.484-.546 2.679 1.274-.416 2.483 1.037 2.02 2.206.804.27 1.378 1.197 1.163 2.035.724.442 1.498.451 2.39-.355 1.008-.91.813-3.01-.61-4.899-1.421-1.89-3.093-2.433-4.417-1.666z"/><path fill="#919191" d="M99.34 206.903l.778.815s.648-1.146 2.289-.07c0 0-.632-.338-1.125-.134 0 0-.363.159-.432.633 0 0-.818.152-1.748-.723 0 0 .117-.33.238-.521zM99.267 210.463l.943.121s1.056 1.54 1.359 1.6l-.055 1.067s.517.317.627.364c.11.045-.476-1.112.102-2.422l-.213-.201-.253.51s-1.039-.935-.945-1.12l.638-.126s-.23-.309-.188-.32c.042-.012-.991.318-2.247-.213 0-.001.152.546.232.74zM97.571 207.249s1.885 1.07 2.818.887c0 0-1.053-.194-2.021-1.487l-.797.6zM97.847 209.039s2.931 1.108 5.123-.434c0 0-.699 1.597-2.861 1.398-.001 0-1.135-.1-2.262-.964zM100.944 204.711l.347.458-.438.269s.167.234.122.236c-.046.001.613-.227 1.542-.008 0 0 .658.133.715.209.056.076-.104-.45-.187-.606l-1.351-.217s-.211-.515-.321-.662l-.429.321zM104.012 212.708s-1.238-2.155 2.116-3.116c0 0 1.139.387 1.794 1.084 0 0 .463.446.759.829l-1.663 1.25s-1.287-1.776-2.294-1.506c.001 0-.996-.041-.712 1.459zM102.407 207.648c1.379.756 2.168 2.498 2.168 2.498.443 1.523-.188 1.875-.188 1.875-.083.062-.291.129-.428.115l.005.342c1.807 1.358 2.59-.38 2.59-.38.313-.708.104-1.913.104-1.913-.049-.37-.338-1.153-.338-1.153-1.904-1.584-3.913-1.384-3.913-1.384zM104.98 213.83l-.513-1.356s1.274-1.397-.163-2.83c0 0 .939 1.698.082 2.377 0 0-.13.087-.428.115 0 0-.155.587.475 1.849 0 0 .279-.05.547-.155zM104.034 215.001s-.507-2.106-.072-2.953c0 0-.107 1.064.869 2.353l-.797.6zM102.364 214.255s-.253-3.124 1.836-4.802c0 0-1.728.229-2.137 2.362 0-.001-.216 1.118.301 2.44zM107.452 212.461l-.346-.46-.38.348s-.177-.227-.193-.184c-.015.044.388-.525.435-1.478 0 0 .056-.67-.002-.745-.058-.075.404.226.532.346l-.167 1.359s.436.344.547.493l-.426.321zM102.121 208.1s.805.583.77.645c-.034.06.252-.458.263-.554 0 0-.504-.4-.594-.454l-.439.363zM103.177 209.911s.924.278 1.135.646c0 0 .101-.162.287-.217.187-.053-.277-.718-.399-.888 0 0-.724.185-1.043.473"/><path fill="#919191" d="M103 206.35s2.62 2.848 2.709 3.387c.1.597.424.407.585.205 0-.001-.768-2.45-3.294-3.592zM103.827 215.157c-.439-.654-.841-1.502-.992-2.544 0 0 .735 1.21 1.426 2.217l-.434.327zM97.812 207.067c.436.633.848 1.176 1.037 1.266.547.263.274.519.036.619 0 0-.794-.527-1.504-1.558l.431-.327zM106.564 213.848c-1.521 1.144-1.512 3.724.021 5.761s4.009 2.76 5.53 1.617c1.521-1.145 1.512-3.725-.02-5.762-1.532-2.039-4.009-2.761-5.531-1.616zm4.427 5.875c-.604.456-1.837-.161-2.75-1.375s-1.164-2.567-.56-3.022c.604-.455 1.835.161 2.75 1.375.913 1.214 1.164 2.568.56 3.022zM107.082 212.739c.904 1.21 1.149 2.553.546 3.006-.6.452-1.822-.155-2.735-1.359l-1.657 1.247c1.534 2.017 3.995 2.73 5.51 1.59 1.515-1.14 1.513-3.702 0-5.735l-1.664 1.251zM111.358 222.137c-.903-1.211-1.148-2.554-.547-3.007.601-.453 1.823.156 2.736 1.359l1.657-1.246c-1.534-2.018-3.994-2.731-5.51-1.591-1.515 1.141-1.511 3.702.001 5.735l1.663-1.25zM106.293 215.642s1.727 1.785 3.581-1.171c0 0-.055-1.2-.543-2.023 0 0-.3-.569-.585-.959l-1.664 1.251s1.35 1.729.812 2.623c-.001-.001-.237.968-1.601.279z"/><defs><path id="m" d="M106.564 213.848c-1.521 1.144-1.512 3.724.021 5.761s4.009 2.76 5.53 1.617c1.521-1.145 1.512-3.725-.02-5.762-1.532-2.039-4.009-2.761-5.531-1.616zm4.427 5.875c-.604.456-1.837-.161-2.75-1.375s-1.164-2.567-.56-3.022c.604-.455 1.835.161 2.75 1.375.913 1.214 1.164 2.568.56 3.022z"/></defs><use xlink:href="#m" overflow="visible" fill="#919191"/><clipPath id="n"><use xlink:href="#m" overflow="visible"/></clipPath><path clip-path="url(#n)" fill="#919191" d="M107.838 213.229c-.772.447-.929 1.485-.547 2.68 1.273-.416 2.482 1.035 2.019 2.206.804.27 1.379 1.197 1.162 2.036.725.44 1.498.449 2.391-.356 1.008-.91.813-3.01-.609-4.899-1.421-1.891-3.093-2.434-4.416-1.667z"/><path fill="#919191" d="M105.865 214.64l.778.815s.649-1.146 2.289-.071c0 0-.634-.337-1.127-.133 0 0-.363.158-.432.632 0 0-.818.154-1.747-.722 0 0 .117-.331.239-.521zM105.792 218.199l.943.122s1.056 1.54 1.359 1.6l-.055 1.067s.518.316.627.363c.111.047-.477-1.111.103-2.421l-.213-.201-.252.509s-1.038-.934-.946-1.12l.638-.126s-.23-.308-.189-.32c.043-.012-.99.319-2.248-.213-.001-.001.153.545.233.74zM104.097 214.984s1.885 1.072 2.817.888c0 0-1.053-.193-2.021-1.487l-.796.599zM104.371 216.774s2.932 1.109 5.124-.432c0 0-.7 1.596-2.862 1.397 0 0-1.134-.101-2.262-.965zM107.469 212.447l.347.459-.44.27s.167.233.122.235c-.046.001.613-.226 1.542-.008 0 0 .66.132.715.209.057.075-.104-.451-.185-.607l-1.352-.216s-.211-.516-.322-.663l-.427.321zM110.537 220.445s-1.237-2.155 2.116-3.116c0 0 1.139.386 1.795 1.082 0 0 .463.447.76.829l-1.664 1.251s-1.288-1.775-2.294-1.506c0 .001-.998-.041-.713 1.46zM108.932 215.384c1.38.757 2.168 2.498 2.168 2.498.44 1.522-.19 1.875-.19 1.875-.083.061-.292.129-.427.116l.005.341c1.808 1.358 2.589-.38 2.589-.38.312-.709.104-1.913.104-1.913-.048-.368-.336-1.153-.336-1.153-1.904-1.583-3.913-1.384-3.913-1.384zM111.506 221.567l-.513-1.358s1.273-1.396-.164-2.831c0 0 .938 1.699.081 2.379 0 0-.128.088-.427.116 0 0-.156.586.475 1.848.001 0 .279-.05.548-.154zM110.559 222.738s-.507-2.107-.072-2.953c0 0-.107 1.065.868 2.354l-.796.599zM108.888 221.991s-.252-3.123 1.837-4.802c0 0-1.728.23-2.137 2.362 0 0-.217 1.118.3 2.44zM113.976 220.197l-.345-.46-.379.347s-.178-.226-.193-.182c-.014.044.387-.526.435-1.479 0 0 .054-.669-.003-.745-.056-.075.404.225.533.346l-.167 1.358s.437.345.547.493l-.428.322zM108.646 215.837s.804.583.771.645c-.035.06.25-.457.262-.554 0 0-.504-.399-.593-.454l-.44.363zM109.701 217.646s.924.279 1.135.647c0 0 .101-.162.288-.216s-.277-.718-.398-.888c0 0-.724.186-1.042.473"/><path fill="#919191" d="M109.524 214.085s2.621 2.849 2.711 3.388c.098.597.422.406.584.205 0 0-.768-2.45-3.295-3.593zM110.352 222.893c-.44-.654-.842-1.502-.993-2.542 0 0 .735 1.209 1.426 2.216l-.433.326zM104.336 214.805c.437.632.849 1.175 1.037 1.266.546.261.274.518.036.619 0 0-.794-.529-1.505-1.56l.432-.325zM135.712 176.154c-1.603-.468-3.41.892-4.037 3.037-.627 2.146.165 4.265 1.767 4.733 1.603.468 3.41-.893 4.038-3.038.625-2.145-.166-4.264-1.768-4.732zm-1.804 6.193c-.637-.187-.851-1.375-.478-2.653.373-1.28 1.192-2.166 1.831-1.98.636.186.849 1.374.476 2.653-.374 1.279-1.194 2.166-1.829 1.98zM136.762 175.936c-.376 1.27-1.19 2.147-1.824 1.962-.633-.186-.848-1.363-.481-2.635l-1.746-.51c-.61 2.137.18 4.24 1.775 4.706 1.596.465 3.394-.882 4.028-3.011l-1.752-.512zM132.405 183.872c.375-1.271 1.191-2.148 1.824-1.963.633.186.848 1.363.482 2.636l1.746.51c.611-2.136-.18-4.238-1.775-4.706-1.596-.466-3.393.881-4.027 3.011l1.75.512zM134.31 176.906s-.348 2.149 2.701 1.901c0 0 .814-.67 1.137-1.446 0 0 .241-.509.366-.915l-1.752-.511s-.507 1.855-1.417 1.947c0 0-.805.343-1.035-.976z"/><defs><path id="o" d="M135.712 176.154c-1.603-.468-3.41.892-4.037 3.037-.627 2.146.165 4.265 1.767 4.733 1.603.468 3.41-.893 4.038-3.038.625-2.145-.166-4.264-1.768-4.732zm-1.804 6.193c-.637-.187-.851-1.375-.478-2.653.373-1.28 1.192-2.166 1.831-1.98.636.186.849 1.374.476 2.653-.374 1.279-1.194 2.166-1.829 1.98z"/></defs><use xlink:href="#o" overflow="visible" fill="#919191"/><clipPath id="p"><use xlink:href="#o" overflow="visible"/></clipPath><path clip-path="url(#p)" fill="#919191" d="M136.813 176.724c-.718-.308-1.529.126-2.168 1.021.96.677.576 2.288-.49 2.576.233.707-.117 1.597-.819 1.884.071.741.469 1.288 1.504 1.493 1.168.231 2.541-1.009 3.121-3 .582-1.989.085-3.448-1.148-3.974z"/><path fill="#919191" d="M134.788 176.079l-.165.974s1.146-.146 1.25 1.57c0 0-.095-.623-.497-.861 0 0-.302-.172-.671.028 0 0-.536-.494-.409-1.606.001 0 .295-.091.492-.105zM132.25 177.894l.409.728s-.527 1.549-.412 1.793l-.778.522s.049.53.074.631c.026.101.531-.919 1.754-1.199l.029-.256-.49.092s.111-1.221.29-1.253l.424.381s.095-.323.126-.299c.031.023-.743-.53-1.03-1.691.001 0-.302.394-.396.551zM133.618 175.019s.236 1.885.855 2.443c0 0-.417-.841-.016-2.199l-.839-.244zM132.505 176.149s.76 2.641 2.992 3.371c0 0-1.488.346-2.483-1.276 0 0-.525-.85-.509-2.095zM137.17 176.055l-.142.483-.419-.167s-.075.241-.101.209c-.025-.031.481.312.814 1.078 0 0 .251.534.228.613-.024.079.262-.311.33-.449l-.558-1.063s.251-.417.297-.574l-.449-.13zM133.162 182.407s.864-2 3.299-.149c0 0 .326 1.001.182 1.828 0 0-.072.559-.185.969l-1.752-.512s.571-1.836-.146-2.403c0 0-.494-.721-1.398.267zM135.874 178.623c.193 1.367-.617 2.833-.617 2.833-.838 1.11-1.415.851-1.415.851-.087-.026-.244-.137-.306-.239l-.238.182c-.005 1.982 1.626 1.62 1.626 1.62.661-.153 1.398-.931 1.398-.931.233-.228.633-.842.633-.842.112-2.169-1.081-3.474-1.081-3.474zM132.882 183.676l.686-1.073s1.648.161 1.901-1.6c0 0-.702 1.551-1.626 1.305 0 0-.131-.044-.306-.239 0 0-.495.199-1.05 1.303-.001 0 .181.17.395.304zM131.562 183.624s1.215-1.461 2.037-1.6c0 0-.804.485-1.197 1.846l-.84-.246zM131.212 182.06s2.061-1.816 4.336-1.23c0 0-1.069-1.093-2.779-.261 0-.001-.9.434-1.557 1.491zM135.141 184.692l.143-.484-.444-.085s.066-.243.028-.231c-.039.014.573-.005 1.267-.47 0 0 .499-.314.522-.394.022-.079.053.402.036.555l-1.042.596s-.013.488-.058.644l-.452-.131zM135.406 178.659s.014.872-.048.88c-.061.007.454-.063.528-.106 0 0 .017-.564.006-.655l-.486-.119zM134.688 180.352s.291.794.141 1.135c0 0 .168-.014.302.089.137.102.36-.571.416-.747 0 0-.51-.411-.878-.483"/><path fill="#919191" d="M137.098 178.358s-.627 3.334-.958 3.681c-.367.383-.064.51.163.518.001 0 1.319-1.824.795-4.199zM131.345 183.562c.229-.653.614-1.38 1.265-2.033 0 0-.462 1.151-.809 2.166l-.456-.133zM133.87 175.091c-.215.64-.38 1.212-.344 1.393.104.521-.221.465-.416.349 0 0-.046-.834.305-1.875l.455.133zM133.683 184.792c-1.603-.468-3.41.891-4.036 3.036-.627 2.146.165 4.265 1.768 4.733 1.603.468 3.41-.891 4.037-3.037.625-2.146-.166-4.265-1.769-4.732zm-1.804 6.191c-.637-.186-.85-1.373-.477-2.652.374-1.28 1.191-2.165 1.83-1.98.637.186.849 1.374.476 2.653-.375 1.279-1.192 2.164-1.829 1.979zM134.734 184.573c-.377 1.27-1.191 2.147-1.825 1.962-.633-.185-.847-1.362-.48-2.634l-1.747-.51c-.611 2.136.18 4.239 1.775 4.704 1.596.467 3.394-.88 4.027-3.01l-1.75-.512zM130.376 192.508c.376-1.27 1.19-2.147 1.825-1.962.634.185.847 1.363.481 2.636l1.745.508c.611-2.134-.18-4.237-1.775-4.703-1.595-.467-3.394.879-4.027 3.009l1.751.512zM132.281 185.542s-.348 2.151 2.7 1.902c0 0 .815-.669 1.138-1.444 0 0 .241-.51.365-.915l-1.75-.511s-.507 1.855-1.417 1.946c-.001-.001-.804.34-1.036-.978z"/><defs><path id="q" d="M133.683 184.792c-1.603-.468-3.41.891-4.036 3.036-.627 2.146.165 4.265 1.768 4.733 1.603.468 3.41-.891 4.037-3.037.625-2.146-.166-4.265-1.769-4.732zm-1.804 6.191c-.637-.186-.85-1.373-.477-2.652.374-1.28 1.191-2.165 1.83-1.98.637.186.849 1.374.476 2.653-.375 1.279-1.192 2.164-1.829 1.979z"/></defs><use xlink:href="#q" overflow="visible" fill="#919191"/><clipPath id="r"><use xlink:href="#q" overflow="visible"/></clipPath><path clip-path="url(#r)" fill="#919191" d="M134.786 185.36c-.718-.307-1.53.127-2.168 1.022.96.676.576 2.287-.49 2.576.233.707-.118 1.596-.821 1.884.072.741.471 1.29 1.506 1.493 1.168.23 2.54-1.009 3.121-2.999.58-1.989.084-3.449-1.148-3.976z"/><path fill="#919191" d="M132.76 184.715l-.165.973s1.145-.145 1.251 1.573c0 0-.096-.623-.498-.862 0 0-.302-.172-.67.029 0 0-.537-.494-.411-1.606.001 0 .295-.093.493-.107zM130.221 186.533l.411.725s-.528 1.549-.411 1.793l-.778.521s.049.529.075.631c.025.102.53-.918 1.753-1.198l.031-.255-.491.089s.11-1.219.289-1.252l.424.383s.095-.325.125-.3c.031.022-.743-.529-1.029-1.691-.001.001-.305.395-.399.554zM131.588 183.654s.237 1.885.855 2.445c0 0-.417-.841-.015-2.199l-.84-.246zM130.477 184.786s.759 2.642 2.992 3.372c0 0-1.488.347-2.483-1.275-.001-.001-.525-.852-.509-2.097zM135.141 184.692l-.14.484-.419-.167s-.077.239-.102.208c-.026-.031.481.313.814 1.079 0 0 .252.533.229.613-.023.079.261-.311.33-.449l-.558-1.063s.251-.418.298-.573l-.452-.132zM131.133 191.042s.864-1.999 3.299-.148c0 0 .328 1.002.181 1.829 0 0-.07.559-.183.968l-1.752-.511s.572-1.836-.146-2.403c0 .001-.493-.721-1.399.265zM133.846 187.261c.192 1.365-.617 2.833-.617 2.833-.838 1.109-1.417.851-1.417.851-.087-.025-.244-.137-.306-.24l-.237.184c-.005 1.981 1.627 1.618 1.627 1.618.66-.151 1.398-.929 1.398-.929.233-.229.633-.843.633-.843.114-2.169-1.081-3.474-1.081-3.474zM130.855 192.313l.684-1.073s1.649.162 1.902-1.6c0 0-.701 1.551-1.627 1.305 0 0-.129-.045-.306-.24 0 0-.494.198-1.049 1.304-.001.001.181.17.396.304zM129.534 192.262s1.214-1.463 2.037-1.6c0 0-.805.484-1.198 1.845l-.839-.245zM129.183 190.697s2.062-1.817 4.336-1.23c0 0-1.068-1.093-2.779-.261 0 0-.901.434-1.557 1.491zM133.112 193.329l.142-.484-.443-.084s.065-.245.027-.231c-.039.012.573-.004 1.267-.471 0 0 .499-.314.522-.394.023-.08.054.402.036.557l-1.043.595s-.012.488-.058.644l-.45-.132zM133.377 187.296s.013.872-.048.879c-.061.007.453-.064.528-.106 0 0 .015-.563.005-.655l-.485-.118zM132.66 188.988s.29.795.141 1.137c0 0 .168-.014.304.087.135.104.358-.572.415-.747 0 0-.51-.41-.878-.484"/><path fill="#919191" d="M135.07 186.995s-.627 3.335-.958 3.681c-.368.383-.063.512.162.519 0 0 1.32-1.826.796-4.2zM129.317 192.199c.227-.653.613-1.38 1.264-2.032 0 0-.463 1.151-.808 2.165l-.456-.133zM131.843 183.729c-.217.639-.382 1.212-.346 1.392.103.521-.222.464-.416.35 0 0-.046-.834.304-1.875l.458.133zM131.626 193.398c-1.603-.468-3.41.892-4.035 3.036-.628 2.147.164 4.267 1.766 4.734 1.604.468 3.411-.892 4.037-3.038s-.165-4.265-1.768-4.732zm-1.805 6.192c-.636-.186-.85-1.375-.478-2.653.375-1.28 1.195-2.166 1.831-1.979.636.186.85 1.373.476 2.652-.373 1.279-1.192 2.166-1.829 1.98zM132.676 193.179c-.375 1.27-1.19 2.147-1.823 1.962-.635-.185-.848-1.362-.482-2.635l-1.745-.51c-.613 2.136.178 4.238 1.775 4.705 1.596.466 3.393-.881 4.027-3.012l-1.752-.51zM128.32 201.115c.376-1.271 1.19-2.147 1.825-1.962.633.186.848 1.363.481 2.635l1.746.511c.611-2.137-.18-4.239-1.776-4.705-1.596-.467-3.393.879-4.027 3.01l1.751.511zM130.224 194.148s-.348 2.15 2.701 1.901c0 0 .815-.668 1.137-1.444 0 0 .241-.509.366-.916l-1.752-.511s-.505 1.855-1.417 1.946c0 .001-.804.344-1.035-.976z"/><defs><path id="s" d="M131.626 193.398c-1.603-.468-3.41.892-4.035 3.036-.628 2.147.164 4.267 1.766 4.734 1.604.468 3.411-.892 4.037-3.038s-.165-4.265-1.768-4.732zm-1.805 6.192c-.636-.186-.85-1.375-.478-2.653.375-1.28 1.195-2.166 1.831-1.979.636.186.85 1.373.476 2.652-.373 1.279-1.192 2.166-1.829 1.98z"/></defs><use xlink:href="#s" overflow="visible" fill="#919191"/><clipPath id="t"><use xlink:href="#s" overflow="visible"/></clipPath><path clip-path="url(#t)" fill="#919191" d="M132.728 193.966c-.717-.306-1.53.127-2.168 1.023.96.677.575 2.288-.49 2.576.233.706-.117 1.596-.819 1.884.07.741.469 1.288 1.504 1.493 1.167.23 2.541-1.009 3.121-3 .582-1.989.085-3.448-1.148-3.976z"/><path fill="#919191" d="M130.703 193.321l-.165.975s1.145-.146 1.25 1.571c0 0-.094-.622-.496-.861 0 0-.304-.172-.672.029 0 0-.536-.495-.409-1.606 0-.001.294-.092.492-.108zM128.164 195.139l.41.725s-.528 1.551-.411 1.794l-.778.521s.048.531.074.633c.025.101.531-.919 1.754-1.2l.029-.255-.491.09s.111-1.219.291-1.251l.423.381s.096-.323.126-.3c.031.022-.744-.53-1.029-1.69 0-.001-.305.393-.398.552zM129.532 192.262s.236 1.885.854 2.445c0 0-.416-.842-.016-2.2l-.838-.245zM128.418 193.394s.76 2.64 2.993 3.37c0 0-1.488.347-2.482-1.276 0 0-.526-.849-.511-2.094zM133.083 193.298l-.14.483-.419-.167s-.077.24-.103.209c-.024-.033.481.311.815 1.079 0 0 .252.532.229.611-.024.08.261-.309.329-.45l-.557-1.062s.25-.418.296-.573l-.45-.13zM129.077 199.651s.863-2 3.3-.149c0 0 .326 1.002.18 1.829 0 0-.07.558-.183.967l-1.751-.512s.572-1.835-.146-2.402c-.001 0-.496-.721-1.4.267zM131.788 195.867c.193 1.366-.616 2.833-.616 2.833-.838 1.111-1.416.852-1.416.852-.086-.025-.244-.136-.306-.239l-.237.184c-.005 1.981 1.625 1.619 1.625 1.619.662-.152 1.398-.931 1.398-.931.234-.228.633-.843.633-.843.114-2.169-1.081-3.475-1.081-3.475zM128.797 200.918l.684-1.072s1.65.162 1.902-1.6c0 0-.7 1.551-1.627 1.305 0 0-.13-.045-.306-.239 0 0-.494.198-1.049 1.304 0 0 .182.169.396.302zM127.477 200.868s1.213-1.461 2.037-1.6c0 0-.804.484-1.196 1.845l-.841-.245zM127.125 199.304s2.061-1.817 4.336-1.231c0 0-1.068-1.092-2.78-.261.001 0-.899.434-1.556 1.492zM131.056 201.936l.142-.485-.444-.083s.065-.243.027-.231c-.039.014.573-.003 1.266-.471 0 0 .5-.313.522-.392.022-.08.054.401.036.554l-1.041.596s-.014.487-.06.644l-.448-.132zM131.32 195.903s.013.872-.049.879c-.06.008.455-.064.527-.106 0 0 .016-.564.007-.656l-.485-.117zM130.603 197.595s.29.795.142 1.137c0 0 .166-.014.302.088.136.103.359-.572.415-.748 0 0-.51-.41-.879-.484"/><path fill="#919191" d="M133.012 195.602s-.626 3.335-.958 3.681c-.367.382-.063.511.164.517 0 0 1.318-1.825.794-4.198zM127.259 200.805c.229-.651.614-1.378 1.267-2.031 0 0-.464 1.151-.81 2.165l-.457-.134zM129.785 192.334c-.217.64-.382 1.213-.346 1.394.103.521-.22.464-.416.349 0 0-.045-.834.305-1.874l.457.131zM129.616 202.04c-1.602-.467-3.409.892-4.035 3.039-.626 2.146.166 4.264 1.767 4.732 1.602.468 3.409-.892 4.037-3.037.626-2.147-.165-4.265-1.769-4.734zm-1.803 6.192c-.637-.185-.851-1.374-.477-2.653s1.192-2.166 1.828-1.979c.638.186.851 1.374.477 2.653-.373 1.279-1.193 2.165-1.828 1.979zM130.666 201.822c-.375 1.27-1.189 2.146-1.824 1.96-.632-.184-.847-1.361-.481-2.634l-1.746-.51c-.611 2.136.18 4.238 1.776 4.705 1.597.466 3.394-.88 4.027-3.011l-1.752-.51zM126.311 209.757c.375-1.27 1.19-2.146 1.824-1.961.632.185.847 1.362.481 2.634l1.745.51c.612-2.136-.179-4.238-1.774-4.706-1.596-.465-3.393.882-4.027 3.011l1.751.512zM128.214 202.792s-.348 2.149 2.702 1.899c0 0 .814-.668 1.136-1.444 0 0 .242-.509.366-.915l-1.752-.511s-.505 1.854-1.416 1.946c0 .001-.805.344-1.036-.975z"/><defs><path id="u" d="M129.616 202.04c-1.602-.467-3.409.892-4.035 3.039-.626 2.146.166 4.264 1.767 4.732 1.602.468 3.409-.892 4.037-3.037.626-2.147-.165-4.265-1.769-4.734zm-1.803 6.192c-.637-.185-.851-1.374-.477-2.653s1.192-2.166 1.828-1.979c.638.186.851 1.374.477 2.653-.373 1.279-1.193 2.165-1.828 1.979z"/></defs><use xlink:href="#u" overflow="visible" fill="#919191"/><clipPath id="v"><use xlink:href="#u" overflow="visible"/></clipPath><path clip-path="url(#v)" fill="#919191" d="M130.719 202.609c-.719-.308-1.53.127-2.168 1.022.96.676.575 2.287-.489 2.576.232.707-.117 1.597-.82 1.885.071.74.47 1.288 1.505 1.492 1.168.231 2.541-1.008 3.122-2.999.579-1.989.083-3.448-1.15-3.976z"/><path fill="#919191" d="M128.693 201.965l-.165.974s1.145-.146 1.25 1.571c0 0-.096-.622-.497-.861 0 0-.302-.171-.671.028 0 0-.537-.494-.41-1.606.001-.001.296-.092.493-.106zM126.154 203.781l.41.727s-.528 1.55-.411 1.793l-.777.521s.049.53.074.631c.025.103.53-.918 1.754-1.198l.029-.255-.49.09s.111-1.22.29-1.252l.424.382s.095-.323.125-.3c.032.023-.743-.529-1.03-1.69-.001-.001-.303.393-.398.551zM127.523 200.905s.235 1.885.854 2.443c0 0-.417-.841-.017-2.199l-.837-.244zM126.41 202.035s.759 2.642 2.992 3.372c0 0-1.488.346-2.483-1.276-.001 0-.524-.85-.509-2.096zM131.075 201.94l-.141.485-.419-.167s-.077.24-.102.209c-.025-.031.48.312.814 1.08 0 0 .253.532.229.611-.024.079.261-.31.329-.449l-.558-1.063s.252-.418.297-.574l-.449-.132zM127.067 208.292s.864-2 3.298-.149c0 0 .328 1.003.183 1.83 0 0-.072.559-.184.968l-1.752-.512s.571-1.836-.146-2.402c-.001 0-.494-.722-1.399.265zM129.779 204.51c.192 1.367-.617 2.833-.617 2.833-.838 1.108-1.416.852-1.416.852-.086-.026-.244-.137-.305-.24l-.238.184c-.004 1.981 1.626 1.619 1.626 1.619.661-.154 1.399-.932 1.399-.932.232-.227.633-.842.633-.842.113-2.168-1.082-3.474-1.082-3.474zM126.788 209.562l.684-1.073s1.649.161 1.902-1.6c0 0-.701 1.549-1.627 1.305 0 0-.129-.045-.305-.24 0 0-.495.198-1.049 1.304 0 .001.18.169.395.304zM125.468 209.511s1.214-1.462 2.036-1.601c0 0-.805.485-1.198 1.845l-.838-.244zM125.116 207.947s2.061-1.817 4.337-1.231c0 0-1.068-1.092-2.78-.26 0 0-.9.433-1.557 1.491zM129.045 210.578l.144-.484-.444-.084s.066-.243.027-.231c-.039.014.573-.003 1.267-.469 0 0 .499-.314.521-.395.023-.077.054.403.036.557l-1.041.595s-.014.487-.06.642l-.45-.131zM129.312 204.546s.012.872-.049.879c-.061.007.453-.064.526-.107 0 0 .017-.564.008-.654l-.485-.118zM128.594 206.237s.29.795.141 1.136c0 0 .167-.014.303.088.135.103.359-.571.416-.746 0 0-.511-.411-.879-.483"/><path fill="#919191" d="M131.002 204.244s-.626 3.335-.957 3.682c-.367.382-.063.51.163.517 0 0 1.318-1.824.794-4.199zM125.251 209.447c.228-.652.613-1.38 1.264-2.032 0 0-.464 1.151-.808 2.165l-.456-.133zM127.774 200.977c-.214.64-.38 1.213-.345 1.393.104.521-.22.464-.416.35 0 0-.045-.835.306-1.876l.455.133zM127.56 210.647c-1.603-.468-3.411.891-4.038 3.037-.626 2.147.166 4.265 1.767 4.733 1.604.468 3.412-.892 4.038-3.039.627-2.143-.165-4.263-1.767-4.731zm-1.805 6.193c-.638-.188-.852-1.374-.478-2.654.373-1.28 1.193-2.166 1.829-1.979.636.185.85 1.374.477 2.653s-1.191 2.165-1.828 1.98zM128.61 210.428c-.377 1.27-1.192 2.147-1.825 1.962-.632-.186-.848-1.364-.481-2.636l-1.745-.51c-.612 2.137.179 4.239 1.775 4.706 1.596.466 3.394-.88 4.026-3.011l-1.75-.511zM124.252 218.363c.376-1.269 1.19-2.147 1.826-1.962.633.186.846 1.363.481 2.635l1.745.51c.612-2.136-.179-4.239-1.775-4.704-1.595-.467-3.393.881-4.027 3.011l1.75.51zM126.158 211.398s-.348 2.15 2.701 1.901c0 0 .813-.67 1.136-1.445 0 0 .243-.508.366-.914l-1.75-.512s-.507 1.855-1.417 1.946c-.001.001-.806.344-1.036-.976z"/><defs><path id="w" d="M127.56 210.647c-1.603-.468-3.411.891-4.038 3.037-.626 2.147.166 4.265 1.767 4.733 1.604.468 3.412-.892 4.038-3.039.627-2.143-.165-4.263-1.767-4.731zm-1.805 6.193c-.638-.188-.852-1.374-.478-2.654.373-1.28 1.193-2.166 1.829-1.979.636.185.85 1.374.477 2.653s-1.191 2.165-1.828 1.98z"/></defs><use xlink:href="#w" overflow="visible" fill="#919191"/><clipPath id="x"><use xlink:href="#w" overflow="visible"/></clipPath><path clip-path="url(#x)" fill="#919191" d="M128.662 211.216c-.718-.308-1.531.126-2.169 1.021.961.677.576 2.288-.489 2.576.232.707-.118 1.597-.819 1.884.07.741.469 1.289 1.504 1.493 1.168.231 2.541-1.009 3.122-2.998.58-1.99.084-3.449-1.149-3.976z"/><path fill="#919191" d="M126.636 210.572l-.165.973s1.144-.146 1.25 1.571c0 0-.094-.622-.496-.862 0 0-.302-.171-.672.029 0 0-.537-.495-.41-1.606.001 0 .295-.091.493-.105zM124.097 212.389l.41.724s-.528 1.551-.41 1.795l-.778.522s.049.528.074.631c.025.101.53-.92 1.753-1.2l.03-.255-.491.09s.111-1.22.29-1.251l.424.382s.096-.324.126-.301c.03.024-.744-.529-1.03-1.69 0-.001-.303.393-.398.553zM125.465 209.509s.237 1.886.855 2.446c0 0-.417-.841-.016-2.2l-.839-.246zM124.353 210.643s.758 2.642 2.993 3.372c0 0-1.489.345-2.484-1.277-.001-.001-.525-.851-.509-2.095zM129.017 210.547l-.14.485-.421-.167s-.075.24-.101.208c-.024-.032.48.313.815 1.079 0 0 .251.533.227.612-.022.079.261-.311.33-.449l-.557-1.063s.25-.419.296-.574l-.449-.131zM125.009 216.898s.865-2 3.301-.147c0 0 .325 1.002.18 1.829 0 0-.07.56-.184.968l-1.752-.512s.573-1.836-.145-2.402c0 0-.494-.723-1.4.264zM127.721 213.116c.193 1.366-.615 2.835-.615 2.835-.839 1.107-1.417.85-1.417.85-.086-.025-.243-.138-.305-.24l-.238.183c-.005 1.982 1.627 1.62 1.627 1.62.66-.153 1.398-.931 1.398-.931.233-.228.633-.842.633-.842.112-2.169-1.083-3.475-1.083-3.475zM124.73 218.168l.685-1.072s1.648.161 1.902-1.6c0 0-.702 1.55-1.628 1.305 0 0-.13-.045-.305-.24 0 0-.495.199-1.05 1.303.001 0 .182.171.396.304zM123.411 218.117s1.214-1.461 2.036-1.6c0 0-.804.484-1.198 1.845l-.838-.245zM123.059 216.553s2.061-1.817 4.336-1.231c0 0-1.068-1.093-2.778-.261 0 0-.901.435-1.558 1.492zM126.988 219.185l.143-.484-.444-.084s.065-.243.027-.229c-.039.012.572-.005 1.266-.472 0 0 .5-.313.522-.393.023-.08.053.401.036.555l-1.042.595s-.014.488-.06.644l-.448-.132zM127.254 213.152s.012.872-.048.879c-.062.007.453-.063.527-.105 0 0 .016-.564.006-.656l-.485-.118zM126.537 214.844s.291.794.141 1.136c0 0 .168-.015.304.088.135.102.358-.571.414-.747 0 0-.509-.41-.878-.483"/><path fill="#919191" d="M128.946 212.851s-.627 3.335-.958 3.681c-.366.384-.063.51.163.518-.001 0 1.318-1.824.795-4.199zM123.193 218.055c.229-.654.614-1.381 1.266-2.033 0 0-.463 1.151-.81 2.166l-.456-.133zM125.718 209.585c-.216.638-.381 1.211-.345 1.393.104.52-.221.464-.416.349 0 0-.046-.835.305-1.876l.456.134zM110.425 221.686l-1.263 1.405 1.42 2.231-.157-3.636M127.151 219.59l1.39.464-1.171 2.932-.219-3.396"/><path fill="#919191" d="M107.636 219.835l1.104 13.928 10.358 6.216 9.251-7.772-.035-.446.004.065-.004-.065-1.075-13.542-10.36-6.215.005.06z" opacity=".8"/></g><g><path fill="#5D7081" d="M70.656 165.765c-1.522 1.145-1.514 3.724.019 5.761 1.534 2.038 4.009 2.76 5.532 1.617 1.521-1.145 1.513-3.725-.021-5.763-1.533-2.036-4.01-2.76-5.53-1.615zm4.426 5.876c-.605.454-1.837-.161-2.75-1.376-.915-1.214-1.165-2.567-.56-3.023.604-.454 1.835.162 2.749 1.376.914 1.215 1.165 2.569.561 3.023z"/><path fill="#748A98" d="M71.172 164.657c.904 1.21 1.149 2.553.547 3.006-.602.452-1.824-.156-2.736-1.359l-1.658 1.247c1.535 2.018 3.995 2.73 5.511 1.591 1.514-1.141 1.511-3.703-.001-5.736l-1.663 1.251zM75.449 174.054c-.904-1.21-1.149-2.554-.548-3.006.602-.453 1.824.156 2.736 1.359l1.658-1.247c-1.534-2.017-3.995-2.73-5.51-1.59-1.515 1.139-1.512 3.701.001 5.734l1.663-1.25z"/><path fill="#5D7081" d="M70.385 167.559s1.727 1.785 3.581-1.17c0 0-.056-1.2-.544-2.024 0 0-.3-.569-.585-.959l-1.663 1.252s1.349 1.729.811 2.623c-.002-.002-.237.968-1.6.278z"/><defs><path id="y" d="M70.656 165.765c-1.522 1.145-1.514 3.724.019 5.761 1.534 2.038 4.009 2.76 5.532 1.617 1.521-1.145 1.513-3.725-.021-5.763-1.533-2.036-4.01-2.76-5.53-1.615zm4.426 5.876c-.605.454-1.837-.161-2.75-1.376-.915-1.214-1.165-2.567-.56-3.023.604-.454 1.835.162 2.749 1.376.914 1.215 1.165 2.569.561 3.023z"/></defs><clipPath id="z"><use xlink:href="#y" overflow="visible"/></clipPath><path clip-path="url(#z)" fill="#99B6CC" d="M71.928 165.146c-.771.446-.929 1.485-.547 2.679 1.274-.416 2.483 1.035 2.019 2.206.805.27 1.379 1.197 1.162 2.035.726.441 1.498.45 2.392-.355 1.008-.909.813-3.01-.61-4.9-1.421-1.889-3.093-2.431-4.416-1.665z"/><path fill="#3D4A50" d="M69.957 166.557l.777.815s.649-1.147 2.289-.07c0 0-.633-.338-1.125-.134 0 0-.363.158-.433.632 0 0-.818.153-1.747-.723-.002.001.116-.33.239-.52zM69.881 170.116l.943.122s1.056 1.54 1.359 1.601l-.055 1.067s.518.317.628.363c.109.047-.478-1.111.102-2.42l-.214-.202-.251.51s-1.039-.934-.946-1.12l.638-.126s-.231-.308-.188-.32c.042-.013-.991.318-2.248-.213 0-.002.153.544.232.738z"/><path fill="#C7E3F0" d="M68.187 166.903s1.885 1.071 2.817.887c0 0-1.054-.193-2.021-1.487l-.796.6z"/><path fill="#5D7081" d="M68.462 168.691s2.932 1.109 5.124-.432c0 0-.7 1.596-2.862 1.397-.001.001-1.136-.1-2.262-.965z"/><path fill="#3D4A50" d="M71.561 164.365l.345.459-.438.269s.167.233.121.235c-.045.002.614-.227 1.542-.007 0 0 .659.133.715.209.056.076-.105-.451-.185-.607l-1.352-.216s-.21-.515-.321-.663l-.427.321z"/><path fill="#5D7081" d="M74.628 172.362s-1.238-2.154 2.116-3.116c0 0 1.138.387 1.794 1.083 0 0 .462.446.759.829l-1.663 1.252s-1.288-1.776-2.295-1.507c0 0-.997-.041-.711 1.459z"/><path fill="#748A98" d="M73.022 167.302c1.38.756 2.168 2.498 2.168 2.498.441 1.522-.189 1.875-.189 1.875-.082.061-.292.128-.427.116l.004.342c1.808 1.357 2.59-.381 2.59-.381.312-.708.104-1.912.104-1.912-.049-.369-.337-1.154-.337-1.154-1.905-1.583-3.913-1.384-3.913-1.384z"/><path fill="#3D4A50" d="M75.597 173.485l-.513-1.358s1.273-1.397-.163-2.832c0 0 .938 1.701.081 2.379 0 0-.129.088-.427.116 0 0-.156.587.474 1.849-.001 0 .278-.05.548-.154z"/><path fill="#C7E3F0" d="M74.648 174.656s-.506-2.108-.072-2.954c0 0-.106 1.066.868 2.354l-.796.6z"/><path fill="#5D7081" d="M72.979 173.908s-.253-3.123 1.835-4.802c0 0-1.728.23-2.136 2.361.001.001-.216 1.12.301 2.441z"/><path fill="#3D4A50" d="M78.066 172.115l-.345-.46-.38.348s-.178-.227-.193-.183c-.014.044.387-.527.435-1.479 0 0 .055-.67-.002-.745-.057-.075.403.226.532.347l-.167 1.358s.437.345.548.492l-.428.322zM72.735 167.754s.805.583.771.645c-.035.06.252-.458.264-.554 0 0-.504-.4-.594-.454-.001.001-.408.349-.441.363zM73.792 169.564s.925.278 1.134.646c0 0 .102-.163.288-.216.186-.054-.277-.717-.399-.888 0 0-.724.186-1.042.473"/><path fill="#fff" d="M73.616 166.003s2.619 2.849 2.709 3.387c.1.598.422.407.584.206 0 0-.767-2.45-3.293-3.593zM74.442 174.811c-.44-.654-.841-1.503-.993-2.543 0 0 .736 1.208 1.426 2.217l-.433.326zM68.426 166.722c.438.634.849 1.175 1.038 1.266.546.262.274.52.035.618 0 0-.793-.527-1.503-1.559l.43-.325z"/><path fill="#5D7081" d="M77.163 173.515c-1.521 1.145-1.514 3.724.019 5.761 1.534 2.038 4.01 2.761 5.531 1.616 1.522-1.145 1.514-3.724-.019-5.762-1.534-2.037-4.01-2.76-5.531-1.615zm4.424 5.875c-.604.456-1.835-.161-2.749-1.375-.914-1.214-1.165-2.567-.56-3.023.604-.454 1.835.162 2.749 1.376.914 1.215 1.165 2.568.56 3.022z"/><path fill="#748A98" d="M77.679 172.406c.903 1.211 1.149 2.554.547 3.006-.602.452-1.823-.156-2.736-1.359l-1.658 1.247c1.535 2.017 3.995 2.73 5.51 1.59 1.515-1.14 1.513-3.702-.001-5.735l-1.662 1.251zM81.955 181.804c-.903-1.21-1.149-2.553-.547-3.006.601-.453 1.824.156 2.737 1.359l1.656-1.247c-1.533-2.017-3.995-2.729-5.51-1.59-1.515 1.14-1.512 3.702.001 5.735l1.663-1.251z"/><path fill="#5D7081" d="M76.891 175.308s1.727 1.787 3.581-1.17c0 0-.056-1.201-.543-2.025 0 0-.3-.568-.586-.958l-1.663 1.251s1.349 1.729.812 2.624c-.001-.001-.238.967-1.601.278z"/><defs><path id="A" d="M77.163 173.515c-1.521 1.145-1.514 3.724.019 5.761 1.534 2.038 4.01 2.761 5.531 1.616 1.522-1.145 1.514-3.724-.019-5.762-1.534-2.037-4.01-2.76-5.531-1.615zm4.424 5.875c-.604.456-1.835-.161-2.749-1.375-.914-1.214-1.165-2.567-.56-3.023.604-.454 1.835.162 2.749 1.376.914 1.215 1.165 2.568.56 3.022z"/></defs><clipPath id="B"><use xlink:href="#A" overflow="visible"/></clipPath><path clip-path="url(#B)" fill="#99B6CC" d="M78.435 172.896c-.771.446-.929 1.485-.547 2.679 1.273-.416 2.482 1.035 2.019 2.207.805.27 1.378 1.197 1.162 2.035.726.441 1.499.451 2.391-.356 1.008-.91.813-3.01-.609-4.898-1.422-1.89-3.093-2.434-4.416-1.667z"/><path fill="#3D4A50" d="M76.462 174.307l.778.815s.649-1.146 2.291-.07c0 0-.635-.337-1.127-.134 0 0-.363.159-.432.633 0 0-.818.153-1.748-.722-.001 0 .116-.331.238-.522zM76.389 177.867l.944.121s1.055 1.54 1.358 1.6l-.055 1.067s.518.316.628.363c.11.046-.479-1.111.102-2.421l-.213-.201-.253.51s-1.037-.934-.946-1.12l.639-.126s-.231-.308-.188-.32-.99.318-2.247-.214c-.002-.001.151.545.231.741z"/><path fill="#C7E3F0" d="M74.693 174.653s1.884 1.07 2.818.887c0 0-1.053-.193-2.021-1.487l-.797.6z"/><path fill="#5D7081" d="M74.968 176.441s2.932 1.11 5.123-.432c0 0-.7 1.597-2.861 1.398 0 0-1.136-.102-2.262-.966z"/><path fill="#3D4A50" d="M78.066 172.115l.346.458-.438.269s.167.233.12.235c-.046.002.615-.225 1.542-.006 0 0 .659.133.715.209.057.075-.105-.451-.186-.607l-1.352-.216s-.21-.515-.321-.664l-.426.322z"/><path fill="#5D7081" d="M81.133 180.112s-1.237-2.154 2.117-3.115c0 0 1.139.385 1.794 1.083 0 0 .463.445.76.828l-1.663 1.252s-1.287-1.776-2.295-1.506c0-.001-.996-.042-.713 1.458z"/><path fill="#748A98" d="M79.53 175.052c1.378.757 2.167 2.498 2.167 2.498.442 1.522-.19 1.875-.19 1.875-.082.062-.292.129-.427.116l.005.341c1.807 1.357 2.59-.381 2.59-.381.312-.708.104-1.912.104-1.912-.049-.37-.338-1.153-.338-1.153-1.903-1.584-3.911-1.384-3.911-1.384z"/><path fill="#3D4A50" d="M82.104 181.234l-.513-1.358s1.273-1.396-.164-2.83c0 0 .938 1.7.081 2.378 0 0-.128.088-.427.116 0 0-.156.586.476 1.849-.001 0 .277-.05.547-.155z"/><path fill="#C7E3F0" d="M81.155 182.406s-.507-2.108-.072-2.954c0 0-.106 1.065.868 2.354l-.796.6z"/><path fill="#5D7081" d="M79.486 181.658s-.253-3.124 1.836-4.802c0 0-1.727.23-2.136 2.361 0 0-.218 1.12.3 2.441z"/><path fill="#3D4A50" d="M84.574 179.864l-.345-.46-.38.348s-.178-.226-.191-.182c-.016.043.387-.526.434-1.479 0 0 .055-.67-.002-.746-.058-.075.403.226.532.347l-.168 1.358s.437.345.548.492l-.428.322zM79.242 175.504s.806.583.771.645c-.035.06.251-.458.263-.554 0 0-.503-.399-.594-.453l-.44.362zM80.298 177.314s.924.278 1.135.646c0 0 .102-.163.288-.217.186-.053-.278-.718-.399-.888 0 0-.724.186-1.042.472"/><path fill="#fff" d="M80.122 173.752s2.62 2.85 2.71 3.388c.1.597.423.407.585.206 0 0-.769-2.451-3.295-3.594zM80.949 182.561c-.44-.654-.842-1.503-.993-2.543 0 0 .735 1.209 1.426 2.217l-.433.326zM74.935 174.471c.436.634.847 1.176 1.036 1.265.545.263.273.52.035.619 0 0-.793-.527-1.505-1.559l.434-.325z"/><path fill="#5D7081" d="M83.622 181.271c-1.522 1.145-1.514 3.724.019 5.76 1.532 2.039 4.009 2.762 5.53 1.617 1.522-1.146 1.514-3.725-.02-5.762-1.532-2.037-4.008-2.761-5.529-1.615zm4.426 5.875c-.605.455-1.837-.161-2.75-1.375-.914-1.215-1.164-2.569-.56-3.023.604-.455 1.834.16 2.749 1.376.913 1.213 1.164 2.568.561 3.022z"/><path fill="#748A98" d="M84.138 180.162c.905 1.209 1.148 2.553.548 3.005-.602.452-1.824-.156-2.736-1.359l-1.657 1.247c1.533 2.018 3.994 2.73 5.51 1.59 1.515-1.14 1.511-3.702-.001-5.735l-1.664 1.252zM88.415 189.559c-.904-1.21-1.149-2.554-.547-3.006.602-.453 1.824.156 2.736 1.358l1.658-1.246c-1.535-2.017-3.995-2.729-5.51-1.59s-1.513 3.702 0 5.734l1.663-1.25z"/><path fill="#5D7081" d="M83.351 183.063s1.727 1.786 3.579-1.17c0 0-.054-1.201-.543-2.024 0 0-.3-.569-.586-.959l-1.663 1.252s1.35 1.729.812 2.623c0-.001-.237.968-1.599.278z"/><defs><path id="C" d="M83.622 181.271c-1.522 1.145-1.514 3.724.019 5.76 1.532 2.039 4.009 2.762 5.53 1.617 1.522-1.146 1.514-3.725-.02-5.762-1.532-2.037-4.008-2.761-5.529-1.615zm4.426 5.875c-.605.455-1.837-.161-2.75-1.375-.914-1.215-1.164-2.569-.56-3.023.604-.455 1.834.16 2.749 1.376.913 1.213 1.164 2.568.561 3.022z"/></defs><clipPath id="D"><use xlink:href="#C" overflow="visible"/></clipPath><path clip-path="url(#D)" fill="#99B6CC" d="M84.893 180.651c-.77.447-.928 1.484-.546 2.679 1.274-.415 2.483 1.037 2.02 2.207.804.27 1.378 1.197 1.163 2.035.724.442 1.498.451 2.39-.355 1.008-.91.813-3.01-.609-4.899-1.422-1.89-3.094-2.433-4.418-1.667z"/><path fill="#3D4A50" d="M82.921 182.062l.778.815s.648-1.146 2.289-.071c0 0-.632-.338-1.125-.133 0 0-.363.159-.432.633 0 0-.818.152-1.748-.723 0 0 .117-.33.238-.521zM82.848 185.622l.943.122s1.056 1.54 1.359 1.6l-.055 1.066s.517.317.627.365c.11.045-.476-1.112.102-2.422l-.213-.201-.253.51s-1.039-.934-.945-1.12l.638-.126s-.23-.308-.188-.32c.042-.013-.991.318-2.247-.213 0-.002.152.544.232.739z"/><path fill="#C7E3F0" d="M81.152 182.408s1.885 1.07 2.818.888c0 0-1.053-.194-2.021-1.487l-.797.599z"/><path fill="#5D7081" d="M81.428 184.197s2.931 1.109 5.123-.433c0 0-.699 1.597-2.861 1.397-.001.001-1.135-.099-2.262-.964z"/><path fill="#3D4A50" d="M84.525 179.87l.347.458-.438.269s.167.233.121.235c-.046.001.613-.227 1.542-.007 0 0 .658.133.715.208.056.076-.104-.449-.187-.606l-1.351-.217s-.211-.515-.321-.662l-.428.322z"/><path fill="#5D7081" d="M87.593 187.868s-1.237-2.155 2.116-3.117c0 0 1.139.387 1.794 1.084 0 0 .463.446.759.829l-1.663 1.25s-1.287-1.776-2.294-1.506c.001 0-.996-.041-.712 1.46z"/><path fill="#748A98" d="M85.988 182.807c1.379.757 2.168 2.498 2.168 2.498.443 1.523-.188 1.875-.188 1.875-.083.062-.291.129-.428.115l.005.342c1.807 1.357 2.59-.38 2.59-.38.313-.709.104-1.913.104-1.913-.049-.37-.338-1.154-.338-1.154-1.904-1.583-3.913-1.383-3.913-1.383z"/><path fill="#3D4A50" d="M88.562 188.989l-.512-1.357s1.274-1.396-.164-2.83c0 0 .939 1.698.082 2.378 0 0-.13.087-.428.115 0 0-.156.587.474 1.849 0 0 .279-.05.548-.155z"/><path fill="#C7E3F0" d="M87.615 190.161s-.507-2.107-.072-2.953c0 0-.107 1.065.869 2.354l-.797.599z"/><path fill="#5D7081" d="M85.945 189.414s-.253-3.123 1.836-4.802c0 0-1.728.229-2.137 2.362 0 0-.216 1.118.301 2.44z"/><path fill="#3D4A50" d="M91.033 187.62l-.346-.46-.38.348s-.177-.226-.193-.184c-.015.045.388-.525.435-1.478 0 0 .056-.67-.002-.745-.058-.075.404.225.532.346l-.167 1.358s.436.344.547.493l-.426.322zM85.702 183.259s.805.583.77.645c-.034.06.252-.458.263-.554 0 0-.504-.4-.594-.454 0 0-.408.349-.439.363zM86.758 185.069s.924.278 1.135.647c0 0 .101-.163.287-.217.187-.053-.277-.718-.399-.888 0 0-.724.186-1.043.473"/><path fill="#fff" d="M86.582 181.508s2.62 2.848 2.709 3.387c.1.597.424.407.585.205-.001 0-.769-2.45-3.294-3.592zM87.408 190.316c-.439-.654-.841-1.502-.992-2.544 0 0 .735 1.21 1.426 2.217l-.434.327zM81.393 182.227c.436.633.848 1.175 1.037 1.265.547.263.274.52.036.619 0 0-.794-.527-1.504-1.559l.431-.325z"/><path fill="#5D7081" d="M90.146 189.006c-1.521 1.144-1.512 3.725.021 5.761 1.533 2.037 4.009 2.76 5.53 1.617 1.521-1.145 1.512-3.725-.02-5.763-1.532-2.037-4.01-2.76-5.531-1.615zm4.426 5.876c-.604.455-1.837-.162-2.75-1.375-.913-1.214-1.164-2.568-.56-3.022.604-.455 1.835.162 2.75 1.375.913 1.214 1.164 2.567.56 3.022z"/><path fill="#748A98" d="M90.663 187.897c.904 1.21 1.149 2.553.546 3.006-.6.453-1.822-.155-2.735-1.359l-1.657 1.247c1.534 2.017 3.996 2.73 5.511 1.59 1.515-1.139 1.512-3.701-.001-5.734l-1.664 1.25zM94.939 197.295c-.903-1.211-1.148-2.554-.547-3.007.601-.452 1.823.156 2.736 1.359l1.657-1.246c-1.534-2.017-3.994-2.73-5.51-1.591-1.515 1.141-1.511 3.703.001 5.736l1.663-1.251z"/><path fill="#5D7081" d="M89.875 190.8s1.728 1.785 3.581-1.171c0 0-.055-1.2-.543-2.023 0 0-.3-.568-.585-.959l-1.664 1.251s1.35 1.729.812 2.623c-.001 0-.238.969-1.601.279z"/><defs><path id="E" d="M90.146 189.006c-1.521 1.144-1.512 3.725.021 5.761 1.533 2.037 4.009 2.76 5.53 1.617 1.521-1.145 1.512-3.725-.02-5.763-1.532-2.037-4.01-2.76-5.531-1.615zm4.426 5.876c-.604.455-1.837-.162-2.75-1.375-.913-1.214-1.164-2.568-.56-3.022.604-.455 1.835.162 2.75 1.375.913 1.214 1.164 2.567.56 3.022z"/></defs><clipPath id="F"><use xlink:href="#E" overflow="visible"/></clipPath><path clip-path="url(#F)" fill="#99B6CC" d="M91.419 188.388c-.772.447-.929 1.484-.547 2.679 1.273-.416 2.482 1.035 2.019 2.206.804.271 1.379 1.197 1.162 2.036.725.441 1.498.45 2.391-.356 1.008-.909.813-3.01-.609-4.899-1.421-1.89-3.093-2.433-4.416-1.666z"/><path fill="#3D4A50" d="M89.446 189.798l.778.815s.649-1.146 2.289-.07c0 0-.634-.337-1.127-.134 0 0-.363.159-.432.632 0 0-.818.154-1.747-.722.001 0 .117-.33.239-.521zM89.373 193.358l.943.122s1.056 1.54 1.359 1.599l-.055 1.067s.518.316.627.363c.111.046-.477-1.112.103-2.421l-.213-.201-.253.509s-1.038-.935-.946-1.12l.639-.126s-.231-.308-.189-.32c.043-.012-.99.319-2.248-.213-.001.001.153.547.233.741z"/><path fill="#C7E3F0" d="M87.678 190.144s1.885 1.072 2.817.888c0 0-1.053-.193-2.021-1.487l-.796.599z"/><path fill="#5D7081" d="M87.952 191.933s2.932 1.109 5.124-.432c0 0-.7 1.596-2.862 1.398 0-.001-1.134-.102-2.262-.966z"/><path fill="#3D4A50" d="M91.05 187.606l.347.459-.44.27s.167.233.122.236c-.046.001.613-.227 1.542-.008 0 0 .66.133.715.209.057.075-.104-.451-.185-.608l-1.352-.216s-.211-.515-.322-.663l-.427.321z"/><path fill="#5D7081" d="M94.118 195.604s-1.237-2.155 2.116-3.115c0 0 1.139.385 1.795 1.082 0 0 .463.447.76.829l-1.664 1.25s-1.288-1.775-2.294-1.505c0 0-.998-.042-.713 1.459z"/><path fill="#748A98" d="M92.513 190.543c1.38.757 2.168 2.498 2.168 2.498.44 1.522-.189 1.875-.189 1.875-.083.061-.292.129-.427.116l.005.341c1.808 1.358 2.589-.38 2.589-.38.312-.708.104-1.913.104-1.913-.048-.368-.336-1.153-.336-1.153-1.905-1.584-3.914-1.384-3.914-1.384z"/><path fill="#3D4A50" d="M95.087 196.726l-.513-1.357s1.273-1.397-.164-2.831c0 0 .938 1.699.082 2.378 0 0-.128.088-.427.116 0 0-.156.587.475 1.849 0-.001.278-.05.547-.155z"/><path fill="#C7E3F0" d="M94.14 197.897s-.507-2.107-.072-2.954c0 0-.107 1.065.868 2.354l-.796.6z"/><path fill="#5D7081" d="M92.469 197.15s-.252-3.124 1.837-4.802c0 0-1.728.23-2.137 2.361 0 0-.217 1.119.3 2.441z"/><path fill="#3D4A50" d="M97.557 195.356l-.345-.46-.379.347s-.178-.226-.193-.182c-.014.043.387-.527.435-1.479 0 0 .054-.67-.003-.745-.056-.075.404.226.533.346l-.167 1.358s.437.345.547.494l-.428.321zM92.227 190.996s.804.583.771.645c-.035.061.25-.457.262-.554 0 0-.504-.4-.593-.454 0 0-.408.348-.44.363zM93.283 192.805s.924.279 1.134.646c0 0 .101-.162.288-.216.187-.054-.276-.718-.398-.888 0 0-.724.185-1.042.473"/><path fill="#fff" d="M93.105 189.245s2.621 2.849 2.711 3.388c.098.597.422.406.584.204 0-.001-.768-2.45-3.295-3.592zM93.933 198.052c-.44-.654-.842-1.502-.993-2.542 0 0 .735 1.209 1.426 2.216l-.433.326zM87.917 189.963c.437.632.849 1.176 1.037 1.266.546.26.274.518.036.618 0 0-.794-.528-1.505-1.56l.432-.324z"/><path fill="#5D7081" d="M96.606 196.762c-1.522 1.145-1.515 3.724.019 5.761 1.533 2.039 4.009 2.76 5.531 1.617 1.521-1.145 1.513-3.726-.021-5.764-1.531-2.036-4.008-2.759-5.529-1.614zm4.426 5.875c-.606.455-1.837-.161-2.75-1.375s-1.164-2.568-.559-3.022c.604-.455 1.835.16 2.75 1.375.912 1.215 1.162 2.567.559 3.022z"/><path fill="#748A98" d="M97.123 195.653c.903 1.21 1.148 2.554.546 3.006-.602.452-1.824-.156-2.736-1.359l-1.658 1.247c1.535 2.018 3.995 2.73 5.511 1.59 1.514-1.14 1.512-3.701-.002-5.734l-1.661 1.25zM101.398 205.051c-.903-1.211-1.149-2.554-.547-3.007.602-.452 1.824.157 2.736 1.359l1.658-1.247c-1.534-2.017-3.995-2.729-5.51-1.59-1.515 1.14-1.512 3.702.001 5.735l1.662-1.25z"/><path fill="#5D7081" d="M96.334 198.554s1.726 1.786 3.581-1.169c0 0-.056-1.201-.545-2.025 0 0-.299-.568-.585-.958l-1.662 1.251s1.349 1.729.81 2.623c0-.001-.236.969-1.599.278z"/><defs><path id="G" d="M96.606 196.762c-1.522 1.145-1.515 3.724.019 5.761 1.533 2.039 4.009 2.76 5.531 1.617 1.521-1.145 1.513-3.726-.021-5.764-1.531-2.036-4.008-2.759-5.529-1.614zm4.426 5.875c-.606.455-1.837-.161-2.75-1.375s-1.164-2.568-.559-3.022c.604-.455 1.835.16 2.75 1.375.912 1.215 1.162 2.567.559 3.022z"/></defs><clipPath id="H"><use xlink:href="#G" overflow="visible"/></clipPath><path clip-path="url(#H)" fill="#99B6CC" d="M97.878 196.143c-.771.446-.929 1.484-.547 2.679 1.274-.416 2.483 1.036 2.02 2.206.804.27 1.378 1.197 1.161 2.036.726.442 1.498.45 2.392-.356 1.008-.91.812-3.01-.609-4.899-1.422-1.891-3.094-2.433-4.417-1.666z"/><path fill="#3D4A50" d="M95.906 197.554l.777.815s.649-1.146 2.29-.07c0 0-.633-.338-1.126-.134 0 0-.362.159-.433.632 0 0-.818.153-1.748-.723 0 0 .118-.329.24-.52zM95.832 201.114l.942.121s1.056 1.541 1.36 1.6l-.055 1.067s.517.316.627.363c.109.045-.478-1.112.102-2.421l-.213-.202-.252.51s-1.039-.935-.946-1.12l.638-.126s-.23-.309-.188-.32c.042-.012-.992.318-2.248-.213 0 0 .153.545.233.741z"/><path fill="#C7E3F0" d="M94.137 197.899s1.883 1.071 2.817.887c0 0-1.053-.193-2.021-1.486l-.796.599z"/><path fill="#5D7081" d="M94.412 199.688s2.931 1.111 5.123-.432c0 0-.7 1.597-2.861 1.398 0 0-1.136-.102-2.262-.966z"/><path fill="#3D4A50" d="M97.51 195.362l.346.458-.439.269s.167.233.122.235c-.046.001.613-.226 1.542-.008 0 0 .658.134.714.21.057.075-.105-.451-.185-.608l-1.352-.216s-.212-.515-.322-.663l-.426.323z"/><path fill="#5D7081" d="M100.577 203.359s-1.238-2.155 2.117-3.116c0 0 1.138.386 1.794 1.083 0 0 .463.447.76.829l-1.664 1.25s-1.286-1.776-2.293-1.506c-.001.001-.999-.041-.714 1.46z"/><path fill="#748A98" d="M98.972 198.298c1.379.757 2.169 2.498 2.169 2.498.441 1.523-.19 1.875-.19 1.875-.082.062-.292.129-.427.116l.003.342c1.809 1.358 2.591-.38 2.591-.38.312-.708.104-1.913.104-1.913-.048-.369-.337-1.153-.337-1.153-1.905-1.584-3.913-1.385-3.913-1.385z"/><path fill="#3D4A50" d="M101.546 204.48l-.513-1.357s1.272-1.396-.162-2.831c0 0 .937 1.699.08 2.378 0 0-.129.089-.427.116 0 0-.157.588.474 1.849.001 0 .279-.049.548-.155z"/><path fill="#C7E3F0" d="M100.599 205.652s-.507-2.108-.072-2.953c0 0-.107 1.064.869 2.354l-.797.599z"/><path fill="#5D7081" d="M98.929 204.906s-.252-3.124 1.837-4.803c0 0-1.729.23-2.136 2.361-.001 0-.218 1.119.299 2.442z"/><path fill="#3D4A50" d="M104.016 203.112l-.344-.46-.38.347s-.178-.225-.191-.182c-.015.043.386-.526.434-1.479 0 0 .055-.67-.002-.746-.057-.074.403.227.532.347l-.167 1.357s.437.346.548.494l-.43.322zM98.685 198.75s.805.584.771.644c-.035.062.251-.457.263-.553 0 0-.503-.401-.594-.454 0 0-.407.349-.44.363zM99.742 200.562s.924.277 1.134.647c0 0 .102-.164.289-.217.185-.055-.277-.718-.399-.888 0 0-.724.186-1.042.473"/><path fill="#fff" d="M99.565 197s2.62 2.849 2.71 3.387c.1.598.423.407.584.207 0-.001-.767-2.451-3.294-3.594zM100.393 205.808c-.439-.655-.842-1.503-.993-2.544 0 0 .735 1.209 1.426 2.218l-.433.326zM94.377 197.718c.436.634.848 1.176 1.037 1.267.546.26.274.519.035.618 0 0-.793-.528-1.504-1.56l.432-.325z"/><path fill="#5D7081" d="M103.052 204.5c-1.522 1.145-1.514 3.725.019 5.76 1.532 2.039 4.009 2.762 5.53 1.617 1.522-1.146 1.514-3.725-.02-5.762-1.532-2.036-4.008-2.76-5.529-1.615zm4.426 5.876c-.605.455-1.837-.161-2.75-1.375-.914-1.215-1.164-2.569-.56-3.023.604-.454 1.834.16 2.749 1.376.914 1.213 1.164 2.568.561 3.022z"/><path fill="#748A98" d="M103.568 203.391c.905 1.209 1.148 2.554.548 3.005-.602.453-1.824-.155-2.736-1.359l-1.657 1.247c1.533 2.018 3.994 2.73 5.51 1.59 1.515-1.14 1.511-3.702-.001-5.735l-1.664 1.252zM107.845 212.788c-.904-1.21-1.149-2.553-.547-3.005.602-.453 1.824.155 2.736 1.358l1.658-1.246c-1.535-2.018-3.996-2.73-5.511-1.59-1.515 1.139-1.512 3.702.001 5.734l1.663-1.251z"/><path fill="#5D7081" d="M102.781 206.293s1.727 1.786 3.58-1.17c0 0-.054-1.201-.543-2.024 0 0-.3-.569-.586-.959l-1.663 1.251s1.35 1.729.812 2.623c-.001 0-.238.968-1.6.279z"/><defs><path id="I" d="M103.052 204.5c-1.522 1.145-1.514 3.725.019 5.76 1.532 2.039 4.009 2.762 5.53 1.617 1.522-1.146 1.514-3.725-.02-5.762-1.532-2.036-4.008-2.76-5.529-1.615zm4.426 5.876c-.605.455-1.837-.161-2.75-1.375-.914-1.215-1.164-2.569-.56-3.023.604-.454 1.834.16 2.749 1.376.914 1.213 1.164 2.568.561 3.022z"/></defs><clipPath id="J"><use xlink:href="#I" overflow="visible"/></clipPath><path clip-path="url(#J)" fill="#99B6CC" d="M104.323 203.881c-.77.447-.928 1.484-.546 2.679 1.274-.416 2.483 1.037 2.02 2.206.804.27 1.378 1.197 1.163 2.035.724.442 1.498.451 2.39-.355 1.008-.91.813-3.01-.61-4.899-1.421-1.889-3.093-2.433-4.417-1.666z"/><path fill="#3D4A50" d="M102.352 205.292l.778.815s.648-1.146 2.289-.07c0 0-.632-.338-1.125-.134 0 0-.363.159-.432.633 0 0-.818.152-1.748-.723-.001 0 .116-.331.238-.521zM102.278 208.852l.943.121s1.056 1.54 1.359 1.6l-.055 1.067s.517.317.627.364c.11.045-.476-1.112.102-2.422l-.213-.201-.253.51s-1.039-.935-.945-1.12l.638-.126s-.23-.309-.188-.32c.042-.012-.991.318-2.247-.213 0-.001.152.545.232.74z"/><path fill="#C7E3F0" d="M100.583 205.638s1.885 1.07 2.818.887c0 0-1.053-.194-2.021-1.487l-.797.6z"/><path fill="#5D7081" d="M100.858 207.427s2.931 1.108 5.123-.434c0 0-.699 1.597-2.861 1.398 0 .001-1.135-.099-2.262-.964z"/><path fill="#3D4A50" d="M103.955 203.1l.347.458-.438.269s.167.234.122.236c-.046.001.613-.227 1.542-.008 0 0 .658.133.715.209.056.076-.104-.45-.187-.606l-1.351-.217s-.211-.515-.321-.662l-.429.321z"/><path fill="#5D7081" d="M107.023 211.097s-1.238-2.155 2.116-3.116c0 0 1.139.387 1.794 1.084 0 0 .463.446.759.829l-1.663 1.25s-1.287-1.776-2.294-1.506c.001 0-.996-.041-.712 1.459z"/><path fill="#748A98" d="M105.418 206.037c1.379.756 2.168 2.498 2.168 2.498.443 1.523-.188 1.875-.188 1.875-.083.062-.291.129-.428.115l.005.342c1.807 1.358 2.59-.38 2.59-.38.313-.708.104-1.913.104-1.913-.049-.37-.338-1.153-.338-1.153-1.904-1.584-3.913-1.384-3.913-1.384z"/><path fill="#3D4A50" d="M107.992 212.218l-.513-1.356s1.274-1.397-.163-2.83c0 0 .939 1.698.082 2.377 0 0-.13.087-.428.115 0 0-.155.587.475 1.849-.001.001.278-.049.547-.155z"/><path fill="#C7E3F0" d="M107.045 213.39s-.507-2.106-.072-2.953c0 0-.107 1.064.869 2.353l-.797.6z"/><path fill="#5D7081" d="M105.375 212.644s-.253-3.124 1.836-4.802c0 0-1.728.229-2.137 2.362 0-.001-.216 1.118.301 2.44z"/><path fill="#3D4A50" d="M110.463 210.85l-.346-.46-.38.348s-.177-.227-.193-.184c-.015.044.388-.525.435-1.478 0 0 .056-.67-.002-.745-.058-.075.404.226.532.346l-.167 1.359s.436.344.547.493l-.426.321zM105.132 206.489s.805.583.77.645c-.034.06.252-.458.263-.554 0 0-.504-.4-.594-.454 0 0-.407.348-.439.363zM106.188 208.299s.924.278 1.135.646c0 0 .101-.162.287-.217.187-.053-.277-.718-.399-.888 0 0-.724.185-1.043.473"/><path fill="#fff" d="M106.012 204.738s2.62 2.848 2.709 3.387c.1.597.424.407.585.205 0 0-.768-2.45-3.294-3.592zM106.838 213.546c-.439-.654-.841-1.502-.992-2.544 0 0 .735 1.21 1.426 2.217l-.434.327zM100.823 205.456c.436.633.848 1.176 1.037 1.266.547.263.274.519.036.619 0 0-.794-.527-1.504-1.558l.431-.327z"/><path fill="#5D7081" d="M109.576 212.236c-1.521 1.144-1.512 3.724.021 5.761s4.009 2.76 5.53 1.617c1.521-1.145 1.512-3.725-.02-5.762-1.532-2.038-4.009-2.761-5.531-1.616zm4.426 5.876c-.604.456-1.837-.161-2.75-1.375s-1.164-2.567-.56-3.022c.604-.455 1.835.161 2.75 1.375.913 1.214 1.164 2.567.56 3.022z"/><path fill="#748A98" d="M110.093 211.127c.904 1.21 1.149 2.553.546 3.006-.6.452-1.822-.155-2.735-1.359l-1.657 1.247c1.534 2.017 3.995 2.73 5.51 1.59 1.515-1.14 1.513-3.702 0-5.735l-1.664 1.251zM114.369 220.525c-.903-1.211-1.148-2.554-.547-3.007.601-.453 1.823.156 2.736 1.359l1.657-1.246c-1.534-2.018-3.994-2.731-5.51-1.591-1.515 1.141-1.511 3.702.001 5.735l1.663-1.25z"/><path fill="#5D7081" d="M109.305 214.03s1.727 1.785 3.581-1.171c0 0-.055-1.2-.543-2.023 0 0-.3-.569-.585-.959l-1.664 1.251s1.35 1.729.812 2.623c-.002-.001-.238.969-1.601.279z"/><defs><path id="K" d="M109.576 212.236c-1.521 1.144-1.512 3.724.021 5.761s4.009 2.76 5.53 1.617c1.521-1.145 1.512-3.725-.02-5.762-1.532-2.038-4.009-2.761-5.531-1.616zm4.426 5.876c-.604.456-1.837-.161-2.75-1.375s-1.164-2.567-.56-3.022c.604-.455 1.835.161 2.75 1.375.913 1.214 1.164 2.567.56 3.022z"/></defs><clipPath id="L"><use xlink:href="#K" overflow="visible"/></clipPath><path clip-path="url(#L)" fill="#99B6CC" d="M110.849 211.617c-.772.447-.929 1.485-.547 2.68 1.273-.416 2.482 1.035 2.019 2.206.804.27 1.379 1.197 1.162 2.036.725.44 1.498.449 2.391-.356 1.008-.91.813-3.01-.609-4.899-1.421-1.89-3.093-2.433-4.416-1.667z"/><path fill="#3D4A50" d="M108.876 213.028l.778.815s.649-1.146 2.289-.071c0 0-.634-.337-1.127-.133 0 0-.363.158-.432.632 0 0-.818.154-1.747-.722.001 0 .117-.33.239-.521zM108.803 216.587l.943.122s1.056 1.54 1.359 1.6l-.055 1.067s.518.316.627.363c.111.047-.477-1.111.103-2.421l-.213-.201-.252.509s-1.038-.934-.946-1.12l.638-.126s-.23-.308-.189-.32c.043-.012-.99.319-2.248-.213-.001 0 .153.546.233.74z"/><path fill="#C7E3F0" d="M107.108 213.373s1.885 1.072 2.817.888c0 0-1.053-.193-2.021-1.487l-.796.599z"/><path fill="#5D7081" d="M107.382 215.163s2.932 1.109 5.124-.432c0 0-.7 1.596-2.862 1.397 0 0-1.134-.101-2.262-.965z"/><path fill="#3D4A50" d="M110.48 210.836l.347.459-.44.27s.167.233.122.235c-.046.001.613-.226 1.542-.008 0 0 .66.132.715.209.057.075-.104-.451-.185-.607l-1.352-.216s-.211-.516-.322-.663l-.427.321z"/><path fill="#5D7081" d="M113.548 218.834s-1.237-2.155 2.116-3.116c0 0 1.139.386 1.795 1.082 0 0 .463.447.76.829l-1.664 1.251s-1.288-1.775-2.294-1.506c0 .001-.997-.041-.713 1.46z"/><path fill="#748A98" d="M111.943 213.773c1.38.757 2.168 2.498 2.168 2.498.44 1.522-.19 1.875-.19 1.875-.083.061-.292.129-.427.116l.005.341c1.808 1.358 2.589-.38 2.589-.38.312-.709.104-1.913.104-1.913-.048-.368-.336-1.153-.336-1.153-1.904-1.584-3.913-1.384-3.913-1.384z"/><path fill="#3D4A50" d="M114.518 219.956l-.513-1.358s1.273-1.396-.164-2.831c0 0 .938 1.699.081 2.379 0 0-.128.088-.427.116 0 0-.156.586.475 1.848 0 0 .278-.05.548-.154z"/><path fill="#C7E3F0" d="M113.57 221.126s-.507-2.107-.072-2.953c0 0-.107 1.065.868 2.354l-.796.599z"/><path fill="#5D7081" d="M111.899 220.379s-.252-3.123 1.837-4.802c0 0-1.728.23-2.137 2.362.001 0-.217 1.119.3 2.44z"/><path fill="#3D4A50" d="M116.987 218.586l-.345-.46-.379.347s-.178-.226-.193-.182c-.014.044.387-.526.435-1.479 0 0 .054-.669-.003-.745-.056-.075.404.225.533.346l-.167 1.358s.437.345.547.493l-.428.322zM111.657 214.226s.804.583.771.645c-.035.06.25-.457.262-.554 0 0-.504-.399-.593-.454l-.44.363zM112.712 216.035s.924.279 1.135.647c0 0 .101-.162.288-.216s-.277-.718-.398-.888c0 0-.724.186-1.042.473"/><path fill="#fff" d="M112.536 212.474s2.621 2.849 2.711 3.388c.098.597.422.406.584.205 0-.001-.768-2.451-3.295-3.593zM113.363 221.281c-.44-.654-.842-1.502-.993-2.542 0 0 .735 1.209 1.426 2.216l-.433.326zM107.348 213.193c.437.632.849 1.175 1.037 1.266.546.261.274.518.036.619 0 0-.794-.529-1.505-1.56l.432-.325z"/><path fill="#5D7081" d="M138.686 175.254c-1.603-.468-3.41.892-4.037 3.037-.627 2.146.165 4.265 1.767 4.733 1.603.468 3.41-.893 4.038-3.038.625-2.146-.166-4.265-1.768-4.732zm-1.805 6.192c-.637-.187-.851-1.375-.478-2.653.373-1.28 1.192-2.166 1.831-1.98.636.186.849 1.374.476 2.653-.374 1.28-1.193 2.166-1.829 1.98z"/><path fill="#748A98" d="M139.735 175.035c-.376 1.27-1.19 2.147-1.824 1.962-.633-.186-.848-1.363-.481-2.635l-1.746-.51c-.61 2.137.18 4.24 1.775 4.706 1.596.465 3.394-.882 4.028-3.011l-1.752-.512zM135.379 182.971c.375-1.271 1.191-2.148 1.824-1.963.633.186.848 1.363.482 2.636l1.746.51c.611-2.136-.18-4.238-1.775-4.706-1.596-.466-3.393.881-4.027 3.011l1.75.512z"/><path fill="#5D7081" d="M137.284 176.005s-.348 2.149 2.701 1.901c0 0 .814-.67 1.137-1.446 0 0 .241-.509.366-.915l-1.752-.511s-.507 1.855-1.417 1.947c0 .001-.806.344-1.035-.976z"/><defs><path id="M" d="M138.686 175.254c-1.603-.468-3.41.892-4.037 3.037-.627 2.146.165 4.265 1.767 4.733 1.603.468 3.41-.893 4.038-3.038.625-2.146-.166-4.265-1.768-4.732zm-1.805 6.192c-.637-.187-.851-1.375-.478-2.653.373-1.28 1.192-2.166 1.831-1.98.636.186.849 1.374.476 2.653-.374 1.28-1.193 2.166-1.829 1.98z"/></defs><clipPath id="N"><use xlink:href="#M" overflow="visible"/></clipPath><path clip-path="url(#N)" fill="#99B6CC" d="M139.787 175.824c-.718-.308-1.529.126-2.168 1.021.96.677.576 2.288-.49 2.576.233.707-.117 1.597-.819 1.884.071.741.469 1.288 1.504 1.493 1.168.231 2.541-1.009 3.121-3 .582-1.989.085-3.448-1.148-3.974z"/><path fill="#3D4A50" d="M137.762 175.179l-.165.974s1.146-.146 1.25 1.57c0 0-.095-.623-.497-.861 0 0-.302-.172-.671.028 0 0-.536-.494-.409-1.606.001-.001.294-.092.492-.105zM135.224 176.993l.409.728s-.527 1.549-.412 1.793l-.778.522s.049.53.074.631c.026.101.531-.919 1.754-1.199l.029-.256-.49.092s.111-1.221.29-1.253l.424.381s.095-.323.126-.299c.031.023-.743-.53-1.03-1.691.001 0-.302.394-.396.551z"/><path fill="#C7E3F0" d="M136.591 174.118s.236 1.885.855 2.443c0 0-.417-.841-.016-2.199l-.839-.244z"/><path fill="#5D7081" d="M135.479 175.249s.76 2.641 2.992 3.371c0 0-1.488.346-2.483-1.276-.001 0-.525-.851-.509-2.095z"/><path fill="#3D4A50" d="M140.144 175.155l-.142.483-.419-.167s-.075.241-.101.209c-.025-.031.481.312.814 1.078 0 0 .251.534.228.613-.024.079.262-.311.33-.449l-.558-1.063s.251-.417.297-.574l-.449-.13z"/><path fill="#5D7081" d="M136.136 181.506s.864-2 3.299-.149c0 0 .326 1.001.182 1.828 0 0-.072.559-.185.969l-1.752-.512s.571-1.836-.146-2.403c0 .001-.494-.72-1.398.267z"/><path fill="#748A98" d="M138.848 177.723c.193 1.367-.617 2.833-.617 2.833-.838 1.11-1.415.851-1.415.851-.087-.026-.244-.137-.306-.239l-.238.182c-.005 1.982 1.626 1.62 1.626 1.62.661-.153 1.398-.931 1.398-.931.233-.228.633-.842.633-.842.112-2.169-1.081-3.474-1.081-3.474z"/><path fill="#3D4A50" d="M135.856 182.776l.686-1.073s1.648.161 1.901-1.6c0 0-.702 1.551-1.626 1.305 0 0-.131-.044-.306-.239 0 0-.495.199-1.05 1.303-.001 0 .181.17.395.304z"/><path fill="#C7E3F0" d="M134.536 182.724s1.215-1.461 2.037-1.6c0 0-.804.485-1.197 1.846l-.84-.246z"/><path fill="#5D7081" d="M134.186 181.159s2.061-1.816 4.336-1.23c0 0-1.069-1.093-2.779-.261 0 0-.901.435-1.557 1.491z"/><path fill="#3D4A50" d="M138.114 183.792l.143-.484-.444-.085s.066-.243.028-.231c-.039.014.573-.005 1.267-.47 0 0 .499-.314.522-.394.022-.079.053.402.036.555l-1.042.596s-.013.488-.058.644l-.452-.131zM138.379 177.759s.014.872-.048.88c-.061.007.454-.063.528-.106 0 0 .017-.564.006-.655l-.486-.119zM137.662 179.451s.291.794.141 1.135c0 0 .168-.014.302.089.137.102.36-.571.416-.747 0 0-.51-.411-.878-.483"/><path fill="#fff" d="M140.072 177.458s-.627 3.334-.958 3.681c-.367.383-.064.51.163.518 0-.001 1.319-1.824.795-4.199zM134.319 182.662c.229-.653.614-1.38 1.265-2.033 0 0-.462 1.151-.809 2.166l-.456-.133zM136.843 174.19c-.215.64-.38 1.212-.344 1.393.104.521-.221.465-.416.349 0 0-.046-.834.305-1.875l.455.133z"/><path fill="#5D7081" d="M136.657 183.892c-1.603-.468-3.41.891-4.036 3.036-.627 2.146.165 4.265 1.768 4.733 1.603.468 3.41-.891 4.037-3.037.625-2.146-.167-4.265-1.769-4.732zm-1.804 6.191c-.637-.186-.85-1.373-.477-2.652.374-1.28 1.191-2.165 1.83-1.98.637.186.849 1.374.476 2.653-.375 1.279-1.193 2.164-1.829 1.979z"/><path fill="#748A98" d="M137.708 183.672c-.377 1.27-1.191 2.147-1.825 1.962-.633-.185-.847-1.362-.48-2.634l-1.747-.51c-.611 2.136.18 4.239 1.775 4.704 1.596.467 3.394-.88 4.027-3.01l-1.75-.512zM133.35 191.608c.376-1.27 1.19-2.147 1.825-1.962.634.185.847 1.363.481 2.636l1.745.508c.611-2.134-.18-4.237-1.775-4.703-1.595-.467-3.394.879-4.027 3.009l1.751.512z"/><path fill="#5D7081" d="M135.255 184.641s-.348 2.151 2.7 1.902c0 0 .815-.669 1.138-1.444 0 0 .241-.51.365-.915l-1.75-.511s-.507 1.855-1.417 1.946c-.001-.001-.805.341-1.036-.978z"/><defs><path id="O" d="M136.657 183.892c-1.603-.468-3.41.891-4.036 3.036-.627 2.146.165 4.265 1.768 4.733 1.603.468 3.41-.891 4.037-3.037.625-2.146-.167-4.265-1.769-4.732zm-1.804 6.191c-.637-.186-.85-1.373-.477-2.652.374-1.28 1.191-2.165 1.83-1.98.637.186.849 1.374.476 2.653-.375 1.279-1.193 2.164-1.829 1.979z"/></defs><clipPath id="P"><use xlink:href="#O" overflow="visible"/></clipPath><path clip-path="url(#P)" fill="#99B6CC" d="M137.759 184.46c-.718-.307-1.53.127-2.168 1.022.96.676.576 2.287-.49 2.576.233.707-.118 1.596-.821 1.884.072.741.471 1.29 1.506 1.493 1.168.23 2.54-1.009 3.121-2.999.58-1.989.084-3.449-1.148-3.976z"/><path fill="#3D4A50" d="M135.733 183.815l-.165.973s1.145-.145 1.251 1.573c0 0-.096-.623-.498-.862 0 0-.302-.172-.67.029 0 0-.537-.494-.411-1.606.001-.001.295-.093.493-.107zM133.194 185.633l.411.725s-.528 1.549-.411 1.793l-.778.521s.049.529.075.631c.025.102.53-.918 1.753-1.198l.031-.255-.491.089s.11-1.219.289-1.252l.424.383s.095-.325.125-.3c.031.022-.743-.529-1.029-1.691 0 .001-.304.394-.399.554z"/><path fill="#C7E3F0" d="M134.562 182.754s.237 1.885.855 2.445c0 0-.417-.841-.015-2.199l-.84-.246z"/><path fill="#5D7081" d="M133.45 183.885s.759 2.642 2.992 3.372c0 0-1.488.347-2.483-1.275 0 0-.524-.852-.509-2.097z"/><path fill="#3D4A50" d="M138.114 183.792l-.14.484-.419-.167s-.077.239-.102.208c-.026-.031.481.313.814 1.079 0 0 .252.533.229.613-.023.079.261-.311.33-.449l-.558-1.063s.251-.418.298-.573l-.452-.132z"/><path fill="#5D7081" d="M134.106 190.142s.864-1.999 3.299-.148c0 0 .328 1.002.181 1.829 0 0-.07.559-.183.968l-1.752-.511s.572-1.836-.146-2.403c.001 0-.493-.722-1.399.265z"/><path fill="#748A98" d="M136.82 186.361c.192 1.365-.617 2.833-.617 2.833-.838 1.109-1.417.851-1.417.851-.087-.025-.244-.137-.306-.24l-.237.184c-.005 1.981 1.627 1.618 1.627 1.618.66-.151 1.398-.929 1.398-.929.233-.229.633-.843.633-.843.114-2.169-1.081-3.474-1.081-3.474z"/><path fill="#3D4A50" d="M133.829 191.413l.684-1.073s1.649.162 1.902-1.6c0 0-.701 1.551-1.627 1.305 0 0-.129-.045-.306-.24 0 0-.494.198-1.049 1.304-.001 0 .18.169.396.304z"/><path fill="#C7E3F0" d="M132.507 191.362s1.214-1.463 2.037-1.6c0 0-.805.484-1.198 1.845l-.839-.245z"/><path fill="#5D7081" d="M132.157 189.796s2.062-1.817 4.336-1.23c0 0-1.068-1.093-2.779-.261 0 0-.901.435-1.557 1.491z"/><path fill="#3D4A50" d="M136.086 192.429l.142-.484-.443-.084s.065-.245.027-.231c-.039.012.573-.004 1.267-.471 0 0 .499-.314.522-.394.023-.08.054.402.036.557l-1.043.595s-.012.488-.058.644l-.45-.132zM136.351 186.396s.013.872-.048.879c-.061.007.453-.064.528-.106 0 0 .015-.563.005-.655l-.485-.118zM135.634 188.088s.29.795.141 1.137c0 0 .168-.014.304.087.135.104.358-.572.415-.747 0 0-.51-.41-.878-.484"/><path fill="#fff" d="M138.044 186.094s-.627 3.335-.958 3.681c-.368.383-.063.512.162.519 0 0 1.319-1.826.796-4.2zM132.291 191.298c.227-.653.613-1.38 1.264-2.032 0 0-.463 1.151-.808 2.165l-.456-.133zM134.816 182.829c-.217.639-.382 1.212-.346 1.392.103.521-.222.464-.416.35 0 0-.046-.834.304-1.875l.458.133z"/><path fill="#5D7081" d="M134.6 192.498c-1.603-.468-3.41.892-4.035 3.036-.628 2.147.164 4.267 1.766 4.734 1.604.468 3.411-.892 4.037-3.038s-.166-4.265-1.768-4.732zm-1.805 6.192c-.636-.186-.85-1.375-.478-2.653.375-1.28 1.195-2.166 1.831-1.979.636.186.85 1.373.476 2.652-.374 1.279-1.193 2.165-1.829 1.98z"/><path fill="#748A98" d="M135.649 192.279c-.375 1.27-1.19 2.147-1.823 1.962-.635-.185-.848-1.362-.482-2.635l-1.745-.51c-.613 2.136.178 4.238 1.775 4.705 1.596.466 3.393-.881 4.027-3.012l-1.752-.51zM131.293 200.214c.376-1.271 1.19-2.147 1.825-1.962.633.186.848 1.363.481 2.635l1.746.511c.611-2.137-.18-4.239-1.776-4.705-1.596-.467-3.393.879-4.027 3.01l1.751.511z"/><path fill="#5D7081" d="M133.198 193.248s-.348 2.15 2.701 1.901c0 0 .815-.668 1.137-1.444 0 0 .241-.509.366-.916l-1.752-.511s-.505 1.855-1.417 1.946c0 .001-.804.344-1.035-.976z"/><defs><path id="Q" d="M134.6 192.498c-1.603-.468-3.41.892-4.035 3.036-.628 2.147.164 4.267 1.766 4.734 1.604.468 3.411-.892 4.037-3.038s-.166-4.265-1.768-4.732zm-1.805 6.192c-.636-.186-.85-1.375-.478-2.653.375-1.28 1.195-2.166 1.831-1.979.636.186.85 1.373.476 2.652-.374 1.279-1.193 2.165-1.829 1.98z"/></defs><clipPath id="R"><use xlink:href="#Q" overflow="visible"/></clipPath><path clip-path="url(#R)" fill="#99B6CC" d="M135.701 193.066c-.717-.306-1.53.127-2.168 1.023.96.677.575 2.288-.49 2.576.233.706-.117 1.596-.819 1.884.07.741.469 1.288 1.504 1.493 1.167.23 2.541-1.009 3.121-3 .582-1.989.086-3.449-1.148-3.976z"/><path fill="#3D4A50" d="M133.677 192.421l-.165.975s1.145-.146 1.25 1.571c0 0-.094-.622-.496-.861 0 0-.304-.172-.672.029 0 0-.536-.495-.409-1.606 0-.001.294-.092.492-.108zM131.138 194.238l.41.725s-.528 1.551-.411 1.794l-.778.521s.048.531.074.633c.025.101.531-.919 1.754-1.2l.029-.255-.491.09s.111-1.219.291-1.251l.423.381s.096-.323.126-.3c.031.022-.744-.53-1.029-1.69 0 0-.305.394-.398.552z"/><path fill="#C7E3F0" d="M132.505 191.361s.236 1.885.854 2.445c0 0-.416-.842-.016-2.2l-.838-.245z"/><path fill="#5D7081" d="M131.392 192.494s.76 2.64 2.993 3.37c0 0-1.488.347-2.482-1.276-.001 0-.526-.849-.511-2.094z"/><path fill="#3D4A50" d="M136.057 192.398l-.14.483-.419-.167s-.077.24-.103.209c-.024-.033.481.311.815 1.079 0 0 .252.532.229.611-.024.08.261-.309.329-.45l-.557-1.062s.25-.418.296-.573l-.45-.13z"/><path fill="#5D7081" d="M132.05 198.75s.863-2 3.3-.149c0 0 .326 1.002.18 1.829 0 0-.07.558-.183.967l-1.751-.512s.572-1.835-.146-2.402c0 0-.495-.721-1.4.267z"/><path fill="#748A98" d="M134.762 194.966c.193 1.366-.616 2.833-.616 2.833-.838 1.111-1.416.852-1.416.852-.086-.025-.244-.136-.306-.239l-.237.184c-.005 1.981 1.625 1.619 1.625 1.619.662-.152 1.398-.931 1.398-.931.234-.228.633-.843.633-.843.114-2.168-1.081-3.475-1.081-3.475z"/><path fill="#3D4A50" d="M131.771 200.018l.684-1.072s1.65.162 1.902-1.6c0 0-.7 1.551-1.627 1.305 0 0-.13-.045-.306-.239 0 0-.494.198-1.049 1.304 0 0 .182.169.396.302z"/><path fill="#C7E3F0" d="M130.451 199.967s1.213-1.461 2.037-1.6c0 0-.804.484-1.196 1.845l-.841-.245z"/><path fill="#5D7081" d="M130.099 198.403s2.061-1.817 4.336-1.231c0 0-1.068-1.092-2.78-.261 0 0-.899.435-1.556 1.492z"/><path fill="#3D4A50" d="M134.03 201.035l.142-.485-.444-.083s.065-.243.027-.231c-.039.014.573-.003 1.266-.471 0 0 .5-.313.522-.392.022-.08.054.401.036.554l-1.041.596s-.014.487-.06.644l-.448-.132zM134.294 195.003s.013.872-.049.879c-.06.008.455-.064.527-.106 0 0 .016-.564.007-.656l-.485-.117zM133.577 196.694s.29.795.142 1.137c0 0 .166-.014.302.088.136.103.359-.572.415-.748 0 0-.51-.41-.879-.484"/><path fill="#fff" d="M135.985 194.702s-.626 3.335-.958 3.681c-.367.382-.063.511.164.517 0-.001 1.318-1.825.794-4.198zM130.233 199.904c.229-.651.614-1.378 1.267-2.031 0 0-.464 1.151-.81 2.165l-.457-.134zM132.759 191.434c-.217.64-.382 1.213-.346 1.394.103.521-.22.464-.416.349 0 0-.045-.834.305-1.874l.457.131z"/><path fill="#5D7081" d="M132.589 201.139c-1.602-.467-3.409.892-4.035 3.039-.626 2.146.166 4.264 1.767 4.732 1.602.468 3.409-.892 4.037-3.037.627-2.146-.165-4.265-1.769-4.734zm-1.802 6.193c-.637-.185-.851-1.374-.477-2.653s1.192-2.166 1.828-1.979c.638.186.851 1.374.477 2.653-.374 1.278-1.193 2.165-1.828 1.979z"/><path fill="#748A98" d="M133.64 200.922c-.375 1.27-1.189 2.146-1.824 1.96-.632-.184-.847-1.361-.481-2.634l-1.746-.51c-.611 2.136.18 4.238 1.776 4.705 1.597.466 3.394-.88 4.027-3.011l-1.752-.51zM129.284 208.856c.375-1.27 1.19-2.146 1.824-1.961.632.185.847 1.362.481 2.634l1.745.51c.612-2.136-.179-4.238-1.774-4.706-1.596-.465-3.393.882-4.027 3.011l1.751.512z"/><path fill="#5D7081" d="M131.188 201.892s-.348 2.149 2.702 1.899c0 0 .814-.668 1.136-1.444 0 0 .242-.509.366-.915l-1.752-.511s-.505 1.854-1.416 1.946c0 .001-.806.344-1.036-.975z"/><defs><path id="S" d="M132.589 201.139c-1.602-.467-3.409.892-4.035 3.039-.626 2.146.166 4.264 1.767 4.732 1.602.468 3.409-.892 4.037-3.037.627-2.146-.165-4.265-1.769-4.734zm-1.802 6.193c-.637-.185-.851-1.374-.477-2.653s1.192-2.166 1.828-1.979c.638.186.851 1.374.477 2.653-.374 1.278-1.193 2.165-1.828 1.979z"/></defs><clipPath id="T"><use xlink:href="#S" overflow="visible"/></clipPath><path clip-path="url(#T)" fill="#99B6CC" d="M133.692 201.709c-.719-.308-1.53.127-2.168 1.022.96.676.575 2.287-.489 2.576.232.707-.117 1.597-.82 1.885.071.74.47 1.288 1.505 1.492 1.168.231 2.541-1.008 3.122-2.999.58-1.99.083-3.449-1.15-3.976z"/><path fill="#3D4A50" d="M131.667 201.065l-.165.974s1.145-.146 1.25 1.571c0 0-.096-.622-.497-.861 0 0-.302-.171-.671.028 0 0-.537-.494-.41-1.606.001-.001.295-.092.493-.106zM129.127 202.881l.41.727s-.528 1.55-.411 1.793l-.777.521s.049.53.074.631c.025.103.53-.918 1.754-1.198l.029-.255-.49.09s.111-1.22.29-1.252l.424.382s.095-.323.125-.3c.032.023-.743-.529-1.03-1.69 0-.001-.303.392-.398.551z"/><path fill="#C7E3F0" d="M130.497 200.004s.235 1.885.854 2.443c0 0-.417-.841-.017-2.199l-.837-.244z"/><path fill="#5D7081" d="M129.383 201.135s.759 2.642 2.992 3.372c0 0-1.488.346-2.483-1.276 0-.001-.524-.851-.509-2.096z"/><path fill="#3D4A50" d="M134.048 201.04l-.141.485-.419-.167s-.077.24-.102.209c-.025-.031.48.312.814 1.08 0 0 .253.532.229.611-.024.079.261-.31.329-.449l-.558-1.063s.252-.418.297-.574l-.449-.132z"/><path fill="#5D7081" d="M130.041 207.392s.864-2 3.298-.149c0 0 .328 1.003.183 1.83 0 0-.072.559-.184.968l-1.752-.512s.571-1.836-.146-2.402c-.001 0-.495-.722-1.399.265z"/><path fill="#748A98" d="M132.753 203.609c.192 1.367-.617 2.833-.617 2.833-.838 1.108-1.416.852-1.416.852-.086-.026-.244-.137-.305-.24l-.238.184c-.004 1.981 1.626 1.619 1.626 1.619.661-.154 1.399-.932 1.399-.932.232-.227.633-.842.633-.842.112-2.167-1.082-3.474-1.082-3.474z"/><path fill="#3D4A50" d="M129.762 208.662l.684-1.073s1.649.161 1.902-1.6c0 0-.701 1.549-1.627 1.305 0 0-.129-.045-.305-.24 0 0-.495.198-1.049 1.304-.001 0 .179.169.395.304z"/><path fill="#C7E3F0" d="M128.442 208.611s1.214-1.462 2.036-1.601c0 0-.805.485-1.198 1.845l-.838-.244z"/><path fill="#5D7081" d="M128.09 207.046s2.061-1.817 4.337-1.231c0 0-1.068-1.092-2.78-.26-.001 0-.9.434-1.557 1.491z"/><path fill="#3D4A50" d="M132.019 209.677l.144-.484-.444-.084s.066-.243.027-.231c-.039.014.573-.003 1.267-.469 0 0 .499-.314.521-.395.023-.077.054.403.036.557l-1.041.595s-.014.487-.06.642l-.45-.131zM132.285 203.646s.012.872-.049.879c-.061.007.453-.064.526-.107 0 0 .017-.564.008-.654l-.485-.118zM131.567 205.337s.29.795.141 1.136c0 0 .167-.014.303.088.135.103.359-.571.416-.746 0 0-.511-.411-.879-.483"/><path fill="#fff" d="M133.976 203.344s-.626 3.335-.957 3.682c-.367.382-.063.51.163.517 0 0 1.318-1.825.794-4.199zM128.225 208.547c.228-.652.613-1.38 1.264-2.032 0 0-.464 1.151-.808 2.165l-.456-.133zM130.748 200.077c-.214.64-.38 1.213-.345 1.393.104.521-.22.464-.416.35 0 0-.045-.835.306-1.876l.455.133z"/><path fill="#5D7081" d="M130.534 209.747c-1.603-.468-3.411.891-4.038 3.037-.626 2.147.166 4.265 1.767 4.733 1.604.468 3.412-.892 4.038-3.039.627-2.144-.166-4.263-1.767-4.731zm-1.805 6.192c-.638-.188-.852-1.374-.478-2.654.373-1.28 1.193-2.166 1.829-1.979.636.185.85 1.374.477 2.653-.373 1.28-1.192 2.166-1.828 1.98z"/><path fill="#748A98" d="M131.584 209.528c-.377 1.27-1.192 2.147-1.825 1.962-.632-.186-.848-1.364-.481-2.636l-1.745-.51c-.612 2.137.179 4.239 1.775 4.706 1.596.466 3.394-.88 4.026-3.011l-1.75-.511zM127.226 217.463c.376-1.269 1.19-2.147 1.826-1.962.633.186.846 1.363.481 2.635l1.745.51c.612-2.136-.179-4.239-1.775-4.704-1.595-.467-3.393.881-4.027 3.011l1.75.51z"/><path fill="#5D7081" d="M129.131 210.498s-.348 2.15 2.701 1.901c0 0 .813-.67 1.136-1.445 0 0 .243-.508.366-.914l-1.75-.512s-.507 1.855-1.417 1.946c0 0-.805.343-1.036-.976z"/><defs><path id="U" d="M130.534 209.747c-1.603-.468-3.411.891-4.038 3.037-.626 2.147.166 4.265 1.767 4.733 1.604.468 3.412-.892 4.038-3.039.627-2.144-.166-4.263-1.767-4.731zm-1.805 6.192c-.638-.188-.852-1.374-.478-2.654.373-1.28 1.193-2.166 1.829-1.979.636.185.85 1.374.477 2.653-.373 1.28-1.192 2.166-1.828 1.98z"/></defs><clipPath id="V"><use xlink:href="#U" overflow="visible"/></clipPath><path clip-path="url(#V)" fill="#99B6CC" d="M131.636 210.316c-.718-.308-1.531.126-2.169 1.021.961.677.576 2.288-.489 2.576.232.707-.118 1.597-.819 1.884.07.741.469 1.289 1.504 1.493 1.168.231 2.541-1.009 3.122-2.998.58-1.99.083-3.449-1.149-3.976z"/><path fill="#3D4A50" d="M129.61 209.671l-.165.973s1.144-.146 1.25 1.571c0 0-.094-.622-.496-.862 0 0-.302-.171-.672.029 0 0-.537-.495-.41-1.606.001 0 .294-.09.493-.105zM127.07 211.488l.41.724s-.528 1.551-.41 1.795l-.778.522s.049.528.074.631c.025.101.53-.92 1.753-1.2l.03-.255-.491.09s.111-1.22.29-1.251l.424.382s.096-.324.126-.301c.03.024-.744-.529-1.03-1.69.001 0-.302.394-.398.553z"/><path fill="#C7E3F0" d="M128.438 208.609s.237 1.886.855 2.446c0 0-.417-.841-.016-2.2l-.839-.246z"/><path fill="#5D7081" d="M127.326 209.742s.758 2.642 2.993 3.372c0 0-1.489.345-2.484-1.277 0 0-.524-.851-.509-2.095z"/><path fill="#3D4A50" d="M131.991 209.647l-.14.485-.421-.167s-.075.24-.101.208c-.024-.032.48.313.815 1.079 0 0 .251.533.227.612-.022.079.261-.311.33-.449l-.557-1.063s.25-.419.296-.574l-.449-.131z"/><path fill="#5D7081" d="M127.983 215.998s.865-2 3.301-.147c0 0 .325 1.002.18 1.829 0 0-.07.56-.184.968l-1.752-.512s.573-1.836-.145-2.402c0-.001-.495-.723-1.4.264z"/><path fill="#748A98" d="M130.695 212.216c.193 1.366-.615 2.835-.615 2.835-.839 1.107-1.417.85-1.417.85-.086-.025-.243-.138-.305-.24l-.238.183c-.005 1.982 1.627 1.62 1.627 1.62.66-.153 1.398-.931 1.398-.931.233-.228.633-.842.633-.842.112-2.17-1.083-3.475-1.083-3.475z"/><path fill="#3D4A50" d="M127.704 217.268l.685-1.072s1.648.161 1.902-1.6c0 0-.702 1.55-1.628 1.305 0 0-.13-.045-.305-.24 0 0-.495.199-1.05 1.303.001 0 .181.171.396.304z"/><path fill="#C7E3F0" d="M126.384 217.217s1.214-1.461 2.036-1.6c0 0-.804.484-1.198 1.845l-.838-.245z"/><path fill="#5D7081" d="M126.033 215.653s2.061-1.817 4.336-1.231c0 0-1.068-1.093-2.778-.261-.001-.001-.901.434-1.558 1.492z"/><path fill="#3D4A50" d="M129.962 218.284l.143-.484-.444-.084s.065-.243.027-.229c-.039.012.572-.005 1.266-.472 0 0 .5-.313.522-.393.023-.08.053.401.036.555l-1.042.595s-.014.488-.06.644l-.448-.132zM130.228 212.251s.012.872-.048.879c-.062.007.453-.063.527-.105 0 0 .016-.564.006-.656l-.485-.118zM129.51 213.944s.291.794.141 1.136c0 0 .168-.015.304.088.135.102.358-.571.414-.747 0 0-.509-.41-.878-.483"/><path fill="#fff" d="M131.92 211.951s-.627 3.335-.958 3.681c-.366.384-.063.51.163.518-.001-.001 1.318-1.825.795-4.199zM126.167 217.155c.229-.654.614-1.381 1.266-2.033 0 0-.463 1.151-.81 2.166l-.456-.133zM128.692 208.685c-.216.638-.381 1.211-.345 1.393.104.52-.221.464-.416.349 0 0-.046-.835.305-1.876l.456.134z"/><path fill="#424D53" d="M113.437 220.074l-1.264 1.405 1.42 2.232-.156-3.637M130.163 217.979l1.389.463-1.171 2.933-.218-3.396"/></g><g><path fill="#748A98" d="M76.909 164.058s-7.495-4.6-9.583 3.492c0 0 5.38 1.911 6.639-2.328l2.926-.847.018-.317z"/><path fill="#5D7081" d="M71.679 163.009s2.453 1.23 2.287 2.213l2.926-.847.018-.317c-.001 0-2.511-1.853-5.231-1.049zM134.186 170.905s2.412.924 1.499 2.947l5.803 2.419c-.001 0 .2-5-7.302-5.366z"/><path fill="#3D4A50" d="M135.684 173.852s1.763-.671 1.159-2.563c0 0-1.493-.448-2.658-.384l1.679 1.472-.188 1.342"/><circle fill="#3D4A50" cx="68.321" cy="166.919" r=".375"/><circle fill="#3D4A50" cx="72.476" cy="165.92" r=".383"/><circle fill="#fff" cx="72.476" cy="165.92" r=".127"/><circle fill="#3D4A50" cx="136.737" cy="173.626" r=".383"/><circle fill="#fff" cx="136.737" cy="173.626" r=".127"/><circle fill="#3D4A50" cx="140.285" cy="175.34" r=".383"/><circle fill="#fff" cx="140.285" cy="175.34" r=".127"/><circle fill="#fff" cx="68.321" cy="166.919" r=".127"/></g><g><path fill="#748A98" d="M110.69 217.555l1.105 13.927 10.358 6.216 9.25-7.772-.034-.446.004.065-.004-.065-1.075-13.542-10.36-6.214.004.06z"/><path fill="#424D53" d="M113.468 219.209l.807 10.185 7.575 4.545 6.764-5.684-.026-.325.004.047-.004-.047-.785-9.903-7.576-4.545.003.045z"/><path opacity=".5" fill="#5D7081" d="M115.689 228.21l-3.894 3.272 10.358 6.216-.466-8.344zM119.938 209.784l.415 5.172 6.524 3.841 3.417-2.859z"/><path opacity=".5" fill="#3C4750" d="M110.69 217.555l4.926 2.839-.24 8.059-3.581 3.029zM125.116 226.04l6.287 3.886-1.109-13.988-4.774 3.655.25 6.705"/><path opacity=".5" fill="#474747" d="M126.011 213.369l4.804 9.141-.521-6.572-4.283-2.569"/><path opacity=".5" fill="#474747" d="M111.242 224.518l5.732 10.072-5.179-3.108z"/></g><g><linearGradient id="W" gradientUnits="userSpaceOnUse" x1="119.566" y1="214.638" x2="113.982" y2="220.221" gradientTransform="matrix(.997 -.072 .072 .997 -13.981 9.192)"><stop offset="0" stop-color="#E4A67C"/><stop offset=".995" stop-color="#EF90B9"/></linearGradient><path fill="url(#W)" d="M120.572 217.46l-.244-3.082-6.105 5.129 2.349 1.314z"/><linearGradient id="X" gradientUnits="userSpaceOnUse" x1="112.756" y1="218.996" x2="112.756" y2="218.996" gradientTransform="matrix(.997 -.072 .072 .997 -13.981 9.192)"><stop offset="0" stop-color="#E4A67C"/><stop offset=".995" stop-color="#EF90B9"/></linearGradient><path fill="url(#X)" d="M114.205 219.522z"/><linearGradient id="Y" gradientUnits="userSpaceOnUse" x1="119.232" y1="217.338" x2="125.776" y2="217.338" gradientTransform="matrix(.997 -.072 .072 .997 -13.981 9.192)"><stop offset="0" stop-color="#E7273E"/><stop offset=".096" stop-color="#E83542"/><stop offset=".331" stop-color="#E9484C"/><stop offset=".603" stop-color="#EA5251"/><stop offset=".995" stop-color="#EA5453"/><stop offset="1" stop-color="#E7334D"/></linearGradient><path fill="url(#Y)" d="M127.182 218.467l-6.857-4.115.247 3.108 4.481 2.687z"/><linearGradient id="Z" gradientUnits="userSpaceOnUse" x1="123.599" y1="223.574" x2="125.911" y2="223.516" gradientTransform="matrix(.997 -.072 .072 .997 -13.981 9.192)"><stop offset=".005" stop-color="#B33244"/><stop offset=".028" stop-color="#B63446"/><stop offset=".175" stop-color="#CA3D4B"/><stop offset=".332" stop-color="#D9444E"/><stop offset=".503" stop-color="#E24950"/><stop offset=".698" stop-color="#E84C51"/><stop offset=".966" stop-color="#E94C51"/><stop offset=".975" stop-color="#EA5252"/><stop offset=".995" stop-color="#EA5453"/><stop offset="1" stop-color="#EA5755"/></linearGradient><path fill="url(#Z)" d="M125.518 226.004v-.003.003l.015.194 2.383 1.527-.734-9.258-2.129 1.68z"/><linearGradient id="aa" gradientUnits="userSpaceOnUse" x1="117.019" y1="218.914" x2="107.68" y2="219.063" gradientTransform="matrix(.997 -.072 .072 .997 -13.981 9.192)"><stop offset="0" stop-color="#DE7469"/><stop offset=".109" stop-color="#E58770"/><stop offset=".253" stop-color="#ED9976"/><stop offset=".416" stop-color="#F2A67A"/><stop offset=".614" stop-color="#F5AD7C"/><stop offset=".946" stop-color="#F5AF7D"/></linearGradient><path fill="url(#aa)" d="M114.203 219.496l.002.026.018-.015z"/><linearGradient id="ab" gradientUnits="userSpaceOnUse" x1="117.069" y1="223.558" x2="107.784" y2="223.707" gradientTransform="matrix(.997 -.072 .072 .997 -13.981 9.192)"><stop offset="0" stop-color="#DE7469"/><stop offset=".109" stop-color="#E58770"/><stop offset=".253" stop-color="#ED9976"/><stop offset=".416" stop-color="#F2A67A"/><stop offset=".614" stop-color="#F5AD7C"/><stop offset=".946" stop-color="#F5AF7D"/></linearGradient><path fill="url(#ab)" d="M116.574 220.847l-2.369-1.325.733 9.233 2.113-1.885z"/><linearGradient id="ac" gradientUnits="userSpaceOnUse" x1="119.28" y1="214.352" x2="113.696" y2="219.935" gradientTransform="matrix(.997 -.072 .072 .997 -13.981 9.192)"><stop offset="0" stop-color="#E4A67C"/><stop offset=".995" stop-color="#EF90B9"/></linearGradient><path fill="url(#ac)" d="M116.574 220.847l-.002-.026-2.349-1.314-.018.015 2.369 1.325z"/><linearGradient id="ad" gradientUnits="userSpaceOnUse" x1="117.006" y1="219.685" x2="107.721" y2="219.833" gradientTransform="matrix(.997 -.072 .072 .997 -13.981 9.192)"><stop offset="0" stop-color="#DE7469"/><stop offset=".109" stop-color="#E58770"/><stop offset=".253" stop-color="#ED9976"/><stop offset=".416" stop-color="#F2A67A"/><stop offset=".614" stop-color="#F5AD7C"/><stop offset=".946" stop-color="#F5AF7D"/></linearGradient><path fill="url(#ad)" d="M116.574 220.847l-.002-.026-2.349-1.314-.018.015 2.369 1.325z"/><linearGradient id="ae" gradientUnits="userSpaceOnUse" x1="114.809" y1="231.778" x2="119.552" y2="227.269" gradientTransform="matrix(.997 -.072 .072 .997 -13.981 9.192)"><stop offset="0" stop-color="#DE7469"/><stop offset=".002" stop-color="#DE7469"/><stop offset=".179" stop-color="#C76D53"/><stop offset=".355" stop-color="#AF643F"/><stop offset=".527" stop-color="#9A5A2E"/><stop offset=".694" stop-color="#8A5021"/><stop offset=".853" stop-color="#804A18"/><stop offset=".995" stop-color="#7C4814"/></linearGradient><path fill="url(#ae)" d="M117.051 226.87l-2.113 1.885 6.855 4.114-.261-3.31z"/><linearGradient id="af" gradientUnits="userSpaceOnUse" x1="119.343" y1="229.66" x2="125.843" y2="229.66" gradientTransform="matrix(.997 -.072 .072 .997 -13.981 9.192)"><stop offset=".005" stop-color="#EAD18D"/><stop offset=".007" stop-color="#EAD18D"/><stop offset=".32" stop-color="#F2D9B8"/><stop offset=".593" stop-color="#F7E0D4"/><stop offset=".812" stop-color="#FBE4E5"/><stop offset=".951" stop-color="#FBE5EB"/></linearGradient><path fill="url(#af)" d="M125.533 226.198l-4.001 3.361.261 3.31 6.123-5.144z"/><linearGradient id="ag" gradientUnits="userSpaceOnUse" x1="116.547" y1="220.026" x2="121.892" y2="226.701" gradientTransform="matrix(.997 -.072 .072 .997 -13.981 9.192)"><stop offset=".297" stop-color="#DE7469"/><stop offset=".995" stop-color="#EF90B9"/></linearGradient><path fill="url(#ag)" d="M116.574 220.847l.477 6.023 4.481 2.689 4.001-3.361-.015-.194.002.029-.002-.029-.465-5.857-4.481-2.687.002.026z"/><linearGradient id="ah" gradientUnits="userSpaceOnUse" x1="120.505" y1="215.577" x2="114.921" y2="221.161" gradientTransform="matrix(.997 -.072 .072 .997 -13.981 9.192)"><stop offset="0" stop-color="#E4A67C"/><stop offset=".995" stop-color="#EF90B9"/></linearGradient><path fill="url(#ah)" d="M116.574 220.847l4-3.361-.002-.026-4 3.361z"/><linearGradient id="ai" gradientUnits="userSpaceOnUse" x1="117.439" y1="219.315" x2="122.815" y2="226.03" gradientTransform="matrix(.997 -.072 .072 .997 -13.981 9.192)"><stop offset=".297" stop-color="#DE7469"/><stop offset=".995" stop-color="#EF90B9"/></linearGradient><path fill="url(#ai)" d="M116.574 220.847l4-3.361-.002-.026-4 3.361z"/><circle opacity=".5" fill="#fff" cx="123.919" cy="226.147" r="3.345"/><circle opacity=".5" fill="#fff" cx="124.291" cy="222.274" r="1.735"/><circle opacity=".5" fill="#fff" cx="122.556" cy="222.832" r="1.458"/></g></svg>