<svg xmlns="http://www.w3.org/2000/svg" width="210.833" height="315" viewBox="0 0 210.833 315"><g><path fill="#ddd" d="M67.644 199.626s1.239 4.125 2.504 5.188c1.266 1.062 0-4.283 0-4.283l-2.504-.905zM62.635 199.626s1.239 4.125 2.505 5.188c1.266 1.062 0-4.283 0-4.283l-2.505-.905zM56.666 201.027s1.239 4.125 2.505 5.188c1.265 1.062 0-4.283 0-4.283l-2.505-.905zM51.21 202.291s1.239 4.125 2.504 5.188c1.266 1.063 0-4.283 0-4.283l-2.504-.905z"/><linearGradient id="a" gradientUnits="userSpaceOnUse" x1="124.297" y1="276.277" x2="124.297" y2="314.801"><stop offset="0" stop-color="#F2DBDB"/><stop offset=".309" stop-color="#F2DBDB"/><stop offset=".995" stop-color="#F3A188"/></linearGradient><path fill="url(#a)" stroke="#fff" stroke-width=".3" stroke-miterlimit="10" d="M127.732 282.194v29.478s-15.413-5.557-19.357 0c-3.946 5.556 32.146 2.02 32.146 2.02v-37.415l-12.789 5.917z"/><linearGradient id="b" gradientUnits="userSpaceOnUse" x1="89.227" y1="282.194" x2="89.227" y2="314.801"><stop offset="0" stop-color="#F2DBDB"/><stop offset=".309" stop-color="#F2DBDB"/><stop offset=".995" stop-color="#F3A188"/></linearGradient><path fill="url(#b)" stroke="#fff" stroke-width=".3" stroke-miterlimit="10" d="M92.662 282.194v29.478s-15.413-5.557-19.358 0c-3.945 5.556 32.146 2.02 32.146 2.02l-.629-28.587-12.159-2.911z"/><linearGradient id="c" gradientUnits="userSpaceOnUse" x1="147.171" y1="258.253" x2="167.145" y2="258.253"><stop offset="0" stop-color="#F2DBDB"/><stop offset=".309" stop-color="#F2DBDB"/><stop offset=".995" stop-color="#F3A188"/></linearGradient><circle fill="url(#c)" stroke="#fff" stroke-width=".3" stroke-miterlimit="10" cx="157.158" cy="258.253" r="9.987"/><path fill="#604C3F" d="M-17.013 202.2"/><linearGradient id="d" gradientUnits="userSpaceOnUse" x1="69.273" y1="169.62" x2="69.273" y2="116.436"><stop offset="0" stop-color="#F2DBDB"/><stop offset=".309" stop-color="#F2DBDB"/><stop offset=".995" stop-color="#F3A188"/></linearGradient><path fill="url(#d)" stroke="#fff" stroke-width=".3" stroke-miterlimit="10" d="M62.218 167.333s-4.614-29.38 6.036-28.315c0 0 23.431 8.521 20.236-5.324 0 0-4.97-24.852-30.177-14.912 0 0-18.319 5.821-1.349 50.837l5.253-1.016v-1.27z"/><linearGradient id="e" gradientUnits="userSpaceOnUse" x1="105.45" y1="171.081" x2="105.45" y2="131.27"><stop offset="0" stop-color="#F2DBDB"/><stop offset=".309" stop-color="#F2DBDB"/><stop offset=".995" stop-color="#F3A188"/></linearGradient><path fill="url(#e)" stroke="#fff" stroke-width=".3" stroke-miterlimit="10" d="M86.605 168.648s1.531-43.123 22.832-36.732c0 0 23.076 7.456 11.715 21.3 0 0-7.099 10.524-13.845-3.258 0 0-7.649-10.402-14.039 21.123"/><linearGradient id="f" gradientUnits="userSpaceOnUse" x1="138.495" y1="217.145" x2="138.495" y2="152.581"><stop offset="0" stop-color="#F2DBDB"/><stop offset=".309" stop-color="#F2DBDB"/><stop offset=".995" stop-color="#F3A188"/></linearGradient><path fill="url(#f)" stroke="#fff" stroke-width=".3" stroke-miterlimit="10" d="M127.819 215.112s24.774-23.454 12.703-40.922c0 0-18.461 2.413-15.976-4.688 0 0-2.129-8.164 6.036-4.26 0 0-2.84-14.557 8.875-7.812 0 0 .356-9.604 6.746-1.784 0 0 22.837 30.328-17.16 61.499l-1.224-2.033z"/><path fill="#ddd" d="M45.278 203.691s1.239 4.126 2.505 5.188c1.265 1.063 0-4.283 0-4.283l-2.505-.905zM64.168 243.517s-1.665-3.973-3.036-4.897c-1.369-.923.45 4.26.45 4.26l2.586.637zM85.986 237.13s-1.666-3.972-3.035-4.896c-1.37-.924.449 4.26.449 4.26l2.586.636zM69.417 242.138s-1.665-3.973-3.035-4.897c-1.37-.924.449 4.259.449 4.259l2.586.638zM75.077 241.013s-1.666-3.973-3.035-4.897c-1.37-.924.45 4.26.45 4.26l2.585.637zM80.552 239.634s-1.665-3.973-3.035-4.897c-1.369-.924.45 4.26.45 4.26l2.585.637z"/><linearGradient id="g" gradientUnits="userSpaceOnUse" x1="41.781" y1="280.878" x2="41.781" y2="248.266"><stop offset="0" stop-color="#F2DBDB"/><stop offset=".309" stop-color="#F2DBDB"/><stop offset=".995" stop-color="#F3A188"/></linearGradient><path fill="url(#g)" stroke="#fff" stroke-width=".3" stroke-miterlimit="10" d="M72.862 269.24s-31.962 14.81-43.528-2.995c0 0 9.253-16.159 1.74-16.559 0 0-6.741-5.075-6.236 3.962 0 0-12.382-8.162-10.598 5.239 0 0-9.019-3.324-4.216 5.559 0 0 20.884 31.921 64.923 6.782l-2.085-1.988z"/><path fill="#F2DBDB" stroke="#F7F8F8" stroke-width=".3" stroke-miterlimit="10" d="M41.097 198.836s-2.663-30.354 23.962-30.354c0 0 31.419-9.586 61.24 26.625 0 0 23.431 31.952 26.626 53.253 0 0-.355 42.068-48.104 36.744 0 0-27.513-1.065-44.021-32.484 0 0-10.651-10.651 9.052-12.248 0 0 26.551-2.13 27.121-20.768 0 0 3.232-25.028-37.771-17.574 0 .001-13.846 9.053-18.105-3.194z"/><ellipse fill="#604C3F" stroke="#fff" stroke-width=".3" stroke-miterlimit="10" cx="47.461" cy="200.706" rx="5.282" ry="2.113"/><linearGradient id="h" gradientUnits="userSpaceOnUse" x1="87.14" y1="204.523" x2="61.946" y2="229.717"><stop offset="0" stop-color="#D16F6F"/><stop offset=".309" stop-color="#D16F6F"/><stop offset=".995" stop-color="#F3A188"/></linearGradient><path fill="url(#h)" d="M97.334 214.718l-39.834 3.512s-3.283-4.271-4.041-1.757c-.757 2.514 1.569 3.019 1.569 3.019s-.705.757 0 3.031c.704 2.273 2.977-1.079 2.977-1.079l39.329-5.235.536-.421-.536-1.07z"/><path fill="#fff" d="M135.529 166.029c0 2.789 2.262 5.052 5.052 5.052 2.79 0 5.051-2.263 5.051-5.052v-.084c0-2.789-2.262-5.051-5.051-5.051-2.79 0-5.052 2.262-5.052 5.051v.084zM15.816 261.034c0 2.79 2.262 5.051 5.051 5.051 2.79 0 5.051-2.261 5.051-5.051v-.084c0-2.79-2.261-5.051-5.051-5.051-2.789 0-5.051 2.262-5.051 5.051v.084z"/><path fill="#604C3F" d="M72.221 312.765c0 .418.34.758.758.758h1.852c.418 0 .758-.339.758-.758 0-.418-.34-.757-.758-.757h-1.852c-.418 0-.758.339-.758.757zM141.979 154.197c.401-.117.632-.538.515-.939l-.52-1.779c-.117-.401-.538-.632-.939-.515-.402.117-.632.538-.515.938l.519 1.779c.118.402.538.632.94.516zM133.013 157.491c.401-.118.632-.538.515-.939l-.519-1.779c-.117-.401-.539-.632-.939-.514-.403.116-.633.537-.516.939l.521 1.778c.115.401.536.632.938.515zM125.786 166.299c.401-.117.633-.538.515-.939l-.52-1.778c-.117-.402-.538-.632-.939-.515-.402.117-.633.538-.515.939l.52 1.778c.117.403.537.633.939.515zM16.36 254.053c.396-.136.608-.566.472-.962l-.598-1.752c-.135-.396-.566-.608-.962-.472-.396.135-.607.565-.472.961l.599 1.753c.135.395.566.607.961.472zM9.545 260.291c.232-.348.138-.819-.21-1.05l-1.542-1.028c-.348-.231-.819-.137-1.05.211-.232.348-.138.819.21 1.05l1.541 1.027c.349.233.82.139 1.051-.21zM107.243 312.765c0 .418.339.758.757.758h1.853c.418 0 .758-.339.758-.758 0-.418-.339-.757-.758-.757h-1.853c-.418 0-.757.339-.757.757z"/><path opacity=".1" fill="#5C5D5D" d="M131.523 202.818s35.622 51.276-28.872 73.458c0 0-6.041 5.033-3.698 7.876 0 0 34.721 6.203 48.217-16.081 0 0 8.481-14.842 4.362-25.935 0 0-10.446-27.209-20.341-39.938"/><g><linearGradient id="i" gradientUnits="userSpaceOnUse" x1="67.142" y1="182.988" x2="73.304" y2="182.988"><stop offset="0" stop-color="#E4A67C"/><stop offset=".995" stop-color="#EF90B9"/></linearGradient><circle fill="url(#i)" stroke="#fff" stroke-width=".3" stroke-miterlimit="10" cx="70.223" cy="182.988" r="3.081"/><circle fill="#fff" cx="70.223" cy="182.988" r="1.823"/><linearGradient id="j" gradientUnits="userSpaceOnUse" x1="47.462" y1="183.802" x2="53.624" y2="183.802"><stop offset="0" stop-color="#E4A67C"/><stop offset=".995" stop-color="#EF90B9"/></linearGradient><circle fill="url(#j)" stroke="#fff" stroke-width=".3" stroke-miterlimit="10" cx="50.543" cy="183.801" r="3.081"/><circle fill="#fff" cx="50.543" cy="183.801" r="1.823"/></g></g></svg>