<svg xmlns="http://www.w3.org/2000/svg" width="210.833" height="315" viewBox="0 0 210.833 315"><g><path fill="#817474" stroke="#fff" stroke-width=".3" stroke-miterlimit="10" d="M180.963 180.555s24.149-1.16 12.945 11.28c-11.202 12.438-7.945 7.797-7.945 7.797l-5-19.077zM130.856 100.07s20.53-12.77 16.8 3.55c-3.73 16.319-3.144 10.68-3.144 10.68l-13.656-14.23zM147.41 119.551s21.528-11.005 16.443 4.945c-5.083 15.95-4.026 10.379-4.026 10.379l-12.417-15.324zM160.785 138.957s22.249-9.463 16.055 6.09c-6.193 15.552-4.747 10.069-4.747 10.069l-11.308-16.159zM173.729 158.928s23.661-4.966 14.567 9.09c-9.093 14.054-6.611 8.957-6.611 8.957l-7.956-18.047z"/><linearGradient id="a" gradientUnits="userSpaceOnUse" x1="67.394" y1="171.217" x2="140.617" y2="171.217" gradientTransform="matrix(.636 .772 -.772 .636 128.156 -8.52)"><stop offset="0" stop-color="#5C5A5A"/><stop offset=".995" stop-color="#A69393"/></linearGradient><path fill="url(#a)" stroke="#fff" stroke-width=".3" stroke-miterlimit="10" d="M106.892 171.601s-6.835-16.09-20.033-9.022-12.899 19.964-12.899 19.964l-49.033-14.663s-13.351.944-12.847 12.112c.504 11.167 11.227 14.289 14.178 5.336 0 0 46.879 30.292 59 23.35 12.119-6.942 22.601-35.197 21.634-37.077z"/><linearGradient id="b" gradientUnits="userSpaceOnUse" x1="23.318" y1="266.103" x2="137.539" y2="266.103"><stop offset="0" stop-color="#5C5A5A"/><stop offset=".995" stop-color="#A69393"/></linearGradient><path fill="url(#b)" stroke="#fff" stroke-width=".3" stroke-miterlimit="10" d="M90.193 218.758c-26.149 0-47.346 21.197-47.346 47.345 0 15.732 7.679 29.663 19.485 38.272-21.848.195-39.014 2.146-39.014 4.528 0 2.51 19.077 4.545 42.609 4.545 6.434 0 12.531-.153 18-.426 2.051.271 4.139.426 6.265.426 26.147 0 47.346-21.197 47.346-47.346s-21.198-47.344-47.345-47.344z"/><linearGradient id="c" gradientUnits="userSpaceOnUse" x1="87.609" y1="25.855" x2="87.609" y2="89.477"><stop offset="0" stop-color="#5C5A5A"/><stop offset=".995" stop-color="#A69393"/></linearGradient><path fill="url(#c)" stroke="#fff" stroke-width=".3" stroke-miterlimit="10" d="M118.824 64.856l-.337-.565c-32.43-54.275-51.833-36.336-57.298-32.646-7.218 4.874-4.144 56.935-4.144 56.935l.255.897 5.509-1.084 20.264-30.983c15.666 18.442 27.243 14.697 32.56 11.079.533-1.511 1.708-2.789 3.191-3.633z"/><path fill="#A69393" stroke="#fff" stroke-width=".3" stroke-miterlimit="10" d="M128.021 91.195s-7.496-20.268-23.182-27.607c0 0-20.85-9.653-40.119 8.453 0 0-19.243 14.311-11.873 28.999l-7.37 11.556s.396 2.313 1.959 3.154l1.564.84s8.466 11.819 17.485 10.937c0 0 10.879 1.804 12.677 10.066-24.627 38.652-15.474 103.331-15.474 103.331-2.098 48.26 45.462 44.063 84.63 37.769 39.167-6.295 36.37-67.145 36.37-67.145 6.294-63.648-56.667-120.353-56.667-120.353z"/><path opacity=".2" fill="#8D7F7F" d="M163.865 133.526s25.51 38.141 20.783 86.32c-4.298 43.804-.208 2.759-.208 2.759l-71.418 36.177h-22.75l4.75-33.25 61.175-89.442"/><linearGradient id="d" gradientUnits="userSpaceOnUse" x1="128.728" y1="313.449" x2="128.728" y2="211.75"><stop offset="0" stop-color="#5C5A5A"/><stop offset=".995" stop-color="#A69393"/></linearGradient><path fill="url(#d)" stroke="#fff" stroke-width=".3" stroke-miterlimit="10" d="M161.749 211.75c-26.149 0-74.139 28.205-74.139 54.353 0 15.732 7.678 29.663 19.485 38.272-21.848.195-39.014 2.146-39.014 4.528 0 2.51 19.077 4.545 42.609 4.545 6.434 0 12.531-.153 18-.426 2.051.271 4.139.426 6.265.426 26.147 0 54.419-23.443 54.419-49.592s-1.478-52.106-27.625-52.106z"/><linearGradient id="e" gradientUnits="userSpaceOnUse" x1="114.972" y1="29.01" x2="114.972" y2="86.321"><stop offset="0" stop-color="#5C5A5A"/><stop offset=".995" stop-color="#A69393"/></linearGradient><path fill="url(#e)" stroke="#fff" stroke-width=".3" stroke-miterlimit="10" d="M147.93 79.031l-.17-.637c-16.32-61.083-39.894-49.146-46.162-47.094-8.277 2.709-19.584 53.622-19.584 53.622v.933l5.596.466 27.977-24.246c10.013 22.029 22.173 21.598 28.278 19.575.927-1.307 2.407-2.213 4.065-2.619z"/><path fill="#817474" stroke="#fff" stroke-width=".3" stroke-miterlimit="10" d="M71.989 100.31"/><circle fill="#817474" stroke="#fff" stroke-width=".3" stroke-miterlimit="10" cx="66.972" cy="96.747" r="3.789"/><circle fill="#fff" cx="66.972" cy="96.747" r="2.241"/><path fill="#817474" stroke="#fff" stroke-width=".2" stroke-miterlimit="10" d="M49 116.465l.36.1c2.418.641 12.273 7.331 38.691-4.095 0 0-28.118 16.44-33.015 10.365l-6.036-6.37z"/><path fill="#4E4647" d="M45.477 112.471h7.253l-3.73 3.994s-1.917.101-3.523-3.994z"/><g stroke="#fff" stroke-width=".2" stroke-miterlimit="10" fill="none"><path d="M83.792 111.071l.088 4.56M85.191 110.634l2.536 3.136M89.388 109.322l-.35 4.029M81.257 112.645l-.437 4.371M76.623 114.139l2.361 4.188M75.749 113.77l-.787 5.344M72.514 114.139l1.458 6.199M70.183 70.067l-2.704 3.672M66.394 71.903h3.789M64.995 73.739l-1.573 3.672M62.631 76.537l3.763-1.137M59.4 80.209l-.699 3.412M56.917 82.649l5.714-2.44M56.311 86.795l.606 3.963M58.701 86.795l-3.935 3.963"/></g><linearGradient id="f" gradientUnits="userSpaceOnUse" x1="78.017" y1="186.491" x2="159.413" y2="186.491"><stop offset="0" stop-color="#5C5A5A"/><stop offset=".995" stop-color="#A69393"/></linearGradient><path fill="url(#f)" stroke="#fff" stroke-width=".3" stroke-miterlimit="10" d="M142.617 141.721s-18.637-5.507-21.901 10.813c-3.265 16.319 8.012 25.179 8.012 25.179l-47.238 31.706s-8.626 12.123 1.312 19.584 20.196.467 14.6-8.393c0 0 59.127-18.813 61.737-34.119s-14.226-44.27-16.522-44.77z"/><path opacity=".6" fill="#8D7F7F" d="M71.989 126.92s42.772-18.92 49.312-27.334c0 0-37.295 39.212-41.269 35.978.001 0-1.958-6.201-8.043-8.644z"/><path opacity=".3" fill="#8D7F7F" d="M97.401 220.61s44.167-26.079 48.276-34.119c4.667-9.13 7.739-26.482 8.561-24.419s10.314 21.747 2.456 29.185c0 0-7.142 11.042-46.219 24.791l-13.074 4.562z"/><g stroke="#fff" stroke-width=".3" stroke-miterlimit="10" fill="none"><path d="M79.478 152.128l2.973 9.899M82.451 153.017l-8.044 9.01M70.765 168.26l4.516 12M75.281 170.26l-4.516 8.463M68.841 192.926l3.06 9.018M71.901 189.926l-5.301 14.057M66.6 212.842l3.771 9.418M70.765 212.842l-4.165 11.546M66.6 231.26l4.165 10.333M71.901 229.26l-5.301 14"/></g></g></svg>