<svg xmlns="http://www.w3.org/2000/svg" width="210.833" height="315" viewBox="0 0 210.833 315"><g><path fill="#C9BC9C" stroke="#fff" stroke-width=".3" stroke-miterlimit="10" d="M142.566 228.518s-21.644-25.212-83.853 5.958c0 0 9.577 1.334 14.813 1.999 0 0-17.494 40.526-5.526 62.926 11.967 22.4 48.482 20.252 55.541-1.841 0 0 7.364-17.37-3.069-32.006 0 0-1.535-16.139 1.841-19.545.453-.458 2.694-4.005 1.374-4.416 2.079.733 4.082-1.389 6.297-2.028 0-.001 13.808-3.069 12.582-11.047z"/><linearGradient id="a" gradientUnits="userSpaceOnUse" x1="94.953" y1="315.218" x2="94.953" y2="287.118"><stop offset="0" stop-color="#604C3F"/><stop offset=".103" stop-color="#7A6754"/><stop offset=".232" stop-color="#96836C"/><stop offset=".372" stop-color="#AD9C80"/><stop offset=".529" stop-color="#BDAE90"/><stop offset=".713" stop-color="#C7B99A"/><stop offset=".995" stop-color="#C9BC9C"/></linearGradient><path fill="url(#a)" d="M64.279 287.118l61.348 2.379s-3.109 24.315-26.839 25.701c0 0-29.537 1.779-34.509-28.08z"/><path opacity=".6" fill="#AFAEAB" stroke="#fff" stroke-width=".3" stroke-miterlimit="10" d="M85.009 256.514s4.978.9 5.263 1.938l-.497 1.35c-.001 0-4.381-3.547-4.766-3.288z"/><path fill="#ADA28A" d="M60.482 234.721s7.307.57 13.044 1.753c2.708.559-5.628-3.149.284-4.684 16.887-4.383 45.884-7.21 56.174 1.33 4.673 3.878 2.618 5.479 2.618 5.479l6.108-2.637 3.855-7.445-31.095-15.445-49.71 17.184-3.048 2.659 1.77 1.806z"/><linearGradient id="b" gradientUnits="userSpaceOnUse" x1="94.8" y1="242.055" x2="94.8" y2="186.04"><stop offset="0" stop-color="#A40B5D"/><stop offset=".995" stop-color="#EA5453"/><stop offset="1" stop-color="#E83530"/></linearGradient><path fill="url(#b)" stroke="#fff" stroke-width=".3" stroke-miterlimit="10" d="M112.187 186.786s-57.419-8.592-71.228 32.526c0 0-1.495 15.649 14.768 16.57 0 0 69.041-34.368 82.85 0 0 0-2.762 3.375-8.592 3.683 0 0 17.49 8.591 17.797-6.137 0-.001 9.819-30.379-35.595-46.642z"/><path fill="#8C3E3E" d="M138.71 235.963s1.931 6.158.781 6.086c-4.638-.287-3.427-.729-9.507-2.485 0 0 7.531-2.692 8.726-3.601z"/><path opacity=".4" fill="#4E3E3E" d="M40.958 219.312s44.629-18.718 59.719-15.445c0 0 33.974 2.208 38.033 32.096 0 0-3.714-16.958-27.239-15.321 0 0-23.116-.613-55.745 15.24 0 0-9.871.263-13.988-10.046.001 0-.816-3.532-.78-6.524z"/><ellipse fill="#3C3D3D" cx="79.899" cy="239.007" rx="1.159" ry="2.317"/><ellipse fill="#3C3D3D" cx="91.804" cy="239.168" rx="1.444" ry="2.887"/><path stroke="#3E3A39" stroke-miterlimit="10" fill="none" d="M82.422 245.394l2.865 4.501M85.287 245.394l-2.865 4.501"/><path fill="#ADA28A" d="M93.639 254.805c-.818-3.478-7.09 1.228-7.09 1.228h-5.388s-6.272-4.706-7.091-1.228c-.818 3.478.613 8.592 2.251 8.387 1.636-.205 4.84-2.864 4.84-2.864v.103h5.388v-.103s3.204 2.66 4.84 2.864 3.069-4.91 2.25-8.387z"/><linearGradient id="c" gradientUnits="userSpaceOnUse" x1="72.57" y1="257.133" x2="79.899" y2="257.133"><stop offset="0" stop-color="#A40B5D"/><stop offset=".995" stop-color="#EA5453"/><stop offset="1" stop-color="#E83530"/></linearGradient><path fill="url(#c)" stroke="#fff" stroke-width=".3" stroke-miterlimit="10" d="M79.899 254.805s-6.272-4.706-7.091-1.228c-.818 3.478.613 8.592 2.25 8.387 1.637-.205 4.841-2.864 4.841-2.864v-4.295z"/><linearGradient id="d" gradientUnits="userSpaceOnUse" x1="92.615" y1="257.133" x2="85.287" y2="257.133"><stop offset="0" stop-color="#A40B5D"/><stop offset=".995" stop-color="#EA5453"/><stop offset="1" stop-color="#E83530"/></linearGradient><path fill="url(#d)" stroke="#fff" stroke-width=".3" stroke-miterlimit="10" d="M85.287 254.805s6.272-4.706 7.091-1.228c.819 3.478-.613 8.592-2.25 8.387l-4.841-2.864v-4.295z"/><path fill="#E5E2DF" stroke="#fff" stroke-width=".3" stroke-miterlimit="10" d="M79.899 254.805h5.388v4.398h-5.388z"/><path opacity=".6" fill="#AFAEAB" stroke="#fff" stroke-width=".3" stroke-miterlimit="10" d="M80.308 255.54s-4.983-.875-5.608 0v1.439s5.336-1.814 5.608-1.439zM80.261 256.514s-4.979.9-5.263 1.938l.497 1.35s4.38-3.547 4.766-3.288zM84.961 255.54s4.982-.875 5.608 0v1.439c.001 0-5.335-1.814-5.608-1.439z"/><path fill="#F7F8F8" d="M121.655 190.74s-7.311 18.161-3.144 23.307 16.026 2.813 21.346 8.813 8.802 5.176 8.808 4.338 1.134-22.745-27.01-36.458zM62.74 193.996s5.104 20.532-.896 22.865h-19.984s4.61-13.73 20.88-22.865zM72.57 228.159s-5.56-21.632-1.06-22.965 11.167 0 14.667 5.167 1.708 5.407 6.438 7.537 5.564 2.304 5.729 3.13-24.381 6.763-25.774 7.131z"/></g></svg>