<svg xmlns="http://www.w3.org/2000/svg" xmlns:xlink="http://www.w3.org/1999/xlink" width="210.833" height="315" viewBox="0 0 210.833 315"><g><linearGradient id="a" gradientUnits="userSpaceOnUse" x1="109.94" y1="163.208" x2="200.258" y2="163.208"><stop offset="0" stop-color="#4B3C35"/><stop offset=".327" stop-color="#56443A"/><stop offset=".679" stop-color="#5E4A3E"/><stop offset=".995" stop-color="#604C3F"/></linearGradient><path fill="url(#a)" stroke="#fff" stroke-width=".3" stroke-miterlimit="10" d="M153.091 176.485l-1.396 14.488h1.557l4.522-18.826 1.067-.988s.379-.606 1.071-1.542l19.037 4.542 21.309-12.005-1.5-1.501-18.909 9.604-16.571-4.587c2.304-2.352 5.393-4.864 9.031-6.218 8.066-3.001 10.242-7.803 10.242-7.803l6.303-12.306v-3.902l-6.303 10.805s-4.802 8.404-14.406 11.104c-4.166 1.172-7.65 2.909-10.353 4.842l1.648-19.157 6.605-1.491 1.799-6.103-10.271 7.594-2.776 21.684c-1.787 1.797-2.933 3.627-3.351 5.238-1.09 4.201-18.118 8.103-23.565 8.103-4.646 0-12.681-3.708-14.948-4.802l-.613-.3-2.381 12.905 36.262-3.001 6.89-6.377z"/><linearGradient id="b" gradientUnits="userSpaceOnUse" x1="119.868" y1="203.874" x2="208.212" y2="203.874"><stop offset="0" stop-color="#4B3C35"/><stop offset=".327" stop-color="#56443A"/><stop offset=".679" stop-color="#5E4A3E"/><stop offset=".995" stop-color="#604C3F"/></linearGradient><path fill="url(#b)" stroke="#fff" stroke-width=".3" stroke-miterlimit="10" d="M198.308 203.874l-23.86 5.401-11.19-2.996 13.178-6.423 20.973-7.237 2.851-6.753s-18.157 9.004-25.811 9.004c-7.653 0-15.306 3.152-22.559 9.454-.566.493-1.233.972-1.968 1.439-8.67 5.527-27.879 9.239-30.052 7.752v8.366l33.546-10.805 3.621-1.765 15.273 7.617 24.647-10.354 11.255 2.7-.212-12.861-9.692 7.461z"/><linearGradient id="c" gradientUnits="userSpaceOnUse" x1="79.965" y1="178.156" x2="144.664" y2="178.156" gradientTransform="matrix(-.927 -.376 -.376 .927 226.938 50.015)"><stop offset="0" stop-color="#4B3C35"/><stop offset=".327" stop-color="#56443A"/><stop offset=".679" stop-color="#5E4A3E"/><stop offset=".995" stop-color="#604C3F"/></linearGradient><path fill="url(#c)" stroke="#fff" stroke-width=".3" stroke-miterlimit="10" d="M53.698 182.303l-2.971 9.994-1.033-.418 2.062-13.715-.443-.943s-.088-.505-.296-1.312l-13.86-2.105-10.918-13.703 1.401-.593 9.969 11.463 12.235 1.413c-.897-2.182-2.271-4.68-4.323-6.558-4.547-4.163-4.7-7.936-4.7-7.936l-.873-9.866 1.05-2.59 1.277 8.87s.927 6.871 6.577 11.247c2.45 1.899 4.297 3.99 5.571 6l4.06-13.162-3.984-2.767.447-4.536 4.775 7.805-3.991 15.142c.703 1.673.971 3.197.816 4.378-.407 3.083 9.848 10.254 13.464 11.72 3.084 1.25 9.416.95 11.216.834l.487-.034-1.891 9.208-23.267-11.748-2.857-6.088z"/><linearGradient id="d" gradientUnits="userSpaceOnUse" x1="87.078" y1="207.287" x2="158.1" y2="207.287" gradientTransform="matrix(-.927 -.376 -.376 .927 226.938 50.015)"><stop offset="0" stop-color="#4B3C35"/><stop offset=".327" stop-color="#56443A"/><stop offset=".679" stop-color="#5E4A3E"/><stop offset=".995" stop-color="#604C3F"/></linearGradient><path fill="url(#d)" stroke="#fff" stroke-width=".3" stroke-miterlimit="10" d="M16.31 188.321l14.387 10.005 8.235 1.021-7.02-7.809-11.977-10.447-.076-5.25s9.633 10.863 14.713 12.922c5.082 2.06 9.314 6.211 12.434 12.346.243.479.558.977.919 1.485 4.27 6.001 16.024 13.634 17.866 13.232l-2.25 5.554-19.366-16.199-1.929-2.146-12.188.948-13.578-13.505-8.199-1.235-5.72-6.493 13.749 5.571z"/><g stroke="#fff" stroke-width=".3" stroke-miterlimit="10"><path d="M102.793 239.121c-4.73 9.697-8.667 10.087-12.311 9.461-1.737.306-3.377-.143-4.973-.462-3.913-.783 0-16.172 0-21.128 0-2.211-.521-4.884-1.569-5.435-1.154 2.067-2.536 5.711-4.146 11.63-2.718 9.989-4.417 11.247-5.454 9.79-2.562 3.6-3.179-5.813-3.179-5.813-.208-7.488-2.735-9.161-4.546-7.99-1.407 2.741-3.962 7.751-6.08 9.39-.673.73-1.324 1.199-1.894 1.195-2.087-.014 0-5.204 0-8.595 0-3.182-6.832 7.176-7.673 8.463l.042.258c.177-.016.357-.026.545-.026 4.44 0 5.937 4.536 4.517 7.626.064 1.959-.821 3.951-2.658 4.877.734 1.045 1.967 1.997 3.14-.853.775-1.883 1.785-3.054 2.597-2.507 1.534-.428 2.815 3.236 1.906 15.544-.142 1.931-.174 3.342-.117 4.325 1.819-.957 6.21-15.031 7.351-17.884.695-1.738 2.061-3.11 3.652-2.344 2.392-.96 5.87 2.299 8.425 17.88.478 2.912.92 5.043 1.342 6.539 1.601-2.526 3.376-11.229 6.405-16.076 3.801-6.082 6.63-6.483 7.384-4.337 3.044-2.234 4.628.154 3.62 3.986-.347 1.319-.281 2.446.06 3.29 1.029-.653 2.104-1.916 3.022-3.982 2.924-6.581 3.116-14.071 3.129-22.26-.73 1.63-1.57 3.457-2.537 5.438z" fill="none"/><path fill="#604C3F" d="M118.095 153.664c4.052 0 6.704-.45 6.503-7.654-.2-7.202 7.903-15.307 7.903-15.307l-38.267 8.105-16.657-4.954s-12.156 48.172-16.207 49.071c-4.053.901-11.706 43.218-11.706 48.622 0 1.902.561 4.838 1.219 8.212l.085-.131-.085-.521s8.403-12.982 8.403-9.309-2.26 9.294 0 9.309c.387.002.81-.203 1.25-.543 1.789-1.941 3.75-5.79 4.888-8.003.316-.618.732-1.089 1.192-1.387l.016-.03c1.695-3.301 5.933-3.019 6.215 7.152 0 0 .332 5.047 1.494 6.68.849-1.193 1.912-3.814 3.237-8.684 2.948-10.833 5.062-13.42 6.363-12.736 2.977-5.331 4.445-.146 4.445 3.722 0 5.368-4.238 22.036 0 22.884.69.138 1.388.297 2.097.42 2.52-.445 5.241-2.479 8.33-8.81 5.217-10.694 6.521-16.694 6.521-7.825l-.001 1.737c3.55-7.893 4.523-11.001 4.523-3.039 0 9.605 0 18.363-3.39 25.991-2.558 5.754-6.236 5.877-7.286 3.29-2.477 1.57-4.681-.481-3.759-3.982.354-1.345.359-2.495.08-3.294-1.22.896-2.674 2.53-4.291 5.116-4.894 7.831-6.766 24.98-9.498 15.297-1.157 1.825-2.222.434-3.604-7.99-1.831-11.161-4.173-15.469-6.164-16.43-.948.381-1.724 1.422-2.206 2.625-1.515 3.785-8.314 25.824-8.797 17.603-.677.355-.998-1.099-.664-5.624.709-9.604-.026-13.504-1.126-14.245-.72.201-1.495 1.297-2.126 2.831-1.415 3.435-2.908 1.774-3.647.547-.167.083-.343.158-.526.222.169 2.39.161 4.685-.188 6.705-1.499 8.704.901 33.014-3 35.115-3.901 2.101 0 15.457 0 15.457s23.861 4.051 27.913 4.952c4.051.9 36.015-2.7 38.717-2.7 2.7 0-4.953-33.765-4.953-37.367s1.351-14.856-.9-18.008c-2.251-3.152 1.801-29.119 10.354-32.341 8.553-3.224 0-11.777 0-11.777l-8.554-5.854s-7.203-10.354-3.151-14.855c4.051-4.502 4.952-15.307 4.501-19.358-.45-4.052-3.151-.901.45-6.753 3.604-5.852.002-12.154 4.054-12.154zm-57.175 60.328c-1.402 0-2.54-1.878-2.54-4.196 0-.276.019-.544.049-.806-.029-.209-.049-.425-.049-.65 0-1.513.701-2.739 1.565-2.739.145 0 .282.046.415.11.181-.067.367-.11.56-.11 1.402 0 2.54 1.879 2.54 4.195 0 2.318-1.138 4.196-2.54 4.196zm17.772 2.103c.009.922.02 1.678.035 2.201.122 4.225-3.826 5.13-2.87 3.826.327-.445.53-3.034.658-6.251-1.558-.444-2.703-1.447-2.975-2.662-.563-.559-.915-1.26-.915-2.033 0-1.795 1.819-3.25 4.068-3.262.041-3.78.026-6.833.026-6.833v-.435l2.01-6s-.046 7.122-.055 13.679c.626.273 1.151.667 1.524 1.15 1.741.525 2.962 1.754 2.962 3.188.001 1.818-1.971 3.292-4.468 3.432z"/><path fill="#3A2C25" d="M71.162 237.164s.617 9.412 3.179 5.813c-1.163-1.633-1.494-6.68-1.494-6.68-.282-10.171-4.52-10.453-6.215-7.152l-.016.03c1.811-1.172 4.339.501 4.546 7.989zM85.509 226.991c0 4.956-3.913 20.346 0 21.128 1.596.319 3.236.768 4.973.462-.709-.123-1.407-.282-2.097-.42-4.238-.848 0-17.516 0-22.884 0-3.868-1.468-9.053-4.445-3.722 1.048.552 1.569 3.225 1.569 5.436zM99.181 259.927c1.049 2.587 4.728 2.464 7.286-3.29 3.39-7.628 3.39-16.386 3.39-25.991 0-7.962-.973-4.854-4.523 3.039-.013 8.189-.205 15.68-3.129 22.26-.92 2.067-1.995 3.329-3.024 3.982zM56.555 251.51c-1.173 2.85-2.406 1.898-3.14.853l-.036.019c.739 1.227 2.232 2.888 3.647-.547.631-1.534 1.406-2.63 2.126-2.831-.812-.548-1.821.623-2.597 2.506zM68.293 250.989c-1.141 2.853-5.532 16.927-7.351 17.884.483 8.221 7.283-13.818 8.797-17.603.481-1.203 1.258-2.244 2.206-2.625-1.591-.767-2.957.605-3.652 2.344zM88.117 256.988c-3.029 4.847-4.804 13.55-6.405 16.076 2.732 9.683 4.604-7.466 9.498-15.297 1.617-2.586 3.071-4.221 4.291-5.116-.753-2.146-3.583-1.744-7.384 4.337zM58.642 231.165c0 3.391-2.087 8.581 0 8.595.57.004 1.221-.465 1.894-1.195-.439.34-.862.546-1.25.543-2.26-.015 0-5.636 0-9.309 0-3.673-8.403 9.309-8.403 9.309l.085.521c.843-1.289 7.674-11.647 7.674-8.464z"/><path fill="#fff" d="M71.945 248.645c1.99.96 4.333 5.269 6.164 16.43 1.382 8.423 2.447 9.814 3.604 7.99-.422-1.496-.865-3.627-1.342-6.539-2.557-15.582-6.035-18.841-8.426-17.881zM61.059 264.548c.909-12.308-.373-15.972-1.906-15.544 1.1.741 1.835 4.641 1.126 14.245-.334 4.525-.013 5.979.664 5.624-.058-.983-.026-2.394.116-4.325zM66.616 229.174c-.46.297-.875.769-1.192 1.387-1.138 2.214-3.099 6.062-4.888 8.003 2.118-1.639 4.673-6.649 6.08-9.39zM79.794 233.187c1.61-5.919 2.992-9.563 4.146-11.63-1.301-.684-3.415 1.903-6.363 12.736-1.325 4.87-2.388 7.491-3.237 8.684 1.038 1.457 2.737.198 5.454-9.79zM102.793 239.121c.966-1.981 1.806-3.808 2.539-5.437l.001-1.737c0-8.869-1.305-2.869-6.521 7.825-3.088 6.331-5.81 8.365-8.33 8.81 3.644.626 7.581.236 12.311-9.461zM99.121 256.637c1.009-3.832-.575-6.221-3.62-3.986.28.799.274 1.949-.08 3.294-.922 3.501 1.283 5.553 3.759 3.982-.341-.844-.406-1.97-.059-3.29z"/><path fill="#3A2C25" d="M78.675 208.325c.009-6.557.055-13.679.055-13.679l-2.01 6v.435s.014 3.053-.026 6.833l.026-.002c.712 0 1.371.157 1.955.413zM76.515 215.871c-.127 3.218-.331 5.807-.658 6.251-.956 1.304 2.992.398 2.87-3.826-.016-.522-.026-1.279-.035-2.201l-.38.027c-.636.001-1.24-.092-1.797-.251zM80.199 209.475c.383.497.614 1.076.614 1.701 0 1.233-.868 2.294-2.134 2.849l.012 2.071c2.498-.14 4.469-1.614 4.469-3.433.001-1.434-1.22-2.663-2.961-3.188zM73.541 213.208c.272 1.215 1.417 2.218 2.975 2.662l.05-1.443c-1.228-.037-2.306-.504-3.025-1.219zM76.72 214.439l-.155-.012-.05 1.443c.557.159 1.161.252 1.797.252l.38-.027-.012-2.071c-.585.257-1.246.415-1.96.415zM60.92 205.602c-.193 0-.379.042-.56.11.662.32 1.15 1.37 1.15 2.629 0 1.513-.701 2.739-1.565 2.739-.736 0-1.349-.892-1.517-2.089-.03.261-.049.529-.049.806 0 2.317 1.137 4.196 2.54 4.196 1.402 0 2.54-1.878 2.54-4.196.001-2.317-1.137-4.195-2.539-4.195z"/></g><linearGradient id="e" gradientUnits="userSpaceOnUse" x1="108.537" y1="103.703" x2="108.537" y2="144.298"><stop offset="0" stop-color="#4B3C35"/><stop offset=".327" stop-color="#56443A"/><stop offset=".679" stop-color="#5E4A3E"/><stop offset=".995" stop-color="#604C3F"/></linearGradient><path fill="url(#e)" stroke="#fff" stroke-width=".3" stroke-miterlimit="10" d="M77.604 134.393s1.651-11.704 4.653-7.052c3 4.652 3.6 4.609 5.551 2.979 1.951-1.628 2.852-3.881 4.202-3.131 1.352.752 4.352.667 5.252-.942.901-1.608 2.702-1.007 3.452.794.75 1.8-1.951 9.304 3.001.75 4.952-8.553 4.952-9.904 4.952-9.904l6.753 3.151-.9 6.452s3.901-1.5 3.901-8.403c0-6.902 5.402-6.302 5.853-4.803.45 1.501-1.8 8.555 2.102 1.052 3.901-7.504 5.702-16.058 6.152-9.004.45 7.053-1.951 12.154 0 10.954 1.951-1.2 1.95-3.751 3.451-6.452 1.501-2.701 4.502-.151 3.152 1.951-1.351 2.101-6.153 5.553-5.703 7.052.451 1.501 9.904-1.051 4.052 1.501-5.853 2.552-6.753 2.852-6.753 4.353 0 1.499-3 4.5.45 3.301 3.452-1.2 1.351 2.25 1.351 2.25l-37.216 13.056-17.708-9.905z"/><path opacity=".5" fill="#4B3C35" d="M114.637 154.476s-9.674 13.865-26.031 12.932c-16.357-.933-13.554.05-13.554.05l37.206 1.685s4.665-7.189 3.717-13.102l-1.338-1.565zM112.136 185.866s-36.548-2.136-40.191 1.397l34.998 4.775c-.001 0 3.344.698 5.193-6.172z"/><path fill="#4B3C35" d="M111.79 206.096s7.137 16.831 5.673 19.905 1.912-1.538 4.781-2.274c2.871-.735 2.294-5.539 2.311-4.451l-3.233-6.068c-.001 0-5.12-4.53-9.532-7.112zM52.087 273.77"/><path opacity=".5" fill="#4B3C35" d="M63.46 288.792c-2.697-8.483 44.786-.375 46.396-8.695 1.61-8.319 5.902 29.041 5.902 29.041s-41.794 12.694-52.298-20.346z"/><g opacity=".4"><defs><path id="f" opacity=".4" d="M126.547 138.784s-57.465 60.06-51.558 75.231c5.907 15.171 10.815 16.333 11.573 26.244s11.042 71.397 29.732 71.873c18.69.477 32.399-63.139 32.399-63.139l-22.146-110.209z"/></defs><clipPath id="g"><use xlink:href="#f" overflow="visible"/></clipPath><g clip-path="url(#g)"><path d="M59.883 211.103c.864 0 1.565-1.227 1.565-2.739 0-1.259-.488-2.309-1.15-2.629-.133-.064-.271-.11-.415-.11-.865 0-1.565 1.227-1.565 2.739 0 .226.02.441.049.65.167 1.197.78 2.089 1.516 2.089zM76.656 214.462c.714 0 1.375-.159 1.96-.415 1.266-.555 2.134-1.615 2.134-2.848 0-.625-.232-1.204-.615-1.701-.373-.483-.898-.876-1.524-1.15-.583-.255-1.243-.413-1.955-.413l-.026.002c-2.249.012-4.068 1.467-4.068 3.263 0 .773.352 1.474.915 2.032.72.714 1.797 1.182 3.024 1.219l.155.011z" fill="none"/><path fill="#463933" d="M118.032 153.687c4.051 0 6.704-.45 6.502-7.653-.2-7.202 7.903-15.307 7.903-15.307l-38.267 8.105-16.657-4.953s-12.156 48.171-16.207 49.071c-4.053.901-11.706 43.218-11.706 48.622 0 1.902.561 4.838 1.219 8.212l.085-.131-.085-.521s8.403-12.982 8.403-9.309-2.26 9.294 0 9.309c.388.002.81-.203 1.25-.543 1.789-1.941 3.75-5.789 4.888-8.003.316-.618.732-1.089 1.192-1.387l.016-.03c1.695-3.301 5.933-3.019 6.215 7.152 0 0 .331 5.047 1.494 6.68.849-1.193 1.912-3.814 3.237-8.684 2.948-10.833 5.062-13.42 6.363-12.736 2.977-5.331 4.445-.146 4.445 3.722 0 5.368-4.238 22.036 0 22.884.69.138 1.388.297 2.097.42 2.52-.445 5.242-2.479 8.33-8.809 5.217-10.695 6.521-16.694 6.521-7.826l-.001 1.737c3.55-7.893 4.524-11.001 4.524-3.039 0 9.605 0 18.363-3.39 25.992-2.557 5.753-6.236 5.877-7.286 3.29-2.476 1.571-4.681-.48-3.759-3.982.354-1.345.359-2.495.08-3.294-1.22.896-2.674 2.53-4.291 5.116-4.894 7.83-6.766 24.979-9.498 15.296-1.157 1.825-2.222.434-3.604-7.989-1.831-11.161-4.173-15.47-6.164-16.43-.948.38-1.724 1.422-2.206 2.625-1.515 3.786-8.314 25.824-8.797 17.604-.677.355-.999-1.1-.664-5.625.709-9.604-.026-13.504-1.126-14.245-.72.201-1.495 1.298-2.126 2.831-1.415 3.435-2.908 1.774-3.647.547-.167.083-.343.158-.526.222.169 2.389.161 4.685-.188 6.705-1.499 8.704.901 33.014-3 35.115v15.457s23.861 4.051 27.913 4.952c4.052.9 36.015-2.7 38.717-2.7 2.7 0-4.953-33.766-4.953-37.367 0-3.602 1.351-14.856-.9-18.008-2.251-3.151 1.801-29.119 10.354-32.341 8.553-3.224 0-11.777 0-11.777l-8.554-5.853s-7.203-10.354-3.151-14.856c4.051-4.502 4.952-15.307 4.501-19.358-.45-4.052-3.151-.901.45-6.753s.001-12.157 4.054-12.157zm-57.175 60.328c-1.403 0-2.54-1.878-2.54-4.195 0-.276.019-.545.049-.806-.029-.209-.049-.425-.049-.65 0-1.512.701-2.739 1.565-2.739.145 0 .282.046.415.11.18-.067.366-.11.56-.11 1.402 0 2.54 1.879 2.54 4.195 0 2.317-1.138 4.195-2.54 4.195zm17.771 2.104c.009.922.02 1.678.035 2.201.122 4.224-3.826 5.13-2.869 3.826.326-.445.53-3.034.657-6.252-1.558-.444-2.703-1.447-2.975-2.662-.563-.559-.915-1.259-.915-2.032 0-1.795 1.819-3.25 4.068-3.263.041-3.78.026-6.833.026-6.833v-.435l2.01-5.999s-.046 7.121-.055 13.678c.626.274 1.151.667 1.524 1.15 1.741.525 2.962 1.755 2.962 3.188.002 1.818-1.97 3.292-4.468 3.433zM71.099 237.187s.617 9.413 3.179 5.813c-1.163-1.633-1.494-6.68-1.494-6.68-.282-10.171-4.521-10.453-6.215-7.152l-.016.03c1.81-1.172 4.338.501 4.546 7.989zM56.963 251.857c.631-1.533 1.406-2.63 2.126-2.831-.812-.547-1.822.624-2.597 2.507-1.173 2.85-2.406 1.898-3.14.854l-.036.018c.739 1.227 2.232 2.887 3.647-.548zM68.229 251.012c-1.141 2.852-5.532 16.927-7.351 17.884.483 8.221 7.282-13.818 8.797-17.604.481-1.202 1.258-2.244 2.206-2.625-1.59-.766-2.956.606-3.652 2.345zM58.579 231.188c0 3.391-2.087 8.582 0 8.595.57.004 1.221-.465 1.894-1.195-.439.34-.862.546-1.25.543-2.26-.015 0-5.636 0-9.309l-8.403 9.309.085.521c.842-1.289 7.674-11.647 7.674-8.464zM71.881 248.668c1.99.96 4.333 5.269 6.164 16.43 1.382 8.423 2.447 9.814 3.604 7.989-.422-1.496-.865-3.626-1.342-6.539-2.556-15.581-6.034-18.84-8.426-17.88zM60.995 264.571c.909-12.308-.372-15.972-1.906-15.544 1.1.741 1.835 4.641 1.126 14.245-.334 4.525-.013 5.979.664 5.625-.058-.984-.026-2.396.116-4.326zM66.553 229.197c-.46.298-.875.769-1.192 1.387-1.138 2.214-3.099 6.063-4.888 8.003 2.117-1.639 4.673-6.649 6.08-9.39zM78.611 208.348c.009-6.557.055-13.678.055-13.678l-2.01 5.999v.435s.014 3.053-.026 6.833l.026-.002c.713 0 1.372.158 1.955.413zM76.452 215.894c-.127 3.218-.331 5.807-.657 6.252-.957 1.304 2.991.398 2.869-3.826-.016-.522-.026-1.279-.035-2.201l-.38.027c-.636 0-1.241-.093-1.797-.252zM80.136 209.498c.383.497.615 1.076.615 1.701 0 1.233-.868 2.293-2.134 2.848l.012 2.071c2.498-.141 4.469-1.614 4.469-3.433 0-1.432-1.221-2.662-2.962-3.187zM73.477 213.231c.272 1.215 1.417 2.218 2.975 2.662l.05-1.443c-1.228-.037-2.305-.504-3.025-1.219zM76.656 214.462l-.155-.012-.05 1.443c.557.159 1.161.252 1.797.252l.38-.027-.012-2.071c-.584.257-1.246.415-1.96.415zM60.857 205.625c-.193 0-.379.042-.56.11.662.32 1.15 1.37 1.15 2.629 0 1.513-.701 2.739-1.565 2.739-.736 0-1.349-.892-1.517-2.089-.03.261-.049.53-.049.806 0 2.317 1.137 4.195 2.54 4.195 1.402 0 2.54-1.878 2.54-4.195.001-2.317-1.137-4.195-2.539-4.195z"/></g></g><path fill="#604C3F" d="M77.835 133.019l-1.142 4.273 18.793 10.787 34.966-15.06 2.049-2.94-50.789 4.167zM76.519 137.961"/></g></svg>