<svg xmlns="http://www.w3.org/2000/svg" width="210.833" height="315" viewBox="0 0 210.833 315"><g><path fill="#9C7438" stroke="#fff" stroke-width=".3" stroke-miterlimit="10" d="M155.583 308.486c-5-1.667-15.333-15-21-21.58l-21.821 5.58-11.764 22.469 51.252.045s8.333-4.848 3.333-6.514z"/><path fill="#7E9330" stroke="#fff" stroke-width=".3" stroke-miterlimit="10" d="M84.917 131.486s9.75-19.75 28.75-18c0 0 19.25 7 16.5 45 0 0-1.583 42.667-8.25 48.333 0 0-3 2 2.333 4 0 0 45 10.667 37.333-12.333 0 0-24.333-33.333-1.667-45.667 0 0 16-6.64 21 10.513 0 0 27.783 65.463-23.006 69.047-.652.046-1.316.082-1.994.106 0 0-38.667-6.667-38.667 0l-6.333 77.5s-18 3.5-21.667 0l-6.333-49.167s-16.333 9.667-31.667-19c0 0-15.333-33.667 2-47.667 0 0 17.917-4.667 19.917 13.083l1.25 29.75s2.75 7.25 6.25 6.5c.001.002-6.951-98.997 4.251-111.998z"/><linearGradient id="a" gradientUnits="userSpaceOnUse" x1="98.918" y1="309.236" x2="98.918" y2="258.962"><stop offset="0" stop-color="#4B3C35"/><stop offset=".079" stop-color="#554C37"/><stop offset=".227" stop-color="#646539"/><stop offset=".384" stop-color="#6F7938"/><stop offset=".553" stop-color="#788834"/><stop offset=".744" stop-color="#7D9131"/><stop offset="1" stop-color="#7E9330"/></linearGradient><path fill="url(#a)" d="M82.917 260.82s20.46 5.018 32.002-1.857l-4.076 47.886-10.165 2.388-12.717-9.26-.236-3.148-4.808-36.009z"/><path fill="#91A129" d="M119.981 118.091s-.362-.204-1.061-.45c-3.667-1.291-16.616-3.741-35.356 16.003 0 0 10.936-21.904 30.103-20.158 0 0 3.017 1.107 5.953 4.4"/><path fill="#91A129" d="M151.848 178.991s1.588-26.215 24.162-24.11c0 0-5.759-6.062-16.093-2.062 0 0-8.297 3.376-9.482 13.521 0 .001-.281 5.73 1.413 12.651zM45.479 209.938s9.997-17.694 24.342-11.357c0 0-4.03-6.281-16.394-4.458.001-.001-6.823 4.832-7.948 15.815z"/><path opacity=".3" stroke="#5A642D" stroke-width=".7" stroke-miterlimit="10" d="M93.297 311.378l-8.047-74.392c.333-143.167 31.496-121.72 31.496-121.72s-17.452 67.111-21.142 125.22l4.396 70.892" fill="none"/><path fill="#040000" d="M130.323 155.869l-1.017 15.244-4.639-1.626-12.25-2.375s-2.31-.796-2.996-1.178c0 0-7.391-2.59-14.858-.304-.686.229-3.2-1.752-4.571-.458 0 0-5.105-3.81-8.534-4.039l.142-.045c-1.872-.245-3.729-.607-5.588-1.214l-.282-.108-.596.148-.305 2.037s1.448 2.078 1.219 2.535.686 9.981 6.781 11.81c0 0 6.477 1.448 7.086-5.867 0 0-1.447-4.115.534-3.505 0 0 3.011.964 3.468 2.259 0 0-.573 8.408 4.913 10.694 0 0 8 3.657 10.439-.457 0 0 2.59-.305 2.743-8.229v-1.067l12.655.737 3.375.625-.375 3.75 1.28 1.265 1.376-20.632z"/><path fill="#D7201A" d="M81.792 181.375s10.517 11.499 27.625 3.225c0 .001-19.81 17.047-27.625-3.225z"/><path opacity=".3" stroke="#5A642D" stroke-width=".7" stroke-miterlimit="10" d="M116.746 115.267s20.171 18.72-7.329 120.22l-3.458 75.299M155.526 155.869s5.641 33.95 10.141 37.784c0 0 9.58 16.584-2.585 20.584 0 0-26.911 8.283-48.163-.608M163.082 151.928s39.293 77.539-19.165 72.559l-31.155-1.871M175.722 154.611s18.573 57.781-2.013 73.17M48.547 200.003s.269 67.351 38.986 58.084M56.695 193.652s-2.218 65.885 30.448 60.836M66.442 195.401s-3.364 54.107 20.16 54.085" fill="none"/><path fill="#F39800" stroke="#fff" stroke-width=".3" stroke-miterlimit="10" d="M127.062 115.589l.042-.11c.38-1.7-3.226-3.953-8.055-5.034-3.917-.876-7.435-.712-8.827.289-4.093-.628-7.419-.063-7.754 1.436-.104.462.097.966.527 1.475-1.3.26-2.16.763-2.321 1.485-.38 1.7 3.226 3.953 8.055 5.034 1.411.316 2.766.493 3.993.548 1.173.503 2.54.947 4.023 1.279 4.829 1.081 9.052.579 9.432-1.121.086-.387-.042-.804-.337-1.228 1.615-.218 2.702-.757 2.886-1.579.17-.765-.472-1.642-1.664-2.474z"/><ellipse transform="matrix(.976 .218 -.218 .976 27.974 -22.396)" fill="#fff" cx="115.313" cy="115.362" rx="7.131" ry="2.51"/><path fill="#F7F8F8" d="M89.019 186.023l.315 2.299 3.75.998.801-1.982s-3.704-.817-4.866-1.315"/><path fill="#F39800" stroke="#fff" stroke-width=".3" stroke-miterlimit="10" d="M65.68 300.753s12.958-16.799 36.3 6.701c0 0 14.095-1.5 19.718 0l19.791 7.5h-75.809c0 .001-11.641 1.598 0-14.201z"/><ellipse fill="#fff" cx="75.285" cy="300.856" rx="3.382" ry=".88"/><ellipse fill="#fff" cx="82.458" cy="303.978" rx="2.792" ry=".991"/><ellipse fill="#fff" cx="72.167" cy="305.603" rx="1.75" ry=".634"/><ellipse fill="#fff" cx="84.53" cy="299.356" rx="2.072" ry=".62"/><ellipse fill="#fff" cx="139.203" cy="301.921" rx="2.286" ry="1.065"/><ellipse fill="#fff" cx="143.328" cy="305.285" rx="1.839" ry=".317"/><ellipse fill="#fff" cx="134.292" cy="304.79" rx="2.625" ry=".813"/><ellipse fill="#fff" cx="137.31" cy="308.611" rx="1.893" ry=".625"/></g></svg>