<svg xmlns="http://www.w3.org/2000/svg" width="210.833" height="315" viewBox="0 0 210.833 315"><path fill="#A48B78" d="M97.417 121.083"/><g><path fill="#25231F" stroke="#fff" stroke-width=".3" stroke-miterlimit="10" d="M155.583 308.486c-5-1.667-15.333-15-21-21.58l-21.821 5.58-11.764 22.469 51.252.045s8.333-4.848 3.333-6.514z"/><path fill="#5A662D" stroke="#fff" stroke-width=".3" stroke-miterlimit="10" d="M84.917 131.486s9.75-19.75 28.75-18c0 0 19.25 7 16.5 45 0 0-1.583 42.667-8.25 48.333 0 0-3 2 2.333 4 0 0 45 10.667 37.333-12.333 0 0-24.333-33.333-1.667-45.667 0 0 16-6.64 21 10.513 0 0 27.783 65.463-23.006 69.047-.652.046-1.316.082-1.994.106 0 0-38.667-6.667-38.667 0l-6.333 77.5s-18 3.5-21.667 0l-6.333-49.167s-16.333 9.667-31.667-19c0 0-15.333-33.667 2-47.667 0 0 17.917-4.667 19.917 13.083l1.25 29.75s2.75 7.25 6.25 6.5c.001.002-6.951-98.997 4.251-111.998z"/><linearGradient id="a" gradientUnits="userSpaceOnUse" x1="98.918" y1="309.236" x2="98.918" y2="258.962"><stop offset="0" stop-color="#4B3C35"/><stop offset=".083" stop-color="#4F4534"/><stop offset=".268" stop-color="#545332"/><stop offset=".469" stop-color="#585E30"/><stop offset=".696" stop-color="#5A642E"/><stop offset="1" stop-color="#5A662D"/></linearGradient><path fill="url(#a)" d="M82.917 260.82s20.46 5.018 32.002-1.857l-4.076 47.886-10.165 2.388-12.717-9.26-.236-3.148-4.808-36.009z"/><path fill="#707730" d="M119.981 118.091s-.362-.204-1.061-.45c-3.667-1.291-16.616-3.741-35.356 16.003 0 0 10.936-21.904 30.103-20.158 0 0 3.017 1.107 5.953 4.4"/><path fill="#707730" d="M151.848 178.991s1.588-26.215 24.162-24.11c0 0-5.759-6.062-16.093-2.062 0 0-8.297 3.376-9.482 13.521 0 .001-.281 5.73 1.413 12.651zM45.479 209.938s9.997-17.694 24.342-11.357c0 0-4.03-6.281-16.394-4.458.001-.001-6.823 4.832-7.948 15.815z"/><g stroke="#8FC31F" stroke-width=".7" stroke-miterlimit="10" fill="none"><path opacity=".3" d="M93.297 311.378l-8.047-74.392c.333-143.167 31.496-121.72 31.496-121.72s-17.452 67.111-21.142 125.22l4.396 70.892M116.746 115.267s20.171 18.72-7.329 120.22l-3.458 75.299M155.526 155.869s5.641 33.95 10.141 37.784c0 0 9.58 16.584-2.585 20.584 0 0-26.911 8.283-48.163-.608M163.082 151.928s39.293 77.539-19.165 72.559l-31.155-1.871M175.722 154.611s18.573 57.781-2.013 73.17M48.547 200.003s.269 67.351 38.986 58.084M56.695 193.652s-2.218 65.885 30.448 60.836M66.442 195.401s-3.364 54.107 20.16 54.085"/></g><path d="M130.323 155.869l-1.017 15.244-4.639-1.626-12.25-2.375s-2.31-.796-2.996-1.178c0 0-7.391-2.59-14.858-.304-.686.229-3.2-1.752-4.571-.458 0 0-5.105-3.81-8.534-4.039l.142-.045c-1.872-.245-3.729-.607-5.588-1.214l-.282-.108-.596.148-.305 2.037s1.448 2.078 1.219 2.535.686 9.981 6.781 11.81c0 0 6.477 1.448 7.086-5.867 0 0-1.447-4.115.534-3.505 0 0 3.011.964 3.468 2.259 0 0-.573 8.408 4.913 10.694 0 0 8 3.657 10.439-.457 0 0 2.59-.305 2.743-8.229v-1.067l12.655.737 3.375.625-.375 3.75 1.28 1.265 1.376-20.632z"/><path fill="#463823" stroke="#fff" stroke-width=".3" stroke-miterlimit="10" d="M65.68 300.753s12.958-16.799 36.3 6.701c0 0 14.095-1.5 19.718 0l19.791 7.5h-75.809c0 .001-11.641 1.598 0-14.201z"/><path fill="#5D482A" d="M90.049 179.74s-5.556-2.794-8.699 1.737c-3.144 4.532-2.978 7.571-4.908 6.273 0 0 1.783 6.587 11.145-2.035 0 0 4.508-2.287 2.462-5.975z"/><path fill="#2C150F" d="M90.215 179.078s-5.642-3.499-9.414 1.021c-3.772 4.52-3.885 7.767-5.813 6.204 0 0 1.27 7.172 12.042-1.106.001 0 5.01-2.004 3.185-6.119z"/><path fill="#5D482A" d="M91.412 180.018s6.691-2.767 9.95 2.766c3.26 5.533 2.806 9.046 5.158 7.706 0 0-2.637 7.495-12.764-3.322 0-.001-5.037-3.045-2.344-7.15z"/><path fill="#2C150F" d="M91.275 179.234s6.852-3.576 10.843 1.997 3.842 9.352 6.215 7.703c0 0-2.092 8.219-13.886-2.32 0-.001-5.644-2.759-3.172-7.38z"/><path fill="#DCC47F" stroke="#fff" stroke-width=".3" stroke-miterlimit="10" d="M95.333 113.376l-23.43-6.043 7.097 10.667 65.382 21 12.798-12-29.847-3.833 2.989-15.833c.001-.001-16.655-8.581-34.989 6.042z"/><path fill="#B0774C" d="M129.5 107.333s-13.542 2.917-14.407 14.583c-.343 4.621 11.647 3.75 11.647 3.75v.649l3.364-18.878-.458-.25-.146.146z"/><path fill="#C30D23" stroke="#fff" stroke-width=".3" stroke-miterlimit="10" d="M71.904 107.333l23.429 6.043 32 9.791 29.848 3.833-12.799 12-65.382-21z"/><path fill="#EA972C" d="M79.273 117.939l7.233-6.672 1.348 9.31zM87.854 120.691l7.233-6.97 1.349 9.727zM96.707 123.56l7.62-7.432.961 10.188zM105.288 126.31l7.483-7.247 1.098 10.003zM113.869 129.137l7.527-7.685 1.054 10.441zM122.45 131.824l7.758-8.032.823 10.789zM131.031 134.449l7.969-9.574 5.382 14.125z"/></g></svg>