<svg xmlns="http://www.w3.org/2000/svg" width="210.833" height="315" viewBox="0 0 210.833 315"><g><path fill="#552727" stroke="#fff" stroke-width=".3" stroke-miterlimit="10" d="M111.758 218.828s19.142 20.607 16.834 24.916c-2.307 4.309-5.361 11.36-5.361 11.36l-17.213-32.24 5.74-4.036z"/><path fill="#893637" stroke="#fff" stroke-width=".3" stroke-miterlimit="10" d="M112.421 224.582s19.142 20.607 16.834 24.916l-5.361 11.36-17.212-32.24 5.739-4.036z"/><path fill="#BB7E3A" stroke="#fff" stroke-width=".3" stroke-miterlimit="10" d="M62.727 275.521s-18.659-9.211-23.652 17.994c0 0 1.655 14.352 11.827 16.495 0 0-11.464-2.571-13.178 0-1.714 2.57 6.426 3.641 13.496 3.641l23.35-1.285c-.001 0 11.566-35.63-11.843-36.845zM61.179 245.133s-6.574 9.177-9.694 3.978c-2.647-4.412-6.443-10.148-7.537-11.791.403-.714.653-1.527.653-2.406 0-.969-.29-1.868-.775-2.629.468-.342.775-.89.775-1.514 0-1.038-.841-1.878-1.878-1.878-.83 0-1.526.542-1.774 1.289l-.229-.071c-.268-.711-.948-1.218-1.752-1.218-1.032 0-1.867.832-1.876 1.861l-.335.233c-.305-.213-.674-.34-1.074-.34-1.037 0-1.878.841-1.878 1.878 0 .733.425 1.362 1.039 1.672-.035.236-.072.472-.072.717 0 2.588 2.007 4.687 4.546 4.878l9.942 14.794s13.642 11.426 21.688-5.146c-.002.001-.075-8.284-9.769-4.307z"/><path fill="#893637" d="M44.208 224.917l56.403-26.734 4.223.899c-.001 0-52.06 33.567-60.626 25.835z"/><path fill="#D8B17E" stroke="#fff" stroke-width=".3" stroke-miterlimit="10" d="M105.421 194.012c-2.45-7.714.265-16.907-6.061-23.062-4.75-4.622-10.499-7.296-16.818-9.097-.562-.161-1.064-.374-1.52-.625l-.205.178s-10.292-1.482-14.903-1.297c-6.357.875-13.17 2.108-17.103 6.256-2.179 2.298-3.611 6.635-5.556 10.254.24.248.476.502.722.738 0 0-4.64 8.617-1.657 12.925 2.982 4.309-2.32 5.966 5.303 15.909 0 0-6.628 3.314-10.274 3.977-3.646.663 4.309 7.623 4.309 7.623s9.611 9.28 26.845-1.657c0 0 13.588-.331 16.24.995 2.651 1.326 14.914-.995 14.914-9.611v-1.326s3.646-4.673 5.303-7.308c.204-.324.817-1.201 1.722-2.537-.554-.685-.988-1.477-1.261-2.335z"/><path fill="#C9AE87" stroke="#fff" stroke-width=".3" stroke-miterlimit="10" d="M31.79 134.271l2.997-2.231 17.589 35.979-6.359 9.341c-.001-.001-13.039-10.019-14.227-43.089z"/><path fill="#E9CEA4" stroke="#fff" stroke-width=".3" stroke-miterlimit="10" d="M129.17 132.512s-22.672 29.372-25.616 31.821l-2.943 2.45 6.291 28.721c-.001 0 27.721-35.151 22.268-62.992z"/><path fill="#332823" d="M42.428 211.695c-.068 1.15-1.056 2.029-2.207 1.96l-2.564-.152c-1.151-.068-2.028-1.056-1.96-2.208.068-1.149 1.056-2.028 2.207-1.96l2.564.152c1.151.069 2.028 1.057 1.96 2.208z"/><path fill="#D8B17E" d="M57.459 165.405s-11.164-1.347-15.028 15.567"/><path fill="#B37E23" d="M99.658 206.193"/><path stroke="#332823" stroke-width=".3" stroke-miterlimit="10" fill="none" d="M39.063 213.659l1.875 3.478"/><path fill="#C6974D" d="M107.25 195.504s-1.589-32.177-11.235-35.534"/><linearGradient id="a" gradientUnits="userSpaceOnUse" x1="56.956" y1="161.324" x2="41.556" y2="127.25"><stop offset=".005" stop-color="#7F4F21"/><stop offset="1" stop-color="#604C3F"/></linearGradient><path fill="url(#a)" stroke="#fff" stroke-width=".3" stroke-miterlimit="10" d="M34.786 132.04l16.679 37.314 16.007-4.944-28.298-32.348z"/><linearGradient id="b" gradientUnits="userSpaceOnUse" x1="74.008" y1="187.737" x2="106.841" y2="124.257"><stop offset=".005" stop-color="#BB7E3A"/><stop offset="1" stop-color="#604C3F"/></linearGradient><path fill="url(#b)" stroke="#fff" stroke-width=".3" stroke-miterlimit="10" d="M129.818 127.311h-3.591l-42.005 33.946c-1.453-.335-2.651-.343-3.403.15 0 0-12.689-2.014-15.428-1.273 0 0-19.274 5.562-19.274 11.702 0 0 3.692-1.023 4.826-.263 2.939 1.969 6.438 5.79 6.518 7.862.11 2.872 5.127 2.862 6.628 1.537 1.501-1.326 19.17-18.18 29 5.147 2.952 7.005 12.49 13.571 14.163 7.779 2.492-8.629-.9-16.776-2.797-20.379l24.716-41.007.647-5.201z"/><ellipse fill="#fff" cx="38.208" cy="210.396" rx="1.463" ry=".55"/><ellipse fill="#4B3C35" cx="50.39" cy="194.15" rx="1.243" ry="2.817"/><ellipse fill="#4B3C35" cx="61.827" cy="195.006" rx="1.401" ry="3.176"/><path fill="#D8B17E" stroke="#fff" stroke-width=".3" stroke-miterlimit="10" d="M96.015 215.398s30.327 27.029 31.652 71.219c0 0 2.209 18.56-7.513 21.653h-68.522s-25.619-14.142 19.905-74.681c0 0 2.32-15.463-3.034-17.454-5.354-1.989 22.928-2.477 22.928-2.477l4.584 1.74z"/><path fill="#F2DBDB" stroke="#fff" stroke-width=".3" stroke-miterlimit="10" d="M72.67 248.265s17.35 56.79 4.756 59.762l-25.794.243s-22.547-17.099 5.827-55.685l15.211-4.32z"/><linearGradient id="c" gradientUnits="userSpaceOnUse" x1="135.791" y1="289.082" x2="200.902" y2="247.366"><stop offset=".005" stop-color="#BB7E3A"/><stop offset="1" stop-color="#604C3F"/></linearGradient><path fill="url(#c)" stroke="#fff" stroke-width=".3" stroke-miterlimit="10" d="M127.613 285.285s9.113-22.084 21.043-23.633c11.932-1.548 49.714 1.434 27.508-27.068 0 0 58.331 16.24-1.326 52.697 0 0-16.418 29.595-50.466 17.945l3.241-19.941z"/><path fill="#B63433" stroke="#fff" stroke-width=".3" stroke-miterlimit="10" d="M44.208 224.917l-9.089 12.275 15.62 16.789s47.743-7.843 67.554-34.572c.663-.893 1.294-1.807 1.891-2.742l-8.235-15.439-8.749-2.639c-.001 0-34.296 20.811-58.992 26.328z"/><path fill="#BB7E3A" stroke="#fff" stroke-width=".3" stroke-miterlimit="10" d="M106.513 256.303s-28.868-14.251-36.593 27.84c0 0 2.559 22.206 18.296 25.52 0 0-17.736-3.977-20.387 0s9.942 5.634 20.879 5.634l36.125-1.988c.001 0 17.898-55.125-18.32-57.006zM100.005 237.171s-7.425 10.366-10.949 4.492c-2.99-4.982-7.278-11.46-8.513-13.316.456-.807.738-1.725.738-2.717 0-1.095-.328-2.11-.875-2.97.529-.386.875-1.005.875-1.71 0-1.171-.95-2.122-2.122-2.122-.937 0-1.724.613-2.004 1.456l-.259-.08c-.303-.803-1.071-1.376-1.98-1.376-1.165 0-2.108.939-2.118 2.103l-.379.262c-.343-.24-.761-.384-1.212-.384-1.172 0-2.122.949-2.122 2.122 0 .829.479 1.538 1.173 1.888-.039.267-.082.533-.082.811 0 2.922 2.268 5.293 5.135 5.51l11.229 16.709s15.408 12.906 24.497-5.812c0 0-.083-9.358-11.032-4.866z"/></g></svg>