<svg xmlns="http://www.w3.org/2000/svg" xmlns:xlink="http://www.w3.org/1999/xlink" width="210.833" height="315" viewBox="0 0 210.833 315"><g><path fill="#3E3A39" d="M106.715 87.135s-1.98 7.88-2.359 14.733c-.201 3.631.219 6.973 1.75 8.79 4.42 5.245-8.109-7.43-8.109-7.43s6.326-23.538 8.718-16.093zM126.045 82.202s4.873-13.021 15.125-1.706c0 0 5.764 1.028 6.686 6.25s5.365-14.042-12.316-19.292c0 0-13.43-1.254-9.495 14.748z"/><path fill="#727171" stroke="#F7F8F8" stroke-width=".5" stroke-miterlimit="10" d="M141.67 77.595s-2.953-5.607-7.186-6.12c-2.129-.258-4.584.772-7.148 4.454 0 0-3.506 9.345.967 12.182.307.193.648.357 1.033.485 6 2-9-1-10-4.333 0 0 3 6 7.334 7.333 0 0-5.334 6-17.668-6 0 0-1.334-4-2.666 3.333-1.334 7.333-1.152 5.984-1.152 5.984s-3.348 5.849-2.182 12.183l3.334 4.333-9-4-2.813-2.123-8.139-1.435s-2.633 1.386-.133 7.552l4.602 5.988s1.482 1.518 1.482 4.018c0 0 .174 2.785.586 4.267.156.569.35.946.58.9.834-.167-4.834-5.666-10.833-6.333l-1.025-2.333s-2.35.89-1.497 4.629c.051.225.114.459.189.705 1.333 4.333-9.166-18.167-9.166-18.167s1.786-16.933 4.119-18.599c2.334-1.667-1.666-5.667 4.167-10.5l3.297-4.559s3.249-9.759 10.499-11.009c0 0 3.584-5.25 13.168-4.75l18.832-1.25 26.5 18 7 11-2 11-3.75-3.915s.502-6.752-.832-6.335c0 0-.75 5-4.5 3.833 0 0 4.416-5.5-3.668-10.333.001-.001-.997-1.418-2.331-.085z"/><g opacity=".2"><defs><path id="a" opacity=".2" d="M142.473 85.679s6.209-33.1-35.422-8.146c-3.5 2.098-3.633 14.24-9.055 19.296-3.154 2.941-12.307-2.735-14.724.25-3.187 3.937-2.392 8.7-5.146 9.68-4.315 1.536-5.789-9.237-10.24-16.774-8.48-14.36-10.084 47.883 24.582 48.066 34.668.184 67.637-22.638 67.637-22.638s-2.857-30.281 3.75-37.88c2.562-2.945-20.054 10.102-21.382 8.146z"/></defs><clipPath id="b"><use xlink:href="#a" overflow="visible"/></clipPath><path clip-path="url(#b)" fill="#545454" stroke="#F7F8F8" stroke-width=".5" stroke-miterlimit="10" d="M141.723 78.299s-2.953-5.607-7.186-6.12c-2.129-.258-4.584.772-7.148 4.454 0 0-3.506 9.345.967 12.182.307.193.648.357 1.033.485 6 2-9-1-10-4.333 0 0 3 6 7.334 7.333 0 0-5.334 6-17.668-6 0 0-1.334-4-2.666 3.333-1.334 7.333-1.152 5.984-1.152 5.984s-3.348 5.849-2.182 12.183l3.334 4.333-9-4-2.814-2.123-8.139-1.435s-2.631 1.386-.131 7.552l4.6 5.988s1.484 1.518 1.484 4.018c0 0 .174 2.785.586 4.267.156.569.35.946.58.9.834-.167-4.834-5.666-10.834-6.333l-1.025-2.333s-2.35.89-1.496 4.629c.051.225.113.459.189.705 1.332 4.333-9.167-18.167-9.167-18.167s1.786-16.933 4.12-18.599-1.667-5.667 4.166-10.5l3.297-4.559s3.25-9.759 10.5-11.009c0 0 3.584-5.25 13.168-4.75l18.832-1.25 26.5 18 7 11-2 11-3.75-3.915s.502-6.752-.832-6.335c0 0-.75 5-4.5 3.833 0 0 4.416-5.5-3.668-10.333 0-.002-.998-1.419-2.332-.085z"/></g></g></svg>