<svg xmlns="http://www.w3.org/2000/svg" xmlns:xlink="http://www.w3.org/1999/xlink" width="210.833" height="315" viewBox="0 0 210.833 315"><g><path fill="#3E3A39" d="M106.418 83.345s9.992-5.849 17.508-.355c7.518 5.494-3.482-22.839-11.816-14.506s-4.91 12.908-5.692 14.861z"/><path fill="#595757" stroke="#F7F8F8" stroke-width=".5" stroke-miterlimit="10" d="M150.526 79.651s-3.809-22.416-32.822-24.129c-.275.041-.557.061-.844.045-2.707-.149-5.387-.131-8.084.167-.529.059-1.043-.004-1.525-.157-4.439.095-25.162 3.893-34.64 24.574 0 0-7.584 32.706.251 55 0 0-4.972 14.725 14.777 19.225 19.75 4.5 28.75-1.75 32.5-9 0 0-10.971-.559-13.971-14.559 0 0-1.086-7.552-1.83-8.917-2.217-4.066.945-7.188.992-9.49.066-3.198-7.555-10.721-1.588-22.699 2.686-5.394 3.664-11.513 8.646-14.835 0 0 5.5-4 8.25 2.5s7.973 9.775 11.723 13.525 15.176 7.73 18.676 5.48 5.738-1.48 5.738.52 3.251-9-6.249-17.25z"/><g opacity=".9"><defs><path id="a" opacity=".9" d="M156.958 95.265s-22.178 2.497-27.963-15.876c-5.787-18.374-31.941-15.033-33.863 19.672 0 0-27.45-6.45-8.313 21.377 19.139 27.827 10.588 24.427 2.988 24.127s-12.404 2.762-17.251-8.019c0 0-1.586 43.719 68.907 13.469 0 0 32.995-35.75 15.495-54.75z"/></defs><clipPath id="b"><use xlink:href="#a" overflow="visible"/></clipPath><path clip-path="url(#b)" fill="#444243" stroke="#F7F8F8" stroke-width=".5" stroke-miterlimit="10" d="M150.526 79.775s-3.809-22.416-32.822-24.129c-.275.041-.557.061-.844.045-2.707-.149-5.387-.131-8.084.167-.529.059-1.043-.004-1.525-.157-4.439.095-25.162 3.893-34.64 24.574 0 0-7.584 32.706.251 55 0 0-4.972 14.725 14.777 19.225 19.75 4.5 28.75-1.75 32.5-9 0 0-10.971-.559-13.971-14.559 0 0 .387-4.729-1.83-8.917-2.381-4.499.947-7.251.994-9.554.066-3.198-7.557-10.658-1.59-22.636 2.686-5.394 3.664-11.513 8.646-14.835 0 0 5.5-4 8.25 2.5s7.973 9.775 11.723 13.525 15.176 7.73 18.676 5.48 5.738-1.48 5.738.52 3.251-8.999-6.249-17.249z"/></g><path fill="#424041" d="M91.917 80.151c-3.418 0-9.271 18.519-7.951 38.667 1.119 17.093 8.686 36.237 13.811 37.025.574.088 1.133.155 1.678.203 10.025.888 14.828-4.734 14.828-4.734-21.162-3.007-22.748-58.327-22.748-58.327l.383-11.833"/><path fill="#343535" d="M95.131 121.74s4.598 28.378 18.885 29.552l.266.019s.494.579 3.369-2.634c0 0-14.916 2.278-22.52-26.937z"/><path fill="#424041" d="M71.444 88.655s1.755 41.245 5.582 44.808c0 0-2.167 17.343 14 21.599 0 0-17.69-2.237-18.72-15.658l.971-4.587s-4.5-11.074-3.5-24.87c0 0-.17-9.143.186-12.477l1.481-8.815z"/><path fill="#343535" d="M77.026 133.463s3.293 20.999 18.105 22.176c0 0-10.131 1.076-16.158-10.319-6.026-11.395-.332-.756-.332-.756s-3.031-7.455-1.615-11.101z"/><path fill="#424041" d="M140.643 81.651s-2.281 8.741 2.426 14.417c0 0 3.916.938 5.063.886 1.145-.053-7.855-1.969-7.355-14.803M128.995 71.901s-5.273 6.755-1.371 14.69c0 0 5.613 5.786 9.32 7.351 1.344.567-1.744-2.002-3.234-5.541-2.623-6.223-5.16-15.565-4.684-17"/><path fill="#595757" stroke="#F7F8F8" stroke-width=".5" stroke-miterlimit="10" d="M137.393 94.165c-9.387-7.228-8.367-22.764-8.367-22.764M140.643 81.651s.203 14.272 8.668 15.303"/></g></svg>