<svg xmlns="http://www.w3.org/2000/svg" width="210.833" height="315" viewBox="0 0 210.833 315"><path opacity=".7" fill="#9FA0A0" d="M142.855 68.894c-1.655-.946-3.268-2.057-4.966-2.817-.022.112.476.552-.461-.135-11.293-8.275-27.114-7.159-36.751-5.501-.544.093-1.088.197-1.613.369-11.903 3.9-22.438 28.11-22.438 28.11l-1.686 12.903s4.387 9.589 10.052 17.818c5.664 8.229 15.36 2.839 15.36 2.839l-5.168-15.483c.774-44.034 30.227-25.838 30.227-25.838 11.401 7.532 25.133 8.854 24.481 3.254-.367-3.151 3.593.588 3.593.588-2.658-8.368-6.971-12.805-10.63-16.107z"/></svg>