<svg xmlns="http://www.w3.org/2000/svg" width="210.833" height="315" viewBox="0 0 210.833 315"><g><linearGradient id="a" gradientUnits="userSpaceOnUse" x1="148.185" y1="817.791" x2="148.185" y2="828.738" gradientTransform="matrix(.994 -.107 -.107 -.994 91.383 902.724)"><stop offset="0" stop-color="#727171"/><stop offset="1" stop-color="#3E3A39"/></linearGradient><path fill="url(#a)" d="M146.681 73.237s12.122-11.363 10.017-11.141c-2.104.223-13.53 9.458-13.53 9.458l2.935 2.699.578-1.016z"/><linearGradient id="b" gradientUnits="userSpaceOnUse" x1="145.879" y1="821.78" x2="145.879" y2="837.507" gradientTransform="matrix(.998 -.067 -.067 -.998 56.993 900.408)"><stop offset="0" stop-color="#727171"/><stop offset="1" stop-color="#3E3A39"/></linearGradient><path fill="url(#b)" d="M143.64 69.616s12.999-15.567 10.563-15.143c-2.436.423-14.838 13.174-14.838 13.174l3.701 3.331.574-1.362z"/><linearGradient id="c" gradientUnits="userSpaceOnUse" x1="141.536" y1="825.789" x2="141.536" y2="843.357" gradientTransform="matrix(.999 -.046 -.046 -.999 39.056 898.627)"><stop offset="0" stop-color="#727171"/><stop offset="1" stop-color="#3E3A39"/></linearGradient><path fill="url(#c)" d="M139.193 65.928s13.113-17.322 10.504-16.625c-2.61.698-15.252 15.078-15.252 15.078l4.213 3 .535-1.453z"/><linearGradient id="d" gradientUnits="userSpaceOnUse" x1="136.091" y1="829.785" x2="136.091" y2="847.354" gradientTransform="matrix(.992 -.127 -.127 -.992 108.343 903.817)"><stop offset="0" stop-color="#727171"/><stop offset="1" stop-color="#3E3A39"/></linearGradient><path fill="url(#d)" d="M134.158 62.449s11.653-18.336 9.109-17.428c-2.544.909-13.968 16.274-13.968 16.274l4.444 2.646.415-1.492z"/><linearGradient id="e" gradientUnits="userSpaceOnUse" x1="129.48" y1="834.041" x2="129.48" y2="851.608" gradientTransform="matrix(.936 -.352 -.352 -.936 304.673 886.322)"><stop offset="0" stop-color="#727171"/><stop offset="1" stop-color="#3E3A39"/></linearGradient><path fill="url(#e)" d="M128.77 59.879s7.127-20.523 4.86-19.056c-2.267 1.47-9.854 19.049-9.854 19.049l4.933 1.553.061-1.546z"/><linearGradient id="f" gradientUnits="userSpaceOnUse" x1="123.735" y1="838.231" x2="123.735" y2="857.288" gradientTransform="matrix(.81 -.587 -.587 -.81 519.324 808.508)"><stop offset="0" stop-color="#727171"/><stop offset="1" stop-color="#3E3A39"/></linearGradient><path fill="url(#f)" d="M123.628 58.102s1.565-23.517-.384-21.331c-1.95 2.188-4.842 22.756-4.842 22.756l5.606.209-.38-1.634z"/><linearGradient id="g" gradientUnits="userSpaceOnUse" x1="82.853" y1="852.702" x2="82.853" y2="871.761" gradientTransform="matrix(.088 -.996 -.996 -.088 933.332 220.875)"><stop offset="0" stop-color="#727171"/><stop offset="1" stop-color="#3E3A39"/></linearGradient><path fill="url(#g)" d="M89.359 66.676s-16.722-16.609-16.351-13.704c.372 2.907 13.999 18.583 13.999 18.583l3.836-4.094-1.484-.785z"/><linearGradient id="h" gradientUnits="userSpaceOnUse" x1="75.328" y1="857.691" x2="75.328" y2="876.749" gradientTransform="matrix(-.165 -.986 -.986 .165 944.416 1.232)"><stop offset="0" stop-color="#727171"/><stop offset="1" stop-color="#3E3A39"/></linearGradient><path fill="url(#h)" d="M85.069 71.971s-20.354-11.882-19.267-9.163c1.09 2.721 18.214 14.477 18.214 14.477l2.686-4.926-1.633-.388z"/><linearGradient id="i" gradientUnits="userSpaceOnUse" x1="69.817" y1="861.807" x2="69.817" y2="880.865" gradientTransform="matrix(-.239 -.971 -.971 .239 936.281 -64.964)"><stop offset="0" stop-color="#727171"/><stop offset="1" stop-color="#3E3A39"/></linearGradient><path fill="url(#i)" d="M82.156 77.454s-21.201-10.295-19.909-7.666c1.294 2.63 19.265 13.045 19.265 13.045l2.302-5.116-1.658-.263z"/><linearGradient id="j" gradientUnits="userSpaceOnUse" x1="64.144" y1="866.321" x2="64.144" y2="885.38" gradientTransform="matrix(-.277 -.885 -.843 .268 827.592 -95.12)"><stop offset="0" stop-color="#727171"/><stop offset="1" stop-color="#3E3A39"/></linearGradient><path fill="url(#j)" d="M79.495 83.819s-19.444-8.481-18.125-6.117c1.322 2.366 17.917 11.113 17.917 11.113l1.692-4.834-1.484-.162z"/><linearGradient id="k" gradientUnits="userSpaceOnUse" x1="58.11" y1="870.963" x2="58.11" y2="890.02" gradientTransform="matrix(-.359 -.787 -.765 .351 764.183 -174.048)"><stop offset="0" stop-color="#727171"/><stop offset="1" stop-color="#3E3A39"/></linearGradient><path fill="url(#k)" d="M77.498 89.807s-19.271-5.494-17.765-3.461c1.509 2.034 18.125 8.123 18.125 8.123l1.058-4.692-1.418.03z"/><linearGradient id="l" gradientUnits="userSpaceOnUse" x1="52.711" y1="875.316" x2="52.711" y2="894.375" gradientTransform="matrix(-.383 -.687 -.683 .382 694.091 -205.38)"><stop offset="0" stop-color="#727171"/><stop offset="1" stop-color="#3E3A39"/></linearGradient><path fill="url(#l)" d="M76.262 95.782s-18.156-3.427-16.631-1.702c1.525 1.727 17.268 5.911 17.268 5.911l.67-4.353-1.307.144z"/><linearGradient id="m" gradientUnits="userSpaceOnUse" x1="45.206" y1="879.766" x2="45.206" y2="898.823" gradientTransform="matrix(-.486 -.534 -.556 .503 587.005 -319.655)"><stop offset="0" stop-color="#727171"/><stop offset="1" stop-color="#3E3A39"/></linearGradient><path fill="url(#m)" d="M76.382 101.195s-17.404 1.062-15.666 2.274c1.74 1.215 17.064 1.394 17.064 1.394l-.221-4.098-1.177.43z"/><linearGradient id="n" gradientUnits="userSpaceOnUse" x1="37.382" y1="884.609" x2="37.382" y2="903.666" gradientTransform="matrix(-.58 -.367 -.385 .604 438.22 -416.799)"><stop offset="0" stop-color="#727171"/><stop offset="1" stop-color="#3E3A39"/></linearGradient><path fill="url(#n)" d="M77.227 106.156s-15.719 5.422-13.819 6.092c1.902.672 16.021-3.079 16.021-3.079l-1.229-3.709-.973.696z"/><linearGradient id="o" gradientUnits="userSpaceOnUse" x1="119.127" y1="842.139" x2="119.127" y2="863.502" gradientTransform="matrix(.779 -.628 -.628 -.779 557.687 786.8)"><stop offset="0" stop-color="#727171"/><stop offset="1" stop-color="#3E3A39"/></linearGradient><path fill="url(#o)" d="M117.822 57.387s.449-26.213-1.851-23.674c-2.3 2.542-4.598 25.555-4.598 25.555l7.028-.087-.579-1.794z"/><linearGradient id="p" gradientUnits="userSpaceOnUse" x1="111.838" y1="847.424" x2="111.838" y2="869.101" gradientTransform="matrix(.694 -.72 -.72 -.694 646.7 724.624)"><stop offset="0" stop-color="#727171"/><stop offset="1" stop-color="#3E3A39"/></linearGradient><path fill="url(#p)" d="M110.177 57.501s-3.249-26.057-5.172-23.282c-1.923 2.778-.959 25.865-.959 25.865l6.96-.867-.829-1.716z"/><linearGradient id="q" gradientUnits="userSpaceOnUse" x1="103.338" y1="853.433" x2="103.338" y2="875.109" gradientTransform="matrix(.47 -.883 -.883 -.47 810.224 548.634)"><stop offset="0" stop-color="#727171"/><stop offset="1" stop-color="#3E3A39"/></linearGradient><path fill="url(#q)" d="M102.262 58.558s-10.258-24.172-11.349-20.976c-1.089 3.198 6.158 25.139 6.158 25.139l6.457-2.74-1.266-1.423z"/><linearGradient id="r" gradientUnits="userSpaceOnUse" x1="95.448" y1="859.004" x2="95.448" y2="880.681" gradientTransform="matrix(.313 -.95 -.95 -.313 884.081 418.073)"><stop offset="0" stop-color="#727171"/><stop offset="1" stop-color="#3E3A39"/></linearGradient><path fill="url(#r)" d="M95.008 61.981s-14.239-22.063-14.767-18.728c-.527 3.338 10.364 23.717 10.364 23.717l5.894-3.803-1.491-1.186z"/><linearGradient id="s" gradientUnits="userSpaceOnUse" x1="147.393" y1="824.251" x2="147.393" y2="824.251" gradientTransform="matrix(1 0 0 -1 -.02 894.095)"><stop offset="0" stop-color="#727171"/><stop offset="1" stop-color="#3E3A39"/></linearGradient><path fill="url(#s)" d="M147.373 69.844"/></g></svg>