<svg xmlns="http://www.w3.org/2000/svg" xmlns:xlink="http://www.w3.org/1999/xlink" width="210.833" height="315" viewBox="0 0 210.833 315"><g><path fill="#8A8A8A" stroke="#fff" stroke-width=".5" stroke-miterlimit="10" d="M158.92 86.853c-2.745-.799-2.929-4.792-2.929-4.792-.183-2.556-5.123-4.792-5.123-4.792 4.574-.959-.365-5.432-.365-5.432 5.306 2.237 4.208-3.992 4.208-3.992-1.646-2.716-10.062.479-7.5-1.598.175-.145.321-.297.438-.46 1.588-2.191-1.902-5.931-1.902-5.931-2.885-3.11-8.12.495-8.868 1.037l-.099-.557c-1.097-6.229-4.619.987-5.533-2.048-.916-3.034-6.25-1.75-6.25-1.75-1.463-3.439-4.215 2.521-4.215 2.521s-.834 1.598-.183-.639c.354-1.219.127-1.952-.149-2.377.199.17.272.151-.268-.641-.283.079-.579.144-.895.179-5.038.566-10.268.854-14.81 3.317-2.079 1.128-4.32.756-6.059-.782-.516-.456-2.648-.765-3.328-1.065l-.036-.018c-4.068 1.068-4.199 5.38-4.199 5.38-28.359-1.597-16.284 19.808-16.284 19.808-3.476.958-1.098 2.065-1.098 2.065-5.489.469-2.195 4.804-2.195 4.804l-4.94 6.23c-4.941 11.66 8.781 14.696 8.781 14.696s5.672-10.063 0 .799c-5.671 10.861 6.954 8.306 6.954 8.306s.914-3.674 1.28.32c.366 3.994 4.025-.799 4.025-.799 1.282 3.034 5.672.479 2.745 2.875-1.73 1.415-1.861 2.349-1.68 2.88.475.018 1.41.144 3.144.475 5.854 1.117-3.11-11.823-5.489-14.537-2.379-2.715 4.391-7.508 4.391-7.508 1.281 3.354 7.136-.958 7.136-.958-.915 3.514 5.123 6.07 5.123 6.07 6.587 3.195 6.221-.799 6.221-.799 8.233.639 6.838-4.033 6.838-4.033l-.251-.28c.251.28.549.462.883.566 2.332.729 6.413-2.362 8.814-2.642 2.744-.32-1.463-4.153-1.463-4.153 5.67 2.876 5.306-5.271 5.4-2.236.094 3.036 4.112 1.596 4.112 1.596 2.379 4.314 4.208-4.792 5.673-1.916 1.463 2.875 5.307 2.076 5.307 2.076.371.12.732.231 1.086.337 13.943 4.159 14.466-1.614 14.466-1.614 5.672-5.751-.914-7.988-.914-7.988z"/><g opacity=".5" enable-background="new"><defs><path id="a" d="M139.094 80.913s-4.833 3.113-10.347 2.25c-5.978-.935-12.754-5.865-15.045-6.25-4.797-.806-6.944 6.382-11.332 8.75-4.668 2.52-11.489.33-13.583 2.917-5.871 7.25-4.333 8.675-11.833 7.667s-2.567 13.315 1.917 18.232 24.911 10.416 24.911 10.416 59.635-26.232 59.671-30.482c.017-1.811-12.344-1.335-16.416-4.242-5.768-4.118-.664-5.135-7.943-9.258z"/></defs><clipPath id="b"><use xlink:href="#a" overflow="visible"/></clipPath><path clip-path="url(#b)" fill="#727171" d="M158.92 86.808c-2.745-.799-2.929-4.792-2.929-4.792-.183-2.556-5.123-4.792-5.123-4.792 4.574-.959-.365-5.432-.365-5.432 5.306 2.237 4.208-3.992 4.208-3.992-1.646-2.716-10.062.479-7.5-1.598.175-.145.321-.297.438-.46 1.588-2.191-1.902-5.931-1.902-5.931-2.885-3.11-8.12.495-8.868 1.037l-.099-.557c-1.097-6.229-7.502 3.036-8.416 0-.914-3.034-4.025-.725-4.025-.725-1.463-3.439-3.557-.553-3.557-.553s-.834 1.598-.183-.639c.354-1.219.127-1.952-.149-2.377.199.17.272.151-.268-.641-.283.079-.579.144-.895.179-5.038.566-10.268.854-14.81 3.317-2.079 1.128-4.32.756-6.059-.782-.516-.456-2.648-.765-3.328-1.065l-.036-.018c-4.068 1.068-4.199 5.38-4.199 5.38-28.357-1.597-16.282 19.809-16.282 19.809-3.476.958-1.098 2.065-1.098 2.065-5.489.469-2.195 4.804-2.195 4.804l-4.94 6.23c-4.941 11.66 8.781 14.696 8.781 14.696s5.672-10.063 0 .799c-5.671 10.861 6.954 8.306 6.954 8.306s.914-3.674 1.28.32c.366 3.994 4.025-.799 4.025-.799 1.282 3.034 5.672.479 2.745 2.875-1.73 1.415-1.861 2.349-1.68 2.88.475.018 1.41.144 3.144.475 5.854 1.117-3.11-11.823-5.489-14.537-2.379-2.715 4.391-7.508 4.391-7.508 1.281 3.354 7.136-.958 7.136-.958-.915 3.514 5.123 6.07 5.123 6.07 6.587 3.195 6.221-.799 6.221-.799 8.233.639 6.838-4.033 6.838-4.033l-.251-.28c.251.28.549.462.883.566 2.332.729 6.413-2.362 8.814-2.642 2.744-.32-1.463-4.153-1.463-4.153 5.67 2.876 5.306-5.271 5.4-2.236.094 3.036 4.112 1.596 4.112 1.596 2.379 4.314 4.208-4.792 5.673-1.916.608 1.196 1.629 1.757 2.613 2.003 1.382.346 2.691.073 2.691.073.371.12.733.231 1.088.337 13.941 4.159 14.465-1.614 14.465-1.614 5.672-5.752-.914-7.988-.914-7.988z"/></g></g></svg>