<svg xmlns="http://www.w3.org/2000/svg" width="210.833" height="315" viewBox="0 0 210.833 315"><g><path fill="#EFEFEF" stroke="#fff" stroke-width=".3" stroke-miterlimit="10" d="M149.328 180.37c-4.365-4.566-20.046-10.935-20.393-14.122-.693-6.374 2.699-13.339 2.699-13.339 2.652-6.864 9.256-9.514 9.256-9.514l-27.344-24.034s-23.153-6.905-18.812 0c4.342 6.906-3.376 24.034-3.376 24.034-3.468 6.397-5.417 10.225-10.25 14.106-9.28 7.454-21.492 11.807-21.492 11.807-14 11.362-15.283 24.484-12.563 36.346 0 0 5.176 52.127 30.589 65.011 19.157 9.713 43.538 2.365 55.179-5.752 3.801-2.651 6.802-7.161 6.802-7.161 4.223-15.796 9.622-24.3 10.855-35.242.024-.33-3.028-25.983-2.979-26.341.98-7.131 6.193-11.233 1.829-15.799z"/><path fill="#A4A4A5" d="M129.414 299.914l-19.373 11.357-21.544-11.107.534-59 50.249-5.001z"/><path fill="#727171" d="M109.056 284.664l.985 26.607-25.252-11.482-7.558-29.958z"/><linearGradient gradientUnits="userSpaceOnUse" x1="102.64" y1="283.987" x2="102.64" y2="220.212"><stop offset="0" stop-color="#898989"/><stop offset=".076" stop-color="#A6A6A7"/><stop offset=".161" stop-color="#BEBFBF"/><stop offset=".256" stop-color="#D1D1D2"/><stop offset=".363" stop-color="#DEDFDF"/><stop offset=".489" stop-color="#E8E8E9"/><stop offset=".654" stop-color="#EDEEEE"/><stop offset=".995" stop-color="#EFEFEF"/></linearGradient><linearGradient id="a" gradientUnits="userSpaceOnUse" x1="105.8" y1="297.541" x2="98.116" y2="207.324"><stop offset="0" stop-color="#898989"/><stop offset=".076" stop-color="#A6A6A7"/><stop offset=".161" stop-color="#BEBFBF"/><stop offset=".256" stop-color="#D1D1D2"/><stop offset=".363" stop-color="#DEDFDF"/><stop offset=".489" stop-color="#E8E8E9"/><stop offset=".654" stop-color="#EDEEEE"/><stop offset=".995" stop-color="#EFEFEF"/></linearGradient><path fill="url(#a)" stroke="#fff" stroke-width=".3" stroke-miterlimit="10" d="M60.642 252.468s6.985 12.681 16.587 17.981l31.823 14.214 23.775-10.414s11.215-25.917 13.106-34.998c0 0 9.12-16.623-90.319 2.229 0 .001 3.267 8.118 5.028 10.988z"/><path fill="#EFEFEF" d="M54.5 238.451l.771 1.653.854 2.271 89.521-2.5.781-2.312.069-2.125-7.216-9.24-84.78 12.253"/><linearGradient id="b" gradientUnits="userSpaceOnUse" x1="-161.97" y1="250" x2="-161.97" y2="179.763" gradientTransform="matrix(-1 0 0 1 -100.776 0)"><stop offset="0" stop-color="#EFEFEF"/><stop offset="1" stop-color="#3E3A39"/></linearGradient><path opacity=".7" fill="url(#b)" stroke="#fff" stroke-width=".3" stroke-miterlimit="10" d="M57.941 179.98s13.631 7.395 13.916 25.375c.284 17.979-4.531 44.645-4.531 44.645s-9.669-23.636-13.36-32.944c-3.692-9.308-6.816-40.166 3.975-37.076z"/><path fill="#C9CACA" stroke="#fff" stroke-width=".3" stroke-miterlimit="10" d="M144.523 235.099s-12.459 1.237-22.363-2.577-24.313 13.984-37.13 13.348c-12.818-.636 23.749 21.681 59.493-10.771z"/></g><g><path fill="#898989" d="M142.591 62.336s13.227-.356 20.001 17.474c0 0 4.994 17.896 1.426 25.44 0 0-3.388 5.583-3.031 10.041 0 0-2.99 9.254-7.646 11.937l-4.657 2.684-4.979-60.165-1.114-7.411z"/><path fill="#9FA0A0" stroke="#fff" stroke-width=".3" stroke-miterlimit="10" d="M146.586 62.58l-.006-.064s-16.609-7.31-25.912-4.636c0 0-26.293 4.457-30.685 19.613 0 0-4.963 4.636-6.682 4.813 0 0-8.4 5.057-5.728 19.289 0 0 1.623 2.081-.525 2.541 0 0 8.543 26.994 18.471 20.145s19.128-49.635 44.311-53.739l5.252-.249.499-.223c-1.72-2.194-1.385-5.884 1.005-7.49zM139.942 70.522l.241-.039-.241.039zM140.387 70.45l.417-.068-.417.068zM141.493 70.27l1.412-.23-1.412.23zM143.136 70.002l.81-.132-.81.132z"/><path fill="#727171" d="M135.001 69.656c-.062.039-.278.168-.626.354-1.765.943-6.902 3.274-12.183 1.727 0 0-6.392-2.563-8.936 1.424 0 0 .681 1.282-2.801-.997 0 0-5.675-2.42-11.607 2.136-5.934 4.555-8.256 6.736-10.706 11.839-2.451 5.102 2.064 9.32-2.063 11.91-4.128 2.588 11.488 36.569 18.555 24.87"/><path fill="#EFEFEF" stroke="#fff" stroke-width=".3" stroke-miterlimit="10" d="M146.583 70.293s11.892 9.184 12.606 24.561c0 0 .886 5.073-2.408 13.237l-.172.423s2.216 8.524-6.41 24.036c0 0-8.542 19.256-23.2 12.791l-.185-.032c-15.38-7.909-24.199-15.941-27.701-21.6-.131-.21-.253-.424-.368-.641-3.209-6.061 4.814-22.179 7.311-26.066.001 0 20.967-32.236 40.527-26.709z"/><linearGradient id="c" gradientUnits="userSpaceOnUse" x1="-228.386" y1="108.707" x2="-241.236" y2="87.726" gradientTransform="matrix(-1 0 0 1 -100.776 0)"><stop offset="0" stop-color="#DCDDDD"/><stop offset=".136" stop-color="#CFD0D0"/><stop offset=".408" stop-color="#ABACAC"/><stop offset=".785" stop-color="#6B6A6A"/><stop offset="1" stop-color="#3E3A39"/></linearGradient><path fill="url(#c)" d="M138.854 86.722s2.711 3.224 1.203 19.12l-3.094 2.948s-2.842 3.741-3.957 4.184c-1.114.443-7.684-8.927-8.372-14.365-.688-5.44 7.891-12.197 14.22-11.887z"/><path fill="#B5B5B6" d="M149.22 92.271s-4.368-1.586-3.298 7.062c0 0 0 4.093.519 6.289l.106.397c.624 2.049 4.726 2.852 5.438 0 0 0 1.07-.179.98.445 0 0-.713 2.407 1.516 2.407 0 0 1.159.178 1.426-1.07s3.031-4.19-.624-11c0-.001-2.495-3.568-6.063-4.53z"/><path fill="#898989" d="M153.402 97.913s4.673 3.761 2.334 10.313c0 0-1.605 1.472-2.809-.334l-.534-2.778s-3.409.64-6.251-3.306c0-.001-3.098-8.593 7.26-3.895z"/><path fill="#595757" d="M155.06 96.416s-1.938 2.115-2.674 1.712c-.735-.399-4.011-.667-5.483.335-1.471 1.004-1.149 1.538-1.149 1.538s-.655-8.157 3.021-8.959c-.001 0 3.609.251 6.285 5.374z"/><path fill="#B5B5B6" stroke="#898989" stroke-miterlimit="10" d="M146.068 99.166c-.012-.458 1.994-3.042 6.611-.99 0 0 3.1 2.114 1.254 5.466l-.06-.003c-.125-1.487-.811-5.063-4.52-5.063 0 0-1.692-.33-2.931 1.036l-.143.166.046-.057s-.243-.098-.257-.555z"/><path fill="#595757" stroke="#3E3A39" stroke-miterlimit="10" d="M146.438 101.746s-.473-.146-.37-1.009c0 0 2.136-1.992 5.114-.43 0 0 3.075 1.85 1.886 4.943 0 0-3.513-.797-6.63-3.504z"/><path fill="#DCDDDD" d="M146.835 102.117s-.504-2.363 2.42-1.688c0 0 3.975 1.631 2.478 4.294.001 0-2.967-1.088-4.898-2.606z"/><path fill="#fff" stroke="#727171" stroke-miterlimit="10" d="M152.788 105.551s-2.441.067-4.715-1.37c0 0-1.343-.79-1.708-1.665-.365-.876 2.778 2.167 6.423 3.035z"/><path fill="#898989" d="M151.42 106.219s-.52 1.07-1.649 1.137h-1.189s1.677-.868.535-1.805c-1.145-.936 1.472.602 2.303.668z"/><circle fill="#727171" cx="149.771" cy="102.157" r="1.19"/><circle fill="#fff" stroke="#000" stroke-miterlimit="10" cx="149.771" cy="102.071" r=".655"/><path stroke="#1B1A1A" stroke-width="3" stroke-miterlimit="10" d="M146.365 101.709s1.557-1.841 4.02-.905c0 0 2.803 1.473 1.617 4.045" fill="none"/><path fill="#898989" d="M127.429 84.623s14.042-1.203 10.967 5.751c0 0-1.338 9.026-15.58 5.014 0 0-1.604-.886-2.808 1.028 0 0-10.029-.358-5.349-5.574 0 0 4.948-5.483 12.77-6.219z"/><path fill="#595757" d="M126.641 84.728s3.68 1.635 1.274 2.437c0 0-2.988 1.114-3.656 2.229l-.401.668s5.929-3.878 9.048 1.917c0 0 1.473 3.654 4.325 0 0 0 5.741-5.332-1.632-6.744.001 0-5.286-1.071-8.958-.507z"/><path opacity=".5" fill="#C9CACA" stroke="#727171" stroke-miterlimit="10" d="M132.554 91.383s-1.163-3.082-4.773-2.848c0 0-2.475-.4-7.054 4.211 0 0 .603.468 2.24-1.136 0 0 4.733-3.912 9.587.334v-.561z"/><path fill="#595757" stroke="#3E3A39" stroke-miterlimit="10" d="M132.881 95.788l-1.597-.203s.219-2.691-2.968-3.294c-3.187-.602-4.928 1.7-5.972 2.402l-1.616-.206s3.444-3.956 8.213-2.992c0 0 3.576 1.12 4.033 3.493 0-.001.067.819-.093.8"/><path fill="#B5B5B6" d="M133.832 95.957l-1.504-.268-11.267-1.124s-1.073 1.435-1.003 1.616c.07.179.836-.545 1.505 0 .669.544 5.595 5.054 10.045 1.013 0 0 1.89-.811 2.224-1.237z"/><path fill="#EFEFEF" stroke="#9FA0A0" stroke-miterlimit="10" d="M132.216 95.926s-7.341.092-10.255-1.124c-.001 0 3.435 2.695 10.255 1.124z"/><path fill="#C9CACA" d="M131.252 95.506s.093-2.884-3.568-3.13c0 0-2.906-.443-4.964 2.137l-.085.273s3.377 1.172 8.617.72z"/><path fill="#727171" d="M123.33 89.671s-5.102 4.302-4.135 5.628c.967 1.326.29 1.112.29 1.112s-4.165-.579-5.09-1.805c-.001.001 2.73-3.489 8.935-4.935zM131.286 95.521"/><path fill="#727171" d="M129.251 96.712s.365 1.735-1.241 1.886-4.453-1.43-4.681-1.886c-.228-.454 5.591.828 5.922 0z"/><ellipse fill="#727171" cx="128.01" cy="93.978" rx="1.583" ry="1.623"/><circle fill="#fff" stroke="#000" stroke-miterlimit="10" cx="128.01" cy="93.978" r=".638"/><path stroke="#1B1A1A" stroke-width="3" stroke-miterlimit="10" d="M131.392 95.521s-.017-2.674-3.577-3.325c0 0-3.727-.335-5.299 2.44" fill="none"/><linearGradient id="d" gradientUnits="userSpaceOnUse" x1="-236.059" y1="127.228" x2="-236.059" y2="117.295" gradientTransform="matrix(-1 0 0 1 -100.776 0)"><stop offset="0" stop-color="#DCDDDD"/><stop offset=".136" stop-color="#CFD0D0"/><stop offset=".408" stop-color="#ABACAC"/><stop offset=".785" stop-color="#6B6A6A"/><stop offset="1" stop-color="#3E3A39"/></linearGradient><path fill="url(#d)" d="M139.545 118.313s4.161-1.159 4.161 5.215l-.267 3.7s-13.105-.847-16.582-5.527c.001 0 9.643-6.954 12.688-3.388z"/><path fill="#DCDDDD" stroke="#3E3A39" stroke-miterlimit="10" d="M127.503 122.427l1.144-.548c7.222-3.343 10.757 0 10.757 0 3.477-.267 3.656 4.859 3.656 4.859s-6.963 1.483-15.557-4.311z"/><path fill="#C9CACA" d="M143.493 127.849s-3.097-9.445-16.982-4.914c0 0 6.778 9.146 14.849 6.07l2.134-.989"/><ellipse transform="matrix(.971 .237 -.237 .971 34.017 -28.825)" fill="#898989" cx="136.757" cy="126.908" rx="5.002" ry="2.617"/><path fill="#9FA0A0" d="M142.843 113.201s6.011-4.368.346-4.141c-5.665.227-7.908 3.21-7.908 3.21s4.795 4.293 7.562.931z"/><path fill="#727171" d="M140.725 109.358s6.957-1.462 4.195 1.962c0 0-.122-.216-.59 0 0 0-3.421 1.349-3.604-.287 0 0-.362-1.627-.971-1.433-.609.195.97-.242.97-.242z"/><linearGradient id="e" gradientUnits="userSpaceOnUse" x1="112.641" y1="160.341" x2="127.882" y2="128.245"><stop offset="0" stop-color="#DCDDDD"/><stop offset=".136" stop-color="#CFD0D0"/><stop offset=".408" stop-color="#ABACAC"/><stop offset=".785" stop-color="#6B6A6A"/><stop offset="1" stop-color="#3E3A39"/></linearGradient><path opacity=".8" fill="url(#e)" d="M143.707 141.755s-8.425-13.002-24.845-2.572c0 0-4.386.535-14.192-8.89l23.979 35.531s-.481-14.74 8.109-19.848c-.001 0 4.848-1.937 6.949-4.221z"/></g><g><path fill="#898989" d="M82.856 107.496l1.578 6.353 6.914 7.99 5.599.515 1.391-.25s-1.983-14.711-14.036-17.968c-.205-.055-1.237 3.41-1.446 3.36z"/><path fill="#EFEFEF" stroke="#fff" stroke-width=".3" stroke-miterlimit="10" d="M98.481 122.344l-5.095-1.598s-6.875-7-7.25-8.125l-2-6.375s-1 .5 2.25-2.5l10.375 1.5 5.281.295"/><path fill="#9FA0A0" d="M93.354 114.094l4.168 1.417 1.667 4.917-6.751-2.073-2.166-3.011c-6.771-8.375-1.833-10.333-1.833-10.333 2.998-2.031 7.5 4 7.5 4M94.689 111.177"/><path fill="#727171" d="M94.908 110.922l-1.578 3.203 4.25 1.552z"/></g></svg>