<svg xmlns="http://www.w3.org/2000/svg" xmlns:xlink="http://www.w3.org/1999/xlink" width="210.833" height="315" viewBox="0 0 210.833 315"><g><path fill="#A4A4A5" d="M129.349 299.626l-19.373 11.357-21.544-11.107.534-59 50.249-5.001z"/><path fill="#727171" d="M108.991 284.376l.985 26.607-25.252-11.482-7.558-29.958z"/><path fill="#DCDDDD" stroke="#fff" stroke-width=".3" stroke-miterlimit="10" d="M83.944 114.96l-.504 28.79-3.029 17.46s-28.191 4.856-29.827 10.641c-1.636 5.785-5.911 21.205-5.911 21.205l12.905 38.82 20 38.5 32.377 14 25.542-10.449 10.699-28.945 4.239-64.815-21.606-14.766 2.176-15.193 7.426-6.226"/><linearGradient id="a" gradientUnits="userSpaceOnUse" x1="102.575" y1="283.699" x2="102.575" y2="219.925"><stop offset="0" stop-color="#898989"/><stop offset=".02" stop-color="#909090"/><stop offset=".11" stop-color="#A9AAAA"/><stop offset=".21" stop-color="#BDBDBE"/><stop offset=".323" stop-color="#CBCCCC"/><stop offset=".457" stop-color="#D5D6D6"/><stop offset=".63" stop-color="#DBDBDC"/><stop offset=".99" stop-color="#DCDDDD"/></linearGradient><path fill="url(#a)" d="M146.217 219.925l-87.284 12.789 18.749 37.204 32.294 13.781 25.542-9.771 7.522-24.199"/><path fill="#898989" d="M132.87 173.71l16.691 7.458-20.691-15.208z"/><path fill="#9FA0A0" stroke="#fff" stroke-miterlimit="10" d="M59.849 180.5l-8.266-9.508-5.734 22.341 12.511 39.465 6.756 12.185 8.733-27.108z"/><path fill="#727171" stroke="#F7F8F8" stroke-width=".6" stroke-miterlimit="10" d="M95.099 269.543"/><path fill="#C9CACA" stroke="#F7F8F8" stroke-width=".6" stroke-miterlimit="10" d="M87.442 244.983M109.976 284.376"/></g><g><path fill="#515151" d="M189.071 305.189"/><linearGradient id="b" gradientUnits="userSpaceOnUse" x1="114.085" y1="173.71" x2="114.085" y2="110.333"><stop offset="0" stop-color="#EFEFEF"/><stop offset=".049" stop-color="#E4E4E5"/><stop offset=".142" stop-color="#D3D4D4"/><stop offset=".251" stop-color="#C6C7C7"/><stop offset=".383" stop-color="#BCBDBD"/><stop offset=".562" stop-color="#B6B7B8"/><stop offset="1" stop-color="#B5B5B6"/></linearGradient><path fill="url(#b)" d="M94.303 129.552l4.119 21.09 8.241 16.801 26.207 6.267-4.042-8.308 1.983-14.897 4.772-4.005-26.187-30.015-16.809-6.152.333 19.649"/><path fill="#DCDDDD" stroke="#fff" stroke-width=".3" stroke-miterlimit="10" d="M150.19 75.905l4.76 13.526v18.588l-1.701 3.4 2.834 8.615-2.266 3.626-5.214 2.04v4.988l-1.134 1.359 1.134 2.268-1.134 2.04v4.761l-1.587 7.253-6.8 1.587-29.47-22.215-1.36-13.602v-1.53s-9.011-3.571-9.634-12.186c-.624-8.614 0-.283 0-.283s-.624-11.447 8.897-11.674c0 0 .51-.169 3.457 3.288l.057 3.627 1.813 3.626-1.045 4.931 10.396-9.634 6.461-2.381v-7.141s7.253-2.72 8.727-7.253l12.809-1.624z"/><path fill="#9FA0A0" d="M150.928 104.279s2.549-4.477-1.645-5.1c0 0-5.874-1.927-19.305-2.947l-1.47 1.616.147.594s10.201 5.837 15.301 9.521c.001 0 1.02.397 6.972-3.684z"/><path opacity=".5" fill="#9FA0A0" d="M151.186 105.496l2.163 5.321 1.854-2.66s-1.159-5.286-2.009-4.882c-.85.403-2.008 1.885-2.008 1.885"/><path fill="#898989" d="M143.106 120.94s2.437 4.609 4.1 5.516c1.663.908 1.455.378 1.455.378l.008-1.105 5.262-2.069s-1.983-2.342-8.983-3.514c0 .001-1.162-.943-1.842.794z"/><path fill="#B5B5B6" d="M147.958 133.352s-3.854-3.854-7.764 2.38c0 0 4.478-1.303 5.988.435 1.512 1.738 1.156 1.146 1.156 1.146l1.102-2.875-.482-1.086zM139.706 126.988s-.34 1.389.454 1.587c.792.199 4.08.539 4.08.539l2.976 2.04.708.368.595-1.218v-1.586s-1.473-1.757-5.979-1.134c-4.505.624-.142.028-.142.028l-2.692-.624z"/><path fill="#898989" d="M129.624 99.001s17.196-.181 19.018.895c1.822 1.078 2.589 4.181 2.066 4.533s-5.674 3.76-6.751 3.534c0 0-12.488-8.032-14.333-8.962z"/><path fill="#595757" d="M136.315 101.103s7.085-1.259 9.495.104l4.116 3.791s-5.349 3.346-6.048 2.665c-.701-.681-7.283-2.676-7.563-6.56z"/><path fill="#898989" d="M151.947 106.66l1.474 4.157 1.02-1.778s-1.247-4.25-1.359-3.854c-.001.001-.455-.113-1.135 1.475z"/><path fill="#727171" d="M109.038 91.658l-5.307.437-2.211 5.418v5.195l7.518 10.1-10.697-8.185v-13.574l4.52-3.568 8.092 1.653z"/><path fill="#9FA0A0" d="M103.993 97.053v6.199l3.218 4.501 2.437-3.217z"/><path fill="#B5B5B6" d="M115.304 83.74"/><path fill="#595757" d="M152.418 107.988l.776.569.737 1.371-.737.509z"/><path fill="#9FA0A0" stroke="#fff" stroke-width=".3" stroke-miterlimit="10" d="M89.438 67.518s20.402-8.463 30.226-4.988c0 0 18.015 4.231 18.604 5.743 0 0 18.573.604 16.986 23.877 0 0-.165 4.728-5.025-8.01l.059.107s-3.693-8.11-12.02-6.904c0 0-2.069 8.112-8.342 7.552-1.27-.114-.967 0-.967 0s-.407 4.08.967 5.592c1.375 1.511-2.41 4.307-12.918 9.281l-4.906 4.547-1.052-7.708-.453-5.214s-1.664-3.777-6.802-1.964c-5.138 1.813-4.86 12.001-4.86 12.001s-.053 1.928 2.14 4.925c0 0 4.704 4.987 8.558 6.744 0 0-.851 5.8-6.744 5.951 0 0-13.148 1.341-7.405 11.022l-11.41 3.259s-3.174-2.833-5.101-7.028c-1.927-4.193-9.332-13.602-6.914-30.679-.001.003 3.627-19.794 17.379-28.106z"/><path fill="#9FA0A0" d="M131.771 92.095"/><path fill="#727171" d="M105.433 99.402l.421.113 2.837.767.957 4.254"/><defs><path id="c" d="M135.837 80.957s-9.397.115-11.138 1.507c-1.74 1.393-10.986 12.878-11.236 10.094-.248-2.785 0-.462 0-.462s-6.746-15.96-21.711 5.418c0 0-12.297 6.338-19.142-1.282l-7.077 21.094 15.314 16.008 19.838 4.076 34.119-46.36 1.033-10.093z"/></defs><clipPath id="d"><use xlink:href="#c" overflow="visible"/></clipPath><path clip-path="url(#d)" fill="#898989" d="M89.438 67.518s20.402-8.463 30.226-4.988c0 0 18.015 4.231 18.604 5.743 0 0 18.573.604 16.986 23.877 0 0-.165 4.728-5.025-8.01l.059.107s-3.693-8.11-12.02-6.904c0 0-2.069 8.112-8.342 7.552-1.27-.114-.967 0-.967 0s-.407 4.08.967 5.592c1.375 1.511-2.41 4.307-12.918 9.281l-4.906 4.547-1.052-7.708-.453-5.214s-1.664-3.777-6.802-1.964c-5.138 1.813-4.86 12.001-4.86 12.001s-.053 1.928 2.14 4.925c0 0 4.704 4.987 8.558 6.744 0 0-.851 5.8-6.744 5.951 0 0-13.148 1.341-7.405 11.022l-11.41 3.259s-3.174-2.833-5.101-7.028c-1.927-4.193-9.332-13.602-6.914-30.679-.001.003 3.627-19.794 17.379-28.106z"/><linearGradient id="e" gradientUnits="userSpaceOnUse" x1="123.86" y1="122.878" x2="134.773" y2="115.09"><stop offset="0" stop-color="#EFEFEF"/><stop offset="1" stop-color="#898989"/></linearGradient><path fill="url(#e)" d="M122.032 104.018s12.772 10.19 14.038 12.67c.791 1.55-.58 18.055-.58 18.055l-16.13-25.56 2.483-4.661.189-.504z"/><path fill="#B5B5B6" stroke="#9FA0A0" stroke-width="2" stroke-miterlimit="10" d="M184.574 142.632"/></g></svg>