<svg xmlns="http://www.w3.org/2000/svg" width="210.833" height="315" viewBox="0 0 210.833 315"><g><path fill="#3A210C" d="M69.499 85.374s-32.101-22.522-19.157-36.76c0 0 20.71-12.686 64.719 38.313 0 0-14.16-11.767-30.728-8.211 0 0-6.794 7.6-9.124 13.554-2.331 5.954-5.71-6.896-5.71-6.896z"/><path fill="#54381A" d="M84.333 56.07s6.911-29.202 17.007-25.836c0 0 9.837-1.554 25.111 7.249 0 0 18.121-5.695 28.218 2.589 0 0 4.4 5.436 4.142 10.613-.259 5.178.01 1.294.01 1.294s-1.026 23.289.906 24.847c1.931 1.558-4.023 6.736-4.023 6.736l-57.211-9.579-14.16-17.913z"/><path opacity=".3" fill="#040000" d="M83.345 58.021s8.693-23.596 18.015-20.679c0 0 9.083-1.347 23.186 6.282 0 0 16.731-4.936 26.054 2.244 0 0 4.063 4.712 3.824 9.199-.239 4.487 4.204 2.954 4.204 2.954s-.685 17.454 1.099 18.805c1.783 1.351-8.171 6.736-8.171 6.736l-52.826-8.302-15.385-17.239z"/><path fill="#54381A" d="M158.569 70.003l1.542 22.299s-7.002 3.393-35.133-5.892c0 0-5.792-2.157-7-2.848-1.207-.691-.024 3.249-.024 3.249s28.172 27.989 62.516 17.116c0 0 27.96-7.977 2.935-26.511 0 .001-14.307-7.585-24.836-7.413z"/><path fill="#1D1006" d="M62.805 47.795s21.449 3.354 38.535 20.423c0 0 30.464 39.143 64.634 38.203 0 0-39.881-2.748-67.481-32.438-.001 0-31.06-26.241-35.688-26.188z"/><path fill="#0E0E0D" d="M159.781 77.417c-6.913 6.535-58.441-9.198-58.441-9.198 4.023 6.898 10.798 13.008 14.442 16.012 1.205.636 2.563 1.356 4.112 2.179 25.803 13.72 41.42 7.163 41.42 7.163 3.28-3.711-1.533-16.156-1.533-16.156z"/><path opacity=".4" fill="#040000" d="M97.782 78.814s-32.886-27.97-38.886-22.804c0 0-10.333 9.738 17.729 33.115 0 0 4.709-12.757 21.157-10.311z"/><path opacity=".2" fill="#040000" d="M105.583 80.825s11.307 14.672 24.129 23.787c10.5 7.463 23.08 9.697 22.371 9.722-.176.006.708-6.632.75-6.875l1.009-2.017-2.709-1.645-31.654-24.121-13.896 1.149z"/></g></svg>