<svg xmlns="http://www.w3.org/2000/svg" width="210.833" height="315" viewBox="0 0 210.833 315"><g><path fill="#C6171E" d="M69.996 96.163s-15.679 14.634-16.561 15.419c0 0-6.075 10.593 5.191 10.251 0 0 28.43-18.341 38.949-31.436 10.519-13.095-27.579 5.766-27.579 5.766z"/><path opacity=".5" stroke="#000" stroke-width=".1" stroke-miterlimit="10" d="M53.435 111.582s-2.446 9.579 5.613 7.915c0 0 22.158-13.009 32.878-26.01M55.446 109.845s-3.304 8.37 4.312 6.081c0 0 21.862-13.426 33.173-25.594" fill="none"/><path fill="#fff" d="M140.907 63.762l-.738.508s-6.635-14.767-6.143-17.229c.492-2.462-4.241-7.56-7.048-8.136-.909-.187-1.26-.216-1.363-.18-3.497-1.94-18.797-8.81-40.928 4.858 0 0-21.236 10.629-23.34 22.991 0 0-1.839 4.939 2.362 14.696 1.302 3.023 3.183 6.509 5.879 10.454 0 0 2.116 4.488.733 5.468 0 0 .812 14.67 69.315-32.544l1.271-.876v-.01z"/><g fill="#AF403F"><path d="M83.446 44.162l.331.418.523-.401c.263-.199.53-.379.53-.379l-.292-.446s-.287.193-.556.396l-.536.412zM81.925 45.475l.364.389s.238-.228.488-.444c.245-.222.5-.431.5-.431l-.342-.409s-.26.215-.51.441c-.256.22-.5.454-.5.454zM80.517 46.909l.396.356s.216-.249.449-.482l.459-.473-.375-.379-.47.484c-.237.239-.458.494-.459.494zM79.242 48.467l.43.315.404-.519c.197-.264.414-.512.414-.512l-.408-.344s-.221.255-.424.526l-.416.534zM78.155 50.168l.465.26.327-.568c.169-.281.362-.548.362-.548l-.442-.298s-.198.275-.373.565l-.339.589zM77.298 52.003l.499.188c-.034-.013.522-1.197.521-1.197l-.477-.238c.001-.001-.577 1.232-.543 1.247zM76.743 53.958l.524.096.148-.634.101-.436.068-.192-.509-.16-.071.201-.107.458-.154.667z"/></g><g fill="#AF403F"><path d="M76.468 55.929l.526.085c.007-.205.068-.367.104-.547l.016-.079.074-.704-.529-.061-.078.744.016-.083c-.05.216-.123.443-.129.645zM76.38 57.956l.533-.004-.023-.658c-.016-.166.014-.325.023-.446l.02-.202-.531-.048-.021.214c-.009.128-.04.3-.024.468l.023.676zM76.492 59.962l.53-.053c-.042.001-.085-1.314-.086-1.314l-.533.021.023.676c-.004.341.066.67.066.67zM76.783 61.943l.526-.082-.192-1.31-.53.063zM77.129 63.911l.522-.107-.151-.646-.096-.655-.525.092.098.665.152.651zM77.601 65.851l.518-.124-.314-1.291-.521.113zM78.073 67.789l.514-.14-.314-1.291-.517.13z"/></g><g fill="#AF403F"><path d="M78.64 69.7l.51-.153-.409-1.266-.513.146zM79.259 71.593l.508-.163-.414-1.264-.51.156zM79.878 73.487l.504-.173-.413-1.265-.507.166zM80.507 75.377l.5-.183s-.116-.312-.216-.629l-.207-.632-.503.176.208.635c.101.32.218.633.218.633zM81.246 77.225l.498-.189-.494-1.237-.5.185zM81.985 79.073l.496-.195-.495-1.236-.497.191zM83.223 80.723l-.493.202-.504-1.233.493-.202z"/></g><g fill="#AF403F"><path d="M83.463 82.77l.491-.208-.495-1.237-.492.204zM84.249 84.597l.488-.213-.28-.604c-.148-.299-.26-.613-.26-.613l-.49.21s.113.315.261.615l.281.605zM85.086 86.401l.487-.217-.561-1.209-.489.215zM85.924 88.206l.484-.222-.561-1.209-.486.22zM87.242 89.781l-.483.226-.565-1.206.483-.226zM87.599 91.815l.481-.231-.561-1.208-.482.228zM88.437 93.619l.479-.235-.562-1.208-.48.231z"/></g><g fill="#AF403F"><path d="M90.445 41.013l-.121-.519-.654.161-.655.179.156.51.632-.173.642-.158zM92.378 40.622l-.091-.525-.661.124-.659.131.111.521.649-.129.651-.122zM94.331 40.348l-.061-.529-.668.077-.665.1.081.527.655-.099.658-.076zM96.294 40.179l-.027-.532-1.343.096.051.53zM98.262 40.147l.01-.533s-.337-.016-.673-.002l-.673.013.016.533.661-.014c.33-.013.659.003.659.003zM100.223 40.268l.054-.53-.671-.071-.674-.026-.023.532.66.026.654.069zM102.161 40.558l.105-.522s-1.328-.257-1.332-.226l-.07.528c.006-.03 1.297.221 1.297.22z"/></g><g fill="#AF403F"><path d="M104.054 41.046l.165-.507-.65-.192-.652-.185-.123.519.631.18.629.185zM105.866 41.762l.233-.48-1.252-.529-.186.499zM107.539 42.746l.308-.436c.007-.011-.276-.2-.576-.364l-.588-.344-.257.467.563.33c.287.157.558.337.55.347zM109.015 43.997l.382-.372c-.011.01-.207-.269-.49-.468l-.536-.428-.336.414.508.403c.267.184.463.462.472.451zM110.747 45.103l-.395.357-.897-.993.395-.357zM111.666 46.941l.401-.352-.881-1.006-.397.356zM113.362 48.094l-.405.346-.868-1.017.405-.346z"/></g><g fill="#AF403F"><path d="M114.239 49.963l.41-.341-.849-1.034-.407.345zM115.909 51.167l-.414.336-.842-1.039.414-.336zM116.74 53.044l.419-.33-.409-.529-.424-.518-.416.334.422.515.408.528zM117.944 54.622l.423-.324-.811-1.063-.42.328zM119.148 56.199l.428-.318-.811-1.063-.426.322zM120.313 57.805l.433-.311-.382-.549c-.187-.277-.39-.542-.39-.543l-.429.316s.202.264.388.541l.38.546zM121.445 59.432l.438-.303-.764-1.098-.434.308z"/></g><g fill="#AF403F"><path d="M122.578 61.061l.443-.296-.764-1.098-.44.301zM123.65 62.728l.45-.287-.704-1.139-.446.294zM124.686 64.417l.456-.276-.7-1.142-.451.284zM125.722 66.107l.462-.267-.7-1.141-.457.274zM126.673 67.843l.469-.253-.305-.597-.311-.593-.464.263.309.588.302.592zM127.572 69.606l.477-.238-.609-1.194-.471.248zM128.472 71.37l.484-.224-.609-1.194-.479.234z"/></g><ellipse transform="matrix(.89 -.456 .456 .89 -9.518 44.645)" fill="#202020" cx="87.716" cy="42.037" rx="4.252" ry="1.315"/><ellipse transform="matrix(.89 -.456 .456 .89 -9.406 44.547)" fill="#AF403F" cx="87.541" cy="41.75" rx="3.39" ry="1.043"/><path opacity=".3" fill="#B1A7A7" d="M61.919 68.625s42.543-11.234 62.417-27.433c0 0-1.965 19.668-19.677 27.703-9.45 4.288-28.615-1.794-42.74-.27z"/><path fill="#C6171E" d="M64.124 82.201s3.159.729 7.972-2.431l3.86 7.421s-4.804 3.677-7.647 2.601c0 0-4.071-6.534-4.185-7.591"/><path fill="#C6171E" d="M65.221 59.169s1.226 1.619 4.938-3.582c0 0-.48 2.988 2.758 3.063 0 0-2.968 1.575-3.265 5.667.001.001-.533-4.088-4.431-5.148zM90.451 45.101s-.043 2.809-2.076 4.375c0 0 3.846-1.313 8.182 2.258 0 0-1.819-5.862.323-6.766 0 0-3.329 1.93-6.429.133zM107.445 37.231s5.679 1.66 5.143 3.382c0 0 1.83-2.458 4.634-1.335 2.803 1.122-2.612-1.786-2.734-2.806-.001 0-1.098 1.602-7.043.759z"/></g></svg>